%TF.GenerationSoftware,KiCad,Pcbnew,(6.0.4)*%
%TF.CreationDate,2023-10-20T23:52:16+07:00*%
%TF.ProjectId,Sensor_V2.1,53656e73-6f72-45f5-9632-2e312e6b6963,rev?*%
%TF.SameCoordinates,Original*%
%TF.FileFunction,Paste,Top*%
%TF.FilePolarity,Positive*%
%FSLAX46Y46*%
G04 Gerber Fmt 4.6, Leading zero omitted, Abs format (unit mm)*
G04 Created by KiCad (PCBNEW (6.0.4)) date 2023-10-20 23:52:16*
%MOMM*%
%LPD*%
G01*
G04 APERTURE LIST*
G04 Aperture macros list*
%AMRoundRect*
0 Rectangle with rounded corners*
0 $1 Rounding radius*
0 $2 $3 $4 $5 $6 $7 $8 $9 X,Y pos of 4 corners*
0 Add a 4 corners polygon primitive as box body*
4,1,4,$2,$3,$4,$5,$6,$7,$8,$9,$2,$3,0*
0 Add four circle primitives for the rounded corners*
1,1,$1+$1,$2,$3*
1,1,$1+$1,$4,$5*
1,1,$1+$1,$6,$7*
1,1,$1+$1,$8,$9*
0 Add four rect primitives between the rounded corners*
20,1,$1+$1,$2,$3,$4,$5,0*
20,1,$1+$1,$4,$5,$6,$7,0*
20,1,$1+$1,$6,$7,$8,$9,0*
20,1,$1+$1,$8,$9,$2,$3,0*%
G04 Aperture macros list end*
%ADD10RoundRect,0.250000X0.350000X0.450000X-0.350000X0.450000X-0.350000X-0.450000X0.350000X-0.450000X0*%
%ADD11RoundRect,0.250000X-0.450000X0.350000X-0.450000X-0.350000X0.450000X-0.350000X0.450000X0.350000X0*%
%ADD12RoundRect,0.250000X0.450000X-0.350000X0.450000X0.350000X-0.450000X0.350000X-0.450000X-0.350000X0*%
%ADD13RoundRect,0.250000X-0.350000X-0.450000X0.350000X-0.450000X0.350000X0.450000X-0.350000X0.450000X0*%
G04 APERTURE END LIST*
D10*
%TO.C,R27*%
X41817800Y-91694000D03*
X39817800Y-91694000D03*
%TD*%
D11*
%TO.C,R16*%
X97967800Y-54448200D03*
X97967800Y-56448200D03*
%TD*%
D10*
%TO.C,R23*%
X47888400Y-71043800D03*
X45888400Y-71043800D03*
%TD*%
D12*
%TO.C,R3*%
X140863400Y-58820400D03*
X140863400Y-56820400D03*
%TD*%
D10*
%TO.C,R12*%
X159013400Y-89611200D03*
X157013400Y-89611200D03*
%TD*%
D11*
%TO.C,R10*%
X120863400Y-54448200D03*
X120863400Y-56448200D03*
%TD*%
%TO.C,R22*%
X77967800Y-54448200D03*
X77967800Y-56448200D03*
%TD*%
D12*
%TO.C,R17*%
X87967800Y-49920400D03*
X87967800Y-47920400D03*
%TD*%
D10*
%TO.C,R8*%
X152942800Y-68961000D03*
X150942800Y-68961000D03*
%TD*%
D11*
%TO.C,R2*%
X100863400Y-54448200D03*
X100863400Y-56448200D03*
%TD*%
D12*
%TO.C,R25*%
X67967800Y-49920400D03*
X67967800Y-47920400D03*
%TD*%
D13*
%TO.C,R7*%
X150942800Y-71043800D03*
X152942800Y-71043800D03*
%TD*%
D12*
%TO.C,R5*%
X110863400Y-49920400D03*
X110863400Y-47920400D03*
%TD*%
%TO.C,R19*%
X57967800Y-58820400D03*
X57967800Y-56820400D03*
%TD*%
D11*
%TO.C,R14*%
X130863400Y-54448200D03*
X130863400Y-56448200D03*
%TD*%
D13*
%TO.C,R28*%
X39817800Y-89611200D03*
X41817800Y-89611200D03*
%TD*%
D12*
%TO.C,R1*%
X100863400Y-49920400D03*
X100863400Y-47920400D03*
%TD*%
D11*
%TO.C,R6*%
X110863400Y-54448200D03*
X110863400Y-56448200D03*
%TD*%
%TO.C,R4*%
X140863400Y-63348200D03*
X140863400Y-65348200D03*
%TD*%
%TO.C,R18*%
X87967800Y-54448200D03*
X87967800Y-56448200D03*
%TD*%
D12*
%TO.C,R15*%
X97967800Y-49920400D03*
X97967800Y-47920400D03*
%TD*%
%TO.C,R13*%
X130863400Y-49920400D03*
X130863400Y-47920400D03*
%TD*%
D11*
%TO.C,R26*%
X67967800Y-54448200D03*
X67967800Y-56448200D03*
%TD*%
%TO.C,R20*%
X57967800Y-63348200D03*
X57967800Y-65348200D03*
%TD*%
D13*
%TO.C,R11*%
X157013400Y-91694000D03*
X159013400Y-91694000D03*
%TD*%
%TO.C,R24*%
X45888400Y-68961000D03*
X47888400Y-68961000D03*
%TD*%
D12*
%TO.C,R21*%
X77967800Y-49920400D03*
X77967800Y-47920400D03*
%TD*%
%TO.C,R9*%
X120863400Y-49920400D03*
X120863400Y-47920400D03*
%TD*%
M02*
