M48
; DRILL file {KiCad (6.0.4)} date Fri Oct 20 23:52:14 2023
; FORMAT={-:-/ absolute / metric / decimal}
; #@! TF.CreationDate,2023-10-20T23:52:14+07:00
; #@! TF.GenerationSoftware,Kicad,Pcbnew,(6.0.4)
; #@! TF.FileFunction,MixedPlating,1,2
FMAT,2
METRIC
; #@! TA.AperFunction,Plated,PTH,ViaDrill
T1C0.400
; #@! TA.AperFunction,Plated,PTH,ComponentDrill
T2C0.500
; #@! TA.AperFunction,Plated,PTH,ComponentDrill
T3C0.900
; #@! TA.AperFunction,Plated,PTH,ComponentDrill
T4C3.000
%
G90
G05
T1
X43.713Y-89.611
X47.094Y-66.677
X48.006Y-72.898
X86.462Y-60.575
X90.754Y-59.639
X90.941Y-67.115
X91.389Y-58.268
X92.608Y-65.278
X92.774Y-74.549
X92.786Y-75.819
X92.786Y-77.089
X93.777Y-68.402
X94.005Y-70.942
X94.975Y-80.225
X95.875Y-66.525
X97.561Y-69.469
X97.968Y-51.613
X100.863Y-52.654
X101.524Y-74.549
X101.524Y-75.819
X101.524Y-77.089
X101.713Y-66.025
X104.572Y-65.43
X105.715Y-65.811
X106.07Y-81.966
X106.096Y-78.638
X107.417Y-81.966
X108.075Y-66.675
X109.875Y-72.575
X150.825Y-72.644
X151.674Y-66.614
X155.296Y-89.611
T2
X87.597Y-93.32
X87.597Y-101.82
X87.597Y-110.295
X87.597Y-118.77
X87.597Y-135.77
X87.622Y-127.27
X88.256Y-91.729
X88.256Y-94.911
X88.256Y-100.229
X88.256Y-103.411
X88.256Y-108.704
X88.256Y-111.886
X88.256Y-117.179
X88.256Y-120.361
X88.256Y-134.179
X88.256Y-137.361
X88.281Y-125.679
X88.281Y-128.861
X89.847Y-91.07
X89.847Y-95.57
X89.847Y-99.57
X89.847Y-104.07
X89.847Y-108.045
X89.847Y-112.545
X89.847Y-116.52
X89.847Y-121.02
X89.847Y-133.52
X89.847Y-138.02
X89.872Y-125.02
X89.872Y-129.52
X91.438Y-91.729
X91.438Y-94.911
X91.438Y-100.229
X91.438Y-103.411
X91.438Y-108.704
X91.438Y-111.886
X91.438Y-117.179
X91.438Y-120.361
X91.438Y-134.179
X91.438Y-137.361
X91.463Y-125.679
X91.463Y-128.861
X92.097Y-93.32
X92.097Y-101.82
X92.097Y-110.295
X92.097Y-118.77
X92.097Y-135.77
X92.122Y-127.27
X97.147Y-37.295
X97.806Y-35.704
X97.806Y-38.886
X99.397Y-35.045
X99.397Y-39.545
X100.988Y-35.704
X100.988Y-38.886
X101.647Y-37.295
X106.647Y-93.295
X106.647Y-127.295
X106.672Y-101.795
X106.672Y-110.295
X106.672Y-118.77
X106.672Y-135.77
X107.306Y-91.704
X107.306Y-94.886
X107.306Y-125.704
X107.306Y-128.886
X107.331Y-100.204
X107.331Y-103.386
X107.331Y-108.704
X107.331Y-111.886
X107.331Y-117.179
X107.331Y-120.361
X107.331Y-134.179
X107.331Y-137.361
X108.897Y-91.045
X108.897Y-95.545
X108.897Y-125.045
X108.897Y-129.545
X108.922Y-99.545
X108.922Y-104.045
X108.922Y-108.045
X108.922Y-112.545
X108.922Y-116.52
X108.922Y-121.02
X108.922Y-133.52
X108.922Y-138.02
X110.488Y-91.704
X110.488Y-94.886
X110.488Y-125.704
X110.488Y-128.886
X110.513Y-100.204
X110.513Y-103.386
X110.513Y-108.704
X110.513Y-111.886
X110.513Y-117.179
X110.513Y-120.361
X110.513Y-134.179
X110.513Y-137.361
X111.147Y-93.295
X111.147Y-127.295
X111.172Y-101.795
X111.172Y-110.295
X111.172Y-118.77
X111.172Y-135.77
T3
X38.566Y-100.435
X38.566Y-102.975
X39.816Y-94.435
X39.816Y-96.975
X43.766Y-73.635
X43.766Y-76.175
X43.766Y-79.635
X43.766Y-82.175
X54.416Y-56.815
X54.416Y-59.355
X54.416Y-62.815
X54.416Y-65.355
X64.416Y-47.915
X64.416Y-50.455
X64.416Y-53.915
X64.416Y-56.455
X74.416Y-47.915
X74.416Y-50.455
X74.416Y-53.915
X74.416Y-56.455
X84.416Y-47.915
X84.416Y-50.455
X84.416Y-53.915
X84.416Y-56.455
X94.416Y-47.915
X94.416Y-50.455
X94.416Y-53.915
X94.416Y-56.455
X104.416Y-47.915
X104.416Y-50.455
X104.416Y-53.915
X104.416Y-56.455
X114.416Y-47.915
X114.416Y-50.455
X114.416Y-53.915
X114.416Y-56.455
X124.416Y-47.915
X124.416Y-50.455
X124.416Y-53.915
X124.416Y-56.455
X134.416Y-47.915
X134.416Y-50.455
X134.416Y-53.915
X134.416Y-56.455
X144.416Y-56.815
X144.416Y-59.355
X144.416Y-62.815
X144.416Y-65.355
X155.066Y-73.635
X155.066Y-76.175
X155.066Y-79.635
X155.066Y-82.175
X159.016Y-94.435
X159.016Y-96.975
X160.266Y-100.435
X160.266Y-102.975
T4
X89.847Y-93.32
X89.847Y-101.82
X89.847Y-110.295
X89.847Y-118.77
X89.847Y-135.77
X89.872Y-127.27
X99.397Y-37.295
X108.897Y-93.295
X108.897Y-127.295
X108.922Y-101.795
X108.922Y-110.295
X108.922Y-118.77
X108.922Y-135.77
T0
M30
