%TF.GenerationSoftware,KiCad,Pcbnew,(6.0.4)*%
%TF.CreationDate,2023-10-20T23:52:16+07:00*%
%TF.ProjectId,Sensor_V2.1,53656e73-6f72-45f5-9632-2e312e6b6963,rev?*%
%TF.SameCoordinates,Original*%
%TF.FileFunction,Soldermask,Bot*%
%TF.FilePolarity,Negative*%
%FSLAX46Y46*%
G04 Gerber Fmt 4.6, Leading zero omitted, Abs format (unit mm)*
G04 Created by KiCad (PCBNEW (6.0.4)) date 2023-10-20 23:52:16*
%MOMM*%
%LPD*%
G01*
G04 APERTURE LIST*
G04 Aperture macros list*
%AMRoundRect*
0 Rectangle with rounded corners*
0 $1 Rounding radius*
0 $2 $3 $4 $5 $6 $7 $8 $9 X,Y pos of 4 corners*
0 Add a 4 corners polygon primitive as box body*
4,1,4,$2,$3,$4,$5,$6,$7,$8,$9,$2,$3,0*
0 Add four circle primitives for the rounded corners*
1,1,$1+$1,$2,$3*
1,1,$1+$1,$4,$5*
1,1,$1+$1,$6,$7*
1,1,$1+$1,$8,$9*
0 Add four rect primitives between the rounded corners*
20,1,$1+$1,$2,$3,$4,$5,0*
20,1,$1+$1,$4,$5,$6,$7,0*
20,1,$1+$1,$6,$7,$8,$9,0*
20,1,$1+$1,$8,$9,$2,$3,0*%
G04 Aperture macros list end*
%ADD10C,0.800000*%
%ADD11C,6.000000*%
%ADD12R,1.800000X1.800000*%
%ADD13C,1.800000*%
%ADD14R,0.610000X2.000000*%
%ADD15R,2.680000X3.600000*%
%ADD16RoundRect,0.150000X0.825000X0.150000X-0.825000X0.150000X-0.825000X-0.150000X0.825000X-0.150000X0*%
G04 APERTURE END LIST*
D10*
%TO.C,H15*%
X91462990Y-128861390D03*
X91462990Y-125679410D03*
X89872000Y-125020400D03*
X88281010Y-128861390D03*
X89872000Y-129520400D03*
X88281010Y-125679410D03*
X87622000Y-127270400D03*
D11*
X89872000Y-127270400D03*
D10*
X92122000Y-127270400D03*
%TD*%
%TO.C,H6*%
X91437990Y-94911390D03*
X87597000Y-93320400D03*
X88256010Y-91729410D03*
D11*
X89847000Y-93320400D03*
D10*
X89847000Y-91070400D03*
X89847000Y-95570400D03*
X88256010Y-94911390D03*
X92097000Y-93320400D03*
X91437990Y-91729410D03*
%TD*%
%TO.C,H21*%
X108897000Y-125045400D03*
D11*
X108897000Y-127295400D03*
D10*
X107306010Y-128886390D03*
X110487990Y-125704410D03*
X106647000Y-127295400D03*
X108897000Y-129545400D03*
X111147000Y-127295400D03*
X110487990Y-128886390D03*
X107306010Y-125704410D03*
%TD*%
%TO.C,H5*%
X91437990Y-111886390D03*
X89847000Y-108045400D03*
X89847000Y-112545400D03*
X88256010Y-111886390D03*
X92097000Y-110295400D03*
X91437990Y-108704410D03*
X88256010Y-108704410D03*
D11*
X89847000Y-110295400D03*
D10*
X87597000Y-110295400D03*
%TD*%
%TO.C,H1*%
X100987990Y-38886390D03*
X100987990Y-35704410D03*
X97806010Y-35704410D03*
X97147000Y-37295400D03*
X97806010Y-38886390D03*
X101647000Y-37295400D03*
X99397000Y-39545400D03*
D11*
X99397000Y-37295400D03*
D10*
X99397000Y-35045400D03*
%TD*%
D11*
%TO.C,H14*%
X89847000Y-135770400D03*
D10*
X89847000Y-133520400D03*
X91437990Y-134179410D03*
X92097000Y-135770400D03*
X87597000Y-135770400D03*
X88256010Y-134179410D03*
X89847000Y-138020400D03*
X88256010Y-137361390D03*
X91437990Y-137361390D03*
%TD*%
%TO.C,H12*%
X111172000Y-101795400D03*
D11*
X108922000Y-101795400D03*
D10*
X110512990Y-100204410D03*
X107331010Y-100204410D03*
X107331010Y-103386390D03*
X106672000Y-101795400D03*
X108922000Y-104045400D03*
X110512990Y-103386390D03*
X108922000Y-99545400D03*
%TD*%
%TO.C,H10*%
X111172000Y-118770400D03*
X106672000Y-118770400D03*
X110512990Y-120361390D03*
D11*
X108922000Y-118770400D03*
D10*
X107331010Y-120361390D03*
X108922000Y-121020400D03*
X110512990Y-117179410D03*
X107331010Y-117179410D03*
X108922000Y-116520400D03*
%TD*%
%TO.C,H13*%
X107331010Y-108704410D03*
X108922000Y-108045400D03*
X110512990Y-111886390D03*
X108922000Y-112545400D03*
X106672000Y-110295400D03*
X111172000Y-110295400D03*
X107331010Y-111886390D03*
X110512990Y-108704410D03*
D11*
X108922000Y-110295400D03*
%TD*%
D10*
%TO.C,H8*%
X108897000Y-91045400D03*
X107306010Y-91704410D03*
X106647000Y-93295400D03*
X108897000Y-95545400D03*
X110487990Y-91704410D03*
X107306010Y-94886390D03*
X110487990Y-94886390D03*
D11*
X108897000Y-93295400D03*
D10*
X111147000Y-93295400D03*
%TD*%
%TO.C,H7*%
X91437990Y-120361390D03*
X92097000Y-118770400D03*
D11*
X89847000Y-118770400D03*
D10*
X87597000Y-118770400D03*
X89847000Y-121020400D03*
X91437990Y-117179410D03*
X88256010Y-120361390D03*
X88256010Y-117179410D03*
X89847000Y-116520400D03*
%TD*%
%TO.C,H4*%
X87597000Y-101820400D03*
X91437990Y-100229410D03*
D11*
X89847000Y-101820400D03*
D10*
X89847000Y-99570400D03*
X92097000Y-101820400D03*
X89847000Y-104070400D03*
X91437990Y-103411390D03*
X88256010Y-103411390D03*
X88256010Y-100229410D03*
%TD*%
%TO.C,H17*%
X107331010Y-134179410D03*
X110512990Y-134179410D03*
X107331010Y-137361390D03*
X108922000Y-138020400D03*
X108922000Y-133520400D03*
X111172000Y-135770400D03*
X106672000Y-135770400D03*
X110512990Y-137361390D03*
D11*
X108922000Y-135770400D03*
%TD*%
D12*
%TO.C,D6*%
X155065600Y-76175400D03*
D13*
X155065600Y-73635400D03*
%TD*%
D12*
%TO.C,D13*%
X134415600Y-50455400D03*
D13*
X134415600Y-47915400D03*
%TD*%
D12*
%TO.C,D25*%
X64415600Y-50455400D03*
D13*
X64415600Y-47915400D03*
%TD*%
D14*
%TO.C,J1*%
X103915600Y-82659200D03*
X102915600Y-82659200D03*
X101915600Y-82659200D03*
X100915600Y-82659200D03*
X99915600Y-82659200D03*
X98915600Y-82659200D03*
X97915600Y-82659200D03*
X96915600Y-82659200D03*
X95915600Y-82659200D03*
X94915600Y-82659200D03*
D15*
X106905600Y-85459200D03*
X91925600Y-85459200D03*
%TD*%
D12*
%TO.C,D8*%
X155065600Y-79635400D03*
D13*
X155065600Y-82175400D03*
%TD*%
D12*
%TO.C,D26*%
X39815600Y-96975400D03*
D13*
X39815600Y-94435400D03*
%TD*%
D12*
%TO.C,D3*%
X104415600Y-53915400D03*
D13*
X104415600Y-56455400D03*
%TD*%
D12*
%TO.C,D24*%
X43765600Y-79635400D03*
D13*
X43765600Y-82175400D03*
%TD*%
D12*
%TO.C,D9*%
X124415600Y-50455400D03*
D13*
X124415600Y-47915400D03*
%TD*%
D12*
%TO.C,D11*%
X124415600Y-53915400D03*
D13*
X124415600Y-56455400D03*
%TD*%
D12*
%TO.C,D22*%
X43765600Y-76175400D03*
D13*
X43765600Y-73635400D03*
%TD*%
D12*
%TO.C,D17*%
X84415600Y-50455400D03*
D13*
X84415600Y-47915400D03*
%TD*%
D12*
%TO.C,D12*%
X160265600Y-100435400D03*
D13*
X160265600Y-102975400D03*
%TD*%
D12*
%TO.C,D15*%
X94415600Y-50455400D03*
D13*
X94415600Y-47915400D03*
%TD*%
D12*
%TO.C,D20*%
X54415600Y-62815400D03*
D13*
X54415600Y-65355400D03*
%TD*%
D12*
%TO.C,D21*%
X74415600Y-50455400D03*
D13*
X74415600Y-47915400D03*
%TD*%
D12*
%TO.C,D23*%
X74415600Y-53915400D03*
D13*
X74415600Y-56455400D03*
%TD*%
D12*
%TO.C,D16*%
X94415600Y-53915400D03*
D13*
X94415600Y-56455400D03*
%TD*%
D12*
%TO.C,D28*%
X38565600Y-100435400D03*
D13*
X38565600Y-102975400D03*
%TD*%
D12*
%TO.C,D2*%
X144415600Y-59355400D03*
D13*
X144415600Y-56815400D03*
%TD*%
D16*
%TO.C,U1*%
X107890600Y-68199000D03*
X107890600Y-69469000D03*
X107890600Y-70739000D03*
X107890600Y-72009000D03*
X107890600Y-73279000D03*
X107890600Y-74549000D03*
X107890600Y-75819000D03*
X107890600Y-77089000D03*
X102940600Y-77089000D03*
X102940600Y-75819000D03*
X102940600Y-74549000D03*
X102940600Y-73279000D03*
X102940600Y-72009000D03*
X102940600Y-70739000D03*
X102940600Y-69469000D03*
X102940600Y-68199000D03*
%TD*%
%TO.C,U2*%
X95890600Y-68199000D03*
X95890600Y-69469000D03*
X95890600Y-70739000D03*
X95890600Y-72009000D03*
X95890600Y-73279000D03*
X95890600Y-74549000D03*
X95890600Y-75819000D03*
X95890600Y-77089000D03*
X90940600Y-77089000D03*
X90940600Y-75819000D03*
X90940600Y-74549000D03*
X90940600Y-73279000D03*
X90940600Y-72009000D03*
X90940600Y-70739000D03*
X90940600Y-69469000D03*
X90940600Y-68199000D03*
%TD*%
D12*
%TO.C,D14*%
X134415600Y-53915400D03*
D13*
X134415600Y-56455400D03*
%TD*%
D12*
%TO.C,D5*%
X114415600Y-50455400D03*
D13*
X114415600Y-47915400D03*
%TD*%
D12*
%TO.C,D10*%
X159015600Y-96975400D03*
D13*
X159015600Y-94435400D03*
%TD*%
D12*
%TO.C,D1*%
X104415600Y-50455400D03*
D13*
X104415600Y-47915400D03*
%TD*%
D12*
%TO.C,D4*%
X144415600Y-62815400D03*
D13*
X144415600Y-65355400D03*
%TD*%
D12*
%TO.C,D18*%
X54415600Y-59355400D03*
D13*
X54415600Y-56815400D03*
%TD*%
D12*
%TO.C,D7*%
X114415600Y-53915400D03*
D13*
X114415600Y-56455400D03*
%TD*%
D12*
%TO.C,D19*%
X84415600Y-53915400D03*
D13*
X84415600Y-56455400D03*
%TD*%
D12*
%TO.C,D27*%
X64415600Y-53915400D03*
D13*
X64415600Y-56455400D03*
%TD*%
M02*
