%TF.GenerationSoftware,KiCad,Pcbnew,(6.0.4)*%
%TF.CreationDate,2023-10-20T23:52:16+07:00*%
%TF.ProjectId,Sensor_V2.1,53656e73-6f72-45f5-9632-2e312e6b6963,rev?*%
%TF.SameCoordinates,Original*%
%TF.FileFunction,Legend,Bot*%
%TF.FilePolarity,Positive*%
%FSLAX46Y46*%
G04 Gerber Fmt 4.6, Leading zero omitted, Abs format (unit mm)*
G04 Created by KiCad (PCBNEW (6.0.4)) date 2023-10-20 23:52:16*
%MOMM*%
%LPD*%
G01*
G04 APERTURE LIST*
%ADD10C,0.150000*%
%ADD11C,0.120000*%
G04 APERTURE END LIST*
D10*
X104034647Y-86117180D02*
X104034647Y-86831466D01*
X104082266Y-86974323D01*
X104177504Y-87069561D01*
X104320361Y-87117180D01*
X104415600Y-87117180D01*
X103082266Y-87117180D02*
X103558457Y-87117180D01*
X103558457Y-86117180D01*
X102177504Y-87021942D02*
X102225123Y-87069561D01*
X102367980Y-87117180D01*
X102463219Y-87117180D01*
X102606076Y-87069561D01*
X102701314Y-86974323D01*
X102748933Y-86879085D01*
X102796552Y-86688609D01*
X102796552Y-86545752D01*
X102748933Y-86355276D01*
X102701314Y-86260038D01*
X102606076Y-86164800D01*
X102463219Y-86117180D01*
X102367980Y-86117180D01*
X102225123Y-86164800D01*
X102177504Y-86212419D01*
X101463219Y-86117180D02*
X101463219Y-86831466D01*
X101510838Y-86974323D01*
X101606076Y-87069561D01*
X101748933Y-87117180D01*
X101844171Y-87117180D01*
X100510838Y-87117180D02*
X100987028Y-87117180D01*
X100987028Y-86117180D01*
X99606076Y-87021942D02*
X99653695Y-87069561D01*
X99796552Y-87117180D01*
X99891790Y-87117180D01*
X100034647Y-87069561D01*
X100129885Y-86974323D01*
X100177504Y-86879085D01*
X100225123Y-86688609D01*
X100225123Y-86545752D01*
X100177504Y-86355276D01*
X100129885Y-86260038D01*
X100034647Y-86164800D01*
X99891790Y-86117180D01*
X99796552Y-86117180D01*
X99653695Y-86164800D01*
X99606076Y-86212419D01*
X98891790Y-86117180D02*
X98891790Y-86831466D01*
X98939409Y-86974323D01*
X99034647Y-87069561D01*
X99177504Y-87117180D01*
X99272742Y-87117180D01*
X97939409Y-87117180D02*
X98415600Y-87117180D01*
X98415600Y-86117180D01*
X97034647Y-87021942D02*
X97082266Y-87069561D01*
X97225123Y-87117180D01*
X97320361Y-87117180D01*
X97463219Y-87069561D01*
X97558457Y-86974323D01*
X97606076Y-86879085D01*
X97653695Y-86688609D01*
X97653695Y-86545752D01*
X97606076Y-86355276D01*
X97558457Y-86260038D01*
X97463219Y-86164800D01*
X97320361Y-86117180D01*
X97225123Y-86117180D01*
X97082266Y-86164800D01*
X97034647Y-86212419D01*
X96320361Y-86117180D02*
X96320361Y-86831466D01*
X96367980Y-86974323D01*
X96463219Y-87069561D01*
X96606076Y-87117180D01*
X96701314Y-87117180D01*
X95367980Y-87117180D02*
X95844171Y-87117180D01*
X95844171Y-86117180D01*
X94463219Y-87021942D02*
X94510838Y-87069561D01*
X94653695Y-87117180D01*
X94748933Y-87117180D01*
X94891790Y-87069561D01*
X94987028Y-86974323D01*
X95034647Y-86879085D01*
X95082266Y-86688609D01*
X95082266Y-86545752D01*
X95034647Y-86355276D01*
X94987028Y-86260038D01*
X94891790Y-86164800D01*
X94748933Y-86117180D01*
X94653695Y-86117180D01*
X94510838Y-86164800D01*
X94463219Y-86212419D01*
X94030800Y-87452200D02*
X104800400Y-87452200D01*
X104800400Y-87452200D02*
X104800400Y-85826600D01*
X104800400Y-85826600D02*
X94030800Y-85826600D01*
X94030800Y-85826600D02*
X94030800Y-87452200D01*
%TO.C,D6*%
X152572980Y-74167304D02*
X151572980Y-74167304D01*
X151572980Y-74405400D01*
X151620600Y-74548257D01*
X151715838Y-74643495D01*
X151811076Y-74691114D01*
X152001552Y-74738733D01*
X152144409Y-74738733D01*
X152334885Y-74691114D01*
X152430123Y-74643495D01*
X152525361Y-74548257D01*
X152572980Y-74405400D01*
X152572980Y-74167304D01*
X151572980Y-75595876D02*
X151572980Y-75405400D01*
X151620600Y-75310161D01*
X151668219Y-75262542D01*
X151811076Y-75167304D01*
X152001552Y-75119685D01*
X152382504Y-75119685D01*
X152477742Y-75167304D01*
X152525361Y-75214923D01*
X152572980Y-75310161D01*
X152572980Y-75500638D01*
X152525361Y-75595876D01*
X152477742Y-75643495D01*
X152382504Y-75691114D01*
X152144409Y-75691114D01*
X152049171Y-75643495D01*
X152001552Y-75595876D01*
X151953933Y-75500638D01*
X151953933Y-75310161D01*
X152001552Y-75214923D01*
X152049171Y-75167304D01*
X152144409Y-75119685D01*
%TO.C,D13*%
X131897380Y-47960114D02*
X130897380Y-47960114D01*
X130897380Y-48198209D01*
X130945000Y-48341066D01*
X131040238Y-48436304D01*
X131135476Y-48483923D01*
X131325952Y-48531542D01*
X131468809Y-48531542D01*
X131659285Y-48483923D01*
X131754523Y-48436304D01*
X131849761Y-48341066D01*
X131897380Y-48198209D01*
X131897380Y-47960114D01*
X131897380Y-49483923D02*
X131897380Y-48912495D01*
X131897380Y-49198209D02*
X130897380Y-49198209D01*
X131040238Y-49102971D01*
X131135476Y-49007733D01*
X131183095Y-48912495D01*
X130897380Y-49817257D02*
X130897380Y-50436304D01*
X131278333Y-50102971D01*
X131278333Y-50245828D01*
X131325952Y-50341066D01*
X131373571Y-50388685D01*
X131468809Y-50436304D01*
X131706904Y-50436304D01*
X131802142Y-50388685D01*
X131849761Y-50341066D01*
X131897380Y-50245828D01*
X131897380Y-49960114D01*
X131849761Y-49864876D01*
X131802142Y-49817257D01*
%TO.C,D25*%
X61894980Y-47960114D02*
X60894980Y-47960114D01*
X60894980Y-48198209D01*
X60942600Y-48341066D01*
X61037838Y-48436304D01*
X61133076Y-48483923D01*
X61323552Y-48531542D01*
X61466409Y-48531542D01*
X61656885Y-48483923D01*
X61752123Y-48436304D01*
X61847361Y-48341066D01*
X61894980Y-48198209D01*
X61894980Y-47960114D01*
X60990219Y-48912495D02*
X60942600Y-48960114D01*
X60894980Y-49055352D01*
X60894980Y-49293447D01*
X60942600Y-49388685D01*
X60990219Y-49436304D01*
X61085457Y-49483923D01*
X61180695Y-49483923D01*
X61323552Y-49436304D01*
X61894980Y-48864876D01*
X61894980Y-49483923D01*
X60894980Y-50388685D02*
X60894980Y-49912495D01*
X61371171Y-49864876D01*
X61323552Y-49912495D01*
X61275933Y-50007733D01*
X61275933Y-50245828D01*
X61323552Y-50341066D01*
X61371171Y-50388685D01*
X61466409Y-50436304D01*
X61704504Y-50436304D01*
X61799742Y-50388685D01*
X61847361Y-50341066D01*
X61894980Y-50245828D01*
X61894980Y-50007733D01*
X61847361Y-49912495D01*
X61799742Y-49864876D01*
%TO.C,J1*%
X99748933Y-79911580D02*
X99748933Y-80625866D01*
X99796552Y-80768723D01*
X99891790Y-80863961D01*
X100034647Y-80911580D01*
X100129885Y-80911580D01*
X98748933Y-80911580D02*
X99320361Y-80911580D01*
X99034647Y-80911580D02*
X99034647Y-79911580D01*
X99129885Y-80054438D01*
X99225123Y-80149676D01*
X99320361Y-80197295D01*
%TO.C,D8*%
X152557980Y-80167304D02*
X151557980Y-80167304D01*
X151557980Y-80405400D01*
X151605600Y-80548257D01*
X151700838Y-80643495D01*
X151796076Y-80691114D01*
X151986552Y-80738733D01*
X152129409Y-80738733D01*
X152319885Y-80691114D01*
X152415123Y-80643495D01*
X152510361Y-80548257D01*
X152557980Y-80405400D01*
X152557980Y-80167304D01*
X151986552Y-81310161D02*
X151938933Y-81214923D01*
X151891314Y-81167304D01*
X151796076Y-81119685D01*
X151748457Y-81119685D01*
X151653219Y-81167304D01*
X151605600Y-81214923D01*
X151557980Y-81310161D01*
X151557980Y-81500638D01*
X151605600Y-81595876D01*
X151653219Y-81643495D01*
X151748457Y-81691114D01*
X151796076Y-81691114D01*
X151891314Y-81643495D01*
X151938933Y-81595876D01*
X151986552Y-81500638D01*
X151986552Y-81310161D01*
X152034171Y-81214923D01*
X152081790Y-81167304D01*
X152177028Y-81119685D01*
X152367504Y-81119685D01*
X152462742Y-81167304D01*
X152510361Y-81214923D01*
X152557980Y-81310161D01*
X152557980Y-81500638D01*
X152510361Y-81595876D01*
X152462742Y-81643495D01*
X152367504Y-81691114D01*
X152177028Y-81691114D01*
X152081790Y-81643495D01*
X152034171Y-81595876D01*
X151986552Y-81500638D01*
%TO.C,D26*%
X43227980Y-94491114D02*
X42227980Y-94491114D01*
X42227980Y-94729209D01*
X42275600Y-94872066D01*
X42370838Y-94967304D01*
X42466076Y-95014923D01*
X42656552Y-95062542D01*
X42799409Y-95062542D01*
X42989885Y-95014923D01*
X43085123Y-94967304D01*
X43180361Y-94872066D01*
X43227980Y-94729209D01*
X43227980Y-94491114D01*
X42323219Y-95443495D02*
X42275600Y-95491114D01*
X42227980Y-95586352D01*
X42227980Y-95824447D01*
X42275600Y-95919685D01*
X42323219Y-95967304D01*
X42418457Y-96014923D01*
X42513695Y-96014923D01*
X42656552Y-95967304D01*
X43227980Y-95395876D01*
X43227980Y-96014923D01*
X42227980Y-96872066D02*
X42227980Y-96681590D01*
X42275600Y-96586352D01*
X42323219Y-96538733D01*
X42466076Y-96443495D01*
X42656552Y-96395876D01*
X43037504Y-96395876D01*
X43132742Y-96443495D01*
X43180361Y-96491114D01*
X43227980Y-96586352D01*
X43227980Y-96776828D01*
X43180361Y-96872066D01*
X43132742Y-96919685D01*
X43037504Y-96967304D01*
X42799409Y-96967304D01*
X42704171Y-96919685D01*
X42656552Y-96872066D01*
X42608933Y-96776828D01*
X42608933Y-96586352D01*
X42656552Y-96491114D01*
X42704171Y-96443495D01*
X42799409Y-96395876D01*
%TO.C,D3*%
X101907980Y-54447304D02*
X100907980Y-54447304D01*
X100907980Y-54685400D01*
X100955600Y-54828257D01*
X101050838Y-54923495D01*
X101146076Y-54971114D01*
X101336552Y-55018733D01*
X101479409Y-55018733D01*
X101669885Y-54971114D01*
X101765123Y-54923495D01*
X101860361Y-54828257D01*
X101907980Y-54685400D01*
X101907980Y-54447304D01*
X100907980Y-55352066D02*
X100907980Y-55971114D01*
X101288933Y-55637780D01*
X101288933Y-55780638D01*
X101336552Y-55875876D01*
X101384171Y-55923495D01*
X101479409Y-55971114D01*
X101717504Y-55971114D01*
X101812742Y-55923495D01*
X101860361Y-55875876D01*
X101907980Y-55780638D01*
X101907980Y-55494923D01*
X101860361Y-55399685D01*
X101812742Y-55352066D01*
%TO.C,D24*%
X41257980Y-79691114D02*
X40257980Y-79691114D01*
X40257980Y-79929209D01*
X40305600Y-80072066D01*
X40400838Y-80167304D01*
X40496076Y-80214923D01*
X40686552Y-80262542D01*
X40829409Y-80262542D01*
X41019885Y-80214923D01*
X41115123Y-80167304D01*
X41210361Y-80072066D01*
X41257980Y-79929209D01*
X41257980Y-79691114D01*
X40353219Y-80643495D02*
X40305600Y-80691114D01*
X40257980Y-80786352D01*
X40257980Y-81024447D01*
X40305600Y-81119685D01*
X40353219Y-81167304D01*
X40448457Y-81214923D01*
X40543695Y-81214923D01*
X40686552Y-81167304D01*
X41257980Y-80595876D01*
X41257980Y-81214923D01*
X40591314Y-82072066D02*
X41257980Y-82072066D01*
X40210361Y-81833971D02*
X40924647Y-81595876D01*
X40924647Y-82214923D01*
%TO.C,D9*%
X121915180Y-48436304D02*
X120915180Y-48436304D01*
X120915180Y-48674400D01*
X120962800Y-48817257D01*
X121058038Y-48912495D01*
X121153276Y-48960114D01*
X121343752Y-49007733D01*
X121486609Y-49007733D01*
X121677085Y-48960114D01*
X121772323Y-48912495D01*
X121867561Y-48817257D01*
X121915180Y-48674400D01*
X121915180Y-48436304D01*
X121915180Y-49483923D02*
X121915180Y-49674400D01*
X121867561Y-49769638D01*
X121819942Y-49817257D01*
X121677085Y-49912495D01*
X121486609Y-49960114D01*
X121105657Y-49960114D01*
X121010419Y-49912495D01*
X120962800Y-49864876D01*
X120915180Y-49769638D01*
X120915180Y-49579161D01*
X120962800Y-49483923D01*
X121010419Y-49436304D01*
X121105657Y-49388685D01*
X121343752Y-49388685D01*
X121438990Y-49436304D01*
X121486609Y-49483923D01*
X121534228Y-49579161D01*
X121534228Y-49769638D01*
X121486609Y-49864876D01*
X121438990Y-49912495D01*
X121343752Y-49960114D01*
%TO.C,D11*%
X121907980Y-53971114D02*
X120907980Y-53971114D01*
X120907980Y-54209209D01*
X120955600Y-54352066D01*
X121050838Y-54447304D01*
X121146076Y-54494923D01*
X121336552Y-54542542D01*
X121479409Y-54542542D01*
X121669885Y-54494923D01*
X121765123Y-54447304D01*
X121860361Y-54352066D01*
X121907980Y-54209209D01*
X121907980Y-53971114D01*
X121907980Y-55494923D02*
X121907980Y-54923495D01*
X121907980Y-55209209D02*
X120907980Y-55209209D01*
X121050838Y-55113971D01*
X121146076Y-55018733D01*
X121193695Y-54923495D01*
X121907980Y-56447304D02*
X121907980Y-55875876D01*
X121907980Y-56161590D02*
X120907980Y-56161590D01*
X121050838Y-56066352D01*
X121146076Y-55971114D01*
X121193695Y-55875876D01*
%TO.C,D22*%
X41270180Y-73691114D02*
X40270180Y-73691114D01*
X40270180Y-73929209D01*
X40317800Y-74072066D01*
X40413038Y-74167304D01*
X40508276Y-74214923D01*
X40698752Y-74262542D01*
X40841609Y-74262542D01*
X41032085Y-74214923D01*
X41127323Y-74167304D01*
X41222561Y-74072066D01*
X41270180Y-73929209D01*
X41270180Y-73691114D01*
X40365419Y-74643495D02*
X40317800Y-74691114D01*
X40270180Y-74786352D01*
X40270180Y-75024447D01*
X40317800Y-75119685D01*
X40365419Y-75167304D01*
X40460657Y-75214923D01*
X40555895Y-75214923D01*
X40698752Y-75167304D01*
X41270180Y-74595876D01*
X41270180Y-75214923D01*
X40365419Y-75595876D02*
X40317800Y-75643495D01*
X40270180Y-75738733D01*
X40270180Y-75976828D01*
X40317800Y-76072066D01*
X40365419Y-76119685D01*
X40460657Y-76167304D01*
X40555895Y-76167304D01*
X40698752Y-76119685D01*
X41270180Y-75548257D01*
X41270180Y-76167304D01*
%TO.C,D17*%
X81910180Y-47960114D02*
X80910180Y-47960114D01*
X80910180Y-48198209D01*
X80957800Y-48341066D01*
X81053038Y-48436304D01*
X81148276Y-48483923D01*
X81338752Y-48531542D01*
X81481609Y-48531542D01*
X81672085Y-48483923D01*
X81767323Y-48436304D01*
X81862561Y-48341066D01*
X81910180Y-48198209D01*
X81910180Y-47960114D01*
X81910180Y-49483923D02*
X81910180Y-48912495D01*
X81910180Y-49198209D02*
X80910180Y-49198209D01*
X81053038Y-49102971D01*
X81148276Y-49007733D01*
X81195895Y-48912495D01*
X80910180Y-49817257D02*
X80910180Y-50483923D01*
X81910180Y-50055352D01*
%TO.C,D12*%
X157805380Y-99217314D02*
X156805380Y-99217314D01*
X156805380Y-99455409D01*
X156853000Y-99598266D01*
X156948238Y-99693504D01*
X157043476Y-99741123D01*
X157233952Y-99788742D01*
X157376809Y-99788742D01*
X157567285Y-99741123D01*
X157662523Y-99693504D01*
X157757761Y-99598266D01*
X157805380Y-99455409D01*
X157805380Y-99217314D01*
X157805380Y-100741123D02*
X157805380Y-100169695D01*
X157805380Y-100455409D02*
X156805380Y-100455409D01*
X156948238Y-100360171D01*
X157043476Y-100264933D01*
X157091095Y-100169695D01*
X156900619Y-101122076D02*
X156853000Y-101169695D01*
X156805380Y-101264933D01*
X156805380Y-101503028D01*
X156853000Y-101598266D01*
X156900619Y-101645885D01*
X156995857Y-101693504D01*
X157091095Y-101693504D01*
X157233952Y-101645885D01*
X157805380Y-101074457D01*
X157805380Y-101693504D01*
%TO.C,D15*%
X91892380Y-47971114D02*
X90892380Y-47971114D01*
X90892380Y-48209209D01*
X90940000Y-48352066D01*
X91035238Y-48447304D01*
X91130476Y-48494923D01*
X91320952Y-48542542D01*
X91463809Y-48542542D01*
X91654285Y-48494923D01*
X91749523Y-48447304D01*
X91844761Y-48352066D01*
X91892380Y-48209209D01*
X91892380Y-47971114D01*
X91892380Y-49494923D02*
X91892380Y-48923495D01*
X91892380Y-49209209D02*
X90892380Y-49209209D01*
X91035238Y-49113971D01*
X91130476Y-49018733D01*
X91178095Y-48923495D01*
X90892380Y-50399685D02*
X90892380Y-49923495D01*
X91368571Y-49875876D01*
X91320952Y-49923495D01*
X91273333Y-50018733D01*
X91273333Y-50256828D01*
X91320952Y-50352066D01*
X91368571Y-50399685D01*
X91463809Y-50447304D01*
X91701904Y-50447304D01*
X91797142Y-50399685D01*
X91844761Y-50352066D01*
X91892380Y-50256828D01*
X91892380Y-50018733D01*
X91844761Y-49923495D01*
X91797142Y-49875876D01*
%TO.C,D20*%
X51907980Y-62871114D02*
X50907980Y-62871114D01*
X50907980Y-63109209D01*
X50955600Y-63252066D01*
X51050838Y-63347304D01*
X51146076Y-63394923D01*
X51336552Y-63442542D01*
X51479409Y-63442542D01*
X51669885Y-63394923D01*
X51765123Y-63347304D01*
X51860361Y-63252066D01*
X51907980Y-63109209D01*
X51907980Y-62871114D01*
X51003219Y-63823495D02*
X50955600Y-63871114D01*
X50907980Y-63966352D01*
X50907980Y-64204447D01*
X50955600Y-64299685D01*
X51003219Y-64347304D01*
X51098457Y-64394923D01*
X51193695Y-64394923D01*
X51336552Y-64347304D01*
X51907980Y-63775876D01*
X51907980Y-64394923D01*
X50907980Y-65013971D02*
X50907980Y-65109209D01*
X50955600Y-65204447D01*
X51003219Y-65252066D01*
X51098457Y-65299685D01*
X51288933Y-65347304D01*
X51527028Y-65347304D01*
X51717504Y-65299685D01*
X51812742Y-65252066D01*
X51860361Y-65204447D01*
X51907980Y-65109209D01*
X51907980Y-65013971D01*
X51860361Y-64918733D01*
X51812742Y-64871114D01*
X51717504Y-64823495D01*
X51527028Y-64775876D01*
X51288933Y-64775876D01*
X51098457Y-64823495D01*
X51003219Y-64871114D01*
X50955600Y-64918733D01*
X50907980Y-65013971D01*
%TO.C,D21*%
X71902580Y-47960114D02*
X70902580Y-47960114D01*
X70902580Y-48198209D01*
X70950200Y-48341066D01*
X71045438Y-48436304D01*
X71140676Y-48483923D01*
X71331152Y-48531542D01*
X71474009Y-48531542D01*
X71664485Y-48483923D01*
X71759723Y-48436304D01*
X71854961Y-48341066D01*
X71902580Y-48198209D01*
X71902580Y-47960114D01*
X70997819Y-48912495D02*
X70950200Y-48960114D01*
X70902580Y-49055352D01*
X70902580Y-49293447D01*
X70950200Y-49388685D01*
X70997819Y-49436304D01*
X71093057Y-49483923D01*
X71188295Y-49483923D01*
X71331152Y-49436304D01*
X71902580Y-48864876D01*
X71902580Y-49483923D01*
X71902580Y-50436304D02*
X71902580Y-49864876D01*
X71902580Y-50150590D02*
X70902580Y-50150590D01*
X71045438Y-50055352D01*
X71140676Y-49960114D01*
X71188295Y-49864876D01*
%TO.C,D23*%
X71907980Y-53971114D02*
X70907980Y-53971114D01*
X70907980Y-54209209D01*
X70955600Y-54352066D01*
X71050838Y-54447304D01*
X71146076Y-54494923D01*
X71336552Y-54542542D01*
X71479409Y-54542542D01*
X71669885Y-54494923D01*
X71765123Y-54447304D01*
X71860361Y-54352066D01*
X71907980Y-54209209D01*
X71907980Y-53971114D01*
X71003219Y-54923495D02*
X70955600Y-54971114D01*
X70907980Y-55066352D01*
X70907980Y-55304447D01*
X70955600Y-55399685D01*
X71003219Y-55447304D01*
X71098457Y-55494923D01*
X71193695Y-55494923D01*
X71336552Y-55447304D01*
X71907980Y-54875876D01*
X71907980Y-55494923D01*
X70907980Y-55828257D02*
X70907980Y-56447304D01*
X71288933Y-56113971D01*
X71288933Y-56256828D01*
X71336552Y-56352066D01*
X71384171Y-56399685D01*
X71479409Y-56447304D01*
X71717504Y-56447304D01*
X71812742Y-56399685D01*
X71860361Y-56352066D01*
X71907980Y-56256828D01*
X71907980Y-55971114D01*
X71860361Y-55875876D01*
X71812742Y-55828257D01*
%TO.C,D16*%
X91907980Y-53971114D02*
X90907980Y-53971114D01*
X90907980Y-54209209D01*
X90955600Y-54352066D01*
X91050838Y-54447304D01*
X91146076Y-54494923D01*
X91336552Y-54542542D01*
X91479409Y-54542542D01*
X91669885Y-54494923D01*
X91765123Y-54447304D01*
X91860361Y-54352066D01*
X91907980Y-54209209D01*
X91907980Y-53971114D01*
X91907980Y-55494923D02*
X91907980Y-54923495D01*
X91907980Y-55209209D02*
X90907980Y-55209209D01*
X91050838Y-55113971D01*
X91146076Y-55018733D01*
X91193695Y-54923495D01*
X90907980Y-56352066D02*
X90907980Y-56161590D01*
X90955600Y-56066352D01*
X91003219Y-56018733D01*
X91146076Y-55923495D01*
X91336552Y-55875876D01*
X91717504Y-55875876D01*
X91812742Y-55923495D01*
X91860361Y-55971114D01*
X91907980Y-56066352D01*
X91907980Y-56256828D01*
X91860361Y-56352066D01*
X91812742Y-56399685D01*
X91717504Y-56447304D01*
X91479409Y-56447304D01*
X91384171Y-56399685D01*
X91336552Y-56352066D01*
X91288933Y-56256828D01*
X91288933Y-56066352D01*
X91336552Y-55971114D01*
X91384171Y-55923495D01*
X91479409Y-55875876D01*
%TO.C,D28*%
X42108380Y-99014114D02*
X41108380Y-99014114D01*
X41108380Y-99252209D01*
X41156000Y-99395066D01*
X41251238Y-99490304D01*
X41346476Y-99537923D01*
X41536952Y-99585542D01*
X41679809Y-99585542D01*
X41870285Y-99537923D01*
X41965523Y-99490304D01*
X42060761Y-99395066D01*
X42108380Y-99252209D01*
X42108380Y-99014114D01*
X41203619Y-99966495D02*
X41156000Y-100014114D01*
X41108380Y-100109352D01*
X41108380Y-100347447D01*
X41156000Y-100442685D01*
X41203619Y-100490304D01*
X41298857Y-100537923D01*
X41394095Y-100537923D01*
X41536952Y-100490304D01*
X42108380Y-99918876D01*
X42108380Y-100537923D01*
X41536952Y-101109352D02*
X41489333Y-101014114D01*
X41441714Y-100966495D01*
X41346476Y-100918876D01*
X41298857Y-100918876D01*
X41203619Y-100966495D01*
X41156000Y-101014114D01*
X41108380Y-101109352D01*
X41108380Y-101299828D01*
X41156000Y-101395066D01*
X41203619Y-101442685D01*
X41298857Y-101490304D01*
X41346476Y-101490304D01*
X41441714Y-101442685D01*
X41489333Y-101395066D01*
X41536952Y-101299828D01*
X41536952Y-101109352D01*
X41584571Y-101014114D01*
X41632190Y-100966495D01*
X41727428Y-100918876D01*
X41917904Y-100918876D01*
X42013142Y-100966495D01*
X42060761Y-101014114D01*
X42108380Y-101109352D01*
X42108380Y-101299828D01*
X42060761Y-101395066D01*
X42013142Y-101442685D01*
X41917904Y-101490304D01*
X41727428Y-101490304D01*
X41632190Y-101442685D01*
X41584571Y-101395066D01*
X41536952Y-101299828D01*
%TO.C,D2*%
X141904980Y-57347304D02*
X140904980Y-57347304D01*
X140904980Y-57585400D01*
X140952600Y-57728257D01*
X141047838Y-57823495D01*
X141143076Y-57871114D01*
X141333552Y-57918733D01*
X141476409Y-57918733D01*
X141666885Y-57871114D01*
X141762123Y-57823495D01*
X141857361Y-57728257D01*
X141904980Y-57585400D01*
X141904980Y-57347304D01*
X141000219Y-58299685D02*
X140952600Y-58347304D01*
X140904980Y-58442542D01*
X140904980Y-58680638D01*
X140952600Y-58775876D01*
X141000219Y-58823495D01*
X141095457Y-58871114D01*
X141190695Y-58871114D01*
X141333552Y-58823495D01*
X141904980Y-58252066D01*
X141904980Y-58871114D01*
%TO.C,U1*%
X106177504Y-66196380D02*
X106177504Y-67005904D01*
X106129885Y-67101142D01*
X106082266Y-67148761D01*
X105987028Y-67196380D01*
X105796552Y-67196380D01*
X105701314Y-67148761D01*
X105653695Y-67101142D01*
X105606076Y-67005904D01*
X105606076Y-66196380D01*
X104606076Y-67196380D02*
X105177504Y-67196380D01*
X104891790Y-67196380D02*
X104891790Y-66196380D01*
X104987028Y-66339238D01*
X105082266Y-66434476D01*
X105177504Y-66482095D01*
%TO.C,U2*%
X94177504Y-66196380D02*
X94177504Y-67005904D01*
X94129885Y-67101142D01*
X94082266Y-67148761D01*
X93987028Y-67196380D01*
X93796552Y-67196380D01*
X93701314Y-67148761D01*
X93653695Y-67101142D01*
X93606076Y-67005904D01*
X93606076Y-66196380D01*
X93177504Y-66291619D02*
X93129885Y-66244000D01*
X93034647Y-66196380D01*
X92796552Y-66196380D01*
X92701314Y-66244000D01*
X92653695Y-66291619D01*
X92606076Y-66386857D01*
X92606076Y-66482095D01*
X92653695Y-66624952D01*
X93225123Y-67196380D01*
X92606076Y-67196380D01*
%TO.C,D14*%
X131907980Y-53971114D02*
X130907980Y-53971114D01*
X130907980Y-54209209D01*
X130955600Y-54352066D01*
X131050838Y-54447304D01*
X131146076Y-54494923D01*
X131336552Y-54542542D01*
X131479409Y-54542542D01*
X131669885Y-54494923D01*
X131765123Y-54447304D01*
X131860361Y-54352066D01*
X131907980Y-54209209D01*
X131907980Y-53971114D01*
X131907980Y-55494923D02*
X131907980Y-54923495D01*
X131907980Y-55209209D02*
X130907980Y-55209209D01*
X131050838Y-55113971D01*
X131146076Y-55018733D01*
X131193695Y-54923495D01*
X131241314Y-56352066D02*
X131907980Y-56352066D01*
X130860361Y-56113971D02*
X131574647Y-55875876D01*
X131574647Y-56494923D01*
%TO.C,D5*%
X111907580Y-48436304D02*
X110907580Y-48436304D01*
X110907580Y-48674400D01*
X110955200Y-48817257D01*
X111050438Y-48912495D01*
X111145676Y-48960114D01*
X111336152Y-49007733D01*
X111479009Y-49007733D01*
X111669485Y-48960114D01*
X111764723Y-48912495D01*
X111859961Y-48817257D01*
X111907580Y-48674400D01*
X111907580Y-48436304D01*
X110907580Y-49912495D02*
X110907580Y-49436304D01*
X111383771Y-49388685D01*
X111336152Y-49436304D01*
X111288533Y-49531542D01*
X111288533Y-49769638D01*
X111336152Y-49864876D01*
X111383771Y-49912495D01*
X111479009Y-49960114D01*
X111717104Y-49960114D01*
X111812342Y-49912495D01*
X111859961Y-49864876D01*
X111907580Y-49769638D01*
X111907580Y-49531542D01*
X111859961Y-49436304D01*
X111812342Y-49388685D01*
%TO.C,D10*%
X156459180Y-93375314D02*
X155459180Y-93375314D01*
X155459180Y-93613409D01*
X155506800Y-93756266D01*
X155602038Y-93851504D01*
X155697276Y-93899123D01*
X155887752Y-93946742D01*
X156030609Y-93946742D01*
X156221085Y-93899123D01*
X156316323Y-93851504D01*
X156411561Y-93756266D01*
X156459180Y-93613409D01*
X156459180Y-93375314D01*
X156459180Y-94899123D02*
X156459180Y-94327695D01*
X156459180Y-94613409D02*
X155459180Y-94613409D01*
X155602038Y-94518171D01*
X155697276Y-94422933D01*
X155744895Y-94327695D01*
X155459180Y-95518171D02*
X155459180Y-95613409D01*
X155506800Y-95708647D01*
X155554419Y-95756266D01*
X155649657Y-95803885D01*
X155840133Y-95851504D01*
X156078228Y-95851504D01*
X156268704Y-95803885D01*
X156363942Y-95756266D01*
X156411561Y-95708647D01*
X156459180Y-95613409D01*
X156459180Y-95518171D01*
X156411561Y-95422933D01*
X156363942Y-95375314D01*
X156268704Y-95327695D01*
X156078228Y-95280076D01*
X155840133Y-95280076D01*
X155649657Y-95327695D01*
X155554419Y-95375314D01*
X155506800Y-95422933D01*
X155459180Y-95518171D01*
%TO.C,D1*%
X101899980Y-48436304D02*
X100899980Y-48436304D01*
X100899980Y-48674400D01*
X100947600Y-48817257D01*
X101042838Y-48912495D01*
X101138076Y-48960114D01*
X101328552Y-49007733D01*
X101471409Y-49007733D01*
X101661885Y-48960114D01*
X101757123Y-48912495D01*
X101852361Y-48817257D01*
X101899980Y-48674400D01*
X101899980Y-48436304D01*
X101899980Y-49960114D02*
X101899980Y-49388685D01*
X101899980Y-49674400D02*
X100899980Y-49674400D01*
X101042838Y-49579161D01*
X101138076Y-49483923D01*
X101185695Y-49388685D01*
%TO.C,D4*%
X141907980Y-63347304D02*
X140907980Y-63347304D01*
X140907980Y-63585400D01*
X140955600Y-63728257D01*
X141050838Y-63823495D01*
X141146076Y-63871114D01*
X141336552Y-63918733D01*
X141479409Y-63918733D01*
X141669885Y-63871114D01*
X141765123Y-63823495D01*
X141860361Y-63728257D01*
X141907980Y-63585400D01*
X141907980Y-63347304D01*
X141241314Y-64775876D02*
X141907980Y-64775876D01*
X140860361Y-64537780D02*
X141574647Y-64299685D01*
X141574647Y-64918733D01*
%TO.C,D18*%
X51912780Y-56871114D02*
X50912780Y-56871114D01*
X50912780Y-57109209D01*
X50960400Y-57252066D01*
X51055638Y-57347304D01*
X51150876Y-57394923D01*
X51341352Y-57442542D01*
X51484209Y-57442542D01*
X51674685Y-57394923D01*
X51769923Y-57347304D01*
X51865161Y-57252066D01*
X51912780Y-57109209D01*
X51912780Y-56871114D01*
X51912780Y-58394923D02*
X51912780Y-57823495D01*
X51912780Y-58109209D02*
X50912780Y-58109209D01*
X51055638Y-58013971D01*
X51150876Y-57918733D01*
X51198495Y-57823495D01*
X51341352Y-58966352D02*
X51293733Y-58871114D01*
X51246114Y-58823495D01*
X51150876Y-58775876D01*
X51103257Y-58775876D01*
X51008019Y-58823495D01*
X50960400Y-58871114D01*
X50912780Y-58966352D01*
X50912780Y-59156828D01*
X50960400Y-59252066D01*
X51008019Y-59299685D01*
X51103257Y-59347304D01*
X51150876Y-59347304D01*
X51246114Y-59299685D01*
X51293733Y-59252066D01*
X51341352Y-59156828D01*
X51341352Y-58966352D01*
X51388971Y-58871114D01*
X51436590Y-58823495D01*
X51531828Y-58775876D01*
X51722304Y-58775876D01*
X51817542Y-58823495D01*
X51865161Y-58871114D01*
X51912780Y-58966352D01*
X51912780Y-59156828D01*
X51865161Y-59252066D01*
X51817542Y-59299685D01*
X51722304Y-59347304D01*
X51531828Y-59347304D01*
X51436590Y-59299685D01*
X51388971Y-59252066D01*
X51341352Y-59156828D01*
%TO.C,D7*%
X111907980Y-54447304D02*
X110907980Y-54447304D01*
X110907980Y-54685400D01*
X110955600Y-54828257D01*
X111050838Y-54923495D01*
X111146076Y-54971114D01*
X111336552Y-55018733D01*
X111479409Y-55018733D01*
X111669885Y-54971114D01*
X111765123Y-54923495D01*
X111860361Y-54828257D01*
X111907980Y-54685400D01*
X111907980Y-54447304D01*
X110907980Y-55352066D02*
X110907980Y-56018733D01*
X111907980Y-55590161D01*
%TO.C,D19*%
X81907980Y-53971114D02*
X80907980Y-53971114D01*
X80907980Y-54209209D01*
X80955600Y-54352066D01*
X81050838Y-54447304D01*
X81146076Y-54494923D01*
X81336552Y-54542542D01*
X81479409Y-54542542D01*
X81669885Y-54494923D01*
X81765123Y-54447304D01*
X81860361Y-54352066D01*
X81907980Y-54209209D01*
X81907980Y-53971114D01*
X81907980Y-55494923D02*
X81907980Y-54923495D01*
X81907980Y-55209209D02*
X80907980Y-55209209D01*
X81050838Y-55113971D01*
X81146076Y-55018733D01*
X81193695Y-54923495D01*
X81907980Y-55971114D02*
X81907980Y-56161590D01*
X81860361Y-56256828D01*
X81812742Y-56304447D01*
X81669885Y-56399685D01*
X81479409Y-56447304D01*
X81098457Y-56447304D01*
X81003219Y-56399685D01*
X80955600Y-56352066D01*
X80907980Y-56256828D01*
X80907980Y-56066352D01*
X80955600Y-55971114D01*
X81003219Y-55923495D01*
X81098457Y-55875876D01*
X81336552Y-55875876D01*
X81431790Y-55923495D01*
X81479409Y-55971114D01*
X81527028Y-56066352D01*
X81527028Y-56256828D01*
X81479409Y-56352066D01*
X81431790Y-56399685D01*
X81336552Y-56447304D01*
%TO.C,D27*%
X61907980Y-53971114D02*
X60907980Y-53971114D01*
X60907980Y-54209209D01*
X60955600Y-54352066D01*
X61050838Y-54447304D01*
X61146076Y-54494923D01*
X61336552Y-54542542D01*
X61479409Y-54542542D01*
X61669885Y-54494923D01*
X61765123Y-54447304D01*
X61860361Y-54352066D01*
X61907980Y-54209209D01*
X61907980Y-53971114D01*
X61003219Y-54923495D02*
X60955600Y-54971114D01*
X60907980Y-55066352D01*
X60907980Y-55304447D01*
X60955600Y-55399685D01*
X61003219Y-55447304D01*
X61098457Y-55494923D01*
X61193695Y-55494923D01*
X61336552Y-55447304D01*
X61907980Y-54875876D01*
X61907980Y-55494923D01*
X60907980Y-55828257D02*
X60907980Y-56494923D01*
X61907980Y-56066352D01*
D11*
%TO.C,D6*%
X156301600Y-76465400D02*
X156145600Y-76465400D01*
X153985600Y-76465400D02*
X153829600Y-76465400D01*
X153986992Y-73233065D02*
G75*
G03*
X153830084Y-76465400I1078608J-1672335D01*
G01*
X156145600Y-75946361D02*
G75*
G03*
X156145437Y-73864270I-1080000J1040961D01*
G01*
X153985763Y-73864270D02*
G75*
G03*
X153985600Y-75946361I1079837J-1041130D01*
G01*
X156301116Y-76465400D02*
G75*
G03*
X156144208Y-73233065I-1235516J1560000D01*
G01*
%TO.C,D13*%
X133335600Y-50745400D02*
X133179600Y-50745400D01*
X135651600Y-50745400D02*
X135495600Y-50745400D01*
X135495600Y-50226361D02*
G75*
G03*
X135495437Y-48144270I-1080000J1040961D01*
G01*
X133336992Y-47513065D02*
G75*
G03*
X133180084Y-50745400I1078608J-1672335D01*
G01*
X133335763Y-48144270D02*
G75*
G03*
X133335600Y-50226361I1079837J-1041130D01*
G01*
X135651116Y-50745400D02*
G75*
G03*
X135494208Y-47513065I-1235516J1560000D01*
G01*
%TO.C,D25*%
X63335600Y-50745400D02*
X63179600Y-50745400D01*
X65651600Y-50745400D02*
X65495600Y-50745400D01*
X63335763Y-48144270D02*
G75*
G03*
X63335600Y-50226361I1079837J-1041130D01*
G01*
X65651116Y-50745400D02*
G75*
G03*
X65494208Y-47513065I-1235516J1560000D01*
G01*
X63336992Y-47513065D02*
G75*
G03*
X63180084Y-50745400I1078608J-1672335D01*
G01*
X65495600Y-50226361D02*
G75*
G03*
X65495437Y-48144270I-1080000J1040961D01*
G01*
%TO.C,J1*%
X104480600Y-83549200D02*
X104480600Y-81749200D01*
X90345600Y-88059200D02*
X90345600Y-89169200D01*
X94350600Y-83549200D02*
X93525600Y-83549200D01*
X91370600Y-87519200D02*
X91370600Y-88059200D01*
X105305600Y-83549200D02*
X104480600Y-83549200D01*
X90345600Y-89169200D02*
X108485600Y-89169200D01*
X108485600Y-89169200D02*
X108485600Y-88059200D01*
X107460600Y-88059200D02*
X107460600Y-87519200D01*
X108485600Y-88059200D02*
X107460600Y-88059200D01*
X91370600Y-88059200D02*
X90345600Y-88059200D01*
%TO.C,D8*%
X156145600Y-79345400D02*
X156301600Y-79345400D01*
X153829600Y-79345400D02*
X153985600Y-79345400D01*
X153985600Y-79864439D02*
G75*
G03*
X153985763Y-81946530I1080000J-1040961D01*
G01*
X156145437Y-81946530D02*
G75*
G03*
X156145600Y-79864439I-1079837J1041130D01*
G01*
X153830084Y-79345400D02*
G75*
G03*
X153986992Y-82577735I1235516J-1560000D01*
G01*
X156144208Y-82577735D02*
G75*
G03*
X156301116Y-79345400I-1078608J1672335D01*
G01*
%TO.C,D26*%
X38735600Y-97265400D02*
X38579600Y-97265400D01*
X41051600Y-97265400D02*
X40895600Y-97265400D01*
X38736992Y-94033065D02*
G75*
G03*
X38580084Y-97265400I1078608J-1672335D01*
G01*
X41051116Y-97265400D02*
G75*
G03*
X40894208Y-94033065I-1235516J1560000D01*
G01*
X38735763Y-94664270D02*
G75*
G03*
X38735600Y-96746361I1079837J-1041130D01*
G01*
X40895600Y-96746361D02*
G75*
G03*
X40895437Y-94664270I-1080000J1040961D01*
G01*
%TO.C,D3*%
X105495600Y-53625400D02*
X105651600Y-53625400D01*
X103179600Y-53625400D02*
X103335600Y-53625400D01*
X103180084Y-53625400D02*
G75*
G03*
X103336992Y-56857735I1235516J-1560000D01*
G01*
X105495437Y-56226530D02*
G75*
G03*
X105495600Y-54144439I-1079837J1041130D01*
G01*
X103335600Y-54144439D02*
G75*
G03*
X103335763Y-56226530I1080000J-1040961D01*
G01*
X105494208Y-56857735D02*
G75*
G03*
X105651116Y-53625400I-1078608J1672335D01*
G01*
%TO.C,D24*%
X42529600Y-79345400D02*
X42685600Y-79345400D01*
X44845600Y-79345400D02*
X45001600Y-79345400D01*
X42530084Y-79345400D02*
G75*
G03*
X42686992Y-82577735I1235516J-1560000D01*
G01*
X44844208Y-82577735D02*
G75*
G03*
X45001116Y-79345400I-1078608J1672335D01*
G01*
X42685600Y-79864439D02*
G75*
G03*
X42685763Y-81946530I1080000J-1040961D01*
G01*
X44845437Y-81946530D02*
G75*
G03*
X44845600Y-79864439I-1079837J1041130D01*
G01*
%TO.C,D9*%
X123335600Y-50745400D02*
X123179600Y-50745400D01*
X125651600Y-50745400D02*
X125495600Y-50745400D01*
X125651116Y-50745400D02*
G75*
G03*
X125494208Y-47513065I-1235516J1560000D01*
G01*
X123336992Y-47513065D02*
G75*
G03*
X123180084Y-50745400I1078608J-1672335D01*
G01*
X123335763Y-48144270D02*
G75*
G03*
X123335600Y-50226361I1079837J-1041130D01*
G01*
X125495600Y-50226361D02*
G75*
G03*
X125495437Y-48144270I-1080000J1040961D01*
G01*
%TO.C,D11*%
X125495600Y-53625400D02*
X125651600Y-53625400D01*
X123179600Y-53625400D02*
X123335600Y-53625400D01*
X125494208Y-56857735D02*
G75*
G03*
X125651116Y-53625400I-1078608J1672335D01*
G01*
X123335600Y-54144439D02*
G75*
G03*
X123335763Y-56226530I1080000J-1040961D01*
G01*
X123180084Y-53625400D02*
G75*
G03*
X123336992Y-56857735I1235516J-1560000D01*
G01*
X125495437Y-56226530D02*
G75*
G03*
X125495600Y-54144439I-1079837J1041130D01*
G01*
%TO.C,D22*%
X45001600Y-76465400D02*
X44845600Y-76465400D01*
X42685600Y-76465400D02*
X42529600Y-76465400D01*
X44845600Y-75946361D02*
G75*
G03*
X44845437Y-73864270I-1080000J1040961D01*
G01*
X42686992Y-73233065D02*
G75*
G03*
X42530084Y-76465400I1078608J-1672335D01*
G01*
X42685763Y-73864270D02*
G75*
G03*
X42685600Y-75946361I1079837J-1041130D01*
G01*
X45001116Y-76465400D02*
G75*
G03*
X44844208Y-73233065I-1235516J1560000D01*
G01*
%TO.C,D17*%
X83335600Y-50745400D02*
X83179600Y-50745400D01*
X85651600Y-50745400D02*
X85495600Y-50745400D01*
X85651116Y-50745400D02*
G75*
G03*
X85494208Y-47513065I-1235516J1560000D01*
G01*
X85495600Y-50226361D02*
G75*
G03*
X85495437Y-48144270I-1080000J1040961D01*
G01*
X83335763Y-48144270D02*
G75*
G03*
X83335600Y-50226361I1079837J-1041130D01*
G01*
X83336992Y-47513065D02*
G75*
G03*
X83180084Y-50745400I1078608J-1672335D01*
G01*
%TO.C,D12*%
X159029600Y-100145400D02*
X159185600Y-100145400D01*
X161345600Y-100145400D02*
X161501600Y-100145400D01*
X161345437Y-102746530D02*
G75*
G03*
X161345600Y-100664439I-1079837J1041130D01*
G01*
X161344208Y-103377735D02*
G75*
G03*
X161501116Y-100145400I-1078608J1672335D01*
G01*
X159030084Y-100145400D02*
G75*
G03*
X159186992Y-103377735I1235516J-1560000D01*
G01*
X159185600Y-100664439D02*
G75*
G03*
X159185763Y-102746530I1080000J-1040961D01*
G01*
%TO.C,D15*%
X93335600Y-50745400D02*
X93179600Y-50745400D01*
X95651600Y-50745400D02*
X95495600Y-50745400D01*
X95651116Y-50745400D02*
G75*
G03*
X95494208Y-47513065I-1235516J1560000D01*
G01*
X93335763Y-48144270D02*
G75*
G03*
X93335600Y-50226361I1079837J-1041130D01*
G01*
X95495600Y-50226361D02*
G75*
G03*
X95495437Y-48144270I-1080000J1040961D01*
G01*
X93336992Y-47513065D02*
G75*
G03*
X93180084Y-50745400I1078608J-1672335D01*
G01*
%TO.C,D20*%
X55495600Y-62525400D02*
X55651600Y-62525400D01*
X53179600Y-62525400D02*
X53335600Y-62525400D01*
X55495437Y-65126530D02*
G75*
G03*
X55495600Y-63044439I-1079837J1041130D01*
G01*
X55494208Y-65757735D02*
G75*
G03*
X55651116Y-62525400I-1078608J1672335D01*
G01*
X53180084Y-62525400D02*
G75*
G03*
X53336992Y-65757735I1235516J-1560000D01*
G01*
X53335600Y-63044439D02*
G75*
G03*
X53335763Y-65126530I1080000J-1040961D01*
G01*
%TO.C,D21*%
X75651600Y-50745400D02*
X75495600Y-50745400D01*
X73335600Y-50745400D02*
X73179600Y-50745400D01*
X75651116Y-50745400D02*
G75*
G03*
X75494208Y-47513065I-1235516J1560000D01*
G01*
X75495600Y-50226361D02*
G75*
G03*
X75495437Y-48144270I-1080000J1040961D01*
G01*
X73336992Y-47513065D02*
G75*
G03*
X73180084Y-50745400I1078608J-1672335D01*
G01*
X73335763Y-48144270D02*
G75*
G03*
X73335600Y-50226361I1079837J-1041130D01*
G01*
%TO.C,D23*%
X73179600Y-53625400D02*
X73335600Y-53625400D01*
X75495600Y-53625400D02*
X75651600Y-53625400D01*
X75495437Y-56226530D02*
G75*
G03*
X75495600Y-54144439I-1079837J1041130D01*
G01*
X73180084Y-53625400D02*
G75*
G03*
X73336992Y-56857735I1235516J-1560000D01*
G01*
X73335600Y-54144439D02*
G75*
G03*
X73335763Y-56226530I1080000J-1040961D01*
G01*
X75494208Y-56857735D02*
G75*
G03*
X75651116Y-53625400I-1078608J1672335D01*
G01*
%TO.C,D16*%
X95495600Y-53625400D02*
X95651600Y-53625400D01*
X93179600Y-53625400D02*
X93335600Y-53625400D01*
X95494208Y-56857735D02*
G75*
G03*
X95651116Y-53625400I-1078608J1672335D01*
G01*
X95495437Y-56226530D02*
G75*
G03*
X95495600Y-54144439I-1079837J1041130D01*
G01*
X93180084Y-53625400D02*
G75*
G03*
X93336992Y-56857735I1235516J-1560000D01*
G01*
X93335600Y-54144439D02*
G75*
G03*
X93335763Y-56226530I1080000J-1040961D01*
G01*
%TO.C,D28*%
X37329600Y-100145400D02*
X37485600Y-100145400D01*
X39645600Y-100145400D02*
X39801600Y-100145400D01*
X37330084Y-100145400D02*
G75*
G03*
X37486992Y-103377735I1235516J-1560000D01*
G01*
X39644208Y-103377735D02*
G75*
G03*
X39801116Y-100145400I-1078608J1672335D01*
G01*
X39645437Y-102746530D02*
G75*
G03*
X39645600Y-100664439I-1079837J1041130D01*
G01*
X37485600Y-100664439D02*
G75*
G03*
X37485763Y-102746530I1080000J-1040961D01*
G01*
%TO.C,D2*%
X145651600Y-59645400D02*
X145495600Y-59645400D01*
X143335600Y-59645400D02*
X143179600Y-59645400D01*
X143335763Y-57044270D02*
G75*
G03*
X143335600Y-59126361I1079837J-1041130D01*
G01*
X145651116Y-59645400D02*
G75*
G03*
X145494208Y-56413065I-1235516J1560000D01*
G01*
X145495600Y-59126361D02*
G75*
G03*
X145495437Y-57044270I-1080000J1040961D01*
G01*
X143336992Y-56413065D02*
G75*
G03*
X143180084Y-59645400I1078608J-1672335D01*
G01*
%TO.C,U1*%
X105415600Y-77704000D02*
X103465600Y-77704000D01*
X105415600Y-67584000D02*
X108865600Y-67584000D01*
X105415600Y-77704000D02*
X107365600Y-77704000D01*
X105415600Y-67584000D02*
X103465600Y-67584000D01*
%TO.C,U2*%
X93415600Y-77704000D02*
X91465600Y-77704000D01*
X93415600Y-67584000D02*
X96865600Y-67584000D01*
X93415600Y-67584000D02*
X91465600Y-67584000D01*
X93415600Y-77704000D02*
X95365600Y-77704000D01*
%TO.C,D14*%
X135495600Y-53625400D02*
X135651600Y-53625400D01*
X133179600Y-53625400D02*
X133335600Y-53625400D01*
X135494208Y-56857735D02*
G75*
G03*
X135651116Y-53625400I-1078608J1672335D01*
G01*
X135495437Y-56226530D02*
G75*
G03*
X135495600Y-54144439I-1079837J1041130D01*
G01*
X133180084Y-53625400D02*
G75*
G03*
X133336992Y-56857735I1235516J-1560000D01*
G01*
X133335600Y-54144439D02*
G75*
G03*
X133335763Y-56226530I1080000J-1040961D01*
G01*
%TO.C,D5*%
X115651600Y-50745400D02*
X115495600Y-50745400D01*
X113335600Y-50745400D02*
X113179600Y-50745400D01*
X115651116Y-50745400D02*
G75*
G03*
X115494208Y-47513065I-1235516J1560000D01*
G01*
X113336992Y-47513065D02*
G75*
G03*
X113180084Y-50745400I1078608J-1672335D01*
G01*
X113335763Y-48144270D02*
G75*
G03*
X113335600Y-50226361I1079837J-1041130D01*
G01*
X115495600Y-50226361D02*
G75*
G03*
X115495437Y-48144270I-1080000J1040961D01*
G01*
%TO.C,D10*%
X157935600Y-97265400D02*
X157779600Y-97265400D01*
X160251600Y-97265400D02*
X160095600Y-97265400D01*
X157935763Y-94664270D02*
G75*
G03*
X157935600Y-96746361I1079837J-1041130D01*
G01*
X160251116Y-97265400D02*
G75*
G03*
X160094208Y-94033065I-1235516J1560000D01*
G01*
X157936992Y-94033065D02*
G75*
G03*
X157780084Y-97265400I1078608J-1672335D01*
G01*
X160095600Y-96746361D02*
G75*
G03*
X160095437Y-94664270I-1080000J1040961D01*
G01*
%TO.C,D1*%
X105651600Y-50745400D02*
X105495600Y-50745400D01*
X103335600Y-50745400D02*
X103179600Y-50745400D01*
X105495600Y-50226361D02*
G75*
G03*
X105495437Y-48144270I-1080000J1040961D01*
G01*
X103335763Y-48144270D02*
G75*
G03*
X103335600Y-50226361I1079837J-1041130D01*
G01*
X103336992Y-47513065D02*
G75*
G03*
X103180084Y-50745400I1078608J-1672335D01*
G01*
X105651116Y-50745400D02*
G75*
G03*
X105494208Y-47513065I-1235516J1560000D01*
G01*
%TO.C,D4*%
X143179600Y-62525400D02*
X143335600Y-62525400D01*
X145495600Y-62525400D02*
X145651600Y-62525400D01*
X145494208Y-65757735D02*
G75*
G03*
X145651116Y-62525400I-1078608J1672335D01*
G01*
X143335600Y-63044439D02*
G75*
G03*
X143335763Y-65126530I1080000J-1040961D01*
G01*
X145495437Y-65126530D02*
G75*
G03*
X145495600Y-63044439I-1079837J1041130D01*
G01*
X143180084Y-62525400D02*
G75*
G03*
X143336992Y-65757735I1235516J-1560000D01*
G01*
%TO.C,D18*%
X53335600Y-59645400D02*
X53179600Y-59645400D01*
X55651600Y-59645400D02*
X55495600Y-59645400D01*
X55651116Y-59645400D02*
G75*
G03*
X55494208Y-56413065I-1235516J1560000D01*
G01*
X53335763Y-57044270D02*
G75*
G03*
X53335600Y-59126361I1079837J-1041130D01*
G01*
X55495600Y-59126361D02*
G75*
G03*
X55495437Y-57044270I-1080000J1040961D01*
G01*
X53336992Y-56413065D02*
G75*
G03*
X53180084Y-59645400I1078608J-1672335D01*
G01*
%TO.C,D7*%
X115495600Y-53625400D02*
X115651600Y-53625400D01*
X113179600Y-53625400D02*
X113335600Y-53625400D01*
X115494208Y-56857735D02*
G75*
G03*
X115651116Y-53625400I-1078608J1672335D01*
G01*
X115495437Y-56226530D02*
G75*
G03*
X115495600Y-54144439I-1079837J1041130D01*
G01*
X113180084Y-53625400D02*
G75*
G03*
X113336992Y-56857735I1235516J-1560000D01*
G01*
X113335600Y-54144439D02*
G75*
G03*
X113335763Y-56226530I1080000J-1040961D01*
G01*
%TO.C,D19*%
X85495600Y-53625400D02*
X85651600Y-53625400D01*
X83179600Y-53625400D02*
X83335600Y-53625400D01*
X85494208Y-56857735D02*
G75*
G03*
X85651116Y-53625400I-1078608J1672335D01*
G01*
X85495437Y-56226530D02*
G75*
G03*
X85495600Y-54144439I-1079837J1041130D01*
G01*
X83180084Y-53625400D02*
G75*
G03*
X83336992Y-56857735I1235516J-1560000D01*
G01*
X83335600Y-54144439D02*
G75*
G03*
X83335763Y-56226530I1080000J-1040961D01*
G01*
%TO.C,D27*%
X63179600Y-53625400D02*
X63335600Y-53625400D01*
X65495600Y-53625400D02*
X65651600Y-53625400D01*
X65494208Y-56857735D02*
G75*
G03*
X65651116Y-53625400I-1078608J1672335D01*
G01*
X63335600Y-54144439D02*
G75*
G03*
X63335763Y-56226530I1080000J-1040961D01*
G01*
X63180084Y-53625400D02*
G75*
G03*
X63336992Y-56857735I1235516J-1560000D01*
G01*
X65495437Y-56226530D02*
G75*
G03*
X65495600Y-54144439I-1079837J1041130D01*
G01*
%TD*%
M02*
