%TF.GenerationSoftware,KiCad,Pcbnew,(6.0.4)*%
%TF.CreationDate,2023-10-20T23:52:16+07:00*%
%TF.ProjectId,Sensor_V2.1,53656e73-6f72-45f5-9632-2e312e6b6963,rev?*%
%TF.SameCoordinates,Original*%
%TF.FileFunction,Profile,NP*%
%FSLAX46Y46*%
G04 Gerber Fmt 4.6, Leading zero omitted, Abs format (unit mm)*
G04 Created by KiCad (PCBNEW (6.0.4)) date 2023-10-20 23:52:16*
%MOMM*%
%LPD*%
G01*
G04 APERTURE LIST*
%TA.AperFunction,Profile*%
%ADD10C,0.100000*%
%TD*%
G04 APERTURE END LIST*
D10*
X94056200Y-135940800D02*
X94056200Y-90576400D01*
X103441866Y-89281000D02*
X95389334Y-89281000D01*
X126542800Y-62280800D02*
X125526800Y-63296800D01*
X104775000Y-135940800D02*
G75*
G03*
X113157000Y-135940800I4191000J0D01*
G01*
X50927000Y-75336400D02*
X45288200Y-87909400D01*
X153543000Y-87909400D02*
X147904200Y-75336400D01*
X73075800Y-36931600D02*
X73177400Y-41097200D01*
X125653800Y-41097200D02*
X125755400Y-36931600D01*
X85674200Y-135940800D02*
G75*
G03*
X94056200Y-135940800I4191000J0D01*
G01*
X125755400Y-36931600D02*
X137185400Y-42189400D01*
X164693600Y-116535200D02*
X153695400Y-96316800D01*
X85674200Y-81686400D02*
X87528400Y-77546200D01*
X111302800Y-77546200D02*
X113157000Y-81686400D01*
X95389333Y-89281035D02*
G75*
G03*
X94056200Y-90576400I-37233J-1295365D01*
G01*
X87528400Y-68046600D02*
X85699600Y-66167000D01*
X87528400Y-77546200D02*
X87528400Y-68046600D01*
X153695400Y-96316800D02*
X153543000Y-87909400D01*
X85674200Y-81686400D02*
X85674200Y-135940800D01*
X159512000Y-71932800D02*
X164693600Y-116535200D01*
X81178400Y-63296800D02*
X73304400Y-63296800D01*
X114579400Y-66167000D02*
X113131600Y-66167000D01*
X104775000Y-135940800D02*
X104775000Y-90576400D01*
X99415600Y-30276800D02*
X125653800Y-41097200D01*
X73304400Y-63296800D02*
X72288400Y-62280800D01*
X84251800Y-66167000D02*
X81178400Y-63296800D01*
X34137600Y-116535200D02*
X39319200Y-71932800D01*
X147904200Y-75336400D02*
X145973800Y-75311000D01*
X111302800Y-68046600D02*
X111302800Y-77546200D01*
X63652400Y-62280800D02*
X52857400Y-75311000D01*
X113157000Y-81686400D02*
X113157000Y-135940800D01*
X85699600Y-66167000D02*
X84251800Y-66167000D01*
X104775035Y-90576400D02*
G75*
G03*
X103441866Y-89281000I-1295935J0D01*
G01*
X39319200Y-71932800D02*
X61645800Y-42189400D01*
X125526800Y-63296800D02*
X117652800Y-63296800D01*
X45135800Y-96316800D02*
X34137600Y-116535200D01*
X61645800Y-42189400D02*
X73075800Y-36931600D01*
X73177400Y-41097200D02*
X99415600Y-30276800D01*
X135178800Y-62280800D02*
X126542800Y-62280800D01*
X45288200Y-87909400D02*
X45135800Y-96316800D01*
X137185400Y-42189400D02*
X159512000Y-71932800D01*
X117652800Y-63296800D02*
X114579400Y-66167000D01*
X145973800Y-75311000D02*
X135178800Y-62280800D01*
X113131600Y-66167000D02*
X111302800Y-68046600D01*
X52857400Y-75311000D02*
X50927000Y-75336400D01*
X72288400Y-62280800D02*
X63652400Y-62280800D01*
M02*
