%TF.GenerationSoftware,KiCad,Pcbnew,(6.0.4)*%
%TF.CreationDate,2023-10-20T23:52:16+07:00*%
%TF.ProjectId,Sensor_V2.1,53656e73-6f72-45f5-9632-2e312e6b6963,rev?*%
%TF.SameCoordinates,Original*%
%TF.FileFunction,Copper,L2,Bot*%
%TF.FilePolarity,Positive*%
%FSLAX46Y46*%
G04 Gerber Fmt 4.6, Leading zero omitted, Abs format (unit mm)*
G04 Created by KiCad (PCBNEW (6.0.4)) date 2023-10-20 23:52:16*
%MOMM*%
%LPD*%
G01*
G04 APERTURE LIST*
G04 Aperture macros list*
%AMRoundRect*
0 Rectangle with rounded corners*
0 $1 Rounding radius*
0 $2 $3 $4 $5 $6 $7 $8 $9 X,Y pos of 4 corners*
0 Add a 4 corners polygon primitive as box body*
4,1,4,$2,$3,$4,$5,$6,$7,$8,$9,$2,$3,0*
0 Add four circle primitives for the rounded corners*
1,1,$1+$1,$2,$3*
1,1,$1+$1,$4,$5*
1,1,$1+$1,$6,$7*
1,1,$1+$1,$8,$9*
0 Add four rect primitives between the rounded corners*
20,1,$1+$1,$2,$3,$4,$5,0*
20,1,$1+$1,$4,$5,$6,$7,0*
20,1,$1+$1,$6,$7,$8,$9,0*
20,1,$1+$1,$8,$9,$2,$3,0*%
G04 Aperture macros list end*
%TA.AperFunction,ComponentPad*%
%ADD10C,0.800000*%
%TD*%
%TA.AperFunction,ComponentPad*%
%ADD11C,6.000000*%
%TD*%
%TA.AperFunction,ComponentPad*%
%ADD12R,1.800000X1.800000*%
%TD*%
%TA.AperFunction,ComponentPad*%
%ADD13C,1.800000*%
%TD*%
%TA.AperFunction,SMDPad,CuDef*%
%ADD14R,0.610000X2.000000*%
%TD*%
%TA.AperFunction,SMDPad,CuDef*%
%ADD15R,2.680000X3.600000*%
%TD*%
%TA.AperFunction,SMDPad,CuDef*%
%ADD16RoundRect,0.150000X0.825000X0.150000X-0.825000X0.150000X-0.825000X-0.150000X0.825000X-0.150000X0*%
%TD*%
%TA.AperFunction,ViaPad*%
%ADD17C,0.800000*%
%TD*%
%TA.AperFunction,Conductor*%
%ADD18C,0.500000*%
%TD*%
%TA.AperFunction,Conductor*%
%ADD19C,1.000000*%
%TD*%
%TA.AperFunction,Conductor*%
%ADD20C,0.800000*%
%TD*%
G04 APERTURE END LIST*
D10*
%TO.P,H15,1*%
%TO.N,N/C*%
X91462990Y-128861390D03*
X91462990Y-125679410D03*
X89872000Y-125020400D03*
X88281010Y-128861390D03*
X89872000Y-129520400D03*
X88281010Y-125679410D03*
X87622000Y-127270400D03*
D11*
X89872000Y-127270400D03*
D10*
X92122000Y-127270400D03*
%TD*%
%TO.P,H6,1*%
%TO.N,N/C*%
X91437990Y-94911390D03*
X87597000Y-93320400D03*
X88256010Y-91729410D03*
D11*
X89847000Y-93320400D03*
D10*
X89847000Y-91070400D03*
X89847000Y-95570400D03*
X88256010Y-94911390D03*
X92097000Y-93320400D03*
X91437990Y-91729410D03*
%TD*%
%TO.P,H21,1*%
%TO.N,N/C*%
X108897000Y-125045400D03*
D11*
X108897000Y-127295400D03*
D10*
X107306010Y-128886390D03*
X110487990Y-125704410D03*
X106647000Y-127295400D03*
X108897000Y-129545400D03*
X111147000Y-127295400D03*
X110487990Y-128886390D03*
X107306010Y-125704410D03*
%TD*%
%TO.P,H5,1*%
%TO.N,N/C*%
X91437990Y-111886390D03*
X89847000Y-108045400D03*
X89847000Y-112545400D03*
X88256010Y-111886390D03*
X92097000Y-110295400D03*
X91437990Y-108704410D03*
X88256010Y-108704410D03*
D11*
X89847000Y-110295400D03*
D10*
X87597000Y-110295400D03*
%TD*%
%TO.P,H1,1*%
%TO.N,N/C*%
X100987990Y-38886390D03*
X100987990Y-35704410D03*
X97806010Y-35704410D03*
X97147000Y-37295400D03*
X97806010Y-38886390D03*
X101647000Y-37295400D03*
X99397000Y-39545400D03*
D11*
X99397000Y-37295400D03*
D10*
X99397000Y-35045400D03*
%TD*%
D11*
%TO.P,H14,1*%
%TO.N,N/C*%
X89847000Y-135770400D03*
D10*
X89847000Y-133520400D03*
X91437990Y-134179410D03*
X92097000Y-135770400D03*
X87597000Y-135770400D03*
X88256010Y-134179410D03*
X89847000Y-138020400D03*
X88256010Y-137361390D03*
X91437990Y-137361390D03*
%TD*%
%TO.P,H12,1*%
%TO.N,N/C*%
X111172000Y-101795400D03*
D11*
X108922000Y-101795400D03*
D10*
X110512990Y-100204410D03*
X107331010Y-100204410D03*
X107331010Y-103386390D03*
X106672000Y-101795400D03*
X108922000Y-104045400D03*
X110512990Y-103386390D03*
X108922000Y-99545400D03*
%TD*%
%TO.P,H10,1*%
%TO.N,N/C*%
X111172000Y-118770400D03*
X106672000Y-118770400D03*
X110512990Y-120361390D03*
D11*
X108922000Y-118770400D03*
D10*
X107331010Y-120361390D03*
X108922000Y-121020400D03*
X110512990Y-117179410D03*
X107331010Y-117179410D03*
X108922000Y-116520400D03*
%TD*%
%TO.P,H13,1*%
%TO.N,N/C*%
X107331010Y-108704410D03*
X108922000Y-108045400D03*
X110512990Y-111886390D03*
X108922000Y-112545400D03*
X106672000Y-110295400D03*
X111172000Y-110295400D03*
X107331010Y-111886390D03*
X110512990Y-108704410D03*
D11*
X108922000Y-110295400D03*
%TD*%
D10*
%TO.P,H8,1*%
%TO.N,N/C*%
X108897000Y-91045400D03*
X107306010Y-91704410D03*
X106647000Y-93295400D03*
X108897000Y-95545400D03*
X110487990Y-91704410D03*
X107306010Y-94886390D03*
X110487990Y-94886390D03*
D11*
X108897000Y-93295400D03*
D10*
X111147000Y-93295400D03*
%TD*%
%TO.P,H7,1*%
%TO.N,N/C*%
X91437990Y-120361390D03*
X92097000Y-118770400D03*
D11*
X89847000Y-118770400D03*
D10*
X87597000Y-118770400D03*
X89847000Y-121020400D03*
X91437990Y-117179410D03*
X88256010Y-120361390D03*
X88256010Y-117179410D03*
X89847000Y-116520400D03*
%TD*%
%TO.P,H4,1*%
%TO.N,N/C*%
X87597000Y-101820400D03*
X91437990Y-100229410D03*
D11*
X89847000Y-101820400D03*
D10*
X89847000Y-99570400D03*
X92097000Y-101820400D03*
X89847000Y-104070400D03*
X91437990Y-103411390D03*
X88256010Y-103411390D03*
X88256010Y-100229410D03*
%TD*%
%TO.P,H17,1*%
%TO.N,N/C*%
X107331010Y-134179410D03*
X110512990Y-134179410D03*
X107331010Y-137361390D03*
X108922000Y-138020400D03*
X108922000Y-133520400D03*
X111172000Y-135770400D03*
X106672000Y-135770400D03*
X110512990Y-137361390D03*
D11*
X108922000Y-135770400D03*
%TD*%
D12*
%TO.P,D6,1,K*%
%TO.N,GND*%
X155065600Y-76175400D03*
D13*
%TO.P,D6,2,A*%
%TO.N,Net-(D6-Pad2)*%
X155065600Y-73635400D03*
%TD*%
D12*
%TO.P,D13,1,K*%
%TO.N,GND*%
X134415600Y-50455400D03*
D13*
%TO.P,D13,2,A*%
%TO.N,Net-(D13-Pad2)*%
X134415600Y-47915400D03*
%TD*%
D12*
%TO.P,D25,1,K*%
%TO.N,GND*%
X64415600Y-50455400D03*
D13*
%TO.P,D25,2,A*%
%TO.N,Net-(D25-Pad2)*%
X64415600Y-47915400D03*
%TD*%
D14*
%TO.P,J1,1,Pin_1*%
%TO.N,GND*%
X103915600Y-82659200D03*
%TO.P,J1,2,Pin_2*%
X102915600Y-82659200D03*
%TO.P,J1,3,Pin_3*%
%TO.N,unconnected-(J1-Pad3)*%
X101915600Y-82659200D03*
%TO.P,J1,4,Pin_4*%
%TO.N,ADC1*%
X100915600Y-82659200D03*
%TO.P,J1,5,Pin_5*%
%TO.N,C*%
X99915600Y-82659200D03*
%TO.P,J1,6,Pin_6*%
%TO.N,B*%
X98915600Y-82659200D03*
%TO.P,J1,7,Pin_7*%
%TO.N,A*%
X97915600Y-82659200D03*
%TO.P,J1,8,Pin_8*%
%TO.N,ADC2*%
X96915600Y-82659200D03*
%TO.P,J1,9,Pin_9*%
%TO.N,3V3*%
X95915600Y-82659200D03*
%TO.P,J1,10,Pin_10*%
X94915600Y-82659200D03*
D15*
%TO.P,J1,MP*%
%TO.N,N/C*%
X106905600Y-85459200D03*
X91925600Y-85459200D03*
%TD*%
D12*
%TO.P,D8,1,K*%
%TO.N,3V3*%
X155065600Y-79635400D03*
D13*
%TO.P,D8,2,A*%
%TO.N,6*%
X155065600Y-82175400D03*
%TD*%
D12*
%TO.P,D26,1,K*%
%TO.N,GND*%
X39815600Y-96975400D03*
D13*
%TO.P,D26,2,A*%
%TO.N,Net-(D26-Pad2)*%
X39815600Y-94435400D03*
%TD*%
D12*
%TO.P,D3,1,K*%
%TO.N,3V3*%
X104415600Y-53915400D03*
D13*
%TO.P,D3,2,A*%
%TO.N,1*%
X104415600Y-56455400D03*
%TD*%
D12*
%TO.P,D24,1,K*%
%TO.N,3V3*%
X43765600Y-79635400D03*
D13*
%TO.P,D24,2,A*%
%TO.N,13*%
X43765600Y-82175400D03*
%TD*%
D12*
%TO.P,D9,1,K*%
%TO.N,GND*%
X124415600Y-50455400D03*
D13*
%TO.P,D9,2,A*%
%TO.N,Net-(D9-Pad2)*%
X124415600Y-47915400D03*
%TD*%
D12*
%TO.P,D11,1,K*%
%TO.N,3V3*%
X124415600Y-53915400D03*
D13*
%TO.P,D11,2,A*%
%TO.N,3*%
X124415600Y-56455400D03*
%TD*%
D12*
%TO.P,D22,1,K*%
%TO.N,GND*%
X43765600Y-76175400D03*
D13*
%TO.P,D22,2,A*%
%TO.N,Net-(D22-Pad2)*%
X43765600Y-73635400D03*
%TD*%
D12*
%TO.P,D17,1,K*%
%TO.N,GND*%
X84415600Y-50455400D03*
D13*
%TO.P,D17,2,A*%
%TO.N,Net-(D17-Pad2)*%
X84415600Y-47915400D03*
%TD*%
D12*
%TO.P,D12,1,K*%
%TO.N,3V3*%
X160265600Y-100435400D03*
D13*
%TO.P,D12,2,A*%
%TO.N,7*%
X160265600Y-102975400D03*
%TD*%
D12*
%TO.P,D15,1,K*%
%TO.N,GND*%
X94415600Y-50455400D03*
D13*
%TO.P,D15,2,A*%
%TO.N,Net-(D15-Pad2)*%
X94415600Y-47915400D03*
%TD*%
D12*
%TO.P,D20,1,K*%
%TO.N,3V3*%
X54415600Y-62815400D03*
D13*
%TO.P,D20,2,A*%
%TO.N,12*%
X54415600Y-65355400D03*
%TD*%
D12*
%TO.P,D21,1,K*%
%TO.N,GND*%
X74415600Y-50455400D03*
D13*
%TO.P,D21,2,A*%
%TO.N,Net-(D21-Pad2)*%
X74415600Y-47915400D03*
%TD*%
D12*
%TO.P,D23,1,K*%
%TO.N,3V3*%
X74415600Y-53915400D03*
D13*
%TO.P,D23,2,A*%
%TO.N,10*%
X74415600Y-56455400D03*
%TD*%
D12*
%TO.P,D16,1,K*%
%TO.N,3V3*%
X94415600Y-53915400D03*
D13*
%TO.P,D16,2,A*%
%TO.N,8*%
X94415600Y-56455400D03*
%TD*%
D12*
%TO.P,D28,1,K*%
%TO.N,3V3*%
X38565600Y-100435400D03*
D13*
%TO.P,D28,2,A*%
%TO.N,14*%
X38565600Y-102975400D03*
%TD*%
D12*
%TO.P,D2,1,K*%
%TO.N,GND*%
X144415600Y-59355400D03*
D13*
%TO.P,D2,2,A*%
%TO.N,Net-(D2-Pad2)*%
X144415600Y-56815400D03*
%TD*%
D16*
%TO.P,U1,1,X4*%
%TO.N,5*%
X107890600Y-68199000D03*
%TO.P,U1,2,X6*%
%TO.N,7*%
X107890600Y-69469000D03*
%TO.P,U1,3,X*%
%TO.N,ADC1*%
X107890600Y-70739000D03*
%TO.P,U1,4,X7*%
%TO.N,unconnected-(U1-Pad4)*%
X107890600Y-72009000D03*
%TO.P,U1,5,X5*%
%TO.N,6*%
X107890600Y-73279000D03*
%TO.P,U1,6,INH*%
%TO.N,GND*%
X107890600Y-74549000D03*
%TO.P,U1,7,VEE*%
X107890600Y-75819000D03*
%TO.P,U1,8,VSS*%
X107890600Y-77089000D03*
%TO.P,U1,9,C*%
%TO.N,C*%
X102940600Y-77089000D03*
%TO.P,U1,10,B*%
%TO.N,B*%
X102940600Y-75819000D03*
%TO.P,U1,11,A*%
%TO.N,A*%
X102940600Y-74549000D03*
%TO.P,U1,12,X3*%
%TO.N,4*%
X102940600Y-73279000D03*
%TO.P,U1,13,X0*%
%TO.N,1*%
X102940600Y-72009000D03*
%TO.P,U1,14,X1*%
%TO.N,2*%
X102940600Y-70739000D03*
%TO.P,U1,15,X2*%
%TO.N,3*%
X102940600Y-69469000D03*
%TO.P,U1,16,VDD*%
%TO.N,3V3*%
X102940600Y-68199000D03*
%TD*%
%TO.P,U2,1,X4*%
%TO.N,12*%
X95890600Y-68199000D03*
%TO.P,U2,2,X6*%
%TO.N,14*%
X95890600Y-69469000D03*
%TO.P,U2,3,X*%
%TO.N,ADC2*%
X95890600Y-70739000D03*
%TO.P,U2,4,X7*%
%TO.N,unconnected-(U2-Pad4)*%
X95890600Y-72009000D03*
%TO.P,U2,5,X5*%
%TO.N,13*%
X95890600Y-73279000D03*
%TO.P,U2,6,INH*%
%TO.N,GND*%
X95890600Y-74549000D03*
%TO.P,U2,7,VEE*%
X95890600Y-75819000D03*
%TO.P,U2,8,VSS*%
X95890600Y-77089000D03*
%TO.P,U2,9,C*%
%TO.N,C*%
X90940600Y-77089000D03*
%TO.P,U2,10,B*%
%TO.N,B*%
X90940600Y-75819000D03*
%TO.P,U2,11,A*%
%TO.N,A*%
X90940600Y-74549000D03*
%TO.P,U2,12,X3*%
%TO.N,11*%
X90940600Y-73279000D03*
%TO.P,U2,13,X0*%
%TO.N,8*%
X90940600Y-72009000D03*
%TO.P,U2,14,X1*%
%TO.N,9*%
X90940600Y-70739000D03*
%TO.P,U2,15,X2*%
%TO.N,10*%
X90940600Y-69469000D03*
%TO.P,U2,16,VDD*%
%TO.N,3V3*%
X90940600Y-68199000D03*
%TD*%
D12*
%TO.P,D14,1,K*%
%TO.N,3V3*%
X134415600Y-53915400D03*
D13*
%TO.P,D14,2,A*%
%TO.N,4*%
X134415600Y-56455400D03*
%TD*%
D12*
%TO.P,D5,1,K*%
%TO.N,GND*%
X114415600Y-50455400D03*
D13*
%TO.P,D5,2,A*%
%TO.N,Net-(D5-Pad2)*%
X114415600Y-47915400D03*
%TD*%
D12*
%TO.P,D10,1,K*%
%TO.N,GND*%
X159015600Y-96975400D03*
D13*
%TO.P,D10,2,A*%
%TO.N,Net-(D10-Pad2)*%
X159015600Y-94435400D03*
%TD*%
D12*
%TO.P,D1,1,K*%
%TO.N,GND*%
X104415600Y-50455400D03*
D13*
%TO.P,D1,2,A*%
%TO.N,Net-(D1-Pad2)*%
X104415600Y-47915400D03*
%TD*%
D12*
%TO.P,D4,1,K*%
%TO.N,3V3*%
X144415600Y-62815400D03*
D13*
%TO.P,D4,2,A*%
%TO.N,5*%
X144415600Y-65355400D03*
%TD*%
D12*
%TO.P,D18,1,K*%
%TO.N,GND*%
X54415600Y-59355400D03*
D13*
%TO.P,D18,2,A*%
%TO.N,Net-(D18-Pad2)*%
X54415600Y-56815400D03*
%TD*%
D12*
%TO.P,D7,1,K*%
%TO.N,3V3*%
X114415600Y-53915400D03*
D13*
%TO.P,D7,2,A*%
%TO.N,2*%
X114415600Y-56455400D03*
%TD*%
D12*
%TO.P,D19,1,K*%
%TO.N,3V3*%
X84415600Y-53915400D03*
D13*
%TO.P,D19,2,A*%
%TO.N,9*%
X84415600Y-56455400D03*
%TD*%
D12*
%TO.P,D27,1,K*%
%TO.N,3V3*%
X64415600Y-53915400D03*
D13*
%TO.P,D27,2,A*%
%TO.N,11*%
X64415600Y-56455400D03*
%TD*%
D17*
%TO.N,GND*%
X107416600Y-81965800D03*
X106070400Y-81965800D03*
X97967800Y-51612800D03*
X106095800Y-78638400D03*
X151673900Y-66613700D03*
X47093800Y-66677200D03*
%TO.N,3V3*%
X94975000Y-80225000D03*
X48006000Y-72898000D03*
X100863400Y-52654200D03*
X150825200Y-72644000D03*
X90940600Y-67115400D03*
%TO.N,5*%
X108075000Y-66675000D03*
%TO.N,2*%
X101712900Y-66025000D03*
%TO.N,6*%
X109875000Y-72575000D03*
%TO.N,3*%
X104571800Y-65430400D03*
%TO.N,7*%
X155295600Y-89611200D03*
%TO.N,4*%
X105714800Y-65811400D03*
%TO.N,9*%
X93776800Y-68402200D03*
%TO.N,12*%
X91389200Y-58267600D03*
X95875000Y-66525000D03*
%TO.N,10*%
X92608400Y-65278000D03*
%TO.N,13*%
X94005400Y-70942200D03*
%TO.N,11*%
X86461600Y-60575000D03*
%TO.N,14*%
X90754200Y-59639200D03*
X43713400Y-89611200D03*
X97561400Y-69469000D03*
%TO.N,A*%
X92774000Y-74549000D03*
X101523800Y-74549000D03*
%TO.N,B*%
X101523800Y-75819000D03*
X92786200Y-75819000D03*
%TO.N,C*%
X92786200Y-77089000D03*
X101523800Y-77089000D03*
%TD*%
D18*
%TO.N,GND*%
X107890600Y-74549000D02*
X107890600Y-77089000D01*
D19*
X45770800Y-74170200D02*
X43765600Y-76175400D01*
X47093800Y-66677200D02*
X45770800Y-68000200D01*
X45770800Y-68000200D02*
X45770800Y-74170200D01*
X135515600Y-50455400D02*
X144415600Y-59355400D01*
D18*
X102915600Y-82659200D02*
X103915600Y-82659200D01*
D19*
X144415600Y-59355400D02*
X151673900Y-66613700D01*
X98312400Y-50455400D02*
X134415600Y-50455400D01*
X151673900Y-66613700D02*
X153035000Y-67974800D01*
X153035000Y-67974800D02*
X153035000Y-74144800D01*
X63315600Y-50455400D02*
X54415600Y-59355400D01*
D18*
X97967800Y-51612800D02*
X97967800Y-50800000D01*
X97967800Y-50800000D02*
X98312400Y-50455400D01*
D19*
X64415600Y-50455400D02*
X63315600Y-50455400D01*
X134415600Y-50455400D02*
X135515600Y-50455400D01*
X54415600Y-59355400D02*
X47093800Y-66677200D01*
X153035000Y-74144800D02*
X155065600Y-76175400D01*
D18*
X95890600Y-74549000D02*
X95890600Y-77089000D01*
D19*
X64415600Y-50455400D02*
X98312400Y-50455400D01*
%TO.N,3V3*%
X48006000Y-75395000D02*
X43765600Y-79635400D01*
X43765600Y-79635400D02*
X41910000Y-81491000D01*
D20*
X99415600Y-56359400D02*
X99415600Y-54203600D01*
D19*
X134415600Y-53915400D02*
X135515600Y-53915400D01*
X41910000Y-97891600D02*
X39366200Y-100435400D01*
D18*
X108111200Y-59630400D02*
X108111200Y-53915400D01*
D19*
X159276578Y-100435400D02*
X160265600Y-100435400D01*
X144415600Y-62815400D02*
X150825200Y-69225000D01*
X150825200Y-72644000D02*
X150825200Y-75395000D01*
X156895800Y-81465600D02*
X156895800Y-98054622D01*
D20*
X90940600Y-67115400D02*
X90940600Y-64834400D01*
D19*
X150825200Y-69225000D02*
X150825200Y-72644000D01*
X100542000Y-53915400D02*
X108111200Y-53915400D01*
X39366200Y-100435400D02*
X38565600Y-100435400D01*
X48006000Y-69225000D02*
X48006000Y-72898000D01*
D18*
X102940600Y-64801000D02*
X108111200Y-59630400D01*
D19*
X156895800Y-98054622D02*
X159276578Y-100435400D01*
D18*
X102940600Y-68199000D02*
X102940600Y-64801000D01*
D19*
X41910000Y-81491000D02*
X41910000Y-97891600D01*
X150825200Y-75395000D02*
X155065600Y-79635400D01*
X64415600Y-53915400D02*
X99127400Y-53915400D01*
D18*
X100863400Y-53594000D02*
X100542000Y-53915400D01*
D19*
X64415600Y-53915400D02*
X63315600Y-53915400D01*
X63315600Y-53915400D02*
X54415600Y-62815400D01*
D20*
X99415600Y-54203600D02*
X99127400Y-53915400D01*
D19*
X54415600Y-62815400D02*
X48006000Y-69225000D01*
D18*
X95915600Y-82659200D02*
X94915600Y-82659200D01*
D19*
X48006000Y-72898000D02*
X48006000Y-75395000D01*
X135515600Y-53915400D02*
X144415600Y-62815400D01*
X99127400Y-53915400D02*
X100542000Y-53915400D01*
D20*
X90940600Y-64834400D02*
X99415600Y-56359400D01*
D18*
X94975000Y-82599800D02*
X94915600Y-82659200D01*
D19*
X108111200Y-53915400D02*
X134415600Y-53915400D01*
X155065600Y-79635400D02*
X156895800Y-81465600D01*
D18*
X100863400Y-52654200D02*
X100863400Y-53594000D01*
X90940600Y-68199000D02*
X90940600Y-67115400D01*
%TO.N,1*%
X102940600Y-72009000D02*
X101447600Y-72009000D01*
X99847400Y-70408800D02*
X99847400Y-65963800D01*
X101447600Y-72009000D02*
X99847400Y-70408800D01*
X104415600Y-61395600D02*
X104415600Y-56455400D01*
X99847400Y-65963800D02*
X104415600Y-61395600D01*
%TO.N,5*%
X108075000Y-68014600D02*
X107890600Y-68199000D01*
X108075000Y-66675000D02*
X108075000Y-68014600D01*
%TO.N,2*%
X100939600Y-66798300D02*
X100939600Y-69875400D01*
X101803200Y-70739000D02*
X102940600Y-70739000D01*
X100939600Y-69875400D02*
X101803200Y-70739000D01*
X101712900Y-66025000D02*
X100939600Y-66798300D01*
%TO.N,6*%
X109875000Y-72575000D02*
X109171000Y-73279000D01*
X109171000Y-73279000D02*
X107890600Y-73279000D01*
%TO.N,3*%
X104140000Y-69469000D02*
X102940600Y-69469000D01*
X104571800Y-69037200D02*
X104140000Y-69469000D01*
X104571800Y-65430400D02*
X104571800Y-69037200D01*
%TO.N,7*%
X152800000Y-82975000D02*
X152800000Y-79125000D01*
X155295600Y-89611200D02*
X155295600Y-85470600D01*
X155295600Y-98005400D02*
X155295600Y-89611200D01*
X110464600Y-65481200D02*
X110464600Y-68610400D01*
X152800000Y-79125000D02*
X145313400Y-71638400D01*
X109606000Y-69469000D02*
X107890600Y-69469000D01*
X110464600Y-68610400D02*
X109606000Y-69469000D01*
X145313400Y-71638400D02*
X145313400Y-69926200D01*
X155295600Y-85470600D02*
X152800000Y-82975000D01*
X114808000Y-61137800D02*
X110464600Y-65481200D01*
X145313400Y-69926200D02*
X136525000Y-61137800D01*
X160265600Y-102975400D02*
X155295600Y-98005400D01*
X136525000Y-61137800D02*
X114808000Y-61137800D01*
%TO.N,4*%
X105714800Y-65811400D02*
X105714800Y-71057649D01*
X103493449Y-73279000D02*
X102940600Y-73279000D01*
X105714800Y-71057649D02*
X103493449Y-73279000D01*
%TO.N,8*%
X89204800Y-64770000D02*
X89204800Y-71374000D01*
X94415600Y-56455400D02*
X94415600Y-59559200D01*
X94415600Y-59559200D02*
X89204800Y-64770000D01*
X89839800Y-72009000D02*
X90940600Y-72009000D01*
X89204800Y-71374000D02*
X89839800Y-72009000D01*
%TO.N,9*%
X93776800Y-68402200D02*
X93776800Y-69342000D01*
X93776800Y-69342000D02*
X92379800Y-70739000D01*
X92379800Y-70739000D02*
X90940600Y-70739000D01*
%TO.N,12*%
X65024000Y-58267600D02*
X57936200Y-65355400D01*
X57936200Y-65355400D02*
X54415600Y-65355400D01*
X95875000Y-68183400D02*
X95890600Y-68199000D01*
X95875000Y-66525000D02*
X95875000Y-68183400D01*
X91389200Y-58267600D02*
X65024000Y-58267600D01*
%TO.N,10*%
X92125800Y-69469000D02*
X90940600Y-69469000D01*
X92608400Y-68986400D02*
X92125800Y-69469000D01*
X92608400Y-65278000D02*
X92608400Y-68986400D01*
%TO.N,13*%
X95337751Y-73279000D02*
X95890600Y-73279000D01*
X94005400Y-70942200D02*
X94005400Y-71946649D01*
X94005400Y-71946649D02*
X95337751Y-73279000D01*
%TO.N,11*%
X86461600Y-60575000D02*
X88138000Y-62251400D01*
X88138000Y-62251400D02*
X88138000Y-72059800D01*
X89357200Y-73279000D02*
X90940600Y-73279000D01*
X88138000Y-72059800D02*
X89357200Y-73279000D01*
%TO.N,14*%
X43713400Y-85386600D02*
X43713400Y-89611200D01*
X97561400Y-69469000D02*
X95890600Y-69469000D01*
X43713400Y-97827600D02*
X43713400Y-89611200D01*
X65074800Y-59639200D02*
X49925000Y-74789000D01*
X49925000Y-74789000D02*
X49925000Y-75957400D01*
X46850000Y-82250000D02*
X43713400Y-85386600D01*
X46850000Y-79032400D02*
X46850000Y-82250000D01*
X90754200Y-59639200D02*
X65074800Y-59639200D01*
X49925000Y-75957400D02*
X46850000Y-79032400D01*
X38565600Y-102975400D02*
X43713400Y-97827600D01*
%TO.N,ADC1*%
X101930200Y-79883000D02*
X100915600Y-80897600D01*
X110769400Y-77089000D02*
X107975400Y-79883000D01*
X107975400Y-79883000D02*
X101930200Y-79883000D01*
X107890600Y-70739000D02*
X109880400Y-70739000D01*
X100915600Y-80897600D02*
X100915600Y-82659200D01*
X109880400Y-70739000D02*
X110769400Y-71628000D01*
X110769400Y-71628000D02*
X110769400Y-77089000D01*
%TO.N,A*%
X90940600Y-74549000D02*
X92774000Y-74549000D01*
X97915600Y-78157200D02*
X101523800Y-74549000D01*
X101523800Y-74549000D02*
X102940600Y-74549000D01*
X97915600Y-82659200D02*
X97915600Y-78157200D01*
%TO.N,B*%
X98915600Y-82659200D02*
X98915600Y-78427200D01*
X98915600Y-78427200D02*
X101523800Y-75819000D01*
X90940600Y-75819000D02*
X92786200Y-75819000D01*
X101523800Y-75819000D02*
X102940600Y-75819000D01*
%TO.N,C*%
X101523800Y-77089000D02*
X102940600Y-77089000D01*
X99915600Y-78697200D02*
X101523800Y-77089000D01*
X99915600Y-82659200D02*
X99915600Y-78697200D01*
X90940600Y-77089000D02*
X92786200Y-77089000D01*
%TO.N,ADC2*%
X96915600Y-78039600D02*
X97942400Y-77012800D01*
X97104200Y-70739000D02*
X95890600Y-70739000D01*
X97942400Y-71577200D02*
X97104200Y-70739000D01*
X96915600Y-82659200D02*
X96915600Y-78039600D01*
X97942400Y-77012800D02*
X97942400Y-71577200D01*
%TD*%
%TA.AperFunction,Conductor*%
%TO.N,GND*%
G36*
X99463638Y-30846652D02*
G01*
X125398433Y-41541931D01*
X125413969Y-41550324D01*
X125419591Y-41553090D01*
X125427008Y-41558159D01*
X125473799Y-41573404D01*
X125482762Y-41576707D01*
X125493692Y-41581215D01*
X125508217Y-41584906D01*
X125516180Y-41587213D01*
X125565500Y-41603283D01*
X125574475Y-41603557D01*
X125582429Y-41604945D01*
X125590419Y-41605800D01*
X125599113Y-41608010D01*
X125608079Y-41607691D01*
X125608081Y-41607691D01*
X125643004Y-41606447D01*
X125650940Y-41606165D01*
X125659261Y-41606144D01*
X125711090Y-41607725D01*
X125719783Y-41605468D01*
X125727775Y-41604571D01*
X125735703Y-41603146D01*
X125744678Y-41602827D01*
X125793906Y-41586509D01*
X125801889Y-41584153D01*
X125843385Y-41573380D01*
X125843386Y-41573380D01*
X125852074Y-41571124D01*
X125859779Y-41566522D01*
X125867219Y-41563409D01*
X125874420Y-41559821D01*
X125882937Y-41556997D01*
X125895748Y-41548147D01*
X125925616Y-41527512D01*
X125932619Y-41523009D01*
X125969411Y-41501031D01*
X125977120Y-41496426D01*
X125983226Y-41489843D01*
X125989500Y-41484762D01*
X125995393Y-41479307D01*
X126002778Y-41474205D01*
X126035459Y-41433935D01*
X126040915Y-41427648D01*
X126070070Y-41396215D01*
X126070070Y-41396214D01*
X126076173Y-41389635D01*
X126080182Y-41381609D01*
X126084764Y-41374992D01*
X126088905Y-41368076D01*
X126094563Y-41361104D01*
X126114634Y-41313264D01*
X126118096Y-41305723D01*
X126137260Y-41267367D01*
X126137261Y-41267364D01*
X126141273Y-41259334D01*
X126142870Y-41250498D01*
X126145416Y-41242844D01*
X126147444Y-41235064D01*
X126150916Y-41226789D01*
X126156751Y-41175262D01*
X126157960Y-41167032D01*
X126160316Y-41154000D01*
X126160317Y-41153994D01*
X126161183Y-41149201D01*
X126161454Y-41138101D01*
X126162216Y-41127001D01*
X126166295Y-41090973D01*
X126167305Y-41082056D01*
X126165492Y-41071601D01*
X126163676Y-41047001D01*
X126180799Y-40344960D01*
X126240238Y-37907907D01*
X126261896Y-37840295D01*
X126316669Y-37795124D01*
X126387168Y-37786737D01*
X126418857Y-37796510D01*
X136827013Y-42584262D01*
X136875124Y-42623089D01*
X144816389Y-53202408D01*
X159002310Y-72100831D01*
X159026699Y-72161932D01*
X163810377Y-113339083D01*
X163798370Y-113409057D01*
X163750438Y-113461431D01*
X163681799Y-113479577D01*
X163614246Y-113457733D01*
X163574535Y-113413832D01*
X162833771Y-112052057D01*
X156766138Y-100897702D01*
X156751158Y-100828304D01*
X156776075Y-100761823D01*
X156832978Y-100719367D01*
X156903802Y-100714415D01*
X156965917Y-100748398D01*
X158839617Y-102622098D01*
X158873643Y-102684410D01*
X158875809Y-102724582D01*
X158873123Y-102749718D01*
X158852695Y-102940869D01*
X158852992Y-102946022D01*
X158852992Y-102946025D01*
X158858667Y-103044441D01*
X158866027Y-103172097D01*
X158867164Y-103177143D01*
X158867165Y-103177149D01*
X158899341Y-103319923D01*
X158916946Y-103398042D01*
X158918888Y-103402824D01*
X158918889Y-103402828D01*
X158978291Y-103549116D01*
X159004084Y-103612637D01*
X159125101Y-103810119D01*
X159276747Y-103985184D01*
X159454949Y-104133130D01*
X159654922Y-104249984D01*
X159871294Y-104332609D01*
X159876360Y-104333640D01*
X159876361Y-104333640D01*
X159929446Y-104344440D01*
X160098256Y-104378785D01*
X160228924Y-104383576D01*
X160324549Y-104387083D01*
X160324553Y-104387083D01*
X160329713Y-104387272D01*
X160334833Y-104386616D01*
X160334835Y-104386616D01*
X160407870Y-104377260D01*
X160559447Y-104357842D01*
X160564395Y-104356357D01*
X160564402Y-104356356D01*
X160776347Y-104292769D01*
X160781290Y-104291286D01*
X160861836Y-104251827D01*
X160984649Y-104191662D01*
X160984652Y-104191660D01*
X160989284Y-104189391D01*
X161177843Y-104054894D01*
X161341903Y-103891405D01*
X161477058Y-103703317D01*
X161524241Y-103607850D01*
X161577384Y-103500322D01*
X161577385Y-103500320D01*
X161579678Y-103495680D01*
X161647008Y-103274071D01*
X161677240Y-103044441D01*
X161678927Y-102975400D01*
X161670910Y-102877882D01*
X161660373Y-102749718D01*
X161660372Y-102749712D01*
X161659949Y-102744567D01*
X161603525Y-102519933D01*
X161601466Y-102515197D01*
X161513230Y-102312268D01*
X161513228Y-102312265D01*
X161511170Y-102307531D01*
X161385364Y-102113065D01*
X161295448Y-102014248D01*
X161264396Y-101950402D01*
X161272792Y-101879904D01*
X161317969Y-101825136D01*
X161344412Y-101811467D01*
X161403897Y-101789167D01*
X161412305Y-101786015D01*
X161528861Y-101698661D01*
X161616215Y-101582105D01*
X161667345Y-101445716D01*
X161674100Y-101383534D01*
X161674100Y-99487266D01*
X161667345Y-99425084D01*
X161616215Y-99288695D01*
X161528861Y-99172139D01*
X161412305Y-99084785D01*
X161275916Y-99033655D01*
X161213734Y-99026900D01*
X159346502Y-99026900D01*
X159278381Y-99006898D01*
X159257407Y-98989995D01*
X157941205Y-97673793D01*
X157907179Y-97611481D01*
X157904300Y-97584698D01*
X157904300Y-95611898D01*
X157924302Y-95543777D01*
X157977958Y-95497284D01*
X158048232Y-95487180D01*
X158110785Y-95514953D01*
X158204949Y-95593130D01*
X158404922Y-95709984D01*
X158621294Y-95792609D01*
X158626360Y-95793640D01*
X158626361Y-95793640D01*
X158679446Y-95804440D01*
X158848256Y-95838785D01*
X158978924Y-95843576D01*
X159074549Y-95847083D01*
X159074553Y-95847083D01*
X159079713Y-95847272D01*
X159084833Y-95846616D01*
X159084835Y-95846616D01*
X159157870Y-95837260D01*
X159309447Y-95817842D01*
X159314395Y-95816357D01*
X159314402Y-95816356D01*
X159526347Y-95752769D01*
X159531290Y-95751286D01*
X159611836Y-95711827D01*
X159734649Y-95651662D01*
X159734652Y-95651660D01*
X159739284Y-95649391D01*
X159927843Y-95514894D01*
X160091903Y-95351405D01*
X160227058Y-95163317D01*
X160274241Y-95067850D01*
X160327384Y-94960322D01*
X160327385Y-94960320D01*
X160329678Y-94955680D01*
X160397008Y-94734071D01*
X160427240Y-94504441D01*
X160428927Y-94435400D01*
X160414045Y-94254383D01*
X160410373Y-94209718D01*
X160410372Y-94209712D01*
X160409949Y-94204567D01*
X160370521Y-94047598D01*
X160354784Y-93984944D01*
X160354783Y-93984940D01*
X160353525Y-93979933D01*
X160348275Y-93967859D01*
X160263230Y-93772268D01*
X160263228Y-93772265D01*
X160261170Y-93767531D01*
X160135364Y-93573065D01*
X160125572Y-93562303D01*
X160058623Y-93488728D01*
X159979487Y-93401758D01*
X159975436Y-93398559D01*
X159975432Y-93398555D01*
X159801777Y-93261411D01*
X159801772Y-93261408D01*
X159797723Y-93258210D01*
X159793207Y-93255717D01*
X159793204Y-93255715D01*
X159599479Y-93148773D01*
X159599475Y-93148771D01*
X159594955Y-93146276D01*
X159590086Y-93144552D01*
X159590082Y-93144550D01*
X159381503Y-93070688D01*
X159381499Y-93070687D01*
X159376628Y-93068962D01*
X159371535Y-93068055D01*
X159371532Y-93068054D01*
X159153695Y-93029251D01*
X159153689Y-93029250D01*
X159148606Y-93028345D01*
X159075696Y-93027454D01*
X158922181Y-93025579D01*
X158922179Y-93025579D01*
X158917011Y-93025516D01*
X158688064Y-93060550D01*
X158467914Y-93132506D01*
X158463326Y-93134894D01*
X158463322Y-93134896D01*
X158436665Y-93148773D01*
X158262472Y-93239452D01*
X158258339Y-93242555D01*
X158258336Y-93242557D01*
X158105953Y-93356970D01*
X158039468Y-93381876D01*
X157970073Y-93366884D01*
X157919799Y-93316753D01*
X157904300Y-93256210D01*
X157904300Y-81527450D01*
X157905037Y-81513842D01*
X157907237Y-81493593D01*
X157909125Y-81476212D01*
X157904747Y-81426170D01*
X157904421Y-81421388D01*
X157904300Y-81418910D01*
X157904300Y-81415831D01*
X157904001Y-81412777D01*
X157904000Y-81412766D01*
X157900113Y-81373129D01*
X157899991Y-81371815D01*
X157894516Y-81309238D01*
X157891887Y-81279187D01*
X157890400Y-81274068D01*
X157889880Y-81268767D01*
X157863009Y-81179766D01*
X157862674Y-81178633D01*
X157838430Y-81095186D01*
X157838428Y-81095182D01*
X157836709Y-81089264D01*
X157834256Y-81084532D01*
X157832716Y-81079431D01*
X157819247Y-81054099D01*
X157789069Y-80997340D01*
X157788457Y-80996174D01*
X157748529Y-80919147D01*
X157745692Y-80913674D01*
X157742369Y-80909511D01*
X157739866Y-80904804D01*
X157722414Y-80883405D01*
X157681061Y-80832702D01*
X157680233Y-80831675D01*
X157651269Y-80795392D01*
X157651264Y-80795387D01*
X157649062Y-80792628D01*
X157646561Y-80790127D01*
X157645919Y-80789409D01*
X157642206Y-80785061D01*
X157624297Y-80763103D01*
X157614865Y-80751538D01*
X157610123Y-80747615D01*
X157610121Y-80747613D01*
X157579527Y-80722303D01*
X157570747Y-80714313D01*
X156511005Y-79654571D01*
X156476979Y-79592259D01*
X156474100Y-79565476D01*
X156474100Y-78687266D01*
X156467345Y-78625084D01*
X156416215Y-78488695D01*
X156328861Y-78372139D01*
X156212305Y-78284785D01*
X156075916Y-78233655D01*
X156013734Y-78226900D01*
X155135525Y-78226900D01*
X155067404Y-78206898D01*
X155046430Y-78189995D01*
X151870605Y-75014171D01*
X151836579Y-74951859D01*
X151833700Y-74925076D01*
X151833700Y-73600869D01*
X153652695Y-73600869D01*
X153652992Y-73606022D01*
X153652992Y-73606025D01*
X153661090Y-73746466D01*
X153666027Y-73832097D01*
X153667164Y-73837143D01*
X153667165Y-73837149D01*
X153692112Y-73947844D01*
X153716946Y-74058042D01*
X153718888Y-74062824D01*
X153718889Y-74062828D01*
X153789237Y-74236073D01*
X153804084Y-74272637D01*
X153925101Y-74470119D01*
X154076747Y-74645184D01*
X154254949Y-74793130D01*
X154454922Y-74909984D01*
X154671294Y-74992609D01*
X154676360Y-74993640D01*
X154676361Y-74993640D01*
X154729446Y-75004440D01*
X154898256Y-75038785D01*
X155028924Y-75043576D01*
X155124549Y-75047083D01*
X155124553Y-75047083D01*
X155129713Y-75047272D01*
X155134833Y-75046616D01*
X155134835Y-75046616D01*
X155207870Y-75037260D01*
X155359447Y-75017842D01*
X155364395Y-75016357D01*
X155364402Y-75016356D01*
X155576347Y-74952769D01*
X155581290Y-74951286D01*
X155632336Y-74926279D01*
X155784649Y-74851662D01*
X155784652Y-74851660D01*
X155789284Y-74849391D01*
X155977843Y-74714894D01*
X156141903Y-74551405D01*
X156277058Y-74363317D01*
X156293504Y-74330042D01*
X156377384Y-74160322D01*
X156377385Y-74160320D01*
X156379678Y-74155680D01*
X156447008Y-73934071D01*
X156477240Y-73704441D01*
X156477363Y-73699427D01*
X156478845Y-73638765D01*
X156478845Y-73638761D01*
X156478927Y-73635400D01*
X156469967Y-73526421D01*
X156460373Y-73409718D01*
X156460372Y-73409712D01*
X156459949Y-73404567D01*
X156425508Y-73267450D01*
X156404784Y-73184944D01*
X156404783Y-73184940D01*
X156403525Y-73179933D01*
X156401466Y-73175197D01*
X156313230Y-72972268D01*
X156313228Y-72972265D01*
X156311170Y-72967531D01*
X156185364Y-72773065D01*
X156180551Y-72767775D01*
X156087979Y-72666040D01*
X156029487Y-72601758D01*
X156025436Y-72598559D01*
X156025432Y-72598555D01*
X155851777Y-72461411D01*
X155851772Y-72461408D01*
X155847723Y-72458210D01*
X155843207Y-72455717D01*
X155843204Y-72455715D01*
X155649479Y-72348773D01*
X155649475Y-72348771D01*
X155644955Y-72346276D01*
X155640086Y-72344552D01*
X155640082Y-72344550D01*
X155431503Y-72270688D01*
X155431499Y-72270687D01*
X155426628Y-72268962D01*
X155421535Y-72268055D01*
X155421532Y-72268054D01*
X155203695Y-72229251D01*
X155203689Y-72229250D01*
X155198606Y-72228345D01*
X155125696Y-72227454D01*
X154972181Y-72225579D01*
X154972179Y-72225579D01*
X154967011Y-72225516D01*
X154738064Y-72260550D01*
X154517914Y-72332506D01*
X154513326Y-72334894D01*
X154513322Y-72334896D01*
X154336106Y-72427149D01*
X154312472Y-72439452D01*
X154308339Y-72442555D01*
X154308336Y-72442557D01*
X154131390Y-72575412D01*
X154127255Y-72578517D01*
X153967239Y-72745964D01*
X153964325Y-72750236D01*
X153964324Y-72750237D01*
X153951088Y-72769641D01*
X153836719Y-72937299D01*
X153739202Y-73147381D01*
X153677307Y-73370569D01*
X153652695Y-73600869D01*
X151833700Y-73600869D01*
X151833700Y-69286842D01*
X151834437Y-69273235D01*
X151837859Y-69241737D01*
X151837859Y-69241732D01*
X151838524Y-69235611D01*
X151834150Y-69185609D01*
X151833821Y-69180784D01*
X151833700Y-69178313D01*
X151833700Y-69175231D01*
X151829509Y-69132489D01*
X151829387Y-69131174D01*
X151821823Y-69044719D01*
X151821287Y-69038587D01*
X151819800Y-69033468D01*
X151819280Y-69028167D01*
X151792418Y-68939194D01*
X151792062Y-68937994D01*
X151788911Y-68927148D01*
X151766109Y-68848663D01*
X151763655Y-68843929D01*
X151762116Y-68838831D01*
X151755348Y-68826102D01*
X151718516Y-68756831D01*
X151717902Y-68755663D01*
X151677926Y-68678541D01*
X151677925Y-68678540D01*
X151675092Y-68673074D01*
X151671769Y-68668911D01*
X151669266Y-68664204D01*
X151663975Y-68657716D01*
X151615951Y-68598834D01*
X151610445Y-68592082D01*
X151609754Y-68591226D01*
X151578462Y-68552027D01*
X151575958Y-68549523D01*
X151575316Y-68548805D01*
X151571615Y-68544472D01*
X151544265Y-68510938D01*
X151532214Y-68500968D01*
X151508938Y-68481713D01*
X151500158Y-68473723D01*
X148680845Y-65654410D01*
X145861004Y-62834570D01*
X145826979Y-62772259D01*
X145824100Y-62745476D01*
X145824100Y-61867266D01*
X145817345Y-61805084D01*
X145766215Y-61668695D01*
X145678861Y-61552139D01*
X145562305Y-61464785D01*
X145425916Y-61413655D01*
X145363734Y-61406900D01*
X144485524Y-61406900D01*
X144417403Y-61386898D01*
X144396429Y-61369995D01*
X139807303Y-56780869D01*
X143002695Y-56780869D01*
X143002992Y-56786022D01*
X143002992Y-56786025D01*
X143014464Y-56984991D01*
X143016027Y-57012097D01*
X143017164Y-57017143D01*
X143017165Y-57017149D01*
X143049341Y-57159923D01*
X143066946Y-57238042D01*
X143068888Y-57242824D01*
X143068889Y-57242828D01*
X143118573Y-57365185D01*
X143154084Y-57452637D01*
X143275101Y-57650119D01*
X143426747Y-57825184D01*
X143604949Y-57973130D01*
X143804922Y-58089984D01*
X144021294Y-58172609D01*
X144026360Y-58173640D01*
X144026361Y-58173640D01*
X144079446Y-58184440D01*
X144248256Y-58218785D01*
X144378924Y-58223576D01*
X144474549Y-58227083D01*
X144474553Y-58227083D01*
X144479713Y-58227272D01*
X144484833Y-58226616D01*
X144484835Y-58226616D01*
X144557870Y-58217260D01*
X144709447Y-58197842D01*
X144714395Y-58196357D01*
X144714402Y-58196356D01*
X144926347Y-58132769D01*
X144931290Y-58131286D01*
X145011836Y-58091827D01*
X145134649Y-58031662D01*
X145134652Y-58031660D01*
X145139284Y-58029391D01*
X145327843Y-57894894D01*
X145491903Y-57731405D01*
X145627058Y-57543317D01*
X145667605Y-57461277D01*
X145727384Y-57340322D01*
X145727385Y-57340320D01*
X145729678Y-57335680D01*
X145797008Y-57114071D01*
X145827240Y-56884441D01*
X145827322Y-56881091D01*
X145828845Y-56818765D01*
X145828845Y-56818761D01*
X145828927Y-56815400D01*
X145821468Y-56724674D01*
X145810373Y-56589718D01*
X145810372Y-56589712D01*
X145809949Y-56584567D01*
X145760192Y-56386474D01*
X145754784Y-56364944D01*
X145754783Y-56364940D01*
X145753525Y-56359933D01*
X145751466Y-56355197D01*
X145663230Y-56152268D01*
X145663228Y-56152265D01*
X145661170Y-56147531D01*
X145535364Y-55953065D01*
X145379487Y-55781758D01*
X145375436Y-55778559D01*
X145375432Y-55778555D01*
X145201777Y-55641411D01*
X145201772Y-55641408D01*
X145197723Y-55638210D01*
X145193207Y-55635717D01*
X145193204Y-55635715D01*
X144999479Y-55528773D01*
X144999475Y-55528771D01*
X144994955Y-55526276D01*
X144990086Y-55524552D01*
X144990082Y-55524550D01*
X144781503Y-55450688D01*
X144781499Y-55450687D01*
X144776628Y-55448962D01*
X144771535Y-55448055D01*
X144771532Y-55448054D01*
X144553695Y-55409251D01*
X144553689Y-55409250D01*
X144548606Y-55408345D01*
X144475696Y-55407454D01*
X144322181Y-55405579D01*
X144322179Y-55405579D01*
X144317011Y-55405516D01*
X144088064Y-55440550D01*
X143867914Y-55512506D01*
X143863326Y-55514894D01*
X143863322Y-55514896D01*
X143713161Y-55593065D01*
X143662472Y-55619452D01*
X143658339Y-55622555D01*
X143658336Y-55622557D01*
X143504080Y-55738376D01*
X143477255Y-55758517D01*
X143317239Y-55925964D01*
X143314325Y-55930236D01*
X143314324Y-55930237D01*
X143298752Y-55953065D01*
X143186719Y-56117299D01*
X143089202Y-56327381D01*
X143027307Y-56550569D01*
X143002695Y-56780869D01*
X139807303Y-56780869D01*
X136272455Y-53246021D01*
X136263353Y-53235878D01*
X136243497Y-53211182D01*
X136239632Y-53206375D01*
X136201178Y-53174108D01*
X136197531Y-53170928D01*
X136195719Y-53169285D01*
X136193525Y-53167091D01*
X136160251Y-53139758D01*
X136159453Y-53139096D01*
X136088126Y-53079246D01*
X136083456Y-53076678D01*
X136079339Y-53073297D01*
X135997514Y-53029423D01*
X135996355Y-53028794D01*
X135920219Y-52986938D01*
X135920211Y-52986935D01*
X135914813Y-52983967D01*
X135909731Y-52982355D01*
X135905037Y-52979838D01*
X135896998Y-52977380D01*
X135896022Y-52976737D01*
X135893455Y-52975669D01*
X135893658Y-52975181D01*
X135837704Y-52938335D01*
X135815858Y-52901117D01*
X135769367Y-52777103D01*
X135766215Y-52768695D01*
X135678861Y-52652139D01*
X135562305Y-52564785D01*
X135425916Y-52513655D01*
X135363734Y-52506900D01*
X133467466Y-52506900D01*
X133405284Y-52513655D01*
X133268895Y-52564785D01*
X133152339Y-52652139D01*
X133064985Y-52768695D01*
X133061833Y-52777103D01*
X133043828Y-52825130D01*
X133001186Y-52881895D01*
X132934624Y-52906594D01*
X132925846Y-52906900D01*
X125905354Y-52906900D01*
X125837233Y-52886898D01*
X125790740Y-52833242D01*
X125787372Y-52825130D01*
X125769367Y-52777103D01*
X125766215Y-52768695D01*
X125678861Y-52652139D01*
X125562305Y-52564785D01*
X125425916Y-52513655D01*
X125363734Y-52506900D01*
X123467466Y-52506900D01*
X123405284Y-52513655D01*
X123268895Y-52564785D01*
X123152339Y-52652139D01*
X123064985Y-52768695D01*
X123061833Y-52777103D01*
X123043828Y-52825130D01*
X123001186Y-52881895D01*
X122934624Y-52906594D01*
X122925846Y-52906900D01*
X115905354Y-52906900D01*
X115837233Y-52886898D01*
X115790740Y-52833242D01*
X115787372Y-52825130D01*
X115769367Y-52777103D01*
X115766215Y-52768695D01*
X115678861Y-52652139D01*
X115562305Y-52564785D01*
X115425916Y-52513655D01*
X115363734Y-52506900D01*
X113467466Y-52506900D01*
X113405284Y-52513655D01*
X113268895Y-52564785D01*
X113152339Y-52652139D01*
X113064985Y-52768695D01*
X113061833Y-52777103D01*
X113043828Y-52825130D01*
X113001186Y-52881895D01*
X112934624Y-52906594D01*
X112925846Y-52906900D01*
X105905354Y-52906900D01*
X105837233Y-52886898D01*
X105790740Y-52833242D01*
X105787372Y-52825130D01*
X105769367Y-52777103D01*
X105766215Y-52768695D01*
X105678861Y-52652139D01*
X105562305Y-52564785D01*
X105425916Y-52513655D01*
X105363734Y-52506900D01*
X103467466Y-52506900D01*
X103405284Y-52513655D01*
X103268895Y-52564785D01*
X103152339Y-52652139D01*
X103064985Y-52768695D01*
X103061833Y-52777103D01*
X103043828Y-52825130D01*
X103001186Y-52881895D01*
X102934624Y-52906594D01*
X102925846Y-52906900D01*
X101890282Y-52906900D01*
X101822161Y-52886898D01*
X101775668Y-52833242D01*
X101764972Y-52767730D01*
X101776214Y-52660765D01*
X101776904Y-52654200D01*
X101756942Y-52464272D01*
X101697927Y-52282644D01*
X101602440Y-52117256D01*
X101474653Y-51975334D01*
X101320152Y-51863082D01*
X101314124Y-51860398D01*
X101314122Y-51860397D01*
X101151719Y-51788091D01*
X101151718Y-51788091D01*
X101145688Y-51785406D01*
X101052288Y-51765553D01*
X100965344Y-51747072D01*
X100965339Y-51747072D01*
X100958887Y-51745700D01*
X100767913Y-51745700D01*
X100761461Y-51747072D01*
X100761456Y-51747072D01*
X100674512Y-51765553D01*
X100581112Y-51785406D01*
X100575082Y-51788091D01*
X100575081Y-51788091D01*
X100412678Y-51860397D01*
X100412676Y-51860398D01*
X100406648Y-51863082D01*
X100252147Y-51975334D01*
X100124360Y-52117256D01*
X100028873Y-52282644D01*
X99969858Y-52464272D01*
X99949896Y-52654200D01*
X99950586Y-52660765D01*
X99961828Y-52767730D01*
X99949056Y-52837568D01*
X99900553Y-52889415D01*
X99836518Y-52906900D01*
X95905354Y-52906900D01*
X95837233Y-52886898D01*
X95790740Y-52833242D01*
X95787372Y-52825130D01*
X95769367Y-52777103D01*
X95766215Y-52768695D01*
X95678861Y-52652139D01*
X95562305Y-52564785D01*
X95425916Y-52513655D01*
X95363734Y-52506900D01*
X93467466Y-52506900D01*
X93405284Y-52513655D01*
X93268895Y-52564785D01*
X93152339Y-52652139D01*
X93064985Y-52768695D01*
X93061833Y-52777103D01*
X93043828Y-52825130D01*
X93001186Y-52881895D01*
X92934624Y-52906594D01*
X92925846Y-52906900D01*
X85905354Y-52906900D01*
X85837233Y-52886898D01*
X85790740Y-52833242D01*
X85787372Y-52825130D01*
X85769367Y-52777103D01*
X85766215Y-52768695D01*
X85678861Y-52652139D01*
X85562305Y-52564785D01*
X85425916Y-52513655D01*
X85363734Y-52506900D01*
X83467466Y-52506900D01*
X83405284Y-52513655D01*
X83268895Y-52564785D01*
X83152339Y-52652139D01*
X83064985Y-52768695D01*
X83061833Y-52777103D01*
X83043828Y-52825130D01*
X83001186Y-52881895D01*
X82934624Y-52906594D01*
X82925846Y-52906900D01*
X75905354Y-52906900D01*
X75837233Y-52886898D01*
X75790740Y-52833242D01*
X75787372Y-52825130D01*
X75769367Y-52777103D01*
X75766215Y-52768695D01*
X75678861Y-52652139D01*
X75562305Y-52564785D01*
X75425916Y-52513655D01*
X75363734Y-52506900D01*
X73467466Y-52506900D01*
X73405284Y-52513655D01*
X73268895Y-52564785D01*
X73152339Y-52652139D01*
X73064985Y-52768695D01*
X73061833Y-52777103D01*
X73043828Y-52825130D01*
X73001186Y-52881895D01*
X72934624Y-52906594D01*
X72925846Y-52906900D01*
X65905354Y-52906900D01*
X65837233Y-52886898D01*
X65790740Y-52833242D01*
X65787372Y-52825130D01*
X65769367Y-52777103D01*
X65766215Y-52768695D01*
X65678861Y-52652139D01*
X65562305Y-52564785D01*
X65425916Y-52513655D01*
X65363734Y-52506900D01*
X63467466Y-52506900D01*
X63405284Y-52513655D01*
X63268895Y-52564785D01*
X63152339Y-52652139D01*
X63064985Y-52768695D01*
X63061833Y-52777103D01*
X63061832Y-52777105D01*
X63015648Y-52900301D01*
X62973007Y-52957066D01*
X62944750Y-52972897D01*
X62939264Y-52974491D01*
X62934532Y-52976944D01*
X62929431Y-52978484D01*
X62923988Y-52981378D01*
X62847340Y-53022131D01*
X62846174Y-53022743D01*
X62769147Y-53062671D01*
X62763674Y-53065508D01*
X62759511Y-53068831D01*
X62754804Y-53071334D01*
X62750029Y-53075228D01*
X62750028Y-53075229D01*
X62682702Y-53130139D01*
X62681675Y-53130967D01*
X62645392Y-53159931D01*
X62645387Y-53159936D01*
X62642628Y-53162138D01*
X62640127Y-53164639D01*
X62639409Y-53165281D01*
X62635061Y-53168994D01*
X62601538Y-53196335D01*
X62597615Y-53201077D01*
X62597613Y-53201079D01*
X62572303Y-53231673D01*
X62564313Y-53240453D01*
X54434771Y-61369995D01*
X54372459Y-61404021D01*
X54345676Y-61406900D01*
X53467466Y-61406900D01*
X53405284Y-61413655D01*
X53268895Y-61464785D01*
X53152339Y-61552139D01*
X53064985Y-61668695D01*
X53013855Y-61805084D01*
X53007100Y-61867266D01*
X53007100Y-62745475D01*
X52987098Y-62813596D01*
X52970195Y-62834570D01*
X47336621Y-68468145D01*
X47326478Y-68477247D01*
X47296975Y-68500968D01*
X47293008Y-68505696D01*
X47264709Y-68539421D01*
X47261528Y-68543069D01*
X47259885Y-68544881D01*
X47257691Y-68547075D01*
X47230358Y-68580349D01*
X47229696Y-68581147D01*
X47169846Y-68652474D01*
X47167278Y-68657144D01*
X47163897Y-68661261D01*
X47156425Y-68675197D01*
X47120023Y-68743086D01*
X47119394Y-68744245D01*
X47077538Y-68820381D01*
X47077535Y-68820389D01*
X47074567Y-68825787D01*
X47072955Y-68830869D01*
X47070438Y-68835563D01*
X47043238Y-68924531D01*
X47042918Y-68925559D01*
X47014765Y-69014306D01*
X47014171Y-69019602D01*
X47012613Y-69024698D01*
X47005224Y-69097444D01*
X47003218Y-69117187D01*
X47003089Y-69118393D01*
X46997500Y-69168227D01*
X46997500Y-69171754D01*
X46997445Y-69172739D01*
X46996998Y-69178419D01*
X46992626Y-69221462D01*
X46993964Y-69235611D01*
X46996941Y-69267109D01*
X46997500Y-69278967D01*
X46997500Y-74925075D01*
X46977498Y-74993196D01*
X46960595Y-75014170D01*
X43784771Y-78189995D01*
X43722459Y-78224021D01*
X43695676Y-78226900D01*
X42817466Y-78226900D01*
X42755284Y-78233655D01*
X42618895Y-78284785D01*
X42502339Y-78372139D01*
X42414985Y-78488695D01*
X42363855Y-78625084D01*
X42357100Y-78687266D01*
X42357100Y-79565476D01*
X42337098Y-79633597D01*
X42320195Y-79654571D01*
X41240621Y-80734145D01*
X41230478Y-80743247D01*
X41200975Y-80766968D01*
X41185793Y-80785061D01*
X41168709Y-80805421D01*
X41165528Y-80809069D01*
X41163885Y-80810881D01*
X41161691Y-80813075D01*
X41134358Y-80846349D01*
X41133696Y-80847147D01*
X41073846Y-80918474D01*
X41071278Y-80923144D01*
X41067897Y-80927261D01*
X41052571Y-80955844D01*
X41024023Y-81009086D01*
X41023394Y-81010245D01*
X40981538Y-81086381D01*
X40981535Y-81086389D01*
X40978567Y-81091787D01*
X40976955Y-81096869D01*
X40974438Y-81101563D01*
X40947238Y-81190531D01*
X40946918Y-81191559D01*
X40918765Y-81280306D01*
X40918171Y-81285602D01*
X40916613Y-81290698D01*
X40908240Y-81373129D01*
X40907218Y-81383187D01*
X40907089Y-81384393D01*
X40901500Y-81434227D01*
X40901500Y-81437754D01*
X40901445Y-81438739D01*
X40900998Y-81444419D01*
X40896626Y-81487462D01*
X40897206Y-81493593D01*
X40900941Y-81533109D01*
X40901500Y-81544967D01*
X40901500Y-93238054D01*
X40881498Y-93306175D01*
X40827842Y-93352668D01*
X40757568Y-93362772D01*
X40697408Y-93336936D01*
X40601777Y-93261411D01*
X40601772Y-93261408D01*
X40597723Y-93258210D01*
X40593207Y-93255717D01*
X40593204Y-93255715D01*
X40399479Y-93148773D01*
X40399475Y-93148771D01*
X40394955Y-93146276D01*
X40390086Y-93144552D01*
X40390082Y-93144550D01*
X40181503Y-93070688D01*
X40181499Y-93070687D01*
X40176628Y-93068962D01*
X40171535Y-93068055D01*
X40171532Y-93068054D01*
X39953695Y-93029251D01*
X39953689Y-93029250D01*
X39948606Y-93028345D01*
X39875696Y-93027454D01*
X39722181Y-93025579D01*
X39722179Y-93025579D01*
X39717011Y-93025516D01*
X39488064Y-93060550D01*
X39267914Y-93132506D01*
X39263326Y-93134894D01*
X39263322Y-93134896D01*
X39236665Y-93148773D01*
X39062472Y-93239452D01*
X39058339Y-93242555D01*
X39058336Y-93242557D01*
X38881390Y-93375412D01*
X38877255Y-93378517D01*
X38717239Y-93545964D01*
X38714325Y-93550236D01*
X38714324Y-93550237D01*
X38698752Y-93573065D01*
X38586719Y-93737299D01*
X38489202Y-93947381D01*
X38427307Y-94170569D01*
X38402695Y-94400869D01*
X38402992Y-94406022D01*
X38402992Y-94406025D01*
X38408667Y-94504441D01*
X38416027Y-94632097D01*
X38417164Y-94637143D01*
X38417165Y-94637149D01*
X38441766Y-94746309D01*
X38466946Y-94858042D01*
X38468888Y-94862824D01*
X38468889Y-94862828D01*
X38552140Y-95067850D01*
X38554084Y-95072637D01*
X38675101Y-95270119D01*
X38826747Y-95445184D01*
X39004949Y-95593130D01*
X39204922Y-95709984D01*
X39421294Y-95792609D01*
X39426360Y-95793640D01*
X39426361Y-95793640D01*
X39479446Y-95804440D01*
X39648256Y-95838785D01*
X39778924Y-95843576D01*
X39874549Y-95847083D01*
X39874553Y-95847083D01*
X39879713Y-95847272D01*
X39884833Y-95846616D01*
X39884835Y-95846616D01*
X39957870Y-95837260D01*
X40109447Y-95817842D01*
X40114395Y-95816357D01*
X40114402Y-95816356D01*
X40326347Y-95752769D01*
X40331290Y-95751286D01*
X40411836Y-95711827D01*
X40534649Y-95651662D01*
X40534652Y-95651660D01*
X40539284Y-95649391D01*
X40591848Y-95611898D01*
X40702332Y-95533091D01*
X40769405Y-95509817D01*
X40838414Y-95526501D01*
X40887448Y-95577845D01*
X40901500Y-95635670D01*
X40901500Y-97421676D01*
X40881498Y-97489797D01*
X40864595Y-97510771D01*
X39385371Y-98989995D01*
X39323059Y-99024021D01*
X39296276Y-99026900D01*
X37617466Y-99026900D01*
X37555284Y-99033655D01*
X37418895Y-99084785D01*
X37302339Y-99172139D01*
X37214985Y-99288695D01*
X37163855Y-99425084D01*
X37157100Y-99487266D01*
X37157100Y-101383534D01*
X37163855Y-101445716D01*
X37214985Y-101582105D01*
X37302339Y-101698661D01*
X37418895Y-101786015D01*
X37427304Y-101789167D01*
X37427305Y-101789168D01*
X37486764Y-101811458D01*
X37543529Y-101854099D01*
X37568229Y-101920661D01*
X37553022Y-101990009D01*
X37533629Y-102016491D01*
X37467239Y-102085964D01*
X37464325Y-102090236D01*
X37464324Y-102090237D01*
X37448752Y-102113065D01*
X37336719Y-102277299D01*
X37239202Y-102487381D01*
X37177307Y-102710569D01*
X37152695Y-102940869D01*
X37152992Y-102946022D01*
X37152992Y-102946025D01*
X37158667Y-103044441D01*
X37166027Y-103172097D01*
X37167164Y-103177143D01*
X37167165Y-103177149D01*
X37199341Y-103319923D01*
X37216946Y-103398042D01*
X37218888Y-103402824D01*
X37218889Y-103402828D01*
X37278291Y-103549116D01*
X37304084Y-103612637D01*
X37425101Y-103810119D01*
X37576747Y-103985184D01*
X37754949Y-104133130D01*
X37954922Y-104249984D01*
X38171294Y-104332609D01*
X38176360Y-104333640D01*
X38176361Y-104333640D01*
X38229446Y-104344440D01*
X38398256Y-104378785D01*
X38528924Y-104383576D01*
X38624549Y-104387083D01*
X38624553Y-104387083D01*
X38629713Y-104387272D01*
X38634833Y-104386616D01*
X38634835Y-104386616D01*
X38707870Y-104377260D01*
X38859447Y-104357842D01*
X38864395Y-104356357D01*
X38864402Y-104356356D01*
X39076347Y-104292769D01*
X39081290Y-104291286D01*
X39161836Y-104251827D01*
X39284649Y-104191662D01*
X39284652Y-104191660D01*
X39289284Y-104189391D01*
X39477843Y-104054894D01*
X39641903Y-103891405D01*
X39777058Y-103703317D01*
X39824241Y-103607850D01*
X39877384Y-103500322D01*
X39877385Y-103500320D01*
X39879678Y-103495680D01*
X39947008Y-103274071D01*
X39977240Y-103044441D01*
X39978927Y-102975400D01*
X39959949Y-102744567D01*
X39958688Y-102739547D01*
X39957844Y-102734447D01*
X39959397Y-102734190D01*
X39961916Y-102670317D01*
X39992224Y-102621457D01*
X41865285Y-100748396D01*
X41927597Y-100714370D01*
X41998412Y-100719435D01*
X42055248Y-100761982D01*
X42080059Y-100828502D01*
X42065064Y-100897700D01*
X35256664Y-113413834D01*
X35206543Y-113464115D01*
X35137193Y-113479317D01*
X35070633Y-113454613D01*
X35027996Y-113397845D01*
X35020823Y-113339084D01*
X39637335Y-73600869D01*
X42352695Y-73600869D01*
X42352992Y-73606022D01*
X42352992Y-73606025D01*
X42361090Y-73746466D01*
X42366027Y-73832097D01*
X42367164Y-73837143D01*
X42367165Y-73837149D01*
X42392112Y-73947844D01*
X42416946Y-74058042D01*
X42418888Y-74062824D01*
X42418889Y-74062828D01*
X42489237Y-74236073D01*
X42504084Y-74272637D01*
X42625101Y-74470119D01*
X42776747Y-74645184D01*
X42954949Y-74793130D01*
X43154922Y-74909984D01*
X43371294Y-74992609D01*
X43376360Y-74993640D01*
X43376361Y-74993640D01*
X43429446Y-75004440D01*
X43598256Y-75038785D01*
X43728924Y-75043576D01*
X43824549Y-75047083D01*
X43824553Y-75047083D01*
X43829713Y-75047272D01*
X43834833Y-75046616D01*
X43834835Y-75046616D01*
X43907870Y-75037260D01*
X44059447Y-75017842D01*
X44064395Y-75016357D01*
X44064402Y-75016356D01*
X44276347Y-74952769D01*
X44281290Y-74951286D01*
X44332336Y-74926279D01*
X44484649Y-74851662D01*
X44484652Y-74851660D01*
X44489284Y-74849391D01*
X44677843Y-74714894D01*
X44841903Y-74551405D01*
X44977058Y-74363317D01*
X44993504Y-74330042D01*
X45077384Y-74160322D01*
X45077385Y-74160320D01*
X45079678Y-74155680D01*
X45147008Y-73934071D01*
X45177240Y-73704441D01*
X45177363Y-73699427D01*
X45178845Y-73638765D01*
X45178845Y-73638761D01*
X45178927Y-73635400D01*
X45169967Y-73526421D01*
X45160373Y-73409718D01*
X45160372Y-73409712D01*
X45159949Y-73404567D01*
X45125508Y-73267450D01*
X45104784Y-73184944D01*
X45104783Y-73184940D01*
X45103525Y-73179933D01*
X45101466Y-73175197D01*
X45013230Y-72972268D01*
X45013228Y-72972265D01*
X45011170Y-72967531D01*
X44885364Y-72773065D01*
X44880551Y-72767775D01*
X44787979Y-72666040D01*
X44729487Y-72601758D01*
X44725436Y-72598559D01*
X44725432Y-72598555D01*
X44551777Y-72461411D01*
X44551772Y-72461408D01*
X44547723Y-72458210D01*
X44543207Y-72455717D01*
X44543204Y-72455715D01*
X44349479Y-72348773D01*
X44349475Y-72348771D01*
X44344955Y-72346276D01*
X44340086Y-72344552D01*
X44340082Y-72344550D01*
X44131503Y-72270688D01*
X44131499Y-72270687D01*
X44126628Y-72268962D01*
X44121535Y-72268055D01*
X44121532Y-72268054D01*
X43903695Y-72229251D01*
X43903689Y-72229250D01*
X43898606Y-72228345D01*
X43825696Y-72227454D01*
X43672181Y-72225579D01*
X43672179Y-72225579D01*
X43667011Y-72225516D01*
X43438064Y-72260550D01*
X43217914Y-72332506D01*
X43213326Y-72334894D01*
X43213322Y-72334896D01*
X43036106Y-72427149D01*
X43012472Y-72439452D01*
X43008339Y-72442555D01*
X43008336Y-72442557D01*
X42831390Y-72575412D01*
X42827255Y-72578517D01*
X42667239Y-72745964D01*
X42664325Y-72750236D01*
X42664324Y-72750237D01*
X42651088Y-72769641D01*
X42536719Y-72937299D01*
X42439202Y-73147381D01*
X42377307Y-73370569D01*
X42352695Y-73600869D01*
X39637335Y-73600869D01*
X39804501Y-72161933D01*
X39828890Y-72100832D01*
X51328674Y-56780869D01*
X53002695Y-56780869D01*
X53002992Y-56786022D01*
X53002992Y-56786025D01*
X53014464Y-56984991D01*
X53016027Y-57012097D01*
X53017164Y-57017143D01*
X53017165Y-57017149D01*
X53049341Y-57159923D01*
X53066946Y-57238042D01*
X53068888Y-57242824D01*
X53068889Y-57242828D01*
X53118573Y-57365185D01*
X53154084Y-57452637D01*
X53275101Y-57650119D01*
X53426747Y-57825184D01*
X53604949Y-57973130D01*
X53804922Y-58089984D01*
X54021294Y-58172609D01*
X54026360Y-58173640D01*
X54026361Y-58173640D01*
X54079446Y-58184440D01*
X54248256Y-58218785D01*
X54378924Y-58223576D01*
X54474549Y-58227083D01*
X54474553Y-58227083D01*
X54479713Y-58227272D01*
X54484833Y-58226616D01*
X54484835Y-58226616D01*
X54557870Y-58217260D01*
X54709447Y-58197842D01*
X54714395Y-58196357D01*
X54714402Y-58196356D01*
X54926347Y-58132769D01*
X54931290Y-58131286D01*
X55011836Y-58091827D01*
X55134649Y-58031662D01*
X55134652Y-58031660D01*
X55139284Y-58029391D01*
X55327843Y-57894894D01*
X55491903Y-57731405D01*
X55627058Y-57543317D01*
X55667605Y-57461277D01*
X55727384Y-57340322D01*
X55727385Y-57340320D01*
X55729678Y-57335680D01*
X55797008Y-57114071D01*
X55827240Y-56884441D01*
X55827322Y-56881091D01*
X55828845Y-56818765D01*
X55828845Y-56818761D01*
X55828927Y-56815400D01*
X55821468Y-56724674D01*
X55810373Y-56589718D01*
X55810372Y-56589712D01*
X55809949Y-56584567D01*
X55760192Y-56386474D01*
X55754784Y-56364944D01*
X55754783Y-56364940D01*
X55753525Y-56359933D01*
X55751466Y-56355197D01*
X55663230Y-56152268D01*
X55663228Y-56152265D01*
X55661170Y-56147531D01*
X55535364Y-55953065D01*
X55379487Y-55781758D01*
X55375436Y-55778559D01*
X55375432Y-55778555D01*
X55201777Y-55641411D01*
X55201772Y-55641408D01*
X55197723Y-55638210D01*
X55193207Y-55635717D01*
X55193204Y-55635715D01*
X54999479Y-55528773D01*
X54999475Y-55528771D01*
X54994955Y-55526276D01*
X54990086Y-55524552D01*
X54990082Y-55524550D01*
X54781503Y-55450688D01*
X54781499Y-55450687D01*
X54776628Y-55448962D01*
X54771535Y-55448055D01*
X54771532Y-55448054D01*
X54553695Y-55409251D01*
X54553689Y-55409250D01*
X54548606Y-55408345D01*
X54475696Y-55407454D01*
X54322181Y-55405579D01*
X54322179Y-55405579D01*
X54317011Y-55405516D01*
X54088064Y-55440550D01*
X53867914Y-55512506D01*
X53863326Y-55514894D01*
X53863322Y-55514896D01*
X53713161Y-55593065D01*
X53662472Y-55619452D01*
X53658339Y-55622555D01*
X53658336Y-55622557D01*
X53504080Y-55738376D01*
X53477255Y-55758517D01*
X53317239Y-55925964D01*
X53314325Y-55930236D01*
X53314324Y-55930237D01*
X53298752Y-55953065D01*
X53186719Y-56117299D01*
X53089202Y-56327381D01*
X53027307Y-56550569D01*
X53002695Y-56780869D01*
X51328674Y-56780869D01*
X52722590Y-54923900D01*
X58009374Y-47880869D01*
X63002695Y-47880869D01*
X63002992Y-47886022D01*
X63002992Y-47886025D01*
X63008667Y-47984441D01*
X63016027Y-48112097D01*
X63017164Y-48117143D01*
X63017165Y-48117149D01*
X63049341Y-48259923D01*
X63066946Y-48338042D01*
X63068888Y-48342824D01*
X63068889Y-48342828D01*
X63152140Y-48547850D01*
X63154084Y-48552637D01*
X63275101Y-48750119D01*
X63426747Y-48925184D01*
X63604949Y-49073130D01*
X63804922Y-49189984D01*
X64021294Y-49272609D01*
X64026360Y-49273640D01*
X64026361Y-49273640D01*
X64079446Y-49284440D01*
X64248256Y-49318785D01*
X64378924Y-49323576D01*
X64474549Y-49327083D01*
X64474553Y-49327083D01*
X64479713Y-49327272D01*
X64484833Y-49326616D01*
X64484835Y-49326616D01*
X64557870Y-49317260D01*
X64709447Y-49297842D01*
X64714395Y-49296357D01*
X64714402Y-49296356D01*
X64926347Y-49232769D01*
X64931290Y-49231286D01*
X65011836Y-49191827D01*
X65134649Y-49131662D01*
X65134652Y-49131660D01*
X65139284Y-49129391D01*
X65327843Y-48994894D01*
X65491903Y-48831405D01*
X65627058Y-48643317D01*
X65674241Y-48547850D01*
X65727384Y-48440322D01*
X65727385Y-48440320D01*
X65729678Y-48435680D01*
X65797008Y-48214071D01*
X65827240Y-47984441D01*
X65828927Y-47915400D01*
X65826088Y-47880869D01*
X73002695Y-47880869D01*
X73002992Y-47886022D01*
X73002992Y-47886025D01*
X73008667Y-47984441D01*
X73016027Y-48112097D01*
X73017164Y-48117143D01*
X73017165Y-48117149D01*
X73049341Y-48259923D01*
X73066946Y-48338042D01*
X73068888Y-48342824D01*
X73068889Y-48342828D01*
X73152140Y-48547850D01*
X73154084Y-48552637D01*
X73275101Y-48750119D01*
X73426747Y-48925184D01*
X73604949Y-49073130D01*
X73804922Y-49189984D01*
X74021294Y-49272609D01*
X74026360Y-49273640D01*
X74026361Y-49273640D01*
X74079446Y-49284440D01*
X74248256Y-49318785D01*
X74378924Y-49323576D01*
X74474549Y-49327083D01*
X74474553Y-49327083D01*
X74479713Y-49327272D01*
X74484833Y-49326616D01*
X74484835Y-49326616D01*
X74557870Y-49317260D01*
X74709447Y-49297842D01*
X74714395Y-49296357D01*
X74714402Y-49296356D01*
X74926347Y-49232769D01*
X74931290Y-49231286D01*
X75011836Y-49191827D01*
X75134649Y-49131662D01*
X75134652Y-49131660D01*
X75139284Y-49129391D01*
X75327843Y-48994894D01*
X75491903Y-48831405D01*
X75627058Y-48643317D01*
X75674241Y-48547850D01*
X75727384Y-48440322D01*
X75727385Y-48440320D01*
X75729678Y-48435680D01*
X75797008Y-48214071D01*
X75827240Y-47984441D01*
X75828927Y-47915400D01*
X75826088Y-47880869D01*
X83002695Y-47880869D01*
X83002992Y-47886022D01*
X83002992Y-47886025D01*
X83008667Y-47984441D01*
X83016027Y-48112097D01*
X83017164Y-48117143D01*
X83017165Y-48117149D01*
X83049341Y-48259923D01*
X83066946Y-48338042D01*
X83068888Y-48342824D01*
X83068889Y-48342828D01*
X83152140Y-48547850D01*
X83154084Y-48552637D01*
X83275101Y-48750119D01*
X83426747Y-48925184D01*
X83604949Y-49073130D01*
X83804922Y-49189984D01*
X84021294Y-49272609D01*
X84026360Y-49273640D01*
X84026361Y-49273640D01*
X84079446Y-49284440D01*
X84248256Y-49318785D01*
X84378924Y-49323576D01*
X84474549Y-49327083D01*
X84474553Y-49327083D01*
X84479713Y-49327272D01*
X84484833Y-49326616D01*
X84484835Y-49326616D01*
X84557870Y-49317260D01*
X84709447Y-49297842D01*
X84714395Y-49296357D01*
X84714402Y-49296356D01*
X84926347Y-49232769D01*
X84931290Y-49231286D01*
X85011836Y-49191827D01*
X85134649Y-49131662D01*
X85134652Y-49131660D01*
X85139284Y-49129391D01*
X85327843Y-48994894D01*
X85491903Y-48831405D01*
X85627058Y-48643317D01*
X85674241Y-48547850D01*
X85727384Y-48440322D01*
X85727385Y-48440320D01*
X85729678Y-48435680D01*
X85797008Y-48214071D01*
X85827240Y-47984441D01*
X85828927Y-47915400D01*
X85826088Y-47880869D01*
X93002695Y-47880869D01*
X93002992Y-47886022D01*
X93002992Y-47886025D01*
X93008667Y-47984441D01*
X93016027Y-48112097D01*
X93017164Y-48117143D01*
X93017165Y-48117149D01*
X93049341Y-48259923D01*
X93066946Y-48338042D01*
X93068888Y-48342824D01*
X93068889Y-48342828D01*
X93152140Y-48547850D01*
X93154084Y-48552637D01*
X93275101Y-48750119D01*
X93426747Y-48925184D01*
X93604949Y-49073130D01*
X93804922Y-49189984D01*
X94021294Y-49272609D01*
X94026360Y-49273640D01*
X94026361Y-49273640D01*
X94079446Y-49284440D01*
X94248256Y-49318785D01*
X94378924Y-49323576D01*
X94474549Y-49327083D01*
X94474553Y-49327083D01*
X94479713Y-49327272D01*
X94484833Y-49326616D01*
X94484835Y-49326616D01*
X94557870Y-49317260D01*
X94709447Y-49297842D01*
X94714395Y-49296357D01*
X94714402Y-49296356D01*
X94926347Y-49232769D01*
X94931290Y-49231286D01*
X95011836Y-49191827D01*
X95134649Y-49131662D01*
X95134652Y-49131660D01*
X95139284Y-49129391D01*
X95327843Y-48994894D01*
X95491903Y-48831405D01*
X95627058Y-48643317D01*
X95674241Y-48547850D01*
X95727384Y-48440322D01*
X95727385Y-48440320D01*
X95729678Y-48435680D01*
X95797008Y-48214071D01*
X95827240Y-47984441D01*
X95828927Y-47915400D01*
X95826088Y-47880869D01*
X103002695Y-47880869D01*
X103002992Y-47886022D01*
X103002992Y-47886025D01*
X103008667Y-47984441D01*
X103016027Y-48112097D01*
X103017164Y-48117143D01*
X103017165Y-48117149D01*
X103049341Y-48259923D01*
X103066946Y-48338042D01*
X103068888Y-48342824D01*
X103068889Y-48342828D01*
X103152140Y-48547850D01*
X103154084Y-48552637D01*
X103275101Y-48750119D01*
X103426747Y-48925184D01*
X103604949Y-49073130D01*
X103804922Y-49189984D01*
X104021294Y-49272609D01*
X104026360Y-49273640D01*
X104026361Y-49273640D01*
X104079446Y-49284440D01*
X104248256Y-49318785D01*
X104378924Y-49323576D01*
X104474549Y-49327083D01*
X104474553Y-49327083D01*
X104479713Y-49327272D01*
X104484833Y-49326616D01*
X104484835Y-49326616D01*
X104557870Y-49317260D01*
X104709447Y-49297842D01*
X104714395Y-49296357D01*
X104714402Y-49296356D01*
X104926347Y-49232769D01*
X104931290Y-49231286D01*
X105011836Y-49191827D01*
X105134649Y-49131662D01*
X105134652Y-49131660D01*
X105139284Y-49129391D01*
X105327843Y-48994894D01*
X105491903Y-48831405D01*
X105627058Y-48643317D01*
X105674241Y-48547850D01*
X105727384Y-48440322D01*
X105727385Y-48440320D01*
X105729678Y-48435680D01*
X105797008Y-48214071D01*
X105827240Y-47984441D01*
X105828927Y-47915400D01*
X105826088Y-47880869D01*
X113002695Y-47880869D01*
X113002992Y-47886022D01*
X113002992Y-47886025D01*
X113008667Y-47984441D01*
X113016027Y-48112097D01*
X113017164Y-48117143D01*
X113017165Y-48117149D01*
X113049341Y-48259923D01*
X113066946Y-48338042D01*
X113068888Y-48342824D01*
X113068889Y-48342828D01*
X113152140Y-48547850D01*
X113154084Y-48552637D01*
X113275101Y-48750119D01*
X113426747Y-48925184D01*
X113604949Y-49073130D01*
X113804922Y-49189984D01*
X114021294Y-49272609D01*
X114026360Y-49273640D01*
X114026361Y-49273640D01*
X114079446Y-49284440D01*
X114248256Y-49318785D01*
X114378924Y-49323576D01*
X114474549Y-49327083D01*
X114474553Y-49327083D01*
X114479713Y-49327272D01*
X114484833Y-49326616D01*
X114484835Y-49326616D01*
X114557870Y-49317260D01*
X114709447Y-49297842D01*
X114714395Y-49296357D01*
X114714402Y-49296356D01*
X114926347Y-49232769D01*
X114931290Y-49231286D01*
X115011836Y-49191827D01*
X115134649Y-49131662D01*
X115134652Y-49131660D01*
X115139284Y-49129391D01*
X115327843Y-48994894D01*
X115491903Y-48831405D01*
X115627058Y-48643317D01*
X115674241Y-48547850D01*
X115727384Y-48440322D01*
X115727385Y-48440320D01*
X115729678Y-48435680D01*
X115797008Y-48214071D01*
X115827240Y-47984441D01*
X115828927Y-47915400D01*
X115826088Y-47880869D01*
X123002695Y-47880869D01*
X123002992Y-47886022D01*
X123002992Y-47886025D01*
X123008667Y-47984441D01*
X123016027Y-48112097D01*
X123017164Y-48117143D01*
X123017165Y-48117149D01*
X123049341Y-48259923D01*
X123066946Y-48338042D01*
X123068888Y-48342824D01*
X123068889Y-48342828D01*
X123152140Y-48547850D01*
X123154084Y-48552637D01*
X123275101Y-48750119D01*
X123426747Y-48925184D01*
X123604949Y-49073130D01*
X123804922Y-49189984D01*
X124021294Y-49272609D01*
X124026360Y-49273640D01*
X124026361Y-49273640D01*
X124079446Y-49284440D01*
X124248256Y-49318785D01*
X124378924Y-49323576D01*
X124474549Y-49327083D01*
X124474553Y-49327083D01*
X124479713Y-49327272D01*
X124484833Y-49326616D01*
X124484835Y-49326616D01*
X124557870Y-49317260D01*
X124709447Y-49297842D01*
X124714395Y-49296357D01*
X124714402Y-49296356D01*
X124926347Y-49232769D01*
X124931290Y-49231286D01*
X125011836Y-49191827D01*
X125134649Y-49131662D01*
X125134652Y-49131660D01*
X125139284Y-49129391D01*
X125327843Y-48994894D01*
X125491903Y-48831405D01*
X125627058Y-48643317D01*
X125674241Y-48547850D01*
X125727384Y-48440322D01*
X125727385Y-48440320D01*
X125729678Y-48435680D01*
X125797008Y-48214071D01*
X125827240Y-47984441D01*
X125828927Y-47915400D01*
X125826088Y-47880869D01*
X133002695Y-47880869D01*
X133002992Y-47886022D01*
X133002992Y-47886025D01*
X133008667Y-47984441D01*
X133016027Y-48112097D01*
X133017164Y-48117143D01*
X133017165Y-48117149D01*
X133049341Y-48259923D01*
X133066946Y-48338042D01*
X133068888Y-48342824D01*
X133068889Y-48342828D01*
X133152140Y-48547850D01*
X133154084Y-48552637D01*
X133275101Y-48750119D01*
X133426747Y-48925184D01*
X133604949Y-49073130D01*
X133804922Y-49189984D01*
X134021294Y-49272609D01*
X134026360Y-49273640D01*
X134026361Y-49273640D01*
X134079446Y-49284440D01*
X134248256Y-49318785D01*
X134378924Y-49323576D01*
X134474549Y-49327083D01*
X134474553Y-49327083D01*
X134479713Y-49327272D01*
X134484833Y-49326616D01*
X134484835Y-49326616D01*
X134557870Y-49317260D01*
X134709447Y-49297842D01*
X134714395Y-49296357D01*
X134714402Y-49296356D01*
X134926347Y-49232769D01*
X134931290Y-49231286D01*
X135011836Y-49191827D01*
X135134649Y-49131662D01*
X135134652Y-49131660D01*
X135139284Y-49129391D01*
X135327843Y-48994894D01*
X135491903Y-48831405D01*
X135627058Y-48643317D01*
X135674241Y-48547850D01*
X135727384Y-48440322D01*
X135727385Y-48440320D01*
X135729678Y-48435680D01*
X135797008Y-48214071D01*
X135827240Y-47984441D01*
X135828927Y-47915400D01*
X135822632Y-47838834D01*
X135810373Y-47689718D01*
X135810372Y-47689712D01*
X135809949Y-47684567D01*
X135753525Y-47459933D01*
X135751466Y-47455197D01*
X135663230Y-47252268D01*
X135663228Y-47252265D01*
X135661170Y-47247531D01*
X135535364Y-47053065D01*
X135379487Y-46881758D01*
X135375436Y-46878559D01*
X135375432Y-46878555D01*
X135201777Y-46741411D01*
X135201772Y-46741408D01*
X135197723Y-46738210D01*
X135193207Y-46735717D01*
X135193204Y-46735715D01*
X134999479Y-46628773D01*
X134999475Y-46628771D01*
X134994955Y-46626276D01*
X134990086Y-46624552D01*
X134990082Y-46624550D01*
X134781503Y-46550688D01*
X134781499Y-46550687D01*
X134776628Y-46548962D01*
X134771535Y-46548055D01*
X134771532Y-46548054D01*
X134553695Y-46509251D01*
X134553689Y-46509250D01*
X134548606Y-46508345D01*
X134475696Y-46507454D01*
X134322181Y-46505579D01*
X134322179Y-46505579D01*
X134317011Y-46505516D01*
X134088064Y-46540550D01*
X133867914Y-46612506D01*
X133863326Y-46614894D01*
X133863322Y-46614896D01*
X133836665Y-46628773D01*
X133662472Y-46719452D01*
X133658339Y-46722555D01*
X133658336Y-46722557D01*
X133633225Y-46741411D01*
X133477255Y-46858517D01*
X133317239Y-47025964D01*
X133314325Y-47030236D01*
X133314324Y-47030237D01*
X133298752Y-47053065D01*
X133186719Y-47217299D01*
X133089202Y-47427381D01*
X133027307Y-47650569D01*
X133002695Y-47880869D01*
X125826088Y-47880869D01*
X125822632Y-47838834D01*
X125810373Y-47689718D01*
X125810372Y-47689712D01*
X125809949Y-47684567D01*
X125753525Y-47459933D01*
X125751466Y-47455197D01*
X125663230Y-47252268D01*
X125663228Y-47252265D01*
X125661170Y-47247531D01*
X125535364Y-47053065D01*
X125379487Y-46881758D01*
X125375436Y-46878559D01*
X125375432Y-46878555D01*
X125201777Y-46741411D01*
X125201772Y-46741408D01*
X125197723Y-46738210D01*
X125193207Y-46735717D01*
X125193204Y-46735715D01*
X124999479Y-46628773D01*
X124999475Y-46628771D01*
X124994955Y-46626276D01*
X124990086Y-46624552D01*
X124990082Y-46624550D01*
X124781503Y-46550688D01*
X124781499Y-46550687D01*
X124776628Y-46548962D01*
X124771535Y-46548055D01*
X124771532Y-46548054D01*
X124553695Y-46509251D01*
X124553689Y-46509250D01*
X124548606Y-46508345D01*
X124475696Y-46507454D01*
X124322181Y-46505579D01*
X124322179Y-46505579D01*
X124317011Y-46505516D01*
X124088064Y-46540550D01*
X123867914Y-46612506D01*
X123863326Y-46614894D01*
X123863322Y-46614896D01*
X123836665Y-46628773D01*
X123662472Y-46719452D01*
X123658339Y-46722555D01*
X123658336Y-46722557D01*
X123633225Y-46741411D01*
X123477255Y-46858517D01*
X123317239Y-47025964D01*
X123314325Y-47030236D01*
X123314324Y-47030237D01*
X123298752Y-47053065D01*
X123186719Y-47217299D01*
X123089202Y-47427381D01*
X123027307Y-47650569D01*
X123002695Y-47880869D01*
X115826088Y-47880869D01*
X115822632Y-47838834D01*
X115810373Y-47689718D01*
X115810372Y-47689712D01*
X115809949Y-47684567D01*
X115753525Y-47459933D01*
X115751466Y-47455197D01*
X115663230Y-47252268D01*
X115663228Y-47252265D01*
X115661170Y-47247531D01*
X115535364Y-47053065D01*
X115379487Y-46881758D01*
X115375436Y-46878559D01*
X115375432Y-46878555D01*
X115201777Y-46741411D01*
X115201772Y-46741408D01*
X115197723Y-46738210D01*
X115193207Y-46735717D01*
X115193204Y-46735715D01*
X114999479Y-46628773D01*
X114999475Y-46628771D01*
X114994955Y-46626276D01*
X114990086Y-46624552D01*
X114990082Y-46624550D01*
X114781503Y-46550688D01*
X114781499Y-46550687D01*
X114776628Y-46548962D01*
X114771535Y-46548055D01*
X114771532Y-46548054D01*
X114553695Y-46509251D01*
X114553689Y-46509250D01*
X114548606Y-46508345D01*
X114475696Y-46507454D01*
X114322181Y-46505579D01*
X114322179Y-46505579D01*
X114317011Y-46505516D01*
X114088064Y-46540550D01*
X113867914Y-46612506D01*
X113863326Y-46614894D01*
X113863322Y-46614896D01*
X113836665Y-46628773D01*
X113662472Y-46719452D01*
X113658339Y-46722555D01*
X113658336Y-46722557D01*
X113633225Y-46741411D01*
X113477255Y-46858517D01*
X113317239Y-47025964D01*
X113314325Y-47030236D01*
X113314324Y-47030237D01*
X113298752Y-47053065D01*
X113186719Y-47217299D01*
X113089202Y-47427381D01*
X113027307Y-47650569D01*
X113002695Y-47880869D01*
X105826088Y-47880869D01*
X105822632Y-47838834D01*
X105810373Y-47689718D01*
X105810372Y-47689712D01*
X105809949Y-47684567D01*
X105753525Y-47459933D01*
X105751466Y-47455197D01*
X105663230Y-47252268D01*
X105663228Y-47252265D01*
X105661170Y-47247531D01*
X105535364Y-47053065D01*
X105379487Y-46881758D01*
X105375436Y-46878559D01*
X105375432Y-46878555D01*
X105201777Y-46741411D01*
X105201772Y-46741408D01*
X105197723Y-46738210D01*
X105193207Y-46735717D01*
X105193204Y-46735715D01*
X104999479Y-46628773D01*
X104999475Y-46628771D01*
X104994955Y-46626276D01*
X104990086Y-46624552D01*
X104990082Y-46624550D01*
X104781503Y-46550688D01*
X104781499Y-46550687D01*
X104776628Y-46548962D01*
X104771535Y-46548055D01*
X104771532Y-46548054D01*
X104553695Y-46509251D01*
X104553689Y-46509250D01*
X104548606Y-46508345D01*
X104475696Y-46507454D01*
X104322181Y-46505579D01*
X104322179Y-46505579D01*
X104317011Y-46505516D01*
X104088064Y-46540550D01*
X103867914Y-46612506D01*
X103863326Y-46614894D01*
X103863322Y-46614896D01*
X103836665Y-46628773D01*
X103662472Y-46719452D01*
X103658339Y-46722555D01*
X103658336Y-46722557D01*
X103633225Y-46741411D01*
X103477255Y-46858517D01*
X103317239Y-47025964D01*
X103314325Y-47030236D01*
X103314324Y-47030237D01*
X103298752Y-47053065D01*
X103186719Y-47217299D01*
X103089202Y-47427381D01*
X103027307Y-47650569D01*
X103002695Y-47880869D01*
X95826088Y-47880869D01*
X95822632Y-47838834D01*
X95810373Y-47689718D01*
X95810372Y-47689712D01*
X95809949Y-47684567D01*
X95753525Y-47459933D01*
X95751466Y-47455197D01*
X95663230Y-47252268D01*
X95663228Y-47252265D01*
X95661170Y-47247531D01*
X95535364Y-47053065D01*
X95379487Y-46881758D01*
X95375436Y-46878559D01*
X95375432Y-46878555D01*
X95201777Y-46741411D01*
X95201772Y-46741408D01*
X95197723Y-46738210D01*
X95193207Y-46735717D01*
X95193204Y-46735715D01*
X94999479Y-46628773D01*
X94999475Y-46628771D01*
X94994955Y-46626276D01*
X94990086Y-46624552D01*
X94990082Y-46624550D01*
X94781503Y-46550688D01*
X94781499Y-46550687D01*
X94776628Y-46548962D01*
X94771535Y-46548055D01*
X94771532Y-46548054D01*
X94553695Y-46509251D01*
X94553689Y-46509250D01*
X94548606Y-46508345D01*
X94475696Y-46507454D01*
X94322181Y-46505579D01*
X94322179Y-46505579D01*
X94317011Y-46505516D01*
X94088064Y-46540550D01*
X93867914Y-46612506D01*
X93863326Y-46614894D01*
X93863322Y-46614896D01*
X93836665Y-46628773D01*
X93662472Y-46719452D01*
X93658339Y-46722555D01*
X93658336Y-46722557D01*
X93633225Y-46741411D01*
X93477255Y-46858517D01*
X93317239Y-47025964D01*
X93314325Y-47030236D01*
X93314324Y-47030237D01*
X93298752Y-47053065D01*
X93186719Y-47217299D01*
X93089202Y-47427381D01*
X93027307Y-47650569D01*
X93002695Y-47880869D01*
X85826088Y-47880869D01*
X85822632Y-47838834D01*
X85810373Y-47689718D01*
X85810372Y-47689712D01*
X85809949Y-47684567D01*
X85753525Y-47459933D01*
X85751466Y-47455197D01*
X85663230Y-47252268D01*
X85663228Y-47252265D01*
X85661170Y-47247531D01*
X85535364Y-47053065D01*
X85379487Y-46881758D01*
X85375436Y-46878559D01*
X85375432Y-46878555D01*
X85201777Y-46741411D01*
X85201772Y-46741408D01*
X85197723Y-46738210D01*
X85193207Y-46735717D01*
X85193204Y-46735715D01*
X84999479Y-46628773D01*
X84999475Y-46628771D01*
X84994955Y-46626276D01*
X84990086Y-46624552D01*
X84990082Y-46624550D01*
X84781503Y-46550688D01*
X84781499Y-46550687D01*
X84776628Y-46548962D01*
X84771535Y-46548055D01*
X84771532Y-46548054D01*
X84553695Y-46509251D01*
X84553689Y-46509250D01*
X84548606Y-46508345D01*
X84475696Y-46507454D01*
X84322181Y-46505579D01*
X84322179Y-46505579D01*
X84317011Y-46505516D01*
X84088064Y-46540550D01*
X83867914Y-46612506D01*
X83863326Y-46614894D01*
X83863322Y-46614896D01*
X83836665Y-46628773D01*
X83662472Y-46719452D01*
X83658339Y-46722555D01*
X83658336Y-46722557D01*
X83633225Y-46741411D01*
X83477255Y-46858517D01*
X83317239Y-47025964D01*
X83314325Y-47030236D01*
X83314324Y-47030237D01*
X83298752Y-47053065D01*
X83186719Y-47217299D01*
X83089202Y-47427381D01*
X83027307Y-47650569D01*
X83002695Y-47880869D01*
X75826088Y-47880869D01*
X75822632Y-47838834D01*
X75810373Y-47689718D01*
X75810372Y-47689712D01*
X75809949Y-47684567D01*
X75753525Y-47459933D01*
X75751466Y-47455197D01*
X75663230Y-47252268D01*
X75663228Y-47252265D01*
X75661170Y-47247531D01*
X75535364Y-47053065D01*
X75379487Y-46881758D01*
X75375436Y-46878559D01*
X75375432Y-46878555D01*
X75201777Y-46741411D01*
X75201772Y-46741408D01*
X75197723Y-46738210D01*
X75193207Y-46735717D01*
X75193204Y-46735715D01*
X74999479Y-46628773D01*
X74999475Y-46628771D01*
X74994955Y-46626276D01*
X74990086Y-46624552D01*
X74990082Y-46624550D01*
X74781503Y-46550688D01*
X74781499Y-46550687D01*
X74776628Y-46548962D01*
X74771535Y-46548055D01*
X74771532Y-46548054D01*
X74553695Y-46509251D01*
X74553689Y-46509250D01*
X74548606Y-46508345D01*
X74475696Y-46507454D01*
X74322181Y-46505579D01*
X74322179Y-46505579D01*
X74317011Y-46505516D01*
X74088064Y-46540550D01*
X73867914Y-46612506D01*
X73863326Y-46614894D01*
X73863322Y-46614896D01*
X73836665Y-46628773D01*
X73662472Y-46719452D01*
X73658339Y-46722555D01*
X73658336Y-46722557D01*
X73633225Y-46741411D01*
X73477255Y-46858517D01*
X73317239Y-47025964D01*
X73314325Y-47030236D01*
X73314324Y-47030237D01*
X73298752Y-47053065D01*
X73186719Y-47217299D01*
X73089202Y-47427381D01*
X73027307Y-47650569D01*
X73002695Y-47880869D01*
X65826088Y-47880869D01*
X65822632Y-47838834D01*
X65810373Y-47689718D01*
X65810372Y-47689712D01*
X65809949Y-47684567D01*
X65753525Y-47459933D01*
X65751466Y-47455197D01*
X65663230Y-47252268D01*
X65663228Y-47252265D01*
X65661170Y-47247531D01*
X65535364Y-47053065D01*
X65379487Y-46881758D01*
X65375436Y-46878559D01*
X65375432Y-46878555D01*
X65201777Y-46741411D01*
X65201772Y-46741408D01*
X65197723Y-46738210D01*
X65193207Y-46735717D01*
X65193204Y-46735715D01*
X64999479Y-46628773D01*
X64999475Y-46628771D01*
X64994955Y-46626276D01*
X64990086Y-46624552D01*
X64990082Y-46624550D01*
X64781503Y-46550688D01*
X64781499Y-46550687D01*
X64776628Y-46548962D01*
X64771535Y-46548055D01*
X64771532Y-46548054D01*
X64553695Y-46509251D01*
X64553689Y-46509250D01*
X64548606Y-46508345D01*
X64475696Y-46507454D01*
X64322181Y-46505579D01*
X64322179Y-46505579D01*
X64317011Y-46505516D01*
X64088064Y-46540550D01*
X63867914Y-46612506D01*
X63863326Y-46614894D01*
X63863322Y-46614896D01*
X63836665Y-46628773D01*
X63662472Y-46719452D01*
X63658339Y-46722555D01*
X63658336Y-46722557D01*
X63633225Y-46741411D01*
X63477255Y-46858517D01*
X63317239Y-47025964D01*
X63314325Y-47030236D01*
X63314324Y-47030237D01*
X63298752Y-47053065D01*
X63186719Y-47217299D01*
X63089202Y-47427381D01*
X63027307Y-47650569D01*
X63002695Y-47880869D01*
X58009374Y-47880869D01*
X61956076Y-42623089D01*
X62004187Y-42584262D01*
X72412342Y-37796510D01*
X72482588Y-37786214D01*
X72547249Y-37815530D01*
X72585796Y-37875151D01*
X72590961Y-37907906D01*
X72667429Y-41043091D01*
X72666020Y-41060709D01*
X72665759Y-41066959D01*
X72664117Y-41075784D01*
X72668512Y-41119346D01*
X72669054Y-41124720D01*
X72669653Y-41134295D01*
X72669941Y-41146101D01*
X72670685Y-41150525D01*
X72670686Y-41150535D01*
X72672423Y-41160864D01*
X72673531Y-41169109D01*
X72677835Y-41211768D01*
X72677837Y-41211776D01*
X72678738Y-41220706D01*
X72682110Y-41229026D01*
X72684048Y-41236850D01*
X72686493Y-41244514D01*
X72687982Y-41253367D01*
X72691895Y-41261443D01*
X72691896Y-41261448D01*
X72710595Y-41300046D01*
X72713973Y-41307649D01*
X72733446Y-41355700D01*
X72739016Y-41362737D01*
X72743070Y-41369700D01*
X72747571Y-41376374D01*
X72751485Y-41384453D01*
X72757507Y-41391106D01*
X72757510Y-41391111D01*
X72786294Y-41422914D01*
X72791674Y-41429268D01*
X72823843Y-41469912D01*
X72831166Y-41475104D01*
X72837017Y-41480655D01*
X72843203Y-41485792D01*
X72849227Y-41492447D01*
X72856876Y-41497144D01*
X72893430Y-41519591D01*
X72900377Y-41524180D01*
X72935339Y-41548971D01*
X72935342Y-41548972D01*
X72942662Y-41554163D01*
X72951144Y-41557090D01*
X72958315Y-41560774D01*
X72965698Y-41563969D01*
X72973350Y-41568668D01*
X73023421Y-41582322D01*
X73031335Y-41584764D01*
X73080351Y-41601679D01*
X73089319Y-41602108D01*
X73097234Y-41603631D01*
X73105218Y-41604626D01*
X73113877Y-41606987D01*
X73122850Y-41606823D01*
X73131621Y-41606663D01*
X73165733Y-41606039D01*
X73174051Y-41606162D01*
X73225842Y-41608640D01*
X73234568Y-41606535D01*
X73242594Y-41605775D01*
X73250537Y-41604489D01*
X73259511Y-41604325D01*
X73277358Y-41598750D01*
X73309010Y-41588863D01*
X73317036Y-41586644D01*
X73329907Y-41583540D01*
X73329910Y-41583539D01*
X73334641Y-41582398D01*
X73344904Y-41578165D01*
X73355376Y-41574379D01*
X73389977Y-41563571D01*
X73389979Y-41563570D01*
X73398543Y-41560895D01*
X73407375Y-41555016D01*
X73429152Y-41543423D01*
X83730108Y-37295400D01*
X95883685Y-37295400D01*
X95902931Y-37662641D01*
X95960459Y-38025859D01*
X96055639Y-38381074D01*
X96187427Y-38724394D01*
X96354380Y-39052057D01*
X96554668Y-39360475D01*
X96786098Y-39646267D01*
X97046133Y-39906302D01*
X97331925Y-40137732D01*
X97640342Y-40338020D01*
X97643276Y-40339515D01*
X97643283Y-40339519D01*
X97653964Y-40344961D01*
X97968006Y-40504973D01*
X98311326Y-40636761D01*
X98666541Y-40731941D01*
X98859558Y-40762512D01*
X99026511Y-40788955D01*
X99026519Y-40788956D01*
X99029759Y-40789469D01*
X99397000Y-40808715D01*
X99764241Y-40789469D01*
X99767481Y-40788956D01*
X99767489Y-40788955D01*
X99934442Y-40762512D01*
X100127459Y-40731941D01*
X100482674Y-40636761D01*
X100825994Y-40504973D01*
X101140036Y-40344961D01*
X101150717Y-40339519D01*
X101150724Y-40339515D01*
X101153658Y-40338020D01*
X101462075Y-40137732D01*
X101747867Y-39906302D01*
X102007902Y-39646267D01*
X102239332Y-39360475D01*
X102439620Y-39052057D01*
X102606573Y-38724394D01*
X102738361Y-38381074D01*
X102833541Y-38025859D01*
X102891069Y-37662641D01*
X102910315Y-37295400D01*
X102891069Y-36928159D01*
X102884914Y-36889294D01*
X102834057Y-36568202D01*
X102833541Y-36564941D01*
X102738361Y-36209726D01*
X102606573Y-35866406D01*
X102439620Y-35538743D01*
X102239332Y-35230325D01*
X102007902Y-34944533D01*
X101747867Y-34684498D01*
X101462075Y-34453068D01*
X101153658Y-34252780D01*
X101150724Y-34251285D01*
X101150717Y-34251281D01*
X100828934Y-34087325D01*
X100825994Y-34085827D01*
X100482674Y-33954039D01*
X100127459Y-33858859D01*
X99934442Y-33828288D01*
X99767489Y-33801845D01*
X99767481Y-33801844D01*
X99764241Y-33801331D01*
X99397000Y-33782085D01*
X99029759Y-33801331D01*
X99026519Y-33801844D01*
X99026511Y-33801845D01*
X98859558Y-33828288D01*
X98666541Y-33858859D01*
X98311326Y-33954039D01*
X97968006Y-34085827D01*
X97965066Y-34087325D01*
X97643284Y-34251281D01*
X97643277Y-34251285D01*
X97640343Y-34252780D01*
X97331925Y-34453068D01*
X97046133Y-34684498D01*
X96786098Y-34944533D01*
X96554668Y-35230325D01*
X96354380Y-35538743D01*
X96187427Y-35866406D01*
X96055639Y-36209726D01*
X95960459Y-36564941D01*
X95959943Y-36568202D01*
X95909087Y-36889294D01*
X95902931Y-36928159D01*
X95883685Y-37295400D01*
X83730108Y-37295400D01*
X99367564Y-30846652D01*
X99438166Y-30839173D01*
X99463638Y-30846652D01*
G37*
%TD.AperFunction*%
%TA.AperFunction,Conductor*%
G36*
X93086719Y-71208928D02*
G01*
X93143555Y-71251475D01*
X93162520Y-71288047D01*
X93170873Y-71313756D01*
X93174176Y-71319478D01*
X93174177Y-71319479D01*
X93182675Y-71334197D01*
X93210167Y-71381814D01*
X93230019Y-71416199D01*
X93246900Y-71479199D01*
X93246900Y-71879579D01*
X93245467Y-71898529D01*
X93242201Y-71919998D01*
X93242794Y-71927290D01*
X93242794Y-71927293D01*
X93246485Y-71972667D01*
X93246900Y-71982882D01*
X93246900Y-71990942D01*
X93247325Y-71994586D01*
X93250189Y-72019156D01*
X93250622Y-72023531D01*
X93252074Y-72041376D01*
X93256540Y-72096286D01*
X93258796Y-72103250D01*
X93259987Y-72109209D01*
X93261371Y-72115064D01*
X93262218Y-72122330D01*
X93287135Y-72190976D01*
X93288552Y-72195104D01*
X93311049Y-72264548D01*
X93314845Y-72270803D01*
X93317351Y-72276277D01*
X93320070Y-72281707D01*
X93322567Y-72288586D01*
X93326580Y-72294706D01*
X93326580Y-72294707D01*
X93362586Y-72349625D01*
X93364923Y-72353329D01*
X93402805Y-72415756D01*
X93406521Y-72419964D01*
X93406522Y-72419965D01*
X93410203Y-72424133D01*
X93410176Y-72424157D01*
X93412829Y-72427149D01*
X93415532Y-72430382D01*
X93419544Y-72436501D01*
X93424856Y-72441533D01*
X93475783Y-72489777D01*
X93478225Y-72492155D01*
X94370195Y-73384125D01*
X94404221Y-73446437D01*
X94407100Y-73473220D01*
X94407100Y-73495502D01*
X94407293Y-73497950D01*
X94407293Y-73497958D01*
X94407294Y-73497961D01*
X94410038Y-73532831D01*
X94429805Y-73600869D01*
X94446252Y-73657480D01*
X94456455Y-73692601D01*
X94473493Y-73721411D01*
X94537109Y-73828980D01*
X94537111Y-73828983D01*
X94541147Y-73835807D01*
X94658793Y-73953453D01*
X94665617Y-73957489D01*
X94665620Y-73957491D01*
X94769510Y-74018931D01*
X94801999Y-74038145D01*
X94809610Y-74040356D01*
X94809612Y-74040357D01*
X94816999Y-74042503D01*
X94961769Y-74084562D01*
X94968174Y-74085066D01*
X94968179Y-74085067D01*
X94996642Y-74087307D01*
X94996650Y-74087307D01*
X94999098Y-74087500D01*
X96782102Y-74087500D01*
X96784550Y-74087307D01*
X96784558Y-74087307D01*
X96813021Y-74085067D01*
X96813026Y-74085066D01*
X96819431Y-74084562D01*
X96964201Y-74042503D01*
X96971588Y-74040357D01*
X96971590Y-74040356D01*
X96979201Y-74038145D01*
X96993763Y-74029533D01*
X97062576Y-74012074D01*
X97129907Y-74034590D01*
X97174377Y-74089934D01*
X97183900Y-74137987D01*
X97183900Y-76646429D01*
X97163898Y-76714550D01*
X97146995Y-76735524D01*
X96426689Y-77455830D01*
X96412277Y-77468216D01*
X96400682Y-77476749D01*
X96400677Y-77476754D01*
X96394782Y-77481092D01*
X96390043Y-77486670D01*
X96390040Y-77486673D01*
X96360565Y-77521368D01*
X96353635Y-77528884D01*
X96347940Y-77534579D01*
X96345660Y-77537461D01*
X96330319Y-77556851D01*
X96327528Y-77560255D01*
X96287670Y-77607171D01*
X96280267Y-77615885D01*
X96276939Y-77622401D01*
X96273572Y-77627450D01*
X96270405Y-77632579D01*
X96265866Y-77638316D01*
X96234945Y-77704475D01*
X96233042Y-77708369D01*
X96199831Y-77773408D01*
X96198092Y-77780516D01*
X96195993Y-77786159D01*
X96194076Y-77791922D01*
X96190978Y-77798550D01*
X96189488Y-77805712D01*
X96189488Y-77805713D01*
X96176114Y-77870012D01*
X96175144Y-77874296D01*
X96157792Y-77945210D01*
X96157100Y-77956364D01*
X96157064Y-77956362D01*
X96156825Y-77960355D01*
X96156451Y-77964547D01*
X96154960Y-77971715D01*
X96155158Y-77979032D01*
X96157054Y-78049121D01*
X96157100Y-78052528D01*
X96157100Y-79810512D01*
X96137098Y-79878633D01*
X96083442Y-79925126D01*
X96013168Y-79935230D01*
X95948588Y-79905736D01*
X95942005Y-79899607D01*
X95638144Y-79595746D01*
X95621142Y-79582259D01*
X95605814Y-79567859D01*
X95586253Y-79546134D01*
X95474015Y-79464588D01*
X95437094Y-79437763D01*
X95437093Y-79437762D01*
X95431752Y-79433882D01*
X95425724Y-79431198D01*
X95425722Y-79431197D01*
X95263319Y-79358891D01*
X95263318Y-79358891D01*
X95257288Y-79356206D01*
X95163888Y-79336353D01*
X95076944Y-79317872D01*
X95076939Y-79317872D01*
X95070487Y-79316500D01*
X94879513Y-79316500D01*
X94873061Y-79317872D01*
X94873056Y-79317872D01*
X94786112Y-79336353D01*
X94692712Y-79356206D01*
X94686682Y-79358891D01*
X94686681Y-79358891D01*
X94524278Y-79431197D01*
X94524276Y-79431198D01*
X94518248Y-79433882D01*
X94512907Y-79437762D01*
X94512906Y-79437763D01*
X94475985Y-79464588D01*
X94363747Y-79546134D01*
X94359328Y-79551042D01*
X94359325Y-79551045D01*
X94356184Y-79554534D01*
X94235960Y-79688056D01*
X94140473Y-79853444D01*
X94081458Y-80035072D01*
X94061496Y-80225000D01*
X94081458Y-80414928D01*
X94083500Y-80421211D01*
X94095333Y-80457630D01*
X94101500Y-80496567D01*
X94101500Y-83516200D01*
X94101860Y-83519551D01*
X94101919Y-83520647D01*
X94102100Y-83527392D01*
X94102100Y-83707334D01*
X94108855Y-83769516D01*
X94159985Y-83905905D01*
X94247339Y-84022461D01*
X94363895Y-84109815D01*
X94500284Y-84160945D01*
X94562466Y-84167700D01*
X95268734Y-84167700D01*
X95272131Y-84167331D01*
X95323066Y-84161798D01*
X95323068Y-84161798D01*
X95330916Y-84160945D01*
X95336451Y-84158870D01*
X95363483Y-84155700D01*
X95467717Y-84155700D01*
X95494749Y-84158870D01*
X95500284Y-84160945D01*
X95508132Y-84161798D01*
X95508134Y-84161798D01*
X95559069Y-84167331D01*
X95562466Y-84167700D01*
X96268734Y-84167700D01*
X96330916Y-84160945D01*
X96371371Y-84145779D01*
X96442176Y-84140596D01*
X96459823Y-84145777D01*
X96500284Y-84160945D01*
X96562466Y-84167700D01*
X97268734Y-84167700D01*
X97330916Y-84160945D01*
X97371371Y-84145779D01*
X97442176Y-84140596D01*
X97459823Y-84145777D01*
X97500284Y-84160945D01*
X97562466Y-84167700D01*
X98268734Y-84167700D01*
X98330916Y-84160945D01*
X98371371Y-84145779D01*
X98442176Y-84140596D01*
X98459823Y-84145777D01*
X98500284Y-84160945D01*
X98562466Y-84167700D01*
X99268734Y-84167700D01*
X99330916Y-84160945D01*
X99371371Y-84145779D01*
X99442176Y-84140596D01*
X99459823Y-84145777D01*
X99500284Y-84160945D01*
X99562466Y-84167700D01*
X100268734Y-84167700D01*
X100330916Y-84160945D01*
X100371371Y-84145779D01*
X100442176Y-84140596D01*
X100459823Y-84145777D01*
X100500284Y-84160945D01*
X100562466Y-84167700D01*
X101268734Y-84167700D01*
X101330916Y-84160945D01*
X101371371Y-84145779D01*
X101442176Y-84140596D01*
X101459823Y-84145777D01*
X101500284Y-84160945D01*
X101562466Y-84167700D01*
X102268734Y-84167700D01*
X102330916Y-84160945D01*
X102467305Y-84109815D01*
X102583861Y-84022461D01*
X102671215Y-83905905D01*
X102722345Y-83769516D01*
X102729100Y-83707334D01*
X102729100Y-81611066D01*
X102722345Y-81548884D01*
X102671215Y-81412495D01*
X102583861Y-81295939D01*
X102467305Y-81208585D01*
X102330916Y-81157455D01*
X102268734Y-81150700D01*
X102039371Y-81150700D01*
X101971250Y-81130698D01*
X101924757Y-81077042D01*
X101914653Y-81006768D01*
X101944147Y-80942188D01*
X101950276Y-80935605D01*
X102207476Y-80678405D01*
X102269788Y-80644379D01*
X102296571Y-80641500D01*
X107908330Y-80641500D01*
X107927280Y-80642933D01*
X107941515Y-80645099D01*
X107941519Y-80645099D01*
X107948749Y-80646199D01*
X107956041Y-80645606D01*
X107956044Y-80645606D01*
X108001418Y-80641915D01*
X108011633Y-80641500D01*
X108019693Y-80641500D01*
X108032983Y-80639951D01*
X108047907Y-80638211D01*
X108052282Y-80637778D01*
X108117739Y-80632454D01*
X108117742Y-80632453D01*
X108125037Y-80631860D01*
X108132001Y-80629604D01*
X108137960Y-80628413D01*
X108143815Y-80627029D01*
X108151081Y-80626182D01*
X108219727Y-80601265D01*
X108223855Y-80599848D01*
X108286336Y-80579607D01*
X108286338Y-80579606D01*
X108293299Y-80577351D01*
X108299554Y-80573555D01*
X108305028Y-80571049D01*
X108310458Y-80568330D01*
X108317337Y-80565833D01*
X108378376Y-80525814D01*
X108382080Y-80523477D01*
X108444507Y-80485595D01*
X108452884Y-80478197D01*
X108452908Y-80478224D01*
X108455900Y-80475571D01*
X108459133Y-80472868D01*
X108465252Y-80468856D01*
X108518528Y-80412617D01*
X108520906Y-80410175D01*
X110814036Y-78117045D01*
X110876348Y-78083019D01*
X110947163Y-78088084D01*
X111003999Y-78130631D01*
X111018124Y-78154638D01*
X112332405Y-81089264D01*
X112637494Y-81770491D01*
X112648500Y-81821992D01*
X112648500Y-93028497D01*
X112628498Y-93096618D01*
X112574842Y-93143111D01*
X112504568Y-93153215D01*
X112439988Y-93123721D01*
X112401604Y-93063995D01*
X112396673Y-93035091D01*
X112391241Y-92931449D01*
X112391069Y-92928159D01*
X112333541Y-92564941D01*
X112238361Y-92209726D01*
X112106573Y-91866406D01*
X111953857Y-91566684D01*
X111941119Y-91541684D01*
X111941115Y-91541677D01*
X111939620Y-91538743D01*
X111739332Y-91230325D01*
X111507902Y-90944533D01*
X111247867Y-90684498D01*
X110962075Y-90453068D01*
X110775545Y-90331934D01*
X110656427Y-90254578D01*
X110656424Y-90254576D01*
X110653658Y-90252780D01*
X110650724Y-90251285D01*
X110650717Y-90251281D01*
X110328934Y-90087325D01*
X110325994Y-90085827D01*
X110091322Y-89995745D01*
X109985764Y-89955225D01*
X109985762Y-89955224D01*
X109982674Y-89954039D01*
X109627459Y-89858859D01*
X109420999Y-89826159D01*
X109267489Y-89801845D01*
X109267481Y-89801844D01*
X109264241Y-89801331D01*
X108897000Y-89782085D01*
X108529759Y-89801331D01*
X108526519Y-89801844D01*
X108526511Y-89801845D01*
X108373001Y-89826159D01*
X108166541Y-89858859D01*
X107811326Y-89954039D01*
X107808238Y-89955224D01*
X107808236Y-89955225D01*
X107702678Y-89995745D01*
X107468006Y-90085827D01*
X107465066Y-90087325D01*
X107143284Y-90251281D01*
X107143277Y-90251285D01*
X107140343Y-90252780D01*
X107137577Y-90254576D01*
X107137574Y-90254578D01*
X107104154Y-90276281D01*
X106831925Y-90453068D01*
X106546133Y-90684498D01*
X106286098Y-90944533D01*
X106054668Y-91230325D01*
X105854380Y-91538743D01*
X105852885Y-91541677D01*
X105852881Y-91541684D01*
X105840143Y-91566684D01*
X105687427Y-91866406D01*
X105555639Y-92209726D01*
X105548085Y-92237919D01*
X105531207Y-92300907D01*
X105494255Y-92361530D01*
X105430394Y-92392551D01*
X105359900Y-92384123D01*
X105305153Y-92338920D01*
X105283500Y-92268296D01*
X105283500Y-90629650D01*
X105285246Y-90608745D01*
X105287770Y-90593744D01*
X105287770Y-90593741D01*
X105288576Y-90588952D01*
X105288729Y-90576400D01*
X105288040Y-90571587D01*
X105288039Y-90571575D01*
X105287241Y-90566005D01*
X105286248Y-90556533D01*
X105280891Y-90476266D01*
X105271532Y-90336054D01*
X105230159Y-90131895D01*
X105224525Y-90104092D01*
X105224525Y-90104091D01*
X105223690Y-90099972D01*
X105222318Y-90096008D01*
X105222316Y-90096001D01*
X105146271Y-89876310D01*
X105146268Y-89876304D01*
X105144897Y-89872342D01*
X105036552Y-89657203D01*
X105034185Y-89653742D01*
X105034181Y-89653735D01*
X104902942Y-89461832D01*
X104902936Y-89461825D01*
X104900575Y-89458372D01*
X104739380Y-89279375D01*
X104736185Y-89276660D01*
X104736181Y-89276656D01*
X104559029Y-89126111D01*
X104559030Y-89126111D01*
X104555826Y-89123389D01*
X104353170Y-88993182D01*
X104349371Y-88991404D01*
X104349366Y-88991401D01*
X104139513Y-88893171D01*
X104135007Y-88891062D01*
X103905207Y-88818842D01*
X103667848Y-88777803D01*
X103591697Y-88774915D01*
X103464528Y-88770091D01*
X103451980Y-88768985D01*
X103444488Y-88767945D01*
X103444479Y-88767944D01*
X103439657Y-88767275D01*
X103433598Y-88767375D01*
X103431964Y-88767402D01*
X103431958Y-88767403D01*
X103427106Y-88767483D01*
X103419600Y-88768779D01*
X103408688Y-88770663D01*
X103387250Y-88772500D01*
X95451737Y-88772500D01*
X95427273Y-88770102D01*
X95416637Y-88767997D01*
X95410726Y-88767755D01*
X95408960Y-88767682D01*
X95408955Y-88767682D01*
X95404094Y-88767483D01*
X95392710Y-88768781D01*
X95383243Y-88769498D01*
X95163356Y-88777838D01*
X94956977Y-88813521D01*
X94930339Y-88818127D01*
X94926001Y-88818877D01*
X94696206Y-88891095D01*
X94478048Y-88993213D01*
X94474504Y-88995490D01*
X94278928Y-89121148D01*
X94278921Y-89121153D01*
X94275396Y-89123418D01*
X94259177Y-89137201D01*
X94095045Y-89276681D01*
X94095040Y-89276686D01*
X94091845Y-89279401D01*
X94017377Y-89362093D01*
X93933471Y-89455264D01*
X93933466Y-89455270D01*
X93930653Y-89458394D01*
X93928279Y-89461866D01*
X93797050Y-89653753D01*
X93797046Y-89653760D01*
X93794679Y-89657221D01*
X93686336Y-89872356D01*
X93684965Y-89876317D01*
X93684962Y-89876324D01*
X93608919Y-90096010D01*
X93608917Y-90096017D01*
X93607545Y-90099981D01*
X93559704Y-90336059D01*
X93550346Y-90476266D01*
X93545629Y-90546931D01*
X93544409Y-90557923D01*
X93542509Y-90570124D01*
X93543673Y-90579026D01*
X93543673Y-90579028D01*
X93546636Y-90601683D01*
X93547700Y-90618021D01*
X93547700Y-92656792D01*
X93527698Y-92724913D01*
X93474042Y-92771406D01*
X93403768Y-92781510D01*
X93339188Y-92752016D01*
X93300804Y-92692290D01*
X93297251Y-92676503D01*
X93294129Y-92656792D01*
X93283541Y-92589941D01*
X93188361Y-92234726D01*
X93178765Y-92209726D01*
X93057757Y-91894491D01*
X93056573Y-91891406D01*
X92889620Y-91563743D01*
X92689332Y-91255325D01*
X92457902Y-90969533D01*
X92197867Y-90709498D01*
X91912075Y-90478068D01*
X91603658Y-90277780D01*
X91600724Y-90276285D01*
X91600717Y-90276281D01*
X91278934Y-90112325D01*
X91275994Y-90110827D01*
X90932674Y-89979039D01*
X90577459Y-89883859D01*
X90384442Y-89853288D01*
X90217489Y-89826845D01*
X90217481Y-89826844D01*
X90214241Y-89826331D01*
X89847000Y-89807085D01*
X89479759Y-89826331D01*
X89476519Y-89826844D01*
X89476511Y-89826845D01*
X89309558Y-89853288D01*
X89116541Y-89883859D01*
X88761326Y-89979039D01*
X88418006Y-90110827D01*
X88415066Y-90112325D01*
X88093284Y-90276281D01*
X88093277Y-90276285D01*
X88090343Y-90277780D01*
X88087577Y-90279576D01*
X88087574Y-90279578D01*
X87994135Y-90340258D01*
X87781925Y-90478068D01*
X87496133Y-90709498D01*
X87236098Y-90969533D01*
X87004668Y-91255325D01*
X86804380Y-91563743D01*
X86637427Y-91891406D01*
X86636243Y-91894491D01*
X86515236Y-92209726D01*
X86505639Y-92234726D01*
X86496644Y-92268296D01*
X86430407Y-92515494D01*
X86393455Y-92576117D01*
X86329594Y-92607138D01*
X86259100Y-92598710D01*
X86204353Y-92553507D01*
X86182700Y-92482883D01*
X86182700Y-87307334D01*
X90077100Y-87307334D01*
X90083855Y-87369516D01*
X90134985Y-87505905D01*
X90222339Y-87622461D01*
X90338895Y-87709815D01*
X90475284Y-87760945D01*
X90537466Y-87767700D01*
X93313734Y-87767700D01*
X93375916Y-87760945D01*
X93512305Y-87709815D01*
X93628861Y-87622461D01*
X93716215Y-87505905D01*
X93767345Y-87369516D01*
X93774100Y-87307334D01*
X105057100Y-87307334D01*
X105063855Y-87369516D01*
X105114985Y-87505905D01*
X105202339Y-87622461D01*
X105318895Y-87709815D01*
X105455284Y-87760945D01*
X105517466Y-87767700D01*
X108293734Y-87767700D01*
X108355916Y-87760945D01*
X108492305Y-87709815D01*
X108608861Y-87622461D01*
X108696215Y-87505905D01*
X108747345Y-87369516D01*
X108754100Y-87307334D01*
X108754100Y-83611066D01*
X108747345Y-83548884D01*
X108696215Y-83412495D01*
X108608861Y-83295939D01*
X108492305Y-83208585D01*
X108355916Y-83157455D01*
X108293734Y-83150700D01*
X105517466Y-83150700D01*
X105455284Y-83157455D01*
X105318895Y-83208585D01*
X105202339Y-83295939D01*
X105114985Y-83412495D01*
X105063855Y-83548884D01*
X105057100Y-83611066D01*
X105057100Y-87307334D01*
X93774100Y-87307334D01*
X93774100Y-83611066D01*
X93767345Y-83548884D01*
X93716215Y-83412495D01*
X93628861Y-83295939D01*
X93512305Y-83208585D01*
X93375916Y-83157455D01*
X93313734Y-83150700D01*
X90537466Y-83150700D01*
X90475284Y-83157455D01*
X90338895Y-83208585D01*
X90222339Y-83295939D01*
X90134985Y-83412495D01*
X90083855Y-83548884D01*
X90077100Y-83611066D01*
X90077100Y-87307334D01*
X86182700Y-87307334D01*
X86182700Y-81821993D01*
X86193706Y-81770492D01*
X87989238Y-77761290D01*
X87990177Y-77759243D01*
X88015864Y-77704530D01*
X88019681Y-77696400D01*
X88024808Y-77663472D01*
X88028172Y-77648187D01*
X88037345Y-77616146D01*
X88036902Y-77538028D01*
X88036900Y-77537314D01*
X88036900Y-73335571D01*
X88056902Y-73267450D01*
X88110558Y-73220957D01*
X88180832Y-73210853D01*
X88245412Y-73240347D01*
X88251995Y-73246476D01*
X88773430Y-73767911D01*
X88785816Y-73782323D01*
X88794349Y-73793918D01*
X88794354Y-73793923D01*
X88798692Y-73799818D01*
X88804270Y-73804557D01*
X88804273Y-73804560D01*
X88838968Y-73834035D01*
X88846484Y-73840965D01*
X88852179Y-73846660D01*
X88855061Y-73848940D01*
X88874451Y-73864281D01*
X88877855Y-73867072D01*
X88927903Y-73909591D01*
X88933485Y-73914333D01*
X88940001Y-73917661D01*
X88945050Y-73921028D01*
X88950179Y-73924195D01*
X88955916Y-73928734D01*
X89022075Y-73959655D01*
X89025969Y-73961558D01*
X89091008Y-73994769D01*
X89098116Y-73996508D01*
X89103759Y-73998607D01*
X89109522Y-74000524D01*
X89116150Y-74003622D01*
X89184189Y-74017774D01*
X89187612Y-74018486D01*
X89191896Y-74019456D01*
X89262810Y-74036808D01*
X89268412Y-74037156D01*
X89268415Y-74037156D01*
X89273964Y-74037500D01*
X89273962Y-74037536D01*
X89277955Y-74037775D01*
X89282147Y-74038149D01*
X89289315Y-74039640D01*
X89363650Y-74037629D01*
X89432286Y-74055782D01*
X89480213Y-74108160D01*
X89492214Y-74178135D01*
X89488054Y-74198735D01*
X89461833Y-74288989D01*
X89461832Y-74288993D01*
X89460038Y-74295169D01*
X89459534Y-74301574D01*
X89459533Y-74301579D01*
X89457293Y-74330042D01*
X89457100Y-74332498D01*
X89457100Y-74765502D01*
X89457293Y-74767950D01*
X89457293Y-74767958D01*
X89459480Y-74795740D01*
X89460038Y-74802831D01*
X89482296Y-74879443D01*
X89503599Y-74952769D01*
X89506455Y-74962601D01*
X89591147Y-75105807D01*
X89593829Y-75108489D01*
X89619102Y-75172861D01*
X89605200Y-75242484D01*
X89595028Y-75258312D01*
X89591147Y-75262193D01*
X89506455Y-75405399D01*
X89504244Y-75413010D01*
X89504243Y-75413012D01*
X89494508Y-75446521D01*
X89460038Y-75565169D01*
X89457100Y-75602498D01*
X89457100Y-76035502D01*
X89460038Y-76072831D01*
X89489072Y-76172769D01*
X89495903Y-76196279D01*
X89506455Y-76232601D01*
X89591147Y-76375807D01*
X89593829Y-76378489D01*
X89619102Y-76442861D01*
X89605200Y-76512484D01*
X89595028Y-76528312D01*
X89591147Y-76532193D01*
X89506455Y-76675399D01*
X89504244Y-76683010D01*
X89504243Y-76683012D01*
X89492414Y-76723729D01*
X89460038Y-76835169D01*
X89457100Y-76872498D01*
X89457100Y-77305502D01*
X89460038Y-77342831D01*
X89489072Y-77442769D01*
X89501828Y-77486673D01*
X89506455Y-77502601D01*
X89510492Y-77509427D01*
X89587109Y-77638980D01*
X89587111Y-77638983D01*
X89591147Y-77645807D01*
X89708793Y-77763453D01*
X89715617Y-77767489D01*
X89715620Y-77767491D01*
X89823189Y-77831107D01*
X89851999Y-77848145D01*
X89859610Y-77850356D01*
X89859612Y-77850357D01*
X89866999Y-77852503D01*
X90011769Y-77894562D01*
X90018174Y-77895066D01*
X90018179Y-77895067D01*
X90046642Y-77897307D01*
X90046650Y-77897307D01*
X90049098Y-77897500D01*
X91832102Y-77897500D01*
X91834550Y-77897307D01*
X91834558Y-77897307D01*
X91863021Y-77895067D01*
X91863026Y-77895066D01*
X91869431Y-77894562D01*
X91875607Y-77892768D01*
X91875611Y-77892767D01*
X92014202Y-77852503D01*
X92049354Y-77847500D01*
X92243613Y-77847500D01*
X92317672Y-77871563D01*
X92324102Y-77876235D01*
X92324109Y-77876239D01*
X92329448Y-77880118D01*
X92335476Y-77882802D01*
X92335478Y-77882803D01*
X92497881Y-77955109D01*
X92503912Y-77957794D01*
X92597313Y-77977647D01*
X92684256Y-77996128D01*
X92684261Y-77996128D01*
X92690713Y-77997500D01*
X92881687Y-77997500D01*
X92888139Y-77996128D01*
X92888144Y-77996128D01*
X92975087Y-77977647D01*
X93068488Y-77957794D01*
X93074519Y-77955109D01*
X93236922Y-77882803D01*
X93236924Y-77882802D01*
X93242952Y-77880118D01*
X93248297Y-77876235D01*
X93389825Y-77773408D01*
X93397453Y-77767866D01*
X93461801Y-77696400D01*
X93520821Y-77630852D01*
X93520822Y-77630851D01*
X93525240Y-77625944D01*
X93611378Y-77476749D01*
X93617423Y-77466279D01*
X93617424Y-77466278D01*
X93620727Y-77460556D01*
X93679742Y-77278928D01*
X93699704Y-77089000D01*
X93679742Y-76899072D01*
X93620727Y-76717444D01*
X93609859Y-76698619D01*
X93528541Y-76557774D01*
X93525240Y-76552056D01*
X93512862Y-76538309D01*
X93482146Y-76474303D01*
X93490910Y-76403850D01*
X93512861Y-76369693D01*
X93525240Y-76355944D01*
X93620727Y-76190556D01*
X93679742Y-76008928D01*
X93684094Y-75967526D01*
X93699014Y-75825565D01*
X93699704Y-75819000D01*
X93679742Y-75629072D01*
X93620727Y-75447444D01*
X93525240Y-75282056D01*
X93506762Y-75261534D01*
X93476046Y-75197528D01*
X93484811Y-75127074D01*
X93506759Y-75092921D01*
X93508617Y-75090857D01*
X93508620Y-75090853D01*
X93513040Y-75085944D01*
X93540862Y-75037755D01*
X93605223Y-74926279D01*
X93605224Y-74926278D01*
X93608527Y-74920556D01*
X93667542Y-74738928D01*
X93677806Y-74641277D01*
X93686814Y-74555565D01*
X93687504Y-74549000D01*
X93684751Y-74522808D01*
X93668232Y-74365635D01*
X93668232Y-74365633D01*
X93667542Y-74359072D01*
X93608527Y-74177444D01*
X93585747Y-74137987D01*
X93536679Y-74053000D01*
X93513040Y-74012056D01*
X93500931Y-73998607D01*
X93389675Y-73875045D01*
X93389674Y-73875044D01*
X93385253Y-73870134D01*
X93230752Y-73757882D01*
X93224724Y-73755198D01*
X93224722Y-73755197D01*
X93062319Y-73682891D01*
X93062318Y-73682891D01*
X93056288Y-73680206D01*
X92962887Y-73660353D01*
X92875944Y-73641872D01*
X92875939Y-73641872D01*
X92869487Y-73640500D01*
X92678513Y-73640500D01*
X92672061Y-73641872D01*
X92672056Y-73641872D01*
X92573214Y-73662882D01*
X92502423Y-73657480D01*
X92445791Y-73614663D01*
X92421297Y-73548025D01*
X92421405Y-73529750D01*
X92423907Y-73497961D01*
X92423908Y-73497947D01*
X92424100Y-73495502D01*
X92424100Y-73062498D01*
X92421162Y-73025169D01*
X92374745Y-72865399D01*
X92290053Y-72722193D01*
X92287371Y-72719511D01*
X92262098Y-72655139D01*
X92276000Y-72585516D01*
X92286172Y-72569688D01*
X92290053Y-72565807D01*
X92374745Y-72422601D01*
X92378128Y-72410959D01*
X92400920Y-72332506D01*
X92421162Y-72262831D01*
X92423877Y-72228345D01*
X92423907Y-72227958D01*
X92423907Y-72227950D01*
X92424100Y-72225502D01*
X92424100Y-71792498D01*
X92423175Y-71780739D01*
X92421667Y-71761579D01*
X92421666Y-71761574D01*
X92421162Y-71755169D01*
X92419369Y-71748997D01*
X92419368Y-71748992D01*
X92400106Y-71682693D01*
X92390857Y-71650857D01*
X92391060Y-71579863D01*
X92429614Y-71520246D01*
X92494278Y-71490938D01*
X92501636Y-71490121D01*
X92505163Y-71489834D01*
X92522139Y-71488454D01*
X92522142Y-71488453D01*
X92529437Y-71487860D01*
X92536401Y-71485604D01*
X92542360Y-71484413D01*
X92548215Y-71483029D01*
X92555481Y-71482182D01*
X92624127Y-71457265D01*
X92628255Y-71455848D01*
X92690736Y-71435607D01*
X92690738Y-71435606D01*
X92697699Y-71433351D01*
X92703954Y-71429555D01*
X92709428Y-71427049D01*
X92714858Y-71424330D01*
X92721737Y-71421833D01*
X92730330Y-71416199D01*
X92782776Y-71381814D01*
X92786480Y-71379477D01*
X92848907Y-71341595D01*
X92857284Y-71334197D01*
X92857308Y-71334224D01*
X92860300Y-71331571D01*
X92863533Y-71328868D01*
X92869652Y-71324856D01*
X92922928Y-71268617D01*
X92925306Y-71266175D01*
X92953592Y-71237889D01*
X93015904Y-71203863D01*
X93086719Y-71208928D01*
G37*
%TD.AperFunction*%
%TA.AperFunction,Conductor*%
G36*
X106329886Y-71619410D02*
G01*
X106386722Y-71661957D01*
X106411533Y-71728477D01*
X106410081Y-71755020D01*
X106410038Y-71755169D01*
X106407100Y-71792498D01*
X106407100Y-72225502D01*
X106407293Y-72227950D01*
X106407293Y-72227958D01*
X106407324Y-72228345D01*
X106410038Y-72262831D01*
X106430280Y-72332506D01*
X106453073Y-72410959D01*
X106456455Y-72422601D01*
X106541147Y-72565807D01*
X106543829Y-72568489D01*
X106569102Y-72632861D01*
X106555200Y-72702484D01*
X106545028Y-72718312D01*
X106541147Y-72722193D01*
X106456455Y-72865399D01*
X106410038Y-73025169D01*
X106407100Y-73062498D01*
X106407100Y-73495502D01*
X106407293Y-73497950D01*
X106407293Y-73497958D01*
X106407294Y-73497961D01*
X106410038Y-73532831D01*
X106429805Y-73600869D01*
X106446252Y-73657480D01*
X106456455Y-73692601D01*
X106473493Y-73721411D01*
X106537109Y-73828980D01*
X106537111Y-73828983D01*
X106541147Y-73835807D01*
X106658793Y-73953453D01*
X106665617Y-73957489D01*
X106665620Y-73957491D01*
X106769510Y-74018931D01*
X106801999Y-74038145D01*
X106809610Y-74040356D01*
X106809612Y-74040357D01*
X106816999Y-74042503D01*
X106961769Y-74084562D01*
X106968174Y-74085066D01*
X106968179Y-74085067D01*
X106996642Y-74087307D01*
X106996650Y-74087307D01*
X106999098Y-74087500D01*
X108782102Y-74087500D01*
X108784550Y-74087307D01*
X108784558Y-74087307D01*
X108813021Y-74085067D01*
X108813026Y-74085066D01*
X108819431Y-74084562D01*
X108825607Y-74082768D01*
X108825611Y-74082767D01*
X108964202Y-74042503D01*
X108999354Y-74037500D01*
X109103930Y-74037500D01*
X109122880Y-74038933D01*
X109137115Y-74041099D01*
X109137119Y-74041099D01*
X109144349Y-74042199D01*
X109151641Y-74041606D01*
X109151644Y-74041606D01*
X109197018Y-74037915D01*
X109207233Y-74037500D01*
X109215293Y-74037500D01*
X109232680Y-74035473D01*
X109243507Y-74034211D01*
X109247882Y-74033778D01*
X109313339Y-74028454D01*
X109313342Y-74028453D01*
X109320637Y-74027860D01*
X109327601Y-74025604D01*
X109333560Y-74024413D01*
X109339415Y-74023029D01*
X109346681Y-74022182D01*
X109415327Y-73997265D01*
X109419455Y-73995848D01*
X109481936Y-73975607D01*
X109481938Y-73975606D01*
X109488899Y-73973351D01*
X109495154Y-73969555D01*
X109500628Y-73967049D01*
X109506058Y-73964330D01*
X109512937Y-73961833D01*
X109555281Y-73934071D01*
X109573976Y-73921814D01*
X109577680Y-73919477D01*
X109640107Y-73881595D01*
X109648484Y-73874197D01*
X109648508Y-73874224D01*
X109651500Y-73871571D01*
X109654733Y-73868868D01*
X109660852Y-73864856D01*
X109714128Y-73808617D01*
X109716506Y-73806175D01*
X109795805Y-73726876D01*
X109858117Y-73692850D01*
X109928932Y-73697915D01*
X109985768Y-73740462D01*
X110010579Y-73806982D01*
X110010900Y-73815971D01*
X110010900Y-76722629D01*
X109990898Y-76790750D01*
X109973995Y-76811724D01*
X107698124Y-79087595D01*
X107635812Y-79121621D01*
X107609029Y-79124500D01*
X101997270Y-79124500D01*
X101978320Y-79123067D01*
X101964085Y-79120901D01*
X101964081Y-79120901D01*
X101956851Y-79119801D01*
X101949559Y-79120394D01*
X101949556Y-79120394D01*
X101904182Y-79124085D01*
X101893967Y-79124500D01*
X101885907Y-79124500D01*
X101872617Y-79126049D01*
X101857693Y-79127789D01*
X101853318Y-79128222D01*
X101787861Y-79133546D01*
X101787858Y-79133547D01*
X101780563Y-79134140D01*
X101773599Y-79136396D01*
X101767640Y-79137587D01*
X101761785Y-79138971D01*
X101754519Y-79139818D01*
X101685873Y-79164735D01*
X101681745Y-79166152D01*
X101619264Y-79186393D01*
X101619262Y-79186394D01*
X101612301Y-79188649D01*
X101606046Y-79192445D01*
X101600572Y-79194951D01*
X101595142Y-79197670D01*
X101588263Y-79200167D01*
X101582143Y-79204180D01*
X101582142Y-79204180D01*
X101527224Y-79240186D01*
X101523520Y-79242523D01*
X101461093Y-79280405D01*
X101452716Y-79287803D01*
X101452692Y-79287776D01*
X101449700Y-79290429D01*
X101446467Y-79293132D01*
X101440348Y-79297144D01*
X101435316Y-79302456D01*
X101387072Y-79353383D01*
X101384694Y-79355825D01*
X100889195Y-79851324D01*
X100826883Y-79885350D01*
X100756068Y-79880285D01*
X100699232Y-79837738D01*
X100674421Y-79771218D01*
X100674100Y-79762229D01*
X100674100Y-79063571D01*
X100694102Y-78995450D01*
X100711005Y-78974476D01*
X101680131Y-78005350D01*
X101743028Y-77971199D01*
X101799624Y-77959169D01*
X101799633Y-77959166D01*
X101806088Y-77957794D01*
X101846605Y-77939755D01*
X101932113Y-77901684D01*
X102005894Y-77892855D01*
X102011769Y-77894562D01*
X102018179Y-77895067D01*
X102018182Y-77895067D01*
X102046642Y-77897307D01*
X102046650Y-77897307D01*
X102049098Y-77897500D01*
X103832102Y-77897500D01*
X103834550Y-77897307D01*
X103834558Y-77897307D01*
X103863021Y-77895067D01*
X103863026Y-77895066D01*
X103869431Y-77894562D01*
X104014201Y-77852503D01*
X104021588Y-77850357D01*
X104021590Y-77850356D01*
X104029201Y-77848145D01*
X104058011Y-77831107D01*
X104165580Y-77767491D01*
X104165583Y-77767489D01*
X104172407Y-77763453D01*
X104290053Y-77645807D01*
X104294089Y-77638983D01*
X104294091Y-77638980D01*
X104370708Y-77509427D01*
X104374745Y-77502601D01*
X104379373Y-77486673D01*
X104392128Y-77442769D01*
X104421162Y-77342831D01*
X104424100Y-77305502D01*
X104424100Y-76872498D01*
X104421162Y-76835169D01*
X104388786Y-76723729D01*
X104376957Y-76683012D01*
X104376956Y-76683010D01*
X104374745Y-76675399D01*
X104290053Y-76532193D01*
X104287371Y-76529511D01*
X104262098Y-76465139D01*
X104276000Y-76395516D01*
X104286172Y-76379688D01*
X104290053Y-76375807D01*
X104374745Y-76232601D01*
X104385298Y-76196279D01*
X104392128Y-76172769D01*
X104421162Y-76072831D01*
X104424100Y-76035502D01*
X104424100Y-75602498D01*
X104421162Y-75565169D01*
X104386692Y-75446521D01*
X104376957Y-75413012D01*
X104376956Y-75413010D01*
X104374745Y-75405399D01*
X104290053Y-75262193D01*
X104287371Y-75259511D01*
X104262098Y-75195139D01*
X104276000Y-75125516D01*
X104286172Y-75109688D01*
X104290053Y-75105807D01*
X104374745Y-74962601D01*
X104377602Y-74952769D01*
X104398904Y-74879443D01*
X104421162Y-74802831D01*
X104421721Y-74795740D01*
X104423907Y-74767958D01*
X104423907Y-74767950D01*
X104424100Y-74765502D01*
X104424100Y-74332498D01*
X104423907Y-74330042D01*
X104421667Y-74301579D01*
X104421666Y-74301574D01*
X104421162Y-74295169D01*
X104386960Y-74177444D01*
X104376957Y-74143012D01*
X104376956Y-74143010D01*
X104374745Y-74135399D01*
X104290053Y-73992193D01*
X104287371Y-73989511D01*
X104262098Y-73925139D01*
X104276000Y-73855516D01*
X104286172Y-73839688D01*
X104290053Y-73835807D01*
X104374745Y-73692601D01*
X104384949Y-73657480D01*
X104401395Y-73600869D01*
X104421162Y-73532831D01*
X104423907Y-73497961D01*
X104423907Y-73497950D01*
X104424100Y-73495502D01*
X104424100Y-73473220D01*
X104444102Y-73405099D01*
X104461005Y-73384125D01*
X106196759Y-71648371D01*
X106259071Y-71614345D01*
X106329886Y-71619410D01*
G37*
%TD.AperFunction*%
%TD*%
%TA.AperFunction,Conductor*%
%TO.N,3V3*%
G36*
X91280521Y-66847402D02*
G01*
X91327014Y-66901058D01*
X91338400Y-66953400D01*
X91338400Y-67971400D01*
X91318398Y-68039521D01*
X91264742Y-68086014D01*
X91212400Y-68097400D01*
X90677000Y-68097400D01*
X90608879Y-68077398D01*
X90562386Y-68023742D01*
X90551000Y-67971400D01*
X90551000Y-66953400D01*
X90571002Y-66885279D01*
X90624658Y-66838786D01*
X90677000Y-66827400D01*
X91212400Y-66827400D01*
X91280521Y-66847402D01*
G37*
%TD.AperFunction*%
%TD*%
%TA.AperFunction,Conductor*%
%TO.N,3V3*%
G36*
X95226328Y-79928585D02*
G01*
X95275045Y-79958845D01*
X96051295Y-80735095D01*
X96085321Y-80797407D01*
X96088200Y-80824190D01*
X96088200Y-83516200D01*
X96068198Y-83584321D01*
X96014542Y-83630814D01*
X95962200Y-83642200D01*
X94741000Y-83642200D01*
X94672879Y-83622198D01*
X94626386Y-83568542D01*
X94615000Y-83516200D01*
X94615000Y-80159178D01*
X94635002Y-80091057D01*
X94688658Y-80044564D01*
X94710440Y-80036940D01*
X95155392Y-79925702D01*
X95226328Y-79928585D01*
G37*
%TD.AperFunction*%
%TD*%
%TA.AperFunction,Conductor*%
%TO.N,3V3*%
G36*
X109263331Y-53893402D02*
G01*
X109309824Y-53947058D01*
X109319928Y-54017332D01*
X109290434Y-54081912D01*
X109284305Y-54088495D01*
X108191495Y-55181305D01*
X108129183Y-55215331D01*
X108058368Y-55210266D01*
X108013305Y-55181305D01*
X106920495Y-54088495D01*
X106886469Y-54026183D01*
X106891534Y-53955368D01*
X106934081Y-53898532D01*
X107000601Y-53873721D01*
X107009590Y-53873400D01*
X109195210Y-53873400D01*
X109263331Y-53893402D01*
G37*
%TD.AperFunction*%
%TD*%
%TA.AperFunction,Conductor*%
%TO.N,3V3*%
G36*
X100576531Y-53969602D02*
G01*
X100623024Y-54023258D01*
X100633128Y-54093532D01*
X100603634Y-54158112D01*
X100597505Y-54164695D01*
X99504695Y-55257505D01*
X99442383Y-55291531D01*
X99371568Y-55286466D01*
X99326505Y-55257505D01*
X98233695Y-54164695D01*
X98199669Y-54102383D01*
X98204734Y-54031568D01*
X98247281Y-53974732D01*
X98313801Y-53949921D01*
X98322790Y-53949600D01*
X100508410Y-53949600D01*
X100576531Y-53969602D01*
G37*
%TD.AperFunction*%
%TD*%
M02*
