%TF.GenerationSoftware,KiCad,Pcbnew,(6.0.4)*%
%TF.CreationDate,2023-10-20T23:52:16+07:00*%
%TF.ProjectId,Sensor_V2.1,53656e73-6f72-45f5-9632-2e312e6b6963,rev?*%
%TF.SameCoordinates,Original*%
%TF.FileFunction,Legend,Top*%
%TF.FilePolarity,Positive*%
%FSLAX46Y46*%
G04 Gerber Fmt 4.6, Leading zero omitted, Abs format (unit mm)*
G04 Created by KiCad (PCBNEW (6.0.4)) date 2023-10-20 23:52:16*
%MOMM*%
%LPD*%
G01*
G04 APERTURE LIST*
%ADD10C,0.300000*%
%ADD11C,0.120000*%
G04 APERTURE END LIST*
D10*
X92915600Y-72511457D02*
X93415600Y-72511457D01*
X93629885Y-73297171D02*
X92915600Y-73297171D01*
X92915600Y-71797171D01*
X93629885Y-71797171D01*
X94272742Y-72511457D02*
X94772742Y-72511457D01*
X94987028Y-73297171D02*
X94272742Y-73297171D01*
X94272742Y-71797171D01*
X94987028Y-71797171D01*
X95629885Y-73297171D02*
X95629885Y-71797171D01*
X96201314Y-71797171D01*
X96344171Y-71868600D01*
X96415600Y-71940028D01*
X96487028Y-72082885D01*
X96487028Y-72297171D01*
X96415600Y-72440028D01*
X96344171Y-72511457D01*
X96201314Y-72582885D01*
X95629885Y-72582885D01*
X97987028Y-73297171D02*
X97487028Y-72582885D01*
X97129885Y-73297171D02*
X97129885Y-71797171D01*
X97701314Y-71797171D01*
X97844171Y-71868600D01*
X97915600Y-71940028D01*
X97987028Y-72082885D01*
X97987028Y-72297171D01*
X97915600Y-72440028D01*
X97844171Y-72511457D01*
X97701314Y-72582885D01*
X97129885Y-72582885D01*
X98915600Y-71797171D02*
X99201314Y-71797171D01*
X99344171Y-71868600D01*
X99487028Y-72011457D01*
X99558457Y-72297171D01*
X99558457Y-72797171D01*
X99487028Y-73082885D01*
X99344171Y-73225742D01*
X99201314Y-73297171D01*
X98915600Y-73297171D01*
X98772742Y-73225742D01*
X98629885Y-73082885D01*
X98558457Y-72797171D01*
X98558457Y-72297171D01*
X98629885Y-72011457D01*
X98772742Y-71868600D01*
X98915600Y-71797171D01*
X100201314Y-73297171D02*
X100201314Y-71797171D01*
X100701314Y-72868600D01*
X101201314Y-71797171D01*
X101201314Y-73297171D01*
X102915600Y-71797171D02*
X103915600Y-73297171D01*
X103915600Y-71797171D02*
X102915600Y-73297171D01*
X104487028Y-73297171D02*
X104487028Y-71797171D01*
X105201314Y-73297171D02*
X105201314Y-71797171D01*
X105915600Y-73297171D02*
X105915600Y-71797171D01*
D11*
%TO.C,R27*%
X41044864Y-92429000D02*
X40590736Y-92429000D01*
X41044864Y-90959000D02*
X40590736Y-90959000D01*
%TO.C,R16*%
X98702800Y-55221136D02*
X98702800Y-55675264D01*
X97232800Y-55221136D02*
X97232800Y-55675264D01*
%TO.C,R23*%
X47115464Y-70308800D02*
X46661336Y-70308800D01*
X47115464Y-71778800D02*
X46661336Y-71778800D01*
%TO.C,R3*%
X140128400Y-58047464D02*
X140128400Y-57593336D01*
X141598400Y-58047464D02*
X141598400Y-57593336D01*
%TO.C,R12*%
X158240464Y-90346200D02*
X157786336Y-90346200D01*
X158240464Y-88876200D02*
X157786336Y-88876200D01*
%TO.C,R10*%
X120128400Y-55221136D02*
X120128400Y-55675264D01*
X121598400Y-55221136D02*
X121598400Y-55675264D01*
%TO.C,R22*%
X78702800Y-55221136D02*
X78702800Y-55675264D01*
X77232800Y-55221136D02*
X77232800Y-55675264D01*
%TO.C,R17*%
X88702800Y-49147464D02*
X88702800Y-48693336D01*
X87232800Y-49147464D02*
X87232800Y-48693336D01*
%TO.C,R8*%
X152169864Y-69696000D02*
X151715736Y-69696000D01*
X152169864Y-68226000D02*
X151715736Y-68226000D01*
%TO.C,R2*%
X100128400Y-55221136D02*
X100128400Y-55675264D01*
X101598400Y-55221136D02*
X101598400Y-55675264D01*
%TO.C,R25*%
X67232800Y-49147464D02*
X67232800Y-48693336D01*
X68702800Y-49147464D02*
X68702800Y-48693336D01*
%TO.C,R7*%
X151715736Y-70308800D02*
X152169864Y-70308800D01*
X151715736Y-71778800D02*
X152169864Y-71778800D01*
%TO.C,R5*%
X111598400Y-49147464D02*
X111598400Y-48693336D01*
X110128400Y-49147464D02*
X110128400Y-48693336D01*
%TO.C,R19*%
X58702800Y-58047464D02*
X58702800Y-57593336D01*
X57232800Y-58047464D02*
X57232800Y-57593336D01*
%TO.C,R14*%
X130128400Y-55221136D02*
X130128400Y-55675264D01*
X131598400Y-55221136D02*
X131598400Y-55675264D01*
%TO.C,R28*%
X40590736Y-90346200D02*
X41044864Y-90346200D01*
X40590736Y-88876200D02*
X41044864Y-88876200D01*
%TO.C,R1*%
X101598400Y-49147464D02*
X101598400Y-48693336D01*
X100128400Y-49147464D02*
X100128400Y-48693336D01*
%TO.C,R6*%
X110128400Y-55221136D02*
X110128400Y-55675264D01*
X111598400Y-55221136D02*
X111598400Y-55675264D01*
%TO.C,R4*%
X140128400Y-64121136D02*
X140128400Y-64575264D01*
X141598400Y-64121136D02*
X141598400Y-64575264D01*
%TO.C,R18*%
X87232800Y-55221136D02*
X87232800Y-55675264D01*
X88702800Y-55221136D02*
X88702800Y-55675264D01*
%TO.C,R15*%
X98702800Y-49147464D02*
X98702800Y-48693336D01*
X97232800Y-49147464D02*
X97232800Y-48693336D01*
%TO.C,R13*%
X130128400Y-49147464D02*
X130128400Y-48693336D01*
X131598400Y-49147464D02*
X131598400Y-48693336D01*
%TO.C,R26*%
X67232800Y-55221136D02*
X67232800Y-55675264D01*
X68702800Y-55221136D02*
X68702800Y-55675264D01*
%TO.C,R20*%
X58702800Y-64121136D02*
X58702800Y-64575264D01*
X57232800Y-64121136D02*
X57232800Y-64575264D01*
%TO.C,R11*%
X157786336Y-92429000D02*
X158240464Y-92429000D01*
X157786336Y-90959000D02*
X158240464Y-90959000D01*
%TO.C,R24*%
X46661336Y-68226000D02*
X47115464Y-68226000D01*
X46661336Y-69696000D02*
X47115464Y-69696000D01*
%TO.C,R21*%
X78702800Y-49147464D02*
X78702800Y-48693336D01*
X77232800Y-49147464D02*
X77232800Y-48693336D01*
%TO.C,R9*%
X121598400Y-49147464D02*
X121598400Y-48693336D01*
X120128400Y-49147464D02*
X120128400Y-48693336D01*
%TD*%
M02*
