M48
; DRILL file {KiCad (6.0.4)} date Fri Oct 20 23:46:41 2023
; FORMAT={-:-/ absolute / metric / decimal}
; #@! TF.CreationDate,2023-10-20T23:46:41+07:00
; #@! TF.GenerationSoftware,Kicad,Pcbnew,(6.0.4)
; #@! TF.FileFunction,MixedPlating,1,2
FMAT,2
METRIC
; #@! TA.AperFunction,Plated,PTH,ViaDrill
T1C0.400
; #@! TA.AperFunction,Plated,PTH,ComponentDrill
T2C0.600
; #@! TA.AperFunction,Plated,PTH,ComponentDrill
T3C1.000
; #@! TA.AperFunction,NonPlated,NPTH,ComponentDrill
T4C0.650
; #@! TA.AperFunction,NonPlated,NPTH,ComponentDrill
T5C3.000
%
G90
G05
T1
X51.892Y-92.786
X52.68Y-90.703
X57.912Y-85.471
X61.239Y-97.892
X67.92Y-78.664
X68.275Y-98.069
X72.06Y-87.122
X72.06Y-90.627
X73.33Y-89.611
X74.625Y-85.446
X75.87Y-87.122
X77.14Y-88.189
X78.664Y-94.234
X79.35Y-81.153
X79.731Y-85.446
X80.696Y-94.488
X80.924Y-75.54
X84.099Y-97.003
X84.811Y-76.835
X87.249Y-67.132
X88.468Y-94.412
X89.459Y-95.072
X90.983Y-88.951
X90.983Y-90.094
X90.983Y-91.338
X90.983Y-92.964
X91.135Y-70.739
X96.473Y-99.09
X96.931Y-71.479
X96.952Y-70.129
X99.974Y-65.126
X100.482Y-77.445
X100.482Y-85.242
X102.21Y-65.126
X102.972Y-102.26
X104.14Y-87.782
X104.419Y-65.151
X104.989Y-85.725
X110.16Y-90.257
X110.16Y-91.307
X118.72Y-87.579
X120.599Y-87.554
X121.672Y-97.249
X121.672Y-98.299
X122.468Y-94.818
X123.85Y-99.289
X125.679Y-85.268
X125.933Y-98.273
X131.572Y-97.206
T3
X80.32Y-68.885
X82.86Y-68.885
X88.153Y-102.87
X90.693Y-102.87
X93.233Y-102.87
X95.773Y-102.87
T4
X124.439Y-92.226
X128.526Y-96.313
T5
X61.722Y-83.287
X82.432Y-59.743
X101.507Y-59.743
X122.174Y-83.287
T2
G00X123.442Y-91.2
M15
G01X122.664Y-91.978
M16
G05
G00X126.221Y-88.421
M15
G01X125.796Y-88.846
M16
G05
G00X129.551Y-97.31
M15
G01X128.773Y-98.087
M16
G05
G00X132.33Y-94.531
M15
G01X131.906Y-94.955
M16
G05
T0
M30
