%TF.GenerationSoftware,KiCad,Pcbnew,(6.0.4)*%
%TF.CreationDate,2023-10-20T23:46:43+07:00*%
%TF.ProjectId,Button_V2,42757474-6f6e-45f5-9632-2e6b69636164,rev?*%
%TF.SameCoordinates,Original*%
%TF.FileFunction,Legend,Top*%
%TF.FilePolarity,Positive*%
%FSLAX46Y46*%
G04 Gerber Fmt 4.6, Leading zero omitted, Abs format (unit mm)*
G04 Created by KiCad (PCBNEW (6.0.4)) date 2023-10-20 23:46:43*
%MOMM*%
%LPD*%
G01*
G04 APERTURE LIST*
%ADD10C,0.150000*%
%ADD11C,0.100000*%
%ADD12C,0.120000*%
G04 APERTURE END LIST*
D10*
X86588600Y-85013800D02*
X97358200Y-85013800D01*
X97358200Y-85013800D02*
X97358200Y-86639400D01*
X97358200Y-86639400D02*
X86588600Y-86639400D01*
X86588600Y-86639400D02*
X86588600Y-85013800D01*
X87354352Y-85304380D02*
X87354352Y-86018666D01*
X87306733Y-86161523D01*
X87211495Y-86256761D01*
X87068638Y-86304380D01*
X86973400Y-86304380D01*
X88306733Y-86304380D02*
X87830542Y-86304380D01*
X87830542Y-85304380D01*
X89211495Y-86209142D02*
X89163876Y-86256761D01*
X89021019Y-86304380D01*
X88925780Y-86304380D01*
X88782923Y-86256761D01*
X88687685Y-86161523D01*
X88640066Y-86066285D01*
X88592447Y-85875809D01*
X88592447Y-85732952D01*
X88640066Y-85542476D01*
X88687685Y-85447238D01*
X88782923Y-85352000D01*
X88925780Y-85304380D01*
X89021019Y-85304380D01*
X89163876Y-85352000D01*
X89211495Y-85399619D01*
X89925780Y-85304380D02*
X89925780Y-86018666D01*
X89878161Y-86161523D01*
X89782923Y-86256761D01*
X89640066Y-86304380D01*
X89544828Y-86304380D01*
X90878161Y-86304380D02*
X90401971Y-86304380D01*
X90401971Y-85304380D01*
X91782923Y-86209142D02*
X91735304Y-86256761D01*
X91592447Y-86304380D01*
X91497209Y-86304380D01*
X91354352Y-86256761D01*
X91259114Y-86161523D01*
X91211495Y-86066285D01*
X91163876Y-85875809D01*
X91163876Y-85732952D01*
X91211495Y-85542476D01*
X91259114Y-85447238D01*
X91354352Y-85352000D01*
X91497209Y-85304380D01*
X91592447Y-85304380D01*
X91735304Y-85352000D01*
X91782923Y-85399619D01*
X92497209Y-85304380D02*
X92497209Y-86018666D01*
X92449590Y-86161523D01*
X92354352Y-86256761D01*
X92211495Y-86304380D01*
X92116257Y-86304380D01*
X93449590Y-86304380D02*
X92973400Y-86304380D01*
X92973400Y-85304380D01*
X94354352Y-86209142D02*
X94306733Y-86256761D01*
X94163876Y-86304380D01*
X94068638Y-86304380D01*
X93925780Y-86256761D01*
X93830542Y-86161523D01*
X93782923Y-86066285D01*
X93735304Y-85875809D01*
X93735304Y-85732952D01*
X93782923Y-85542476D01*
X93830542Y-85447238D01*
X93925780Y-85352000D01*
X94068638Y-85304380D01*
X94163876Y-85304380D01*
X94306733Y-85352000D01*
X94354352Y-85399619D01*
X95068638Y-85304380D02*
X95068638Y-86018666D01*
X95021019Y-86161523D01*
X94925780Y-86256761D01*
X94782923Y-86304380D01*
X94687685Y-86304380D01*
X96021019Y-86304380D02*
X95544828Y-86304380D01*
X95544828Y-85304380D01*
X96925780Y-86209142D02*
X96878161Y-86256761D01*
X96735304Y-86304380D01*
X96640066Y-86304380D01*
X96497209Y-86256761D01*
X96401971Y-86161523D01*
X96354352Y-86066285D01*
X96306733Y-85875809D01*
X96306733Y-85732952D01*
X96354352Y-85542476D01*
X96401971Y-85447238D01*
X96497209Y-85352000D01*
X96640066Y-85304380D01*
X96735304Y-85304380D01*
X96878161Y-85352000D01*
X96925780Y-85399619D01*
X109689900Y-104927400D02*
X74256900Y-104927400D01*
X74256900Y-104927400D02*
X74256900Y-71424800D01*
X74256900Y-71424800D02*
X109689900Y-71424800D01*
X109689900Y-71424800D02*
X109689900Y-104927400D01*
D11*
X100336304Y-70542180D02*
X100336304Y-70923133D01*
X99536304Y-70923133D01*
X103981304Y-70916723D02*
X103981304Y-70459580D01*
X104781304Y-70688152D02*
X103981304Y-70688152D01*
X103981304Y-70269104D02*
X104781304Y-69735771D01*
X103981304Y-69735771D02*
X104781304Y-70269104D01*
X102571504Y-70465933D02*
X102190552Y-70732600D01*
X102571504Y-70923076D02*
X101771504Y-70923076D01*
X101771504Y-70618314D01*
X101809600Y-70542123D01*
X101847695Y-70504028D01*
X101923885Y-70465933D01*
X102038171Y-70465933D01*
X102114361Y-70504028D01*
X102152457Y-70542123D01*
X102190552Y-70618314D01*
X102190552Y-70923076D01*
X101771504Y-70199266D02*
X102571504Y-69665933D01*
X101771504Y-69665933D02*
X102571504Y-70199266D01*
D12*
%TO.C,D1*%
X101249600Y-69297000D02*
X103169600Y-69297000D01*
X103169600Y-69297000D02*
X103169600Y-66437000D01*
X101249600Y-66437000D02*
X101249600Y-69297000D01*
%TO.C,SW4*%
X66192400Y-88355800D02*
X66192400Y-83275800D01*
X71272400Y-88355800D02*
X71272400Y-83275800D01*
%TO.C,SW6*%
X58029731Y-98266686D02*
X54437629Y-94674583D01*
X61621834Y-94674583D02*
X58029731Y-91082481D01*
%TO.C,SW5*%
X66254000Y-94310200D02*
X71334000Y-94310200D01*
X66254000Y-99390200D02*
X71334000Y-99390200D01*
%TO.C,J2*%
X86823400Y-101540000D02*
X86823400Y-104200000D01*
X95773400Y-101540000D02*
X97103400Y-101540000D01*
X97103400Y-101540000D02*
X97103400Y-102870000D01*
X94503400Y-101540000D02*
X94503400Y-104200000D01*
X94503400Y-104200000D02*
X86823400Y-104200000D01*
X94503400Y-101540000D02*
X86823400Y-101540000D01*
%TO.C,J4*%
X81589800Y-67554800D02*
X78989800Y-67554800D01*
X82859800Y-67554800D02*
X84189800Y-67554800D01*
X78989800Y-67554800D02*
X78989800Y-70214800D01*
X81589800Y-70214800D02*
X78989800Y-70214800D01*
X84189800Y-67554800D02*
X84189800Y-68884800D01*
X81589800Y-67554800D02*
X81589800Y-70214800D01*
%TO.C,SW3*%
X122484715Y-94674583D02*
X126076818Y-91082481D01*
X126076818Y-98266686D02*
X129668920Y-94674583D01*
%TO.C,D3*%
X105379400Y-69297000D02*
X105379400Y-66437000D01*
X103459400Y-66437000D02*
X103459400Y-69297000D01*
X103459400Y-69297000D02*
X105379400Y-69297000D01*
%TO.C,SW1*%
X117736349Y-88355800D02*
X117736349Y-83275800D01*
X112656349Y-88355800D02*
X112656349Y-83275800D01*
%TO.C,D4*%
X99014400Y-69297000D02*
X100934400Y-69297000D01*
X100934400Y-69297000D02*
X100934400Y-66437000D01*
X99014400Y-66437000D02*
X99014400Y-69297000D01*
%TO.C,SW2*%
X112692549Y-94335600D02*
X117772549Y-94335600D01*
X112692549Y-99415600D02*
X117772549Y-99415600D01*
%TO.C,Reset1*%
X89393400Y-64592200D02*
X94473400Y-64592200D01*
X89393400Y-69672200D02*
X94473400Y-69672200D01*
%TD*%
M02*
