%TF.GenerationSoftware,KiCad,Pcbnew,(6.0.4)*%
%TF.CreationDate,2023-10-20T23:46:44+07:00*%
%TF.ProjectId,Button_V2,42757474-6f6e-45f5-9632-2e6b69636164,rev?*%
%TF.SameCoordinates,Original*%
%TF.FileFunction,Soldermask,Bot*%
%TF.FilePolarity,Negative*%
%FSLAX46Y46*%
G04 Gerber Fmt 4.6, Leading zero omitted, Abs format (unit mm)*
G04 Created by KiCad (PCBNEW (6.0.4)) date 2023-10-20 23:46:44*
%MOMM*%
%LPD*%
G01*
G04 APERTURE LIST*
G04 Aperture macros list*
%AMRoundRect*
0 Rectangle with rounded corners*
0 $1 Rounding radius*
0 $2 $3 $4 $5 $6 $7 $8 $9 X,Y pos of 4 corners*
0 Add a 4 corners polygon primitive as box body*
4,1,4,$2,$3,$4,$5,$6,$7,$8,$9,$2,$3,0*
0 Add four circle primitives for the rounded corners*
1,1,$1+$1,$2,$3*
1,1,$1+$1,$4,$5*
1,1,$1+$1,$6,$7*
1,1,$1+$1,$8,$9*
0 Add four rect primitives between the rounded corners*
20,1,$1+$1,$2,$3,$4,$5,0*
20,1,$1+$1,$4,$5,$6,$7,0*
20,1,$1+$1,$6,$7,$8,$9,0*
20,1,$1+$1,$8,$9,$2,$3,0*%
%AMHorizOval*
0 Thick line with rounded ends*
0 $1 width*
0 $2 $3 position (X,Y) of the first rounded end (center of the circle)*
0 $4 $5 position (X,Y) of the second rounded end (center of the circle)*
0 Add line between two ends*
20,1,$1,$2,$3,$4,$5,0*
0 Add two circle primitives to create the rounded ends*
1,1,$1,$2,$3*
1,1,$1,$4,$5*%
%AMRotRect*
0 Rectangle, with rotation*
0 The origin of the aperture is its center*
0 $1 length*
0 $2 width*
0 $3 Rotation angle, in degrees counterclockwise*
0 Add horizontal line*
21,1,$1,$2,0,0,$3*%
%AMFreePoly0*
4,1,22,0.550000,-0.750000,0.000000,-0.750000,0.000000,-0.745033,-0.079941,-0.743568,-0.215256,-0.701293,-0.333266,-0.622738,-0.424486,-0.514219,-0.481581,-0.384460,-0.499164,-0.250000,-0.500000,-0.250000,-0.500000,0.250000,-0.499164,0.250000,-0.499963,0.256109,-0.478152,0.396186,-0.417904,0.524511,-0.324060,0.630769,-0.204165,0.706417,-0.067858,0.745374,0.000000,0.744959,0.000000,0.750000,
0.550000,0.750000,0.550000,-0.750000,0.550000,-0.750000,$1*%
%AMFreePoly1*
4,1,20,0.000000,0.744959,0.073905,0.744508,0.209726,0.703889,0.328688,0.626782,0.421226,0.519385,0.479903,0.390333,0.500000,0.250000,0.500000,-0.250000,0.499851,-0.262216,0.476331,-0.402017,0.414519,-0.529596,0.319384,-0.634700,0.198574,-0.708877,0.061801,-0.746166,0.000000,-0.745033,0.000000,-0.750000,-0.550000,-0.750000,-0.550000,0.750000,0.000000,0.750000,0.000000,0.744959,
0.000000,0.744959,$1*%
%AMFreePoly2*
4,1,6,1.000000,0.000000,0.500000,-0.750000,-0.500000,-0.750000,-0.500000,0.750000,0.500000,0.750000,1.000000,0.000000,1.000000,0.000000,$1*%
%AMFreePoly3*
4,1,6,0.500000,-0.750000,-0.650000,-0.750000,-0.150000,0.000000,-0.650000,0.750000,0.500000,0.750000,0.500000,-0.750000,0.500000,-0.750000,$1*%
G04 Aperture macros list end*
%ADD10C,3.000000*%
%ADD11R,1.700000X1.700000*%
%ADD12O,1.700000X1.700000*%
%ADD13RoundRect,0.594000X-0.806000X-0.506000X0.806000X-0.506000X0.806000X0.506000X-0.806000X0.506000X0*%
%ADD14FreePoly0,270.000000*%
%ADD15R,1.500000X1.000000*%
%ADD16FreePoly1,270.000000*%
%ADD17RoundRect,0.250000X-0.475000X0.337500X-0.475000X-0.337500X0.475000X-0.337500X0.475000X0.337500X0*%
%ADD18RoundRect,0.250000X0.475000X-0.337500X0.475000X0.337500X-0.475000X0.337500X-0.475000X-0.337500X0*%
%ADD19RoundRect,0.250000X-0.350000X-0.450000X0.350000X-0.450000X0.350000X0.450000X-0.350000X0.450000X0*%
%ADD20FreePoly2,180.000000*%
%ADD21FreePoly3,180.000000*%
%ADD22RoundRect,0.150000X-0.150000X0.875000X-0.150000X-0.875000X0.150000X-0.875000X0.150000X0.875000X0*%
%ADD23RoundRect,0.250000X0.450000X-0.350000X0.450000X0.350000X-0.450000X0.350000X-0.450000X-0.350000X0*%
%ADD24RoundRect,0.150000X0.150000X-0.512500X0.150000X0.512500X-0.150000X0.512500X-0.150000X-0.512500X0*%
%ADD25RoundRect,0.250000X-0.671751X1.166726X-1.166726X0.671751X0.671751X-1.166726X1.166726X-0.671751X0*%
%ADD26RoundRect,0.250000X-0.450000X0.350000X-0.450000X-0.350000X0.450000X-0.350000X0.450000X0.350000X0*%
%ADD27RoundRect,0.250000X-0.337500X-0.475000X0.337500X-0.475000X0.337500X0.475000X-0.337500X0.475000X0*%
%ADD28RoundRect,0.250000X0.337500X0.475000X-0.337500X0.475000X-0.337500X-0.475000X0.337500X-0.475000X0*%
%ADD29R,0.610000X2.000000*%
%ADD30R,2.680000X3.600000*%
%ADD31C,0.650000*%
%ADD32RotRect,0.600000X1.450000X315.000000*%
%ADD33RotRect,0.300000X1.450000X315.000000*%
%ADD34HorizOval,1.000000X-0.212132X-0.212132X0.212132X0.212132X0*%
%ADD35HorizOval,1.000000X-0.388909X-0.388909X0.388909X0.388909X0*%
%ADD36R,4.500000X2.000000*%
%ADD37RoundRect,0.250000X0.350000X0.450000X-0.350000X0.450000X-0.350000X-0.450000X0.350000X-0.450000X0*%
%ADD38RoundRect,0.150000X0.587500X0.150000X-0.587500X0.150000X-0.587500X-0.150000X0.587500X-0.150000X0*%
%ADD39RoundRect,0.150000X0.150000X-0.825000X0.150000X0.825000X-0.150000X0.825000X-0.150000X-0.825000X0*%
%ADD40RoundRect,0.150000X-0.587500X-0.150000X0.587500X-0.150000X0.587500X0.150000X-0.587500X0.150000X0*%
G04 APERTURE END LIST*
D10*
%TO.C,H1*%
X82432296Y-59742704D03*
%TD*%
D11*
%TO.C,J2*%
X95773400Y-102870000D03*
D12*
X93233400Y-102870000D03*
X90693400Y-102870000D03*
X88153400Y-102870000D03*
%TD*%
D10*
%TO.C,H2*%
X101507296Y-59742704D03*
%TD*%
D11*
%TO.C,J4*%
X82859800Y-68884800D03*
D12*
X80319800Y-68884800D03*
%TD*%
D10*
%TO.C,H2*%
X122174000Y-83286600D03*
%TD*%
%TO.C,H2*%
X61722000Y-83286600D03*
%TD*%
D13*
%TO.C,D2*%
X107542600Y-75742800D03*
X111862600Y-75742800D03*
%TD*%
D14*
%TO.C,JP1*%
X104749600Y-100960400D03*
D15*
X104749600Y-102260400D03*
D16*
X104749600Y-103560400D03*
%TD*%
D17*
%TO.C,C7*%
X91287600Y-66399500D03*
X91287600Y-68474500D03*
%TD*%
D18*
%TO.C,C2*%
X118719600Y-90775700D03*
X118719600Y-88700700D03*
%TD*%
D17*
%TO.C,C1*%
X133019800Y-97209700D03*
X133019800Y-99284700D03*
%TD*%
D19*
%TO.C,R17*%
X100371400Y-75412600D03*
X102371400Y-75412600D03*
%TD*%
D20*
%TO.C,JP3*%
X68808600Y-83007200D03*
D21*
X67358600Y-83007200D03*
%TD*%
D22*
%TO.C,U1*%
X70789800Y-83030800D03*
X72059800Y-83030800D03*
X73329800Y-83030800D03*
X74599800Y-83030800D03*
X75869800Y-83030800D03*
X77139800Y-83030800D03*
X78409800Y-83030800D03*
X79679800Y-83030800D03*
X79679800Y-92330800D03*
X78409800Y-92330800D03*
X77139800Y-92330800D03*
X75869800Y-92330800D03*
X74599800Y-92330800D03*
X73329800Y-92330800D03*
X72059800Y-92330800D03*
X70789800Y-92330800D03*
%TD*%
D23*
%TO.C,R19*%
X99974400Y-68437000D03*
X99974400Y-66437000D03*
%TD*%
D24*
%TO.C,U2*%
X120355400Y-98800500D03*
X119405400Y-98800500D03*
X118455400Y-98800500D03*
X118455400Y-96525500D03*
X119405400Y-96525500D03*
X120355400Y-96525500D03*
%TD*%
D23*
%TO.C,R1*%
X78663800Y-98028000D03*
X78663800Y-96028000D03*
%TD*%
D25*
%TO.C,J5*%
X57671120Y-90055280D03*
X56256907Y-91469493D03*
X54842693Y-92883707D03*
X53428480Y-94297920D03*
%TD*%
D26*
%TO.C,R5*%
X137160000Y-97247200D03*
X137160000Y-99247200D03*
%TD*%
%TO.C,R7*%
X78892400Y-76825600D03*
X78892400Y-78825600D03*
%TD*%
D17*
%TO.C,C4*%
X70789800Y-95990500D03*
X70789800Y-98065500D03*
%TD*%
D27*
%TO.C,C5*%
X105566300Y-97815400D03*
X107641300Y-97815400D03*
%TD*%
D23*
%TO.C,R18*%
X97764600Y-68437000D03*
X97764600Y-66437000D03*
%TD*%
D14*
%TO.C,JP2*%
X100609400Y-100960400D03*
D15*
X100609400Y-102260400D03*
D16*
X100609400Y-103560400D03*
%TD*%
D28*
%TO.C,C3*%
X114067500Y-97815400D03*
X111992500Y-97815400D03*
%TD*%
D23*
%TO.C,R14*%
X102209600Y-68437000D03*
X102209600Y-66437000D03*
%TD*%
D20*
%TO.C,JP4*%
X68808600Y-80416400D03*
D21*
X67358600Y-80416400D03*
%TD*%
D23*
%TO.C,R15*%
X104419400Y-68437000D03*
X104419400Y-66437000D03*
%TD*%
D26*
%TO.C,R3*%
X135102600Y-97247200D03*
X135102600Y-99247200D03*
%TD*%
D29*
%TO.C,J3*%
X87473400Y-96893400D03*
X88473400Y-96893400D03*
X89473400Y-96893400D03*
X90473400Y-96893400D03*
X91473400Y-96893400D03*
X92473400Y-96893400D03*
X93473400Y-96893400D03*
X94473400Y-96893400D03*
X95473400Y-96893400D03*
X96473400Y-96893400D03*
D30*
X99463400Y-94093400D03*
X84483400Y-94093400D03*
%TD*%
D26*
%TO.C,R8*%
X76631800Y-96028000D03*
X76631800Y-98028000D03*
%TD*%
D31*
%TO.C,J1*%
X128525861Y-96312616D03*
X124438784Y-92225539D03*
D32*
X123162456Y-92992750D03*
X123728141Y-93558435D03*
D33*
X124576670Y-94406963D03*
X125283776Y-95114070D03*
X125637330Y-95467624D03*
X126344437Y-96174730D03*
D32*
X127192965Y-97023259D03*
X127758650Y-97588944D03*
X127758650Y-97588944D03*
X127192965Y-97023259D03*
D33*
X126697990Y-96528284D03*
X125990883Y-95821177D03*
X124930223Y-94760517D03*
X124223116Y-94053410D03*
D32*
X123728141Y-93558435D03*
X123162456Y-92992750D03*
D34*
X132117963Y-94742839D03*
D35*
X129162257Y-97698546D03*
D34*
X126008561Y-88633437D03*
D35*
X123052854Y-91589143D03*
%TD*%
D36*
%TO.C,Y1*%
X114079600Y-93853000D03*
X105579600Y-93853000D03*
%TD*%
D26*
%TO.C,R11*%
X70764400Y-76825600D03*
X70764400Y-78825600D03*
%TD*%
D23*
%TO.C,R2*%
X80695800Y-98028000D03*
X80695800Y-96028000D03*
%TD*%
D37*
%TO.C,R16*%
X97545400Y-79527400D03*
X95545400Y-79527400D03*
%TD*%
D28*
%TO.C,C6*%
X116505900Y-80594200D03*
X114430900Y-80594200D03*
%TD*%
D26*
%TO.C,R6*%
X80924400Y-76825600D03*
X80924400Y-78825600D03*
%TD*%
%TO.C,R4*%
X82956400Y-76825600D03*
X82956400Y-78825600D03*
%TD*%
%TO.C,R9*%
X76860400Y-76825600D03*
X76860400Y-78825600D03*
%TD*%
D38*
%TO.C,Q2*%
X102359700Y-77840800D03*
X102359700Y-79740800D03*
X100484700Y-78790800D03*
%TD*%
D26*
%TO.C,R10*%
X74599800Y-96028000D03*
X74599800Y-98028000D03*
%TD*%
%TO.C,R13*%
X74828400Y-76825600D03*
X74828400Y-78825600D03*
%TD*%
D39*
%TO.C,U3*%
X116509800Y-88682600D03*
X115239800Y-88682600D03*
X113969800Y-88682600D03*
X112699800Y-88682600D03*
X111429800Y-88682600D03*
X110159800Y-88682600D03*
X108889800Y-88682600D03*
X107619800Y-88682600D03*
X107619800Y-83732600D03*
X108889800Y-83732600D03*
X110159800Y-83732600D03*
X111429800Y-83732600D03*
X112699800Y-83732600D03*
X113969800Y-83732600D03*
X115239800Y-83732600D03*
X116509800Y-83732600D03*
%TD*%
D40*
%TO.C,Q1*%
X95557100Y-77099200D03*
X95557100Y-75199200D03*
X97432100Y-76149200D03*
%TD*%
D27*
%TO.C,C8*%
X95507900Y-81737200D03*
X97582900Y-81737200D03*
%TD*%
D26*
%TO.C,R12*%
X72796400Y-76825600D03*
X72796400Y-78825600D03*
%TD*%
M02*
