%TF.GenerationSoftware,KiCad,Pcbnew,(6.0.4)*%
%TF.CreationDate,2023-10-20T23:46:44+07:00*%
%TF.ProjectId,Button_V2,42757474-6f6e-45f5-9632-2e6b69636164,rev?*%
%TF.SameCoordinates,Original*%
%TF.FileFunction,Profile,NP*%
%FSLAX46Y46*%
G04 Gerber Fmt 4.6, Leading zero omitted, Abs format (unit mm)*
G04 Created by KiCad (PCBNEW (6.0.4)) date 2023-10-20 23:46:44*
%MOMM*%
%LPD*%
G01*
G04 APERTURE LIST*
%TA.AperFunction,Profile*%
%ADD10C,0.100000*%
%TD*%
G04 APERTURE END LIST*
D10*
X109804200Y-105054400D02*
X109804200Y-100253800D01*
X87912430Y-62867704D02*
X95964962Y-62867704D01*
X86579296Y-59572304D02*
X86579296Y-61572304D01*
X74142600Y-105054400D02*
X109804200Y-105054400D01*
X60255592Y-79705200D02*
X65538792Y-79705200D01*
X123621800Y-79705200D02*
X125796896Y-81898904D01*
X58080496Y-83898904D02*
X58080496Y-81898904D01*
X118338600Y-79705200D02*
X123621800Y-79705200D01*
X110134400Y-71424800D02*
X118338600Y-79705200D01*
X95964963Y-62867661D02*
G75*
G03*
X97298096Y-61572304I37237J1295361D01*
G01*
X109804200Y-100253800D02*
X139106496Y-100253800D01*
X105680096Y-59572304D02*
X105680096Y-61572304D01*
X73742992Y-66141600D02*
X73742992Y-71424800D01*
X97298096Y-59572304D02*
X97298096Y-61572304D01*
X139106496Y-100253800D02*
X139106496Y-97342104D01*
X58080496Y-81898904D02*
X60255592Y-79705200D01*
X74142600Y-105054400D02*
X74142600Y-100253800D01*
X105680096Y-61572304D02*
X110134400Y-66141600D01*
X86579361Y-61572304D02*
G75*
G03*
X87912430Y-62867704I1295839J-96D01*
G01*
X125796896Y-83898904D02*
X139106496Y-97342104D01*
X105680096Y-59572304D02*
G75*
G03*
X97298096Y-59572304I-4191000J0D01*
G01*
X125796896Y-81898904D02*
X125796896Y-83898904D01*
X44770896Y-100253800D02*
X74142600Y-100253800D01*
X110134400Y-71424800D02*
X110134400Y-66141600D01*
X44770896Y-97342104D02*
X44770896Y-100253800D01*
X86579296Y-59572304D02*
G75*
G03*
X78197296Y-59572304I-4191000J0D01*
G01*
X44770896Y-97342104D02*
X58080496Y-83898904D01*
X73742992Y-66141600D02*
X78197296Y-61572304D01*
X78197296Y-59572304D02*
X78197296Y-61572304D01*
X65538792Y-79705200D02*
X73742992Y-71424800D01*
M02*
