%TF.GenerationSoftware,KiCad,Pcbnew,(6.0.4)*%
%TF.CreationDate,2023-10-20T23:50:37+07:00*%
%TF.ProjectId,Minsys_V3.1,4d696e73-7973-45f5-9633-2e312e6b6963,rev?*%
%TF.SameCoordinates,Original*%
%TF.FileFunction,Legend,Bot*%
%TF.FilePolarity,Positive*%
%FSLAX46Y46*%
G04 Gerber Fmt 4.6, Leading zero omitted, Abs format (unit mm)*
G04 Created by KiCad (PCBNEW (6.0.4)) date 2023-10-20 23:50:37*
%MOMM*%
%LPD*%
G01*
G04 APERTURE LIST*
%ADD10C,0.150000*%
%ADD11C,0.120000*%
%ADD12C,0.127000*%
%ADD13C,0.200000*%
G04 APERTURE END LIST*
D10*
X123008447Y-85151980D02*
X123008447Y-85866266D01*
X123056066Y-86009123D01*
X123151304Y-86104361D01*
X123294161Y-86151980D01*
X123389400Y-86151980D01*
X122056066Y-86151980D02*
X122532257Y-86151980D01*
X122532257Y-85151980D01*
X121151304Y-86056742D02*
X121198923Y-86104361D01*
X121341780Y-86151980D01*
X121437019Y-86151980D01*
X121579876Y-86104361D01*
X121675114Y-86009123D01*
X121722733Y-85913885D01*
X121770352Y-85723409D01*
X121770352Y-85580552D01*
X121722733Y-85390076D01*
X121675114Y-85294838D01*
X121579876Y-85199600D01*
X121437019Y-85151980D01*
X121341780Y-85151980D01*
X121198923Y-85199600D01*
X121151304Y-85247219D01*
X120437019Y-85151980D02*
X120437019Y-85866266D01*
X120484638Y-86009123D01*
X120579876Y-86104361D01*
X120722733Y-86151980D01*
X120817971Y-86151980D01*
X119484638Y-86151980D02*
X119960828Y-86151980D01*
X119960828Y-85151980D01*
X118579876Y-86056742D02*
X118627495Y-86104361D01*
X118770352Y-86151980D01*
X118865590Y-86151980D01*
X119008447Y-86104361D01*
X119103685Y-86009123D01*
X119151304Y-85913885D01*
X119198923Y-85723409D01*
X119198923Y-85580552D01*
X119151304Y-85390076D01*
X119103685Y-85294838D01*
X119008447Y-85199600D01*
X118865590Y-85151980D01*
X118770352Y-85151980D01*
X118627495Y-85199600D01*
X118579876Y-85247219D01*
X117865590Y-85151980D02*
X117865590Y-85866266D01*
X117913209Y-86009123D01*
X118008447Y-86104361D01*
X118151304Y-86151980D01*
X118246542Y-86151980D01*
X116913209Y-86151980D02*
X117389400Y-86151980D01*
X117389400Y-85151980D01*
X116008447Y-86056742D02*
X116056066Y-86104361D01*
X116198923Y-86151980D01*
X116294161Y-86151980D01*
X116437019Y-86104361D01*
X116532257Y-86009123D01*
X116579876Y-85913885D01*
X116627495Y-85723409D01*
X116627495Y-85580552D01*
X116579876Y-85390076D01*
X116532257Y-85294838D01*
X116437019Y-85199600D01*
X116294161Y-85151980D01*
X116198923Y-85151980D01*
X116056066Y-85199600D01*
X116008447Y-85247219D01*
X115294161Y-85151980D02*
X115294161Y-85866266D01*
X115341780Y-86009123D01*
X115437019Y-86104361D01*
X115579876Y-86151980D01*
X115675114Y-86151980D01*
X114341780Y-86151980D02*
X114817971Y-86151980D01*
X114817971Y-85151980D01*
X113437019Y-86056742D02*
X113484638Y-86104361D01*
X113627495Y-86151980D01*
X113722733Y-86151980D01*
X113865590Y-86104361D01*
X113960828Y-86009123D01*
X114008447Y-85913885D01*
X114056066Y-85723409D01*
X114056066Y-85580552D01*
X114008447Y-85390076D01*
X113960828Y-85294838D01*
X113865590Y-85199600D01*
X113722733Y-85151980D01*
X113627495Y-85151980D01*
X113484638Y-85199600D01*
X113437019Y-85247219D01*
X113004600Y-86487000D02*
X123774200Y-86487000D01*
X123774200Y-86487000D02*
X123774200Y-84861400D01*
X123774200Y-84861400D02*
X113004600Y-84861400D01*
X113004600Y-84861400D02*
X113004600Y-86487000D01*
%TO.C,Q2*%
X150920438Y-78525619D02*
X151015676Y-78478000D01*
X151110914Y-78382761D01*
X151253771Y-78239904D01*
X151349009Y-78192285D01*
X151444247Y-78192285D01*
X151396628Y-78430380D02*
X151491866Y-78382761D01*
X151587104Y-78287523D01*
X151634723Y-78097047D01*
X151634723Y-77763714D01*
X151587104Y-77573238D01*
X151491866Y-77478000D01*
X151396628Y-77430380D01*
X151206152Y-77430380D01*
X151110914Y-77478000D01*
X151015676Y-77573238D01*
X150968057Y-77763714D01*
X150968057Y-78097047D01*
X151015676Y-78287523D01*
X151110914Y-78382761D01*
X151206152Y-78430380D01*
X151396628Y-78430380D01*
X150587104Y-77525619D02*
X150539485Y-77478000D01*
X150444247Y-77430380D01*
X150206152Y-77430380D01*
X150110914Y-77478000D01*
X150063295Y-77525619D01*
X150015676Y-77620857D01*
X150015676Y-77716095D01*
X150063295Y-77858952D01*
X150634723Y-78430380D01*
X150015676Y-78430380D01*
%TO.C,U4*%
X119100504Y-87666580D02*
X119100504Y-88476104D01*
X119052885Y-88571342D01*
X119005266Y-88618961D01*
X118910028Y-88666580D01*
X118719552Y-88666580D01*
X118624314Y-88618961D01*
X118576695Y-88571342D01*
X118529076Y-88476104D01*
X118529076Y-87666580D01*
X117624314Y-87999914D02*
X117624314Y-88666580D01*
X117862409Y-87618961D02*
X118100504Y-88333247D01*
X117481457Y-88333247D01*
%TO.C,R9*%
X155411466Y-91866980D02*
X155744800Y-91390790D01*
X155982895Y-91866980D02*
X155982895Y-90866980D01*
X155601942Y-90866980D01*
X155506704Y-90914600D01*
X155459085Y-90962219D01*
X155411466Y-91057457D01*
X155411466Y-91200314D01*
X155459085Y-91295552D01*
X155506704Y-91343171D01*
X155601942Y-91390790D01*
X155982895Y-91390790D01*
X154935276Y-91866980D02*
X154744800Y-91866980D01*
X154649561Y-91819361D01*
X154601942Y-91771742D01*
X154506704Y-91628885D01*
X154459085Y-91438409D01*
X154459085Y-91057457D01*
X154506704Y-90962219D01*
X154554323Y-90914600D01*
X154649561Y-90866980D01*
X154840038Y-90866980D01*
X154935276Y-90914600D01*
X154982895Y-90962219D01*
X155030514Y-91057457D01*
X155030514Y-91295552D01*
X154982895Y-91390790D01*
X154935276Y-91438409D01*
X154840038Y-91486028D01*
X154649561Y-91486028D01*
X154554323Y-91438409D01*
X154506704Y-91390790D01*
X154459085Y-91295552D01*
%TO.C,U9*%
X134830380Y-73126695D02*
X135639904Y-73126695D01*
X135735142Y-73174314D01*
X135782761Y-73221933D01*
X135830380Y-73317171D01*
X135830380Y-73507647D01*
X135782761Y-73602885D01*
X135735142Y-73650504D01*
X135639904Y-73698123D01*
X134830380Y-73698123D01*
X135830380Y-74221933D02*
X135830380Y-74412409D01*
X135782761Y-74507647D01*
X135735142Y-74555266D01*
X135592285Y-74650504D01*
X135401809Y-74698123D01*
X135020857Y-74698123D01*
X134925619Y-74650504D01*
X134878000Y-74602885D01*
X134830380Y-74507647D01*
X134830380Y-74317171D01*
X134878000Y-74221933D01*
X134925619Y-74174314D01*
X135020857Y-74126695D01*
X135258952Y-74126695D01*
X135354190Y-74174314D01*
X135401809Y-74221933D01*
X135449428Y-74317171D01*
X135449428Y-74507647D01*
X135401809Y-74602885D01*
X135354190Y-74650504D01*
X135258952Y-74698123D01*
%TO.C,R10*%
X102217457Y-74290180D02*
X102550790Y-73813990D01*
X102788885Y-74290180D02*
X102788885Y-73290180D01*
X102407933Y-73290180D01*
X102312695Y-73337800D01*
X102265076Y-73385419D01*
X102217457Y-73480657D01*
X102217457Y-73623514D01*
X102265076Y-73718752D01*
X102312695Y-73766371D01*
X102407933Y-73813990D01*
X102788885Y-73813990D01*
X101265076Y-74290180D02*
X101836504Y-74290180D01*
X101550790Y-74290180D02*
X101550790Y-73290180D01*
X101646028Y-73433038D01*
X101741266Y-73528276D01*
X101836504Y-73575895D01*
X100646028Y-73290180D02*
X100550790Y-73290180D01*
X100455552Y-73337800D01*
X100407933Y-73385419D01*
X100360314Y-73480657D01*
X100312695Y-73671133D01*
X100312695Y-73909228D01*
X100360314Y-74099704D01*
X100407933Y-74194942D01*
X100455552Y-74242561D01*
X100550790Y-74290180D01*
X100646028Y-74290180D01*
X100741266Y-74242561D01*
X100788885Y-74194942D01*
X100836504Y-74099704D01*
X100884123Y-73909228D01*
X100884123Y-73671133D01*
X100836504Y-73480657D01*
X100788885Y-73385419D01*
X100741266Y-73337800D01*
X100646028Y-73290180D01*
%TO.C,C2*%
X102173066Y-70130942D02*
X102220685Y-70178561D01*
X102363542Y-70226180D01*
X102458780Y-70226180D01*
X102601638Y-70178561D01*
X102696876Y-70083323D01*
X102744495Y-69988085D01*
X102792114Y-69797609D01*
X102792114Y-69654752D01*
X102744495Y-69464276D01*
X102696876Y-69369038D01*
X102601638Y-69273800D01*
X102458780Y-69226180D01*
X102363542Y-69226180D01*
X102220685Y-69273800D01*
X102173066Y-69321419D01*
X101792114Y-69321419D02*
X101744495Y-69273800D01*
X101649257Y-69226180D01*
X101411161Y-69226180D01*
X101315923Y-69273800D01*
X101268304Y-69321419D01*
X101220685Y-69416657D01*
X101220685Y-69511895D01*
X101268304Y-69654752D01*
X101839733Y-70226180D01*
X101220685Y-70226180D01*
%TO.C,R34*%
X139593580Y-83837542D02*
X139117390Y-83504209D01*
X139593580Y-83266114D02*
X138593580Y-83266114D01*
X138593580Y-83647066D01*
X138641200Y-83742304D01*
X138688819Y-83789923D01*
X138784057Y-83837542D01*
X138926914Y-83837542D01*
X139022152Y-83789923D01*
X139069771Y-83742304D01*
X139117390Y-83647066D01*
X139117390Y-83266114D01*
X138593580Y-84170876D02*
X138593580Y-84789923D01*
X138974533Y-84456590D01*
X138974533Y-84599447D01*
X139022152Y-84694685D01*
X139069771Y-84742304D01*
X139165009Y-84789923D01*
X139403104Y-84789923D01*
X139498342Y-84742304D01*
X139545961Y-84694685D01*
X139593580Y-84599447D01*
X139593580Y-84313733D01*
X139545961Y-84218495D01*
X139498342Y-84170876D01*
X138926914Y-85647066D02*
X139593580Y-85647066D01*
X138545961Y-85408971D02*
X139260247Y-85170876D01*
X139260247Y-85789923D01*
%TO.C,JP1*%
X158287933Y-87971380D02*
X158287933Y-88685666D01*
X158335552Y-88828523D01*
X158430790Y-88923761D01*
X158573647Y-88971380D01*
X158668885Y-88971380D01*
X157811742Y-88971380D02*
X157811742Y-87971380D01*
X157430790Y-87971380D01*
X157335552Y-88019000D01*
X157287933Y-88066619D01*
X157240314Y-88161857D01*
X157240314Y-88304714D01*
X157287933Y-88399952D01*
X157335552Y-88447571D01*
X157430790Y-88495190D01*
X157811742Y-88495190D01*
X156287933Y-88971380D02*
X156859361Y-88971380D01*
X156573647Y-88971380D02*
X156573647Y-87971380D01*
X156668885Y-88114238D01*
X156764123Y-88209476D01*
X156859361Y-88257095D01*
%TO.C,D3*%
X101304563Y-65160358D02*
X100597457Y-64453251D01*
X100429098Y-64621610D01*
X100361754Y-64756297D01*
X100361754Y-64890984D01*
X100395426Y-64991999D01*
X100496441Y-65160358D01*
X100597457Y-65261373D01*
X100765815Y-65362389D01*
X100866831Y-65396060D01*
X101001518Y-65396060D01*
X101136205Y-65328717D01*
X101304563Y-65160358D01*
X99957693Y-65093014D02*
X99519960Y-65530747D01*
X100025037Y-65564419D01*
X99924021Y-65665434D01*
X99890350Y-65766450D01*
X99890350Y-65833793D01*
X99924021Y-65934808D01*
X100092380Y-66103167D01*
X100193395Y-66136839D01*
X100260739Y-66136839D01*
X100361754Y-66103167D01*
X100563785Y-65901137D01*
X100597457Y-65800121D01*
X100597457Y-65732778D01*
%TO.C,C14*%
X137390142Y-83888342D02*
X137437761Y-83840723D01*
X137485380Y-83697866D01*
X137485380Y-83602628D01*
X137437761Y-83459771D01*
X137342523Y-83364533D01*
X137247285Y-83316914D01*
X137056809Y-83269295D01*
X136913952Y-83269295D01*
X136723476Y-83316914D01*
X136628238Y-83364533D01*
X136533000Y-83459771D01*
X136485380Y-83602628D01*
X136485380Y-83697866D01*
X136533000Y-83840723D01*
X136580619Y-83888342D01*
X137485380Y-84840723D02*
X137485380Y-84269295D01*
X137485380Y-84555009D02*
X136485380Y-84555009D01*
X136628238Y-84459771D01*
X136723476Y-84364533D01*
X136771095Y-84269295D01*
X136818714Y-85697866D02*
X137485380Y-85697866D01*
X136437761Y-85459771D02*
X137152047Y-85221676D01*
X137152047Y-85840723D01*
%TO.C,D1*%
X86691695Y-74696580D02*
X86691695Y-73696580D01*
X86453600Y-73696580D01*
X86310742Y-73744200D01*
X86215504Y-73839438D01*
X86167885Y-73934676D01*
X86120266Y-74125152D01*
X86120266Y-74268009D01*
X86167885Y-74458485D01*
X86215504Y-74553723D01*
X86310742Y-74648961D01*
X86453600Y-74696580D01*
X86691695Y-74696580D01*
X85167885Y-74696580D02*
X85739314Y-74696580D01*
X85453600Y-74696580D02*
X85453600Y-73696580D01*
X85548838Y-73839438D01*
X85644076Y-73934676D01*
X85739314Y-73982295D01*
%TO.C,C9*%
X99760066Y-76811142D02*
X99807685Y-76858761D01*
X99950542Y-76906380D01*
X100045780Y-76906380D01*
X100188638Y-76858761D01*
X100283876Y-76763523D01*
X100331495Y-76668285D01*
X100379114Y-76477809D01*
X100379114Y-76334952D01*
X100331495Y-76144476D01*
X100283876Y-76049238D01*
X100188638Y-75954000D01*
X100045780Y-75906380D01*
X99950542Y-75906380D01*
X99807685Y-75954000D01*
X99760066Y-76001619D01*
X99283876Y-76906380D02*
X99093400Y-76906380D01*
X98998161Y-76858761D01*
X98950542Y-76811142D01*
X98855304Y-76668285D01*
X98807685Y-76477809D01*
X98807685Y-76096857D01*
X98855304Y-76001619D01*
X98902923Y-75954000D01*
X98998161Y-75906380D01*
X99188638Y-75906380D01*
X99283876Y-75954000D01*
X99331495Y-76001619D01*
X99379114Y-76096857D01*
X99379114Y-76334952D01*
X99331495Y-76430190D01*
X99283876Y-76477809D01*
X99188638Y-76525428D01*
X98998161Y-76525428D01*
X98902923Y-76477809D01*
X98855304Y-76430190D01*
X98807685Y-76334952D01*
%TO.C,C8*%
X105246466Y-76811142D02*
X105294085Y-76858761D01*
X105436942Y-76906380D01*
X105532180Y-76906380D01*
X105675038Y-76858761D01*
X105770276Y-76763523D01*
X105817895Y-76668285D01*
X105865514Y-76477809D01*
X105865514Y-76334952D01*
X105817895Y-76144476D01*
X105770276Y-76049238D01*
X105675038Y-75954000D01*
X105532180Y-75906380D01*
X105436942Y-75906380D01*
X105294085Y-75954000D01*
X105246466Y-76001619D01*
X104675038Y-76334952D02*
X104770276Y-76287333D01*
X104817895Y-76239714D01*
X104865514Y-76144476D01*
X104865514Y-76096857D01*
X104817895Y-76001619D01*
X104770276Y-75954000D01*
X104675038Y-75906380D01*
X104484561Y-75906380D01*
X104389323Y-75954000D01*
X104341704Y-76001619D01*
X104294085Y-76096857D01*
X104294085Y-76144476D01*
X104341704Y-76239714D01*
X104389323Y-76287333D01*
X104484561Y-76334952D01*
X104675038Y-76334952D01*
X104770276Y-76382571D01*
X104817895Y-76430190D01*
X104865514Y-76525428D01*
X104865514Y-76715904D01*
X104817895Y-76811142D01*
X104770276Y-76858761D01*
X104675038Y-76906380D01*
X104484561Y-76906380D01*
X104389323Y-76858761D01*
X104341704Y-76811142D01*
X104294085Y-76715904D01*
X104294085Y-76525428D01*
X104341704Y-76430190D01*
X104389323Y-76382571D01*
X104484561Y-76334952D01*
%TO.C,U1*%
X90957304Y-96658180D02*
X90957304Y-97467704D01*
X90909685Y-97562942D01*
X90862066Y-97610561D01*
X90766828Y-97658180D01*
X90576352Y-97658180D01*
X90481114Y-97610561D01*
X90433495Y-97562942D01*
X90385876Y-97467704D01*
X90385876Y-96658180D01*
X89385876Y-97658180D02*
X89957304Y-97658180D01*
X89671590Y-97658180D02*
X89671590Y-96658180D01*
X89766828Y-96801038D01*
X89862066Y-96896276D01*
X89957304Y-96943895D01*
%TO.C,R8*%
X144743466Y-91866980D02*
X145076800Y-91390790D01*
X145314895Y-91866980D02*
X145314895Y-90866980D01*
X144933942Y-90866980D01*
X144838704Y-90914600D01*
X144791085Y-90962219D01*
X144743466Y-91057457D01*
X144743466Y-91200314D01*
X144791085Y-91295552D01*
X144838704Y-91343171D01*
X144933942Y-91390790D01*
X145314895Y-91390790D01*
X144172038Y-91295552D02*
X144267276Y-91247933D01*
X144314895Y-91200314D01*
X144362514Y-91105076D01*
X144362514Y-91057457D01*
X144314895Y-90962219D01*
X144267276Y-90914600D01*
X144172038Y-90866980D01*
X143981561Y-90866980D01*
X143886323Y-90914600D01*
X143838704Y-90962219D01*
X143791085Y-91057457D01*
X143791085Y-91105076D01*
X143838704Y-91200314D01*
X143886323Y-91247933D01*
X143981561Y-91295552D01*
X144172038Y-91295552D01*
X144267276Y-91343171D01*
X144314895Y-91390790D01*
X144362514Y-91486028D01*
X144362514Y-91676504D01*
X144314895Y-91771742D01*
X144267276Y-91819361D01*
X144172038Y-91866980D01*
X143981561Y-91866980D01*
X143886323Y-91819361D01*
X143838704Y-91771742D01*
X143791085Y-91676504D01*
X143791085Y-91486028D01*
X143838704Y-91390790D01*
X143886323Y-91343171D01*
X143981561Y-91295552D01*
%TO.C,Sensor1*%
X121148123Y-51534961D02*
X121005266Y-51582580D01*
X120767171Y-51582580D01*
X120671933Y-51534961D01*
X120624314Y-51487342D01*
X120576695Y-51392104D01*
X120576695Y-51296866D01*
X120624314Y-51201628D01*
X120671933Y-51154009D01*
X120767171Y-51106390D01*
X120957647Y-51058771D01*
X121052885Y-51011152D01*
X121100504Y-50963533D01*
X121148123Y-50868295D01*
X121148123Y-50773057D01*
X121100504Y-50677819D01*
X121052885Y-50630200D01*
X120957647Y-50582580D01*
X120719552Y-50582580D01*
X120576695Y-50630200D01*
X119767171Y-51534961D02*
X119862409Y-51582580D01*
X120052885Y-51582580D01*
X120148123Y-51534961D01*
X120195742Y-51439723D01*
X120195742Y-51058771D01*
X120148123Y-50963533D01*
X120052885Y-50915914D01*
X119862409Y-50915914D01*
X119767171Y-50963533D01*
X119719552Y-51058771D01*
X119719552Y-51154009D01*
X120195742Y-51249247D01*
X119290980Y-50915914D02*
X119290980Y-51582580D01*
X119290980Y-51011152D02*
X119243361Y-50963533D01*
X119148123Y-50915914D01*
X119005266Y-50915914D01*
X118910028Y-50963533D01*
X118862409Y-51058771D01*
X118862409Y-51582580D01*
X118433838Y-51534961D02*
X118338600Y-51582580D01*
X118148123Y-51582580D01*
X118052885Y-51534961D01*
X118005266Y-51439723D01*
X118005266Y-51392104D01*
X118052885Y-51296866D01*
X118148123Y-51249247D01*
X118290980Y-51249247D01*
X118386219Y-51201628D01*
X118433838Y-51106390D01*
X118433838Y-51058771D01*
X118386219Y-50963533D01*
X118290980Y-50915914D01*
X118148123Y-50915914D01*
X118052885Y-50963533D01*
X117433838Y-51582580D02*
X117529076Y-51534961D01*
X117576695Y-51487342D01*
X117624314Y-51392104D01*
X117624314Y-51106390D01*
X117576695Y-51011152D01*
X117529076Y-50963533D01*
X117433838Y-50915914D01*
X117290980Y-50915914D01*
X117195742Y-50963533D01*
X117148123Y-51011152D01*
X117100504Y-51106390D01*
X117100504Y-51392104D01*
X117148123Y-51487342D01*
X117195742Y-51534961D01*
X117290980Y-51582580D01*
X117433838Y-51582580D01*
X116671933Y-51582580D02*
X116671933Y-50915914D01*
X116671933Y-51106390D02*
X116624314Y-51011152D01*
X116576695Y-50963533D01*
X116481457Y-50915914D01*
X116386219Y-50915914D01*
X115529076Y-51582580D02*
X116100504Y-51582580D01*
X115814790Y-51582580D02*
X115814790Y-50582580D01*
X115910028Y-50725438D01*
X116005266Y-50820676D01*
X116100504Y-50868295D01*
%TO.C,D4*%
X136246769Y-63852006D02*
X135539662Y-64559112D01*
X135708021Y-64727471D01*
X135842708Y-64794815D01*
X135977395Y-64794815D01*
X136078410Y-64761143D01*
X136246769Y-64660128D01*
X136347784Y-64559112D01*
X136448800Y-64390754D01*
X136482471Y-64289738D01*
X136482471Y-64155051D01*
X136415128Y-64020364D01*
X136246769Y-63852006D01*
X136785517Y-65333563D02*
X137256922Y-64862158D01*
X136347784Y-65434578D02*
X136684502Y-64761143D01*
X137122235Y-65198876D01*
%TO.C,M2*%
X107743523Y-97607380D02*
X107743523Y-96607380D01*
X107410190Y-97321666D01*
X107076857Y-96607380D01*
X107076857Y-97607380D01*
X106648285Y-96702619D02*
X106600666Y-96655000D01*
X106505428Y-96607380D01*
X106267333Y-96607380D01*
X106172095Y-96655000D01*
X106124476Y-96702619D01*
X106076857Y-96797857D01*
X106076857Y-96893095D01*
X106124476Y-97035952D01*
X106695904Y-97607380D01*
X106076857Y-97607380D01*
%TO.C,R19*%
X132291057Y-72360780D02*
X132624390Y-71884590D01*
X132862485Y-72360780D02*
X132862485Y-71360780D01*
X132481533Y-71360780D01*
X132386295Y-71408400D01*
X132338676Y-71456019D01*
X132291057Y-71551257D01*
X132291057Y-71694114D01*
X132338676Y-71789352D01*
X132386295Y-71836971D01*
X132481533Y-71884590D01*
X132862485Y-71884590D01*
X131338676Y-72360780D02*
X131910104Y-72360780D01*
X131624390Y-72360780D02*
X131624390Y-71360780D01*
X131719628Y-71503638D01*
X131814866Y-71598876D01*
X131910104Y-71646495D01*
X130862485Y-72360780D02*
X130672009Y-72360780D01*
X130576771Y-72313161D01*
X130529152Y-72265542D01*
X130433914Y-72122685D01*
X130386295Y-71932209D01*
X130386295Y-71551257D01*
X130433914Y-71456019D01*
X130481533Y-71408400D01*
X130576771Y-71360780D01*
X130767247Y-71360780D01*
X130862485Y-71408400D01*
X130910104Y-71456019D01*
X130957723Y-71551257D01*
X130957723Y-71789352D01*
X130910104Y-71884590D01*
X130862485Y-71932209D01*
X130767247Y-71979828D01*
X130576771Y-71979828D01*
X130481533Y-71932209D01*
X130433914Y-71884590D01*
X130386295Y-71789352D01*
%TO.C,R18*%
X132875257Y-77795380D02*
X133208590Y-77319190D01*
X133446685Y-77795380D02*
X133446685Y-76795380D01*
X133065733Y-76795380D01*
X132970495Y-76843000D01*
X132922876Y-76890619D01*
X132875257Y-76985857D01*
X132875257Y-77128714D01*
X132922876Y-77223952D01*
X132970495Y-77271571D01*
X133065733Y-77319190D01*
X133446685Y-77319190D01*
X131922876Y-77795380D02*
X132494304Y-77795380D01*
X132208590Y-77795380D02*
X132208590Y-76795380D01*
X132303828Y-76938238D01*
X132399066Y-77033476D01*
X132494304Y-77081095D01*
X131351447Y-77223952D02*
X131446685Y-77176333D01*
X131494304Y-77128714D01*
X131541923Y-77033476D01*
X131541923Y-76985857D01*
X131494304Y-76890619D01*
X131446685Y-76843000D01*
X131351447Y-76795380D01*
X131160971Y-76795380D01*
X131065733Y-76843000D01*
X131018114Y-76890619D01*
X130970495Y-76985857D01*
X130970495Y-77033476D01*
X131018114Y-77128714D01*
X131065733Y-77176333D01*
X131160971Y-77223952D01*
X131351447Y-77223952D01*
X131446685Y-77271571D01*
X131494304Y-77319190D01*
X131541923Y-77414428D01*
X131541923Y-77604904D01*
X131494304Y-77700142D01*
X131446685Y-77747761D01*
X131351447Y-77795380D01*
X131160971Y-77795380D01*
X131065733Y-77747761D01*
X131018114Y-77700142D01*
X130970495Y-77604904D01*
X130970495Y-77414428D01*
X131018114Y-77319190D01*
X131065733Y-77271571D01*
X131160971Y-77223952D01*
%TO.C,R11*%
X100185457Y-72283580D02*
X100518790Y-71807390D01*
X100756885Y-72283580D02*
X100756885Y-71283580D01*
X100375933Y-71283580D01*
X100280695Y-71331200D01*
X100233076Y-71378819D01*
X100185457Y-71474057D01*
X100185457Y-71616914D01*
X100233076Y-71712152D01*
X100280695Y-71759771D01*
X100375933Y-71807390D01*
X100756885Y-71807390D01*
X99233076Y-72283580D02*
X99804504Y-72283580D01*
X99518790Y-72283580D02*
X99518790Y-71283580D01*
X99614028Y-71426438D01*
X99709266Y-71521676D01*
X99804504Y-71569295D01*
X98280695Y-72283580D02*
X98852123Y-72283580D01*
X98566409Y-72283580D02*
X98566409Y-71283580D01*
X98661647Y-71426438D01*
X98756885Y-71521676D01*
X98852123Y-71569295D01*
%TO.C,R25*%
X132291057Y-64992780D02*
X132624390Y-64516590D01*
X132862485Y-64992780D02*
X132862485Y-63992780D01*
X132481533Y-63992780D01*
X132386295Y-64040400D01*
X132338676Y-64088019D01*
X132291057Y-64183257D01*
X132291057Y-64326114D01*
X132338676Y-64421352D01*
X132386295Y-64468971D01*
X132481533Y-64516590D01*
X132862485Y-64516590D01*
X131910104Y-64088019D02*
X131862485Y-64040400D01*
X131767247Y-63992780D01*
X131529152Y-63992780D01*
X131433914Y-64040400D01*
X131386295Y-64088019D01*
X131338676Y-64183257D01*
X131338676Y-64278495D01*
X131386295Y-64421352D01*
X131957723Y-64992780D01*
X131338676Y-64992780D01*
X130433914Y-63992780D02*
X130910104Y-63992780D01*
X130957723Y-64468971D01*
X130910104Y-64421352D01*
X130814866Y-64373733D01*
X130576771Y-64373733D01*
X130481533Y-64421352D01*
X130433914Y-64468971D01*
X130386295Y-64564209D01*
X130386295Y-64802304D01*
X130433914Y-64897542D01*
X130481533Y-64945161D01*
X130576771Y-64992780D01*
X130814866Y-64992780D01*
X130910104Y-64945161D01*
X130957723Y-64897542D01*
%TO.C,M1*%
X130672923Y-97607380D02*
X130672923Y-96607380D01*
X130339590Y-97321666D01*
X130006257Y-96607380D01*
X130006257Y-97607380D01*
X129006257Y-97607380D02*
X129577685Y-97607380D01*
X129291971Y-97607380D02*
X129291971Y-96607380D01*
X129387209Y-96750238D01*
X129482447Y-96845476D01*
X129577685Y-96893095D01*
%TO.C,Q4*%
X157295838Y-78805019D02*
X157391076Y-78757400D01*
X157486314Y-78662161D01*
X157629171Y-78519304D01*
X157724409Y-78471685D01*
X157819647Y-78471685D01*
X157772028Y-78709780D02*
X157867266Y-78662161D01*
X157962504Y-78566923D01*
X158010123Y-78376447D01*
X158010123Y-78043114D01*
X157962504Y-77852638D01*
X157867266Y-77757400D01*
X157772028Y-77709780D01*
X157581552Y-77709780D01*
X157486314Y-77757400D01*
X157391076Y-77852638D01*
X157343457Y-78043114D01*
X157343457Y-78376447D01*
X157391076Y-78566923D01*
X157486314Y-78662161D01*
X157581552Y-78709780D01*
X157772028Y-78709780D01*
X156486314Y-78043114D02*
X156486314Y-78709780D01*
X156724409Y-77662161D02*
X156962504Y-78376447D01*
X156343457Y-78376447D01*
%TO.C,R7*%
X155436866Y-93898980D02*
X155770200Y-93422790D01*
X156008295Y-93898980D02*
X156008295Y-92898980D01*
X155627342Y-92898980D01*
X155532104Y-92946600D01*
X155484485Y-92994219D01*
X155436866Y-93089457D01*
X155436866Y-93232314D01*
X155484485Y-93327552D01*
X155532104Y-93375171D01*
X155627342Y-93422790D01*
X156008295Y-93422790D01*
X155103533Y-92898980D02*
X154436866Y-92898980D01*
X154865438Y-93898980D01*
D11*
%TO.C,Q2*%
X145663000Y-86798000D02*
X145663000Y-87898000D01*
X145393000Y-86798000D02*
X145663000Y-86798000D01*
X145393000Y-85298000D02*
X145393000Y-86798000D01*
X152293000Y-85298000D02*
X152293000Y-86798000D01*
X152293000Y-86798000D02*
X152023000Y-86798000D01*
X152023000Y-86798000D02*
X152023000Y-89628000D01*
%TO.C,U4*%
X109218600Y-80590400D02*
X108838600Y-80590400D01*
X109218600Y-87010400D02*
X127458600Y-87010400D01*
X127458600Y-87010400D02*
X127458600Y-80590400D01*
X127458600Y-61265400D02*
X126458600Y-61265400D01*
X109218600Y-62045400D02*
X109218600Y-61265400D01*
X109218600Y-61265400D02*
X110218600Y-61265400D01*
X109218600Y-87010400D02*
X109218600Y-80590400D01*
X127458600Y-62045400D02*
X127458600Y-61265400D01*
%TO.C,R9*%
X151892536Y-92149600D02*
X152346664Y-92149600D01*
X151892536Y-90679600D02*
X152346664Y-90679600D01*
%TO.C,U9*%
X136213000Y-71163600D02*
X136473000Y-71163600D01*
X136213000Y-73888600D02*
X136213000Y-71163600D01*
X141663000Y-71163600D02*
X141403000Y-71163600D01*
X141663000Y-73888600D02*
X141663000Y-76613600D01*
X141663000Y-76613600D02*
X141403000Y-76613600D01*
X141663000Y-73888600D02*
X141663000Y-71163600D01*
X136213000Y-76613600D02*
X136473000Y-76613600D01*
X136213000Y-73888600D02*
X136213000Y-76613600D01*
X136473000Y-71163600D02*
X136473000Y-69488600D01*
%TO.C,R10*%
X105332264Y-74572800D02*
X104878136Y-74572800D01*
X105332264Y-73102800D02*
X104878136Y-73102800D01*
%TO.C,C2*%
X105341052Y-69038800D02*
X104818548Y-69038800D01*
X105341052Y-70508800D02*
X104818548Y-70508800D01*
%TO.C,R34*%
X139876200Y-80875136D02*
X139876200Y-81329264D01*
X138406200Y-80875136D02*
X138406200Y-81329264D01*
%TO.C,JP1*%
X159020000Y-89919000D02*
X161020000Y-89919000D01*
X161020000Y-87119000D02*
X159020000Y-87119000D01*
X159020000Y-87119000D02*
X159020000Y-89919000D01*
X161020000Y-89919000D02*
X161020000Y-87119000D01*
D12*
%TO.C,D3*%
X95932337Y-63483607D02*
X99043607Y-60372337D01*
X101019263Y-62347993D02*
X97907993Y-65459263D01*
D13*
X95612315Y-65879285D02*
G75*
G03*
X95612315Y-65879285I-100000J0D01*
G01*
D11*
%TO.C,C14*%
X136298000Y-80840948D02*
X136298000Y-81363452D01*
X137768000Y-80840948D02*
X137768000Y-81363452D01*
D12*
%TO.C,D1*%
X88153600Y-78054200D02*
X83753600Y-78054200D01*
X83753600Y-75260200D02*
X88153600Y-75260200D01*
D13*
X81862600Y-76657200D02*
G75*
G03*
X81862600Y-76657200I-100000J0D01*
G01*
D11*
%TO.C,C9*%
X99332148Y-78865400D02*
X99854652Y-78865400D01*
X99332148Y-77395400D02*
X99854652Y-77395400D01*
%TO.C,C8*%
X105341052Y-78865400D02*
X104818548Y-78865400D01*
X105341052Y-77395400D02*
X104818548Y-77395400D01*
%TO.C,U1*%
X81246400Y-85061000D02*
X81246400Y-79936000D01*
X80296400Y-86561000D02*
X80296400Y-85061000D01*
X80296400Y-85061000D02*
X81246400Y-85061000D01*
X90696400Y-86561000D02*
X90696400Y-85061000D01*
X89746400Y-85061000D02*
X89746400Y-83961000D01*
X90696400Y-85061000D02*
X89746400Y-85061000D01*
%TO.C,R8*%
X147346936Y-92149600D02*
X147801064Y-92149600D01*
X147346936Y-90679600D02*
X147801064Y-90679600D01*
%TO.C,Sensor1*%
X109268600Y-52156400D02*
X109268600Y-53266400D01*
X113273600Y-57776400D02*
X113273600Y-59576400D01*
X126383600Y-53266400D02*
X127408600Y-53266400D01*
X110293600Y-53266400D02*
X110293600Y-53806400D01*
X109268600Y-53266400D02*
X110293600Y-53266400D01*
X126383600Y-53806400D02*
X126383600Y-53266400D01*
X127408600Y-52156400D02*
X109268600Y-52156400D01*
X112448600Y-57776400D02*
X113273600Y-57776400D01*
X127408600Y-53266400D02*
X127408600Y-52156400D01*
X123403600Y-57776400D02*
X124228600Y-57776400D01*
D12*
%TO.C,D4*%
X138794607Y-65459263D02*
X135683337Y-62347993D01*
X137658993Y-60372337D02*
X140770263Y-63483607D01*
D13*
X141290285Y-65879285D02*
G75*
G03*
X141290285Y-65879285I-100000J0D01*
G01*
D11*
%TO.C,R19*%
X131875264Y-72823400D02*
X131421136Y-72823400D01*
X131875264Y-74293400D02*
X131421136Y-74293400D01*
%TO.C,R18*%
X131875264Y-74855400D02*
X131421136Y-74855400D01*
X131875264Y-76325400D02*
X131421136Y-76325400D01*
%TO.C,R11*%
X104878136Y-72566200D02*
X105332264Y-72566200D01*
X104878136Y-71096200D02*
X105332264Y-71096200D01*
%TO.C,R25*%
X131421136Y-62155400D02*
X131875264Y-62155400D01*
X131421136Y-63625400D02*
X131875264Y-63625400D01*
%TO.C,Q4*%
X154840600Y-83737000D02*
X155070600Y-83737000D01*
X159560600Y-81017000D02*
X158250600Y-81017000D01*
X159560600Y-83737000D02*
X159560600Y-81017000D01*
X159330600Y-84877000D02*
X159330600Y-83737000D01*
X154840600Y-81017000D02*
X154840600Y-83737000D01*
X156150600Y-81017000D02*
X154840600Y-81017000D01*
X159560600Y-83737000D02*
X159330600Y-83737000D01*
%TO.C,R7*%
X151892536Y-92711600D02*
X152346664Y-92711600D01*
X151892536Y-94181600D02*
X152346664Y-94181600D01*
%TD*%
M02*
