%TF.GenerationSoftware,KiCad,Pcbnew,(6.0.4)*%
%TF.CreationDate,2023-10-20T23:50:37+07:00*%
%TF.ProjectId,Minsys_V3.1,4d696e73-7973-45f5-9633-2e312e6b6963,rev?*%
%TF.SameCoordinates,Original*%
%TF.FileFunction,Soldermask,Bot*%
%TF.FilePolarity,Negative*%
%FSLAX46Y46*%
G04 Gerber Fmt 4.6, Leading zero omitted, Abs format (unit mm)*
G04 Created by KiCad (PCBNEW (6.0.4)) date 2023-10-20 23:50:37*
%MOMM*%
%LPD*%
G01*
G04 APERTURE LIST*
G04 Aperture macros list*
%AMRoundRect*
0 Rectangle with rounded corners*
0 $1 Rounding radius*
0 $2 $3 $4 $5 $6 $7 $8 $9 X,Y pos of 4 corners*
0 Add a 4 corners polygon primitive as box body*
4,1,4,$2,$3,$4,$5,$6,$7,$8,$9,$2,$3,0*
0 Add four circle primitives for the rounded corners*
1,1,$1+$1,$2,$3*
1,1,$1+$1,$4,$5*
1,1,$1+$1,$6,$7*
1,1,$1+$1,$8,$9*
0 Add four rect primitives between the rounded corners*
20,1,$1+$1,$2,$3,$4,$5,0*
20,1,$1+$1,$4,$5,$6,$7,0*
20,1,$1+$1,$6,$7,$8,$9,0*
20,1,$1+$1,$8,$9,$2,$3,0*%
%AMHorizOval*
0 Thick line with rounded ends*
0 $1 width*
0 $2 $3 position (X,Y) of the first rounded end (center of the circle)*
0 $4 $5 position (X,Y) of the second rounded end (center of the circle)*
0 Add line between two ends*
20,1,$1,$2,$3,$4,$5,0*
0 Add two circle primitives to create the rounded ends*
1,1,$1,$2,$3*
1,1,$1,$4,$5*%
%AMRotRect*
0 Rectangle, with rotation*
0 The origin of the aperture is its center*
0 $1 length*
0 $2 width*
0 $3 Rotation angle, in degrees counterclockwise*
0 Add horizontal line*
21,1,$1,$2,0,0,$3*%
%AMFreePoly0*
4,1,9,5.362500,-0.866500,1.237500,-0.866500,1.237500,-0.450000,-1.237500,-0.450000,-1.237500,0.450000,1.237500,0.450000,1.237500,0.866500,5.362500,0.866500,5.362500,-0.866500,5.362500,-0.866500,$1*%
G04 Aperture macros list end*
%ADD10RotRect,1.700000X1.700000X45.000000*%
%ADD11HorizOval,1.700000X0.000000X0.000000X0.000000X0.000000X0*%
%ADD12C,3.000000*%
%ADD13C,1.500000*%
%ADD14C,2.100000*%
%ADD15RotRect,1.700000X1.700000X315.000000*%
%ADD16HorizOval,1.700000X0.000000X0.000000X0.000000X0.000000X0*%
%ADD17RoundRect,0.250000X-0.620000X-0.845000X0.620000X-0.845000X0.620000X0.845000X-0.620000X0.845000X0*%
%ADD18O,1.740000X2.190000*%
%ADD19R,1.700000X1.700000*%
%ADD20O,1.700000X1.700000*%
%ADD21R,1.200000X2.200000*%
%ADD22R,5.800000X6.400000*%
%ADD23R,2.000000X0.900000*%
%ADD24R,0.900000X2.000000*%
%ADD25R,5.000000X5.000000*%
%ADD26RoundRect,0.250000X-0.350000X-0.450000X0.350000X-0.450000X0.350000X0.450000X-0.350000X0.450000X0*%
%ADD27RoundRect,0.150000X-0.150000X0.650000X-0.150000X-0.650000X0.150000X-0.650000X0.150000X0.650000X0*%
%ADD28RoundRect,0.250000X0.350000X0.450000X-0.350000X0.450000X-0.350000X-0.450000X0.350000X-0.450000X0*%
%ADD29RoundRect,0.250000X0.337500X0.475000X-0.337500X0.475000X-0.337500X-0.475000X0.337500X-0.475000X0*%
%ADD30RoundRect,0.250000X-0.450000X0.350000X-0.450000X-0.350000X0.450000X-0.350000X0.450000X0.350000X0*%
%ADD31R,1.500000X1.000000*%
%ADD32RoundRect,0.594000X-0.212132X-0.927724X0.927724X0.212132X0.212132X0.927724X-0.927724X-0.212132X0*%
%ADD33RoundRect,0.250000X-0.475000X0.337500X-0.475000X-0.337500X0.475000X-0.337500X0.475000X0.337500X0*%
%ADD34RoundRect,0.594000X-0.806000X-0.506000X0.806000X-0.506000X0.806000X0.506000X-0.806000X0.506000X0*%
%ADD35RoundRect,0.250000X-0.337500X-0.475000X0.337500X-0.475000X0.337500X0.475000X-0.337500X0.475000X0*%
%ADD36R,1.100000X4.600000*%
%ADD37R,10.800000X9.400000*%
%ADD38R,0.610000X2.000000*%
%ADD39R,2.680000X3.600000*%
%ADD40RoundRect,0.594000X0.927724X-0.212132X-0.212132X0.927724X-0.927724X0.212132X0.212132X-0.927724X0*%
%ADD41RoundRect,0.750000X0.750000X-1.750000X0.750000X1.750000X-0.750000X1.750000X-0.750000X-1.750000X0*%
%ADD42RoundRect,0.750000X-0.750000X1.750000X-0.750000X-1.750000X0.750000X-1.750000X0.750000X1.750000X0*%
%ADD43R,0.900000X2.300000*%
%ADD44FreePoly0,90.000000*%
G04 APERTURE END LIST*
D10*
%TO.C,F2*%
X139299550Y-58762942D03*
D11*
X141095601Y-60558993D03*
X142891652Y-62355044D03*
X144687704Y-64151096D03*
%TD*%
D12*
%TO.C,H1*%
X108806800Y-46982600D03*
%TD*%
%TO.C,H2*%
X88096504Y-70526496D03*
%TD*%
D13*
%TO.C,SW1*%
X162890200Y-92347800D03*
X162890200Y-90347800D03*
X162890200Y-88347800D03*
D14*
X162890200Y-94497800D03*
X162890200Y-86197800D03*
%TD*%
D12*
%TO.C,H2*%
X148548504Y-70526496D03*
%TD*%
D15*
%TO.C,F1*%
X97378206Y-58762942D03*
D16*
X95582155Y-60558993D03*
X93786104Y-62355044D03*
X91990052Y-64151096D03*
%TD*%
D12*
%TO.C,H2*%
X161271800Y-103055200D03*
%TD*%
%TO.C,H2*%
X127881800Y-46982600D03*
%TD*%
D17*
%TO.C,Enc2*%
X93192600Y-99816600D03*
D18*
X95732600Y-99816600D03*
X98272600Y-99816600D03*
X100812600Y-99816600D03*
%TD*%
D17*
%TO.C,Enc1*%
X135890000Y-99816600D03*
D18*
X138430000Y-99816600D03*
X140970000Y-99816600D03*
X143510000Y-99816600D03*
%TD*%
D19*
%TO.C,Batt1*%
X152532000Y-98831400D03*
D20*
X149992000Y-98831400D03*
%TD*%
D21*
%TO.C,Q2*%
X151123000Y-88528000D03*
D22*
X148843000Y-82228000D03*
D21*
X146563000Y-88528000D03*
%TD*%
D23*
%TO.C,U4*%
X109838600Y-79400400D03*
X109838600Y-78130400D03*
X109838600Y-76860400D03*
X109838600Y-75590400D03*
X109838600Y-74320400D03*
X109838600Y-73050400D03*
X109838600Y-71780400D03*
X109838600Y-70510400D03*
X109838600Y-69240400D03*
X109838600Y-67970400D03*
X109838600Y-66700400D03*
X109838600Y-65430400D03*
X109838600Y-64160400D03*
X109838600Y-62890400D03*
D24*
X112623600Y-61890400D03*
X113893600Y-61890400D03*
X115163600Y-61890400D03*
X116433600Y-61890400D03*
X117703600Y-61890400D03*
X118973600Y-61890400D03*
X120243600Y-61890400D03*
X121513600Y-61890400D03*
X122783600Y-61890400D03*
X124053600Y-61890400D03*
D23*
X126838600Y-62890400D03*
X126838600Y-64160400D03*
X126838600Y-65430400D03*
X126838600Y-66700400D03*
X126838600Y-67970400D03*
X126838600Y-69240400D03*
X126838600Y-70510400D03*
X126838600Y-71780400D03*
X126838600Y-73050400D03*
X126838600Y-74320400D03*
X126838600Y-75590400D03*
X126838600Y-76860400D03*
X126838600Y-78130400D03*
X126838600Y-79400400D03*
D25*
X117338600Y-71900400D03*
%TD*%
D12*
%TO.C,H2*%
X75354600Y-103055200D03*
%TD*%
D26*
%TO.C,R9*%
X151119600Y-91414600D03*
X153119600Y-91414600D03*
%TD*%
D27*
%TO.C,U9*%
X137033000Y-70288600D03*
X138303000Y-70288600D03*
X139573000Y-70288600D03*
X140843000Y-70288600D03*
X140843000Y-77488600D03*
X139573000Y-77488600D03*
X138303000Y-77488600D03*
X137033000Y-77488600D03*
%TD*%
D28*
%TO.C,R10*%
X106105200Y-73837800D03*
X104105200Y-73837800D03*
%TD*%
D29*
%TO.C,C2*%
X106117300Y-69773800D03*
X104042300Y-69773800D03*
%TD*%
D30*
%TO.C,R34*%
X139141200Y-80102200D03*
X139141200Y-82102200D03*
%TD*%
D31*
%TO.C,JP1*%
X160020000Y-89169000D03*
X160020000Y-87869000D03*
%TD*%
D32*
%TO.C,D3*%
X96948449Y-64443151D03*
X100003151Y-61388449D03*
%TD*%
D33*
%TO.C,C14*%
X137033000Y-80064700D03*
X137033000Y-82139700D03*
%TD*%
D34*
%TO.C,D1*%
X83793600Y-76657200D03*
X88113600Y-76657200D03*
%TD*%
D35*
%TO.C,C9*%
X98555900Y-78130400D03*
X100630900Y-78130400D03*
%TD*%
D29*
%TO.C,C8*%
X106117300Y-78130400D03*
X104042300Y-78130400D03*
%TD*%
D36*
%TO.C,U1*%
X82096400Y-82236000D03*
X83796400Y-82236000D03*
D37*
X85496400Y-91386000D03*
D36*
X85496400Y-82236000D03*
X87196400Y-82236000D03*
X88896400Y-82236000D03*
%TD*%
D26*
%TO.C,R8*%
X146574000Y-91414600D03*
X148574000Y-91414600D03*
%TD*%
D38*
%TO.C,Sensor1*%
X113838600Y-58666400D03*
X114838600Y-58666400D03*
X115838600Y-58666400D03*
X116838600Y-58666400D03*
X117838600Y-58666400D03*
X118838600Y-58666400D03*
X119838600Y-58666400D03*
X120838600Y-58666400D03*
X121838600Y-58666400D03*
X122838600Y-58666400D03*
D39*
X110848600Y-55866400D03*
X125828600Y-55866400D03*
%TD*%
D40*
%TO.C,D4*%
X139754151Y-64443151D03*
X136699449Y-61388449D03*
%TD*%
D41*
%TO.C,M2*%
X108806800Y-93557800D03*
X104996800Y-93557800D03*
%TD*%
D28*
%TO.C,R19*%
X132648200Y-73558400D03*
X130648200Y-73558400D03*
%TD*%
%TO.C,R18*%
X132648200Y-75590400D03*
X130648200Y-75590400D03*
%TD*%
D26*
%TO.C,R11*%
X104105200Y-71831200D03*
X106105200Y-71831200D03*
%TD*%
%TO.C,R25*%
X130648200Y-62890400D03*
X132648200Y-62890400D03*
%TD*%
D42*
%TO.C,M1*%
X127958400Y-93557800D03*
X131768400Y-93557800D03*
%TD*%
D43*
%TO.C,Q4*%
X158700600Y-84827000D03*
D44*
X157200600Y-84739500D03*
D43*
X155700600Y-84827000D03*
%TD*%
D26*
%TO.C,R7*%
X151119600Y-93446600D03*
X153119600Y-93446600D03*
%TD*%
M02*
