%TF.GenerationSoftware,KiCad,Pcbnew,(6.0.4)*%
%TF.CreationDate,2023-10-20T23:50:37+07:00*%
%TF.ProjectId,Minsys_V3.1,4d696e73-7973-45f5-9633-2e312e6b6963,rev?*%
%TF.SameCoordinates,Original*%
%TF.FileFunction,Soldermask,Top*%
%TF.FilePolarity,Negative*%
%FSLAX46Y46*%
G04 Gerber Fmt 4.6, Leading zero omitted, Abs format (unit mm)*
G04 Created by KiCad (PCBNEW (6.0.4)) date 2023-10-20 23:50:37*
%MOMM*%
%LPD*%
G01*
G04 APERTURE LIST*
G04 Aperture macros list*
%AMRoundRect*
0 Rectangle with rounded corners*
0 $1 Rounding radius*
0 $2 $3 $4 $5 $6 $7 $8 $9 X,Y pos of 4 corners*
0 Add a 4 corners polygon primitive as box body*
4,1,4,$2,$3,$4,$5,$6,$7,$8,$9,$2,$3,0*
0 Add four circle primitives for the rounded corners*
1,1,$1+$1,$2,$3*
1,1,$1+$1,$4,$5*
1,1,$1+$1,$6,$7*
1,1,$1+$1,$8,$9*
0 Add four rect primitives between the rounded corners*
20,1,$1+$1,$2,$3,$4,$5,0*
20,1,$1+$1,$4,$5,$6,$7,0*
20,1,$1+$1,$6,$7,$8,$9,0*
20,1,$1+$1,$8,$9,$2,$3,0*%
%AMHorizOval*
0 Thick line with rounded ends*
0 $1 width*
0 $2 $3 position (X,Y) of the first rounded end (center of the circle)*
0 $4 $5 position (X,Y) of the second rounded end (center of the circle)*
0 Add line between two ends*
20,1,$1,$2,$3,$4,$5,0*
0 Add two circle primitives to create the rounded ends*
1,1,$1,$2,$3*
1,1,$1,$4,$5*%
%AMRotRect*
0 Rectangle, with rotation*
0 The origin of the aperture is its center*
0 $1 length*
0 $2 width*
0 $3 Rotation angle, in degrees counterclockwise*
0 Add horizontal line*
21,1,$1,$2,0,0,$3*%
G04 Aperture macros list end*
%ADD10RoundRect,0.250000X-0.325000X-0.450000X0.325000X-0.450000X0.325000X0.450000X-0.325000X0.450000X0*%
%ADD11R,0.800000X4.600000*%
%ADD12R,10.800000X9.400000*%
%ADD13RoundRect,0.250000X0.450000X-0.350000X0.450000X0.350000X-0.450000X0.350000X-0.450000X-0.350000X0*%
%ADD14RoundRect,0.250000X0.475000X-0.337500X0.475000X0.337500X-0.475000X0.337500X-0.475000X-0.337500X0*%
%ADD15RoundRect,0.250000X0.350000X0.450000X-0.350000X0.450000X-0.350000X-0.450000X0.350000X-0.450000X0*%
%ADD16RoundRect,0.250000X-0.350000X-0.450000X0.350000X-0.450000X0.350000X0.450000X-0.350000X0.450000X0*%
%ADD17RoundRect,0.150000X0.521491X-0.309359X-0.309359X0.521491X-0.521491X0.309359X0.309359X-0.521491X0*%
%ADD18R,1.200000X2.200000*%
%ADD19R,5.800000X6.400000*%
%ADD20RotRect,1.700000X1.700000X45.000000*%
%ADD21HorizOval,1.700000X0.000000X0.000000X0.000000X0.000000X0*%
%ADD22RoundRect,0.250000X-0.450000X0.350000X-0.450000X-0.350000X0.450000X-0.350000X0.450000X0.350000X0*%
%ADD23C,3.000000*%
%ADD24RoundRect,0.250000X0.337500X0.475000X-0.337500X0.475000X-0.337500X-0.475000X0.337500X-0.475000X0*%
%ADD25RoundRect,0.250000X-0.475000X0.337500X-0.475000X-0.337500X0.475000X-0.337500X0.475000X0.337500X0*%
%ADD26C,1.500000*%
%ADD27C,2.100000*%
%ADD28R,5.400000X2.900000*%
%ADD29RoundRect,0.050000X-0.225000X-0.050000X0.225000X-0.050000X0.225000X0.050000X-0.225000X0.050000X0*%
%ADD30RoundRect,0.050000X0.050000X-0.225000X0.050000X0.225000X-0.050000X0.225000X-0.050000X-0.225000X0*%
%ADD31R,1.500000X2.000000*%
%ADD32R,3.800000X2.000000*%
%ADD33RotRect,1.700000X1.700000X315.000000*%
%ADD34HorizOval,1.700000X0.000000X0.000000X0.000000X0.000000X0*%
%ADD35RoundRect,0.150000X-0.309359X-0.521491X0.521491X0.309359X0.309359X0.521491X-0.521491X-0.309359X0*%
%ADD36RoundRect,0.250000X0.070711X-0.565685X0.565685X-0.070711X-0.070711X0.565685X-0.565685X0.070711X0*%
%ADD37RoundRect,0.250000X-0.550000X1.500000X-0.550000X-1.500000X0.550000X-1.500000X0.550000X1.500000X0*%
%ADD38RoundRect,0.250000X-0.620000X-0.845000X0.620000X-0.845000X0.620000X0.845000X-0.620000X0.845000X0*%
%ADD39O,1.740000X2.190000*%
%ADD40R,0.610000X2.000000*%
%ADD41R,2.680000X3.600000*%
%ADD42RoundRect,0.250000X-0.565685X-0.070711X-0.070711X-0.565685X0.565685X0.070711X0.070711X0.565685X0*%
%ADD43RoundRect,0.250000X0.550000X-1.500000X0.550000X1.500000X-0.550000X1.500000X-0.550000X-1.500000X0*%
%ADD44R,1.700000X1.700000*%
%ADD45O,1.700000X1.700000*%
G04 APERTURE END LIST*
D10*
%TO.C,D2*%
X117313600Y-51054000D03*
X119363600Y-51054000D03*
%TD*%
D11*
%TO.C,U3*%
X116433600Y-82210600D03*
X115163600Y-82210600D03*
X113893600Y-82210600D03*
X112623600Y-82210600D03*
X111353600Y-82210600D03*
X110083600Y-82210600D03*
X108813600Y-82210600D03*
D12*
X112623600Y-91360600D03*
%TD*%
D13*
%TO.C,R20*%
X137922000Y-77682600D03*
X137922000Y-75682600D03*
%TD*%
%TO.C,R29*%
X115798600Y-61969400D03*
X115798600Y-59969400D03*
%TD*%
D14*
%TO.C,C6*%
X131800600Y-77694700D03*
X131800600Y-75619700D03*
%TD*%
D15*
%TO.C,R28*%
X114258600Y-55219600D03*
X112258600Y-55219600D03*
%TD*%
D16*
%TO.C,R24*%
X122291600Y-53187600D03*
X124291600Y-53187600D03*
%TD*%
D17*
%TO.C,Q3*%
X100219561Y-62878864D03*
X101563064Y-61535361D03*
X99565487Y-60881287D03*
%TD*%
D11*
%TO.C,U5*%
X139420600Y-82210600D03*
X138150600Y-82210600D03*
X136880600Y-82210600D03*
X135610600Y-82210600D03*
X134340600Y-82210600D03*
X133070600Y-82210600D03*
X131800600Y-82210600D03*
D12*
X135610600Y-91360600D03*
%TD*%
D18*
%TO.C,Q1*%
X151123000Y-86325600D03*
D19*
X148843000Y-92625600D03*
D18*
X146563000Y-86325600D03*
%TD*%
D20*
%TO.C,F2*%
X139299550Y-58762942D03*
D21*
X141095601Y-60558993D03*
X142891652Y-62355044D03*
X144687704Y-64151096D03*
%TD*%
D22*
%TO.C,R14*%
X133858000Y-75682600D03*
X133858000Y-77682600D03*
%TD*%
D23*
%TO.C,H1*%
X108806800Y-46982600D03*
%TD*%
D13*
%TO.C,R5*%
X128473200Y-77682600D03*
X128473200Y-75682600D03*
%TD*%
D24*
%TO.C,C11*%
X114245300Y-57302400D03*
X112170300Y-57302400D03*
%TD*%
D25*
%TO.C,C13*%
X121970800Y-59947900D03*
X121970800Y-62022900D03*
%TD*%
D14*
%TO.C,C4*%
X120319800Y-77694700D03*
X120319800Y-75619700D03*
%TD*%
D23*
%TO.C,H2*%
X88096504Y-70526496D03*
%TD*%
D26*
%TO.C,SW1*%
X162890200Y-92347800D03*
X162890200Y-90347800D03*
X162890200Y-88347800D03*
D27*
X162890200Y-94497800D03*
X162890200Y-86197800D03*
%TD*%
D13*
%TO.C,R12*%
X122377200Y-77682600D03*
X122377200Y-75682600D03*
%TD*%
D22*
%TO.C,R21*%
X135890000Y-75682600D03*
X135890000Y-77682600D03*
%TD*%
D13*
%TO.C,R31*%
X119913400Y-61934600D03*
X119913400Y-59934600D03*
%TD*%
D28*
%TO.C,L1*%
X85521800Y-83213400D03*
X85521800Y-93113400D03*
%TD*%
D25*
%TO.C,C12*%
X117856000Y-59947900D03*
X117856000Y-62022900D03*
%TD*%
D23*
%TO.C,H2*%
X148548504Y-70526496D03*
%TD*%
D13*
%TO.C,R6*%
X116967000Y-77682600D03*
X116967000Y-75682600D03*
%TD*%
D14*
%TO.C,C7*%
X97358200Y-77694700D03*
X97358200Y-75619700D03*
%TD*%
D22*
%TO.C,R15*%
X99415600Y-75682600D03*
X99415600Y-77682600D03*
%TD*%
D29*
%TO.C,U8*%
X116838600Y-55235600D03*
X116838600Y-55635600D03*
X116838600Y-56035600D03*
X116838600Y-56435600D03*
X116838600Y-56835600D03*
X116838600Y-57235600D03*
D30*
X117338600Y-57735600D03*
X117738600Y-57735600D03*
X118138600Y-57735600D03*
X118538600Y-57735600D03*
X118938600Y-57735600D03*
X119338600Y-57735600D03*
D29*
X119838600Y-57235600D03*
X119838600Y-56835600D03*
X119838600Y-56435600D03*
X119838600Y-56035600D03*
X119838600Y-55635600D03*
X119838600Y-55235600D03*
D30*
X119338600Y-54735600D03*
X118938600Y-54735600D03*
X118538600Y-54735600D03*
X118138600Y-54735600D03*
X117738600Y-54735600D03*
X117338600Y-54735600D03*
%TD*%
D31*
%TO.C,U7*%
X146544000Y-81940800D03*
X148844000Y-81940800D03*
D32*
X148844000Y-75640800D03*
D31*
X151144000Y-81940800D03*
%TD*%
D33*
%TO.C,F1*%
X97378206Y-58762942D03*
D34*
X95582155Y-60558993D03*
X93786104Y-62355044D03*
X91990052Y-64151096D03*
%TD*%
D13*
%TO.C,R2*%
X124409200Y-77682600D03*
X124409200Y-75682600D03*
%TD*%
D35*
%TO.C,Q5*%
X135139536Y-61535361D03*
X136483039Y-62878864D03*
X137137113Y-60881287D03*
%TD*%
D13*
%TO.C,R23*%
X101447600Y-77682600D03*
X101447600Y-75682600D03*
%TD*%
%TO.C,R16*%
X139954000Y-77682600D03*
X139954000Y-75682600D03*
%TD*%
D36*
%TO.C,R33*%
X138586493Y-64969107D03*
X140000707Y-63554893D03*
%TD*%
D13*
%TO.C,R17*%
X105511600Y-77682600D03*
X105511600Y-75682600D03*
%TD*%
%TO.C,R32*%
X155498800Y-79206600D03*
X155498800Y-77206600D03*
%TD*%
%TO.C,R22*%
X103479600Y-77682600D03*
X103479600Y-75682600D03*
%TD*%
%TO.C,R4*%
X112903000Y-77682600D03*
X112903000Y-75682600D03*
%TD*%
D23*
%TO.C,H2*%
X161271800Y-103055200D03*
%TD*%
D11*
%TO.C,U2*%
X127939800Y-82210600D03*
X126669800Y-82210600D03*
X125399800Y-82210600D03*
X124129800Y-82210600D03*
X122859800Y-82210600D03*
X121589800Y-82210600D03*
X120319800Y-82210600D03*
D12*
X124129800Y-91360600D03*
%TD*%
D37*
%TO.C,C3*%
X74980800Y-85947600D03*
X74980800Y-91547600D03*
%TD*%
D23*
%TO.C,H2*%
X127881800Y-46982600D03*
%TD*%
D15*
%TO.C,R27*%
X114258600Y-53187600D03*
X112258600Y-53187600D03*
%TD*%
D38*
%TO.C,Enc2*%
X93192600Y-99816600D03*
D39*
X95732600Y-99816600D03*
X98272600Y-99816600D03*
X100812600Y-99816600D03*
%TD*%
D22*
%TO.C,R1*%
X126441200Y-75673200D03*
X126441200Y-77673200D03*
%TD*%
D14*
%TO.C,C5*%
X108813600Y-77694700D03*
X108813600Y-75619700D03*
%TD*%
D38*
%TO.C,Enc1*%
X135890000Y-99816600D03*
D39*
X138430000Y-99816600D03*
X140970000Y-99816600D03*
X143510000Y-99816600D03*
%TD*%
D40*
%TO.C,Button1*%
X122838600Y-72183400D03*
X121838600Y-72183400D03*
X120838600Y-72183400D03*
X119838600Y-72183400D03*
X118838600Y-72183400D03*
X117838600Y-72183400D03*
X116838600Y-72183400D03*
X115838600Y-72183400D03*
X114838600Y-72183400D03*
X113838600Y-72183400D03*
D41*
X125828600Y-69383400D03*
X110848600Y-69383400D03*
%TD*%
D11*
%TO.C,U6*%
X104978200Y-82210600D03*
X103708200Y-82210600D03*
X102438200Y-82210600D03*
X101168200Y-82210600D03*
X99898200Y-82210600D03*
X98628200Y-82210600D03*
X97358200Y-82210600D03*
D12*
X101168200Y-91360600D03*
%TD*%
D42*
%TO.C,R26*%
X96727293Y-63554893D03*
X98141507Y-64969107D03*
%TD*%
D13*
%TO.C,R13*%
X110871000Y-77682600D03*
X110871000Y-75682600D03*
%TD*%
D43*
%TO.C,C1*%
X156362400Y-91903200D03*
X156362400Y-86303200D03*
%TD*%
D25*
%TO.C,C10*%
X143789400Y-75619700D03*
X143789400Y-77694700D03*
%TD*%
D44*
%TO.C,Batt1*%
X152532000Y-98831400D03*
D45*
X149992000Y-98831400D03*
%TD*%
D16*
%TO.C,R30*%
X122291600Y-55219600D03*
X124291600Y-55219600D03*
%TD*%
D22*
%TO.C,R3*%
X114935000Y-75682600D03*
X114935000Y-77682600D03*
%TD*%
D23*
%TO.C,H2*%
X75354600Y-103055200D03*
%TD*%
M02*
