%TF.GenerationSoftware,KiCad,Pcbnew,(6.0.4)*%
%TF.CreationDate,2023-10-20T23:50:37+07:00*%
%TF.ProjectId,Minsys_V3.1,4d696e73-7973-45f5-9633-2e312e6b6963,rev?*%
%TF.SameCoordinates,Original*%
%TF.FileFunction,Legend,Top*%
%TF.FilePolarity,Positive*%
%FSLAX46Y46*%
G04 Gerber Fmt 4.6, Leading zero omitted, Abs format (unit mm)*
G04 Created by KiCad (PCBNEW (6.0.4)) date 2023-10-20 23:50:37*
%MOMM*%
%LPD*%
G01*
G04 APERTURE LIST*
%ADD10C,0.300000*%
%ADD11C,0.150000*%
%ADD12C,0.100000*%
%ADD13C,0.120000*%
G04 APERTURE END LIST*
D10*
X154724171Y-98862342D02*
X155867028Y-98862342D01*
X155295600Y-99433771D02*
X155295600Y-98290914D01*
X146773971Y-98887742D02*
X147916828Y-98887742D01*
D11*
%TO.C,U3*%
X111861695Y-96658180D02*
X111861695Y-97467704D01*
X111909314Y-97562942D01*
X111956933Y-97610561D01*
X112052171Y-97658180D01*
X112242647Y-97658180D01*
X112337885Y-97610561D01*
X112385504Y-97562942D01*
X112433123Y-97467704D01*
X112433123Y-96658180D01*
X112814076Y-96658180D02*
X113433123Y-96658180D01*
X113099790Y-97039133D01*
X113242647Y-97039133D01*
X113337885Y-97086752D01*
X113385504Y-97134371D01*
X113433123Y-97229609D01*
X113433123Y-97467704D01*
X113385504Y-97562942D01*
X113337885Y-97610561D01*
X113242647Y-97658180D01*
X112956933Y-97658180D01*
X112861695Y-97610561D01*
X112814076Y-97562942D01*
%TO.C,R20*%
X138399780Y-71788257D02*
X137923590Y-72121590D01*
X138399780Y-72359685D02*
X137399780Y-72359685D01*
X137399780Y-71978733D01*
X137447400Y-71883495D01*
X137495019Y-71835876D01*
X137590257Y-71788257D01*
X137733114Y-71788257D01*
X137828352Y-71835876D01*
X137875971Y-71883495D01*
X137923590Y-71978733D01*
X137923590Y-72359685D01*
X137495019Y-71407304D02*
X137447400Y-71359685D01*
X137399780Y-71264447D01*
X137399780Y-71026352D01*
X137447400Y-70931114D01*
X137495019Y-70883495D01*
X137590257Y-70835876D01*
X137685495Y-70835876D01*
X137828352Y-70883495D01*
X138399780Y-71454923D01*
X138399780Y-70835876D01*
X137399780Y-70216828D02*
X137399780Y-70121590D01*
X137447400Y-70026352D01*
X137495019Y-69978733D01*
X137590257Y-69931114D01*
X137780733Y-69883495D01*
X138018828Y-69883495D01*
X138209304Y-69931114D01*
X138304542Y-69978733D01*
X138352161Y-70026352D01*
X138399780Y-70121590D01*
X138399780Y-70216828D01*
X138352161Y-70312066D01*
X138304542Y-70359685D01*
X138209304Y-70407304D01*
X138018828Y-70454923D01*
X137780733Y-70454923D01*
X137590257Y-70407304D01*
X137495019Y-70359685D01*
X137447400Y-70312066D01*
X137399780Y-70216828D01*
%TO.C,R29*%
X116250980Y-64879457D02*
X115774790Y-65212790D01*
X116250980Y-65450885D02*
X115250980Y-65450885D01*
X115250980Y-65069933D01*
X115298600Y-64974695D01*
X115346219Y-64927076D01*
X115441457Y-64879457D01*
X115584314Y-64879457D01*
X115679552Y-64927076D01*
X115727171Y-64974695D01*
X115774790Y-65069933D01*
X115774790Y-65450885D01*
X115346219Y-64498504D02*
X115298600Y-64450885D01*
X115250980Y-64355647D01*
X115250980Y-64117552D01*
X115298600Y-64022314D01*
X115346219Y-63974695D01*
X115441457Y-63927076D01*
X115536695Y-63927076D01*
X115679552Y-63974695D01*
X116250980Y-64546123D01*
X116250980Y-63927076D01*
X116250980Y-63450885D02*
X116250980Y-63260409D01*
X116203361Y-63165171D01*
X116155742Y-63117552D01*
X116012885Y-63022314D01*
X115822409Y-62974695D01*
X115441457Y-62974695D01*
X115346219Y-63022314D01*
X115298600Y-63069933D01*
X115250980Y-63165171D01*
X115250980Y-63355647D01*
X115298600Y-63450885D01*
X115346219Y-63498504D01*
X115441457Y-63546123D01*
X115679552Y-63546123D01*
X115774790Y-63498504D01*
X115822409Y-63450885D01*
X115870028Y-63355647D01*
X115870028Y-63165171D01*
X115822409Y-63069933D01*
X115774790Y-63022314D01*
X115679552Y-62974695D01*
%TO.C,C6*%
X132132342Y-73902866D02*
X132179961Y-73950485D01*
X132227580Y-74093342D01*
X132227580Y-74188580D01*
X132179961Y-74331438D01*
X132084723Y-74426676D01*
X131989485Y-74474295D01*
X131799009Y-74521914D01*
X131656152Y-74521914D01*
X131465676Y-74474295D01*
X131370438Y-74426676D01*
X131275200Y-74331438D01*
X131227580Y-74188580D01*
X131227580Y-74093342D01*
X131275200Y-73950485D01*
X131322819Y-73902866D01*
X131227580Y-73045723D02*
X131227580Y-73236200D01*
X131275200Y-73331438D01*
X131322819Y-73379057D01*
X131465676Y-73474295D01*
X131656152Y-73521914D01*
X132037104Y-73521914D01*
X132132342Y-73474295D01*
X132179961Y-73426676D01*
X132227580Y-73331438D01*
X132227580Y-73140961D01*
X132179961Y-73045723D01*
X132132342Y-72998104D01*
X132037104Y-72950485D01*
X131799009Y-72950485D01*
X131703771Y-72998104D01*
X131656152Y-73045723D01*
X131608533Y-73140961D01*
X131608533Y-73331438D01*
X131656152Y-73426676D01*
X131703771Y-73474295D01*
X131799009Y-73521914D01*
%TO.C,R28*%
X108958142Y-55671980D02*
X108624809Y-55195790D01*
X108386714Y-55671980D02*
X108386714Y-54671980D01*
X108767666Y-54671980D01*
X108862904Y-54719600D01*
X108910523Y-54767219D01*
X108958142Y-54862457D01*
X108958142Y-55005314D01*
X108910523Y-55100552D01*
X108862904Y-55148171D01*
X108767666Y-55195790D01*
X108386714Y-55195790D01*
X109339095Y-54767219D02*
X109386714Y-54719600D01*
X109481952Y-54671980D01*
X109720047Y-54671980D01*
X109815285Y-54719600D01*
X109862904Y-54767219D01*
X109910523Y-54862457D01*
X109910523Y-54957695D01*
X109862904Y-55100552D01*
X109291476Y-55671980D01*
X109910523Y-55671980D01*
X110481952Y-55100552D02*
X110386714Y-55052933D01*
X110339095Y-55005314D01*
X110291476Y-54910076D01*
X110291476Y-54862457D01*
X110339095Y-54767219D01*
X110386714Y-54719600D01*
X110481952Y-54671980D01*
X110672428Y-54671980D01*
X110767666Y-54719600D01*
X110815285Y-54767219D01*
X110862904Y-54862457D01*
X110862904Y-54910076D01*
X110815285Y-55005314D01*
X110767666Y-55052933D01*
X110672428Y-55100552D01*
X110481952Y-55100552D01*
X110386714Y-55148171D01*
X110339095Y-55195790D01*
X110291476Y-55291028D01*
X110291476Y-55481504D01*
X110339095Y-55576742D01*
X110386714Y-55624361D01*
X110481952Y-55671980D01*
X110672428Y-55671980D01*
X110767666Y-55624361D01*
X110815285Y-55576742D01*
X110862904Y-55481504D01*
X110862904Y-55291028D01*
X110815285Y-55195790D01*
X110767666Y-55148171D01*
X110672428Y-55100552D01*
%TO.C,R24*%
X127169942Y-53639980D02*
X126836609Y-53163790D01*
X126598514Y-53639980D02*
X126598514Y-52639980D01*
X126979466Y-52639980D01*
X127074704Y-52687600D01*
X127122323Y-52735219D01*
X127169942Y-52830457D01*
X127169942Y-52973314D01*
X127122323Y-53068552D01*
X127074704Y-53116171D01*
X126979466Y-53163790D01*
X126598514Y-53163790D01*
X127550895Y-52735219D02*
X127598514Y-52687600D01*
X127693752Y-52639980D01*
X127931847Y-52639980D01*
X128027085Y-52687600D01*
X128074704Y-52735219D01*
X128122323Y-52830457D01*
X128122323Y-52925695D01*
X128074704Y-53068552D01*
X127503276Y-53639980D01*
X128122323Y-53639980D01*
X128979466Y-52973314D02*
X128979466Y-53639980D01*
X128741371Y-52592361D02*
X128503276Y-53306647D01*
X129122323Y-53306647D01*
%TO.C,Q3*%
X102892768Y-63434118D02*
X102926440Y-63535133D01*
X102926440Y-63669820D01*
X102926440Y-63871851D01*
X102960112Y-63972866D01*
X103027455Y-64040209D01*
X103162142Y-63838179D02*
X103195814Y-63939194D01*
X103195814Y-64073881D01*
X103094799Y-64242240D01*
X102859096Y-64477942D01*
X102690738Y-64578957D01*
X102556051Y-64578957D01*
X102455035Y-64545286D01*
X102320348Y-64410599D01*
X102286677Y-64309583D01*
X102286677Y-64174896D01*
X102387692Y-64006538D01*
X102623394Y-63770835D01*
X102791753Y-63669820D01*
X102926440Y-63669820D01*
X103027455Y-63703492D01*
X103162142Y-63838179D01*
X101916287Y-64006538D02*
X101478555Y-63568805D01*
X101983631Y-63535133D01*
X101882616Y-63434118D01*
X101848944Y-63333103D01*
X101848944Y-63265759D01*
X101882616Y-63164744D01*
X102050974Y-62996385D01*
X102151990Y-62962713D01*
X102219333Y-62962713D01*
X102320348Y-62996385D01*
X102522379Y-63198416D01*
X102556051Y-63299431D01*
X102556051Y-63366774D01*
%TO.C,U5*%
X130378295Y-96658180D02*
X130378295Y-97467704D01*
X130425914Y-97562942D01*
X130473533Y-97610561D01*
X130568771Y-97658180D01*
X130759247Y-97658180D01*
X130854485Y-97610561D01*
X130902104Y-97562942D01*
X130949723Y-97467704D01*
X130949723Y-96658180D01*
X131902104Y-96658180D02*
X131425914Y-96658180D01*
X131378295Y-97134371D01*
X131425914Y-97086752D01*
X131521152Y-97039133D01*
X131759247Y-97039133D01*
X131854485Y-97086752D01*
X131902104Y-97134371D01*
X131949723Y-97229609D01*
X131949723Y-97467704D01*
X131902104Y-97562942D01*
X131854485Y-97610561D01*
X131759247Y-97658180D01*
X131521152Y-97658180D01*
X131425914Y-97610561D01*
X131378295Y-97562942D01*
%TO.C,Q1*%
X144456161Y-91073219D02*
X144360923Y-91025600D01*
X144265685Y-90930361D01*
X144122828Y-90787504D01*
X144027590Y-90739885D01*
X143932352Y-90739885D01*
X143979971Y-90977980D02*
X143884733Y-90930361D01*
X143789495Y-90835123D01*
X143741876Y-90644647D01*
X143741876Y-90311314D01*
X143789495Y-90120838D01*
X143884733Y-90025600D01*
X143979971Y-89977980D01*
X144170447Y-89977980D01*
X144265685Y-90025600D01*
X144360923Y-90120838D01*
X144408542Y-90311314D01*
X144408542Y-90644647D01*
X144360923Y-90835123D01*
X144265685Y-90930361D01*
X144170447Y-90977980D01*
X143979971Y-90977980D01*
X145360923Y-90977980D02*
X144789495Y-90977980D01*
X145075209Y-90977980D02*
X145075209Y-89977980D01*
X144979971Y-90120838D01*
X144884733Y-90216076D01*
X144789495Y-90263695D01*
%TO.C,F2*%
X137365781Y-57300577D02*
X137130078Y-57536279D01*
X137500468Y-57906669D02*
X136793361Y-57199562D01*
X137130078Y-56862844D01*
X137433124Y-56694486D02*
X137433124Y-56627142D01*
X137466796Y-56526127D01*
X137635155Y-56357768D01*
X137736170Y-56324096D01*
X137803513Y-56324096D01*
X137904529Y-56357768D01*
X137971872Y-56425112D01*
X138039216Y-56559799D01*
X138039216Y-57367921D01*
X138476948Y-56930188D01*
%TO.C,R14*%
X133878580Y-73947257D02*
X133402390Y-74280590D01*
X133878580Y-74518685D02*
X132878580Y-74518685D01*
X132878580Y-74137733D01*
X132926200Y-74042495D01*
X132973819Y-73994876D01*
X133069057Y-73947257D01*
X133211914Y-73947257D01*
X133307152Y-73994876D01*
X133354771Y-74042495D01*
X133402390Y-74137733D01*
X133402390Y-74518685D01*
X133878580Y-72994876D02*
X133878580Y-73566304D01*
X133878580Y-73280590D02*
X132878580Y-73280590D01*
X133021438Y-73375828D01*
X133116676Y-73471066D01*
X133164295Y-73566304D01*
X133211914Y-72137733D02*
X133878580Y-72137733D01*
X132830961Y-72375828D02*
X133545247Y-72613923D01*
X133545247Y-71994876D01*
D12*
%TO.C,R5*%
X128699390Y-74403733D02*
X128461295Y-74570400D01*
X128699390Y-74689447D02*
X128199390Y-74689447D01*
X128199390Y-74498971D01*
X128223200Y-74451352D01*
X128247009Y-74427542D01*
X128294628Y-74403733D01*
X128366057Y-74403733D01*
X128413676Y-74427542D01*
X128437485Y-74451352D01*
X128461295Y-74498971D01*
X128461295Y-74689447D01*
X128199390Y-73951352D02*
X128199390Y-74189447D01*
X128437485Y-74213257D01*
X128413676Y-74189447D01*
X128389866Y-74141828D01*
X128389866Y-74022780D01*
X128413676Y-73975161D01*
X128437485Y-73951352D01*
X128485104Y-73927542D01*
X128604152Y-73927542D01*
X128651771Y-73951352D01*
X128675580Y-73975161D01*
X128699390Y-74022780D01*
X128699390Y-74141828D01*
X128675580Y-74189447D01*
X128651771Y-74213257D01*
D11*
%TO.C,C11*%
X109008942Y-57659542D02*
X108961323Y-57707161D01*
X108818466Y-57754780D01*
X108723228Y-57754780D01*
X108580371Y-57707161D01*
X108485133Y-57611923D01*
X108437514Y-57516685D01*
X108389895Y-57326209D01*
X108389895Y-57183352D01*
X108437514Y-56992876D01*
X108485133Y-56897638D01*
X108580371Y-56802400D01*
X108723228Y-56754780D01*
X108818466Y-56754780D01*
X108961323Y-56802400D01*
X109008942Y-56850019D01*
X109961323Y-57754780D02*
X109389895Y-57754780D01*
X109675609Y-57754780D02*
X109675609Y-56754780D01*
X109580371Y-56897638D01*
X109485133Y-56992876D01*
X109389895Y-57040495D01*
X110913704Y-57754780D02*
X110342276Y-57754780D01*
X110627990Y-57754780D02*
X110627990Y-56754780D01*
X110532752Y-56897638D01*
X110437514Y-56992876D01*
X110342276Y-57040495D01*
%TO.C,C13*%
X122962942Y-64879457D02*
X123010561Y-64927076D01*
X123058180Y-65069933D01*
X123058180Y-65165171D01*
X123010561Y-65308028D01*
X122915323Y-65403266D01*
X122820085Y-65450885D01*
X122629609Y-65498504D01*
X122486752Y-65498504D01*
X122296276Y-65450885D01*
X122201038Y-65403266D01*
X122105800Y-65308028D01*
X122058180Y-65165171D01*
X122058180Y-65069933D01*
X122105800Y-64927076D01*
X122153419Y-64879457D01*
X123058180Y-63927076D02*
X123058180Y-64498504D01*
X123058180Y-64212790D02*
X122058180Y-64212790D01*
X122201038Y-64308028D01*
X122296276Y-64403266D01*
X122343895Y-64498504D01*
X122058180Y-63593742D02*
X122058180Y-62974695D01*
X122439133Y-63308028D01*
X122439133Y-63165171D01*
X122486752Y-63069933D01*
X122534371Y-63022314D01*
X122629609Y-62974695D01*
X122867704Y-62974695D01*
X122962942Y-63022314D01*
X123010561Y-63069933D01*
X123058180Y-63165171D01*
X123058180Y-63450885D01*
X123010561Y-63546123D01*
X122962942Y-63593742D01*
D12*
%TO.C,C4*%
X119736371Y-74378333D02*
X119760180Y-74402142D01*
X119783990Y-74473571D01*
X119783990Y-74521190D01*
X119760180Y-74592619D01*
X119712561Y-74640238D01*
X119664942Y-74664047D01*
X119569704Y-74687857D01*
X119498276Y-74687857D01*
X119403038Y-74664047D01*
X119355419Y-74640238D01*
X119307800Y-74592619D01*
X119283990Y-74521190D01*
X119283990Y-74473571D01*
X119307800Y-74402142D01*
X119331609Y-74378333D01*
X119450657Y-73949761D02*
X119783990Y-73949761D01*
X119260180Y-74068809D02*
X119617323Y-74187857D01*
X119617323Y-73878333D01*
%TO.C,R12*%
X122069990Y-74413228D02*
X121831895Y-74579895D01*
X122069990Y-74698942D02*
X121569990Y-74698942D01*
X121569990Y-74508466D01*
X121593800Y-74460847D01*
X121617609Y-74437038D01*
X121665228Y-74413228D01*
X121736657Y-74413228D01*
X121784276Y-74437038D01*
X121808085Y-74460847D01*
X121831895Y-74508466D01*
X121831895Y-74698942D01*
X122069990Y-73937038D02*
X122069990Y-74222752D01*
X122069990Y-74079895D02*
X121569990Y-74079895D01*
X121641419Y-74127514D01*
X121689038Y-74175133D01*
X121712847Y-74222752D01*
X121617609Y-73746561D02*
X121593800Y-73722752D01*
X121569990Y-73675133D01*
X121569990Y-73556085D01*
X121593800Y-73508466D01*
X121617609Y-73484657D01*
X121665228Y-73460847D01*
X121712847Y-73460847D01*
X121784276Y-73484657D01*
X122069990Y-73770371D01*
X122069990Y-73460847D01*
D11*
%TO.C,R21*%
X136342380Y-73947257D02*
X135866190Y-74280590D01*
X136342380Y-74518685D02*
X135342380Y-74518685D01*
X135342380Y-74137733D01*
X135390000Y-74042495D01*
X135437619Y-73994876D01*
X135532857Y-73947257D01*
X135675714Y-73947257D01*
X135770952Y-73994876D01*
X135818571Y-74042495D01*
X135866190Y-74137733D01*
X135866190Y-74518685D01*
X135437619Y-73566304D02*
X135390000Y-73518685D01*
X135342380Y-73423447D01*
X135342380Y-73185352D01*
X135390000Y-73090114D01*
X135437619Y-73042495D01*
X135532857Y-72994876D01*
X135628095Y-72994876D01*
X135770952Y-73042495D01*
X136342380Y-73613923D01*
X136342380Y-72994876D01*
X136342380Y-72042495D02*
X136342380Y-72613923D01*
X136342380Y-72328209D02*
X135342380Y-72328209D01*
X135485238Y-72423447D01*
X135580476Y-72518685D01*
X135628095Y-72613923D01*
%TO.C,R31*%
X120365780Y-64879457D02*
X119889590Y-65212790D01*
X120365780Y-65450885D02*
X119365780Y-65450885D01*
X119365780Y-65069933D01*
X119413400Y-64974695D01*
X119461019Y-64927076D01*
X119556257Y-64879457D01*
X119699114Y-64879457D01*
X119794352Y-64927076D01*
X119841971Y-64974695D01*
X119889590Y-65069933D01*
X119889590Y-65450885D01*
X119365780Y-64546123D02*
X119365780Y-63927076D01*
X119746733Y-64260409D01*
X119746733Y-64117552D01*
X119794352Y-64022314D01*
X119841971Y-63974695D01*
X119937209Y-63927076D01*
X120175304Y-63927076D01*
X120270542Y-63974695D01*
X120318161Y-64022314D01*
X120365780Y-64117552D01*
X120365780Y-64403266D01*
X120318161Y-64498504D01*
X120270542Y-64546123D01*
X120365780Y-62974695D02*
X120365780Y-63546123D01*
X120365780Y-63260409D02*
X119365780Y-63260409D01*
X119508638Y-63355647D01*
X119603876Y-63450885D01*
X119651495Y-63546123D01*
%TO.C,L1*%
X85355133Y-96388180D02*
X84878942Y-96388180D01*
X84878942Y-95388180D01*
X86212276Y-96388180D02*
X85640847Y-96388180D01*
X85926561Y-96388180D02*
X85926561Y-95388180D01*
X85831323Y-95531038D01*
X85736085Y-95626276D01*
X85640847Y-95673895D01*
%TO.C,C12*%
X118213142Y-64879457D02*
X118260761Y-64927076D01*
X118308380Y-65069933D01*
X118308380Y-65165171D01*
X118260761Y-65308028D01*
X118165523Y-65403266D01*
X118070285Y-65450885D01*
X117879809Y-65498504D01*
X117736952Y-65498504D01*
X117546476Y-65450885D01*
X117451238Y-65403266D01*
X117356000Y-65308028D01*
X117308380Y-65165171D01*
X117308380Y-65069933D01*
X117356000Y-64927076D01*
X117403619Y-64879457D01*
X118308380Y-63927076D02*
X118308380Y-64498504D01*
X118308380Y-64212790D02*
X117308380Y-64212790D01*
X117451238Y-64308028D01*
X117546476Y-64403266D01*
X117594095Y-64498504D01*
X117403619Y-63546123D02*
X117356000Y-63498504D01*
X117308380Y-63403266D01*
X117308380Y-63165171D01*
X117356000Y-63069933D01*
X117403619Y-63022314D01*
X117498857Y-62974695D01*
X117594095Y-62974695D01*
X117736952Y-63022314D01*
X118308380Y-63593742D01*
X118308380Y-62974695D01*
D12*
%TO.C,R6*%
X117193190Y-74403733D02*
X116955095Y-74570400D01*
X117193190Y-74689447D02*
X116693190Y-74689447D01*
X116693190Y-74498971D01*
X116717000Y-74451352D01*
X116740809Y-74427542D01*
X116788428Y-74403733D01*
X116859857Y-74403733D01*
X116907476Y-74427542D01*
X116931285Y-74451352D01*
X116955095Y-74498971D01*
X116955095Y-74689447D01*
X116693190Y-73975161D02*
X116693190Y-74070400D01*
X116717000Y-74118019D01*
X116740809Y-74141828D01*
X116812238Y-74189447D01*
X116907476Y-74213257D01*
X117097952Y-74213257D01*
X117145571Y-74189447D01*
X117169380Y-74165638D01*
X117193190Y-74118019D01*
X117193190Y-74022780D01*
X117169380Y-73975161D01*
X117145571Y-73951352D01*
X117097952Y-73927542D01*
X116978904Y-73927542D01*
X116931285Y-73951352D01*
X116907476Y-73975161D01*
X116883666Y-74022780D01*
X116883666Y-74118019D01*
X116907476Y-74165638D01*
X116931285Y-74189447D01*
X116978904Y-74213257D01*
D11*
%TO.C,C7*%
X97715342Y-73902866D02*
X97762961Y-73950485D01*
X97810580Y-74093342D01*
X97810580Y-74188580D01*
X97762961Y-74331438D01*
X97667723Y-74426676D01*
X97572485Y-74474295D01*
X97382009Y-74521914D01*
X97239152Y-74521914D01*
X97048676Y-74474295D01*
X96953438Y-74426676D01*
X96858200Y-74331438D01*
X96810580Y-74188580D01*
X96810580Y-74093342D01*
X96858200Y-73950485D01*
X96905819Y-73902866D01*
X96810580Y-73569533D02*
X96810580Y-72902866D01*
X97810580Y-73331438D01*
%TO.C,R15*%
X99867980Y-73947257D02*
X99391790Y-74280590D01*
X99867980Y-74518685D02*
X98867980Y-74518685D01*
X98867980Y-74137733D01*
X98915600Y-74042495D01*
X98963219Y-73994876D01*
X99058457Y-73947257D01*
X99201314Y-73947257D01*
X99296552Y-73994876D01*
X99344171Y-74042495D01*
X99391790Y-74137733D01*
X99391790Y-74518685D01*
X99867980Y-72994876D02*
X99867980Y-73566304D01*
X99867980Y-73280590D02*
X98867980Y-73280590D01*
X99010838Y-73375828D01*
X99106076Y-73471066D01*
X99153695Y-73566304D01*
X98867980Y-72090114D02*
X98867980Y-72566304D01*
X99344171Y-72613923D01*
X99296552Y-72566304D01*
X99248933Y-72471066D01*
X99248933Y-72232971D01*
X99296552Y-72137733D01*
X99344171Y-72090114D01*
X99439409Y-72042495D01*
X99677504Y-72042495D01*
X99772742Y-72090114D01*
X99820361Y-72137733D01*
X99867980Y-72232971D01*
X99867980Y-72471066D01*
X99820361Y-72566304D01*
X99772742Y-72613923D01*
%TO.C,U8*%
X117576695Y-52970180D02*
X117576695Y-53779704D01*
X117624314Y-53874942D01*
X117671933Y-53922561D01*
X117767171Y-53970180D01*
X117957647Y-53970180D01*
X118052885Y-53922561D01*
X118100504Y-53874942D01*
X118148123Y-53779704D01*
X118148123Y-52970180D01*
X118767171Y-53398752D02*
X118671933Y-53351133D01*
X118624314Y-53303514D01*
X118576695Y-53208276D01*
X118576695Y-53160657D01*
X118624314Y-53065419D01*
X118671933Y-53017800D01*
X118767171Y-52970180D01*
X118957647Y-52970180D01*
X119052885Y-53017800D01*
X119100504Y-53065419D01*
X119148123Y-53160657D01*
X119148123Y-53208276D01*
X119100504Y-53303514D01*
X119052885Y-53351133D01*
X118957647Y-53398752D01*
X118767171Y-53398752D01*
X118671933Y-53446371D01*
X118624314Y-53493990D01*
X118576695Y-53589228D01*
X118576695Y-53779704D01*
X118624314Y-53874942D01*
X118671933Y-53922561D01*
X118767171Y-53970180D01*
X118957647Y-53970180D01*
X119052885Y-53922561D01*
X119100504Y-53874942D01*
X119148123Y-53779704D01*
X119148123Y-53589228D01*
X119100504Y-53493990D01*
X119052885Y-53446371D01*
X118957647Y-53398752D01*
%TO.C,U7*%
X148082095Y-83424780D02*
X148082095Y-84234304D01*
X148129714Y-84329542D01*
X148177333Y-84377161D01*
X148272571Y-84424780D01*
X148463047Y-84424780D01*
X148558285Y-84377161D01*
X148605904Y-84329542D01*
X148653523Y-84234304D01*
X148653523Y-83424780D01*
X149034476Y-83424780D02*
X149701142Y-83424780D01*
X149272571Y-84424780D01*
%TO.C,F1*%
X98840570Y-56829173D02*
X98604868Y-56593470D01*
X98234478Y-56963860D02*
X98941585Y-56256753D01*
X99278303Y-56593470D01*
X99210959Y-57940340D02*
X98806898Y-57536279D01*
X99008929Y-57738310D02*
X99716035Y-57031203D01*
X99547677Y-57064875D01*
X99412990Y-57064875D01*
X99311974Y-57031203D01*
D12*
%TO.C,R2*%
X124635390Y-74403733D02*
X124397295Y-74570400D01*
X124635390Y-74689447D02*
X124135390Y-74689447D01*
X124135390Y-74498971D01*
X124159200Y-74451352D01*
X124183009Y-74427542D01*
X124230628Y-74403733D01*
X124302057Y-74403733D01*
X124349676Y-74427542D01*
X124373485Y-74451352D01*
X124397295Y-74498971D01*
X124397295Y-74689447D01*
X124183009Y-74213257D02*
X124159200Y-74189447D01*
X124135390Y-74141828D01*
X124135390Y-74022780D01*
X124159200Y-73975161D01*
X124183009Y-73951352D01*
X124230628Y-73927542D01*
X124278247Y-73927542D01*
X124349676Y-73951352D01*
X124635390Y-74237066D01*
X124635390Y-73927542D01*
D11*
%TO.C,Q5*%
X134533481Y-64259368D02*
X134432466Y-64293040D01*
X134297779Y-64293040D01*
X134095748Y-64293040D01*
X133994733Y-64326712D01*
X133927390Y-64394055D01*
X134129420Y-64528742D02*
X134028405Y-64562414D01*
X133893718Y-64562414D01*
X133725359Y-64461399D01*
X133489657Y-64225696D01*
X133388642Y-64057338D01*
X133388642Y-63922651D01*
X133422313Y-63821635D01*
X133557000Y-63686948D01*
X133658016Y-63653277D01*
X133792703Y-63653277D01*
X133961061Y-63754292D01*
X134196764Y-63989994D01*
X134297779Y-64158353D01*
X134297779Y-64293040D01*
X134264107Y-64394055D01*
X134129420Y-64528742D01*
X134365122Y-62878826D02*
X134028405Y-63215544D01*
X134331451Y-63585933D01*
X134331451Y-63518590D01*
X134365122Y-63417574D01*
X134533481Y-63249216D01*
X134634496Y-63215544D01*
X134701840Y-63215544D01*
X134802855Y-63249216D01*
X134971214Y-63417574D01*
X135004886Y-63518590D01*
X135004886Y-63585933D01*
X134971214Y-63686948D01*
X134802855Y-63855307D01*
X134701840Y-63888979D01*
X134634496Y-63888979D01*
%TO.C,R23*%
X101899980Y-74150457D02*
X101423790Y-74483790D01*
X101899980Y-74721885D02*
X100899980Y-74721885D01*
X100899980Y-74340933D01*
X100947600Y-74245695D01*
X100995219Y-74198076D01*
X101090457Y-74150457D01*
X101233314Y-74150457D01*
X101328552Y-74198076D01*
X101376171Y-74245695D01*
X101423790Y-74340933D01*
X101423790Y-74721885D01*
X100995219Y-73769504D02*
X100947600Y-73721885D01*
X100899980Y-73626647D01*
X100899980Y-73388552D01*
X100947600Y-73293314D01*
X100995219Y-73245695D01*
X101090457Y-73198076D01*
X101185695Y-73198076D01*
X101328552Y-73245695D01*
X101899980Y-73817123D01*
X101899980Y-73198076D01*
X100899980Y-72864742D02*
X100899980Y-72245695D01*
X101280933Y-72579028D01*
X101280933Y-72436171D01*
X101328552Y-72340933D01*
X101376171Y-72293314D01*
X101471409Y-72245695D01*
X101709504Y-72245695D01*
X101804742Y-72293314D01*
X101852361Y-72340933D01*
X101899980Y-72436171D01*
X101899980Y-72721885D01*
X101852361Y-72817123D01*
X101804742Y-72864742D01*
%TO.C,R16*%
X140406380Y-73972657D02*
X139930190Y-74305990D01*
X140406380Y-74544085D02*
X139406380Y-74544085D01*
X139406380Y-74163133D01*
X139454000Y-74067895D01*
X139501619Y-74020276D01*
X139596857Y-73972657D01*
X139739714Y-73972657D01*
X139834952Y-74020276D01*
X139882571Y-74067895D01*
X139930190Y-74163133D01*
X139930190Y-74544085D01*
X140406380Y-73020276D02*
X140406380Y-73591704D01*
X140406380Y-73305990D02*
X139406380Y-73305990D01*
X139549238Y-73401228D01*
X139644476Y-73496466D01*
X139692095Y-73591704D01*
X139406380Y-72163133D02*
X139406380Y-72353609D01*
X139454000Y-72448847D01*
X139501619Y-72496466D01*
X139644476Y-72591704D01*
X139834952Y-72639323D01*
X140215904Y-72639323D01*
X140311142Y-72591704D01*
X140358761Y-72544085D01*
X140406380Y-72448847D01*
X140406380Y-72258371D01*
X140358761Y-72163133D01*
X140311142Y-72115514D01*
X140215904Y-72067895D01*
X139977809Y-72067895D01*
X139882571Y-72115514D01*
X139834952Y-72163133D01*
X139787333Y-72258371D01*
X139787333Y-72448847D01*
X139834952Y-72544085D01*
X139882571Y-72591704D01*
X139977809Y-72639323D01*
%TO.C,R33*%
X136060112Y-67246250D02*
X135487693Y-67145235D01*
X135656051Y-67650311D02*
X134948945Y-66943204D01*
X135218319Y-66673830D01*
X135319334Y-66640158D01*
X135386677Y-66640158D01*
X135487693Y-66673830D01*
X135588708Y-66774845D01*
X135622380Y-66875861D01*
X135622380Y-66943204D01*
X135588708Y-67044219D01*
X135319334Y-67313593D01*
X135588708Y-66303441D02*
X136026441Y-65865708D01*
X136060112Y-66370784D01*
X136161128Y-66269769D01*
X136262143Y-66236097D01*
X136329487Y-66236097D01*
X136430502Y-66269769D01*
X136598861Y-66438128D01*
X136632532Y-66539143D01*
X136632532Y-66606487D01*
X136598861Y-66707502D01*
X136396830Y-66909532D01*
X136295815Y-66943204D01*
X136228471Y-66943204D01*
X136262143Y-65630006D02*
X136699876Y-65192273D01*
X136733548Y-65697349D01*
X136834563Y-65596334D01*
X136935578Y-65562662D01*
X137002922Y-65562662D01*
X137103937Y-65596334D01*
X137272296Y-65764693D01*
X137305967Y-65865708D01*
X137305967Y-65933051D01*
X137272296Y-66034067D01*
X137070265Y-66236097D01*
X136969250Y-66269769D01*
X136901906Y-66269769D01*
%TO.C,R17*%
X105963980Y-73972657D02*
X105487790Y-74305990D01*
X105963980Y-74544085D02*
X104963980Y-74544085D01*
X104963980Y-74163133D01*
X105011600Y-74067895D01*
X105059219Y-74020276D01*
X105154457Y-73972657D01*
X105297314Y-73972657D01*
X105392552Y-74020276D01*
X105440171Y-74067895D01*
X105487790Y-74163133D01*
X105487790Y-74544085D01*
X105963980Y-73020276D02*
X105963980Y-73591704D01*
X105963980Y-73305990D02*
X104963980Y-73305990D01*
X105106838Y-73401228D01*
X105202076Y-73496466D01*
X105249695Y-73591704D01*
X104963980Y-72686942D02*
X104963980Y-72020276D01*
X105963980Y-72448847D01*
%TO.C,R32*%
X154301180Y-78849457D02*
X153824990Y-79182790D01*
X154301180Y-79420885D02*
X153301180Y-79420885D01*
X153301180Y-79039933D01*
X153348800Y-78944695D01*
X153396419Y-78897076D01*
X153491657Y-78849457D01*
X153634514Y-78849457D01*
X153729752Y-78897076D01*
X153777371Y-78944695D01*
X153824990Y-79039933D01*
X153824990Y-79420885D01*
X153301180Y-78516123D02*
X153301180Y-77897076D01*
X153682133Y-78230409D01*
X153682133Y-78087552D01*
X153729752Y-77992314D01*
X153777371Y-77944695D01*
X153872609Y-77897076D01*
X154110704Y-77897076D01*
X154205942Y-77944695D01*
X154253561Y-77992314D01*
X154301180Y-78087552D01*
X154301180Y-78373266D01*
X154253561Y-78468504D01*
X154205942Y-78516123D01*
X153396419Y-77516123D02*
X153348800Y-77468504D01*
X153301180Y-77373266D01*
X153301180Y-77135171D01*
X153348800Y-77039933D01*
X153396419Y-76992314D01*
X153491657Y-76944695D01*
X153586895Y-76944695D01*
X153729752Y-76992314D01*
X154301180Y-77563742D01*
X154301180Y-76944695D01*
%TO.C,R22*%
X103931980Y-73947257D02*
X103455790Y-74280590D01*
X103931980Y-74518685D02*
X102931980Y-74518685D01*
X102931980Y-74137733D01*
X102979600Y-74042495D01*
X103027219Y-73994876D01*
X103122457Y-73947257D01*
X103265314Y-73947257D01*
X103360552Y-73994876D01*
X103408171Y-74042495D01*
X103455790Y-74137733D01*
X103455790Y-74518685D01*
X103027219Y-73566304D02*
X102979600Y-73518685D01*
X102931980Y-73423447D01*
X102931980Y-73185352D01*
X102979600Y-73090114D01*
X103027219Y-73042495D01*
X103122457Y-72994876D01*
X103217695Y-72994876D01*
X103360552Y-73042495D01*
X103931980Y-73613923D01*
X103931980Y-72994876D01*
X103027219Y-72613923D02*
X102979600Y-72566304D01*
X102931980Y-72471066D01*
X102931980Y-72232971D01*
X102979600Y-72137733D01*
X103027219Y-72090114D01*
X103122457Y-72042495D01*
X103217695Y-72042495D01*
X103360552Y-72090114D01*
X103931980Y-72661542D01*
X103931980Y-72042495D01*
D12*
%TO.C,R4*%
X113611790Y-74403733D02*
X113373695Y-74570400D01*
X113611790Y-74689447D02*
X113111790Y-74689447D01*
X113111790Y-74498971D01*
X113135600Y-74451352D01*
X113159409Y-74427542D01*
X113207028Y-74403733D01*
X113278457Y-74403733D01*
X113326076Y-74427542D01*
X113349885Y-74451352D01*
X113373695Y-74498971D01*
X113373695Y-74689447D01*
X113278457Y-73975161D02*
X113611790Y-73975161D01*
X113087980Y-74094209D02*
X113445123Y-74213257D01*
X113445123Y-73903733D01*
D11*
%TO.C,U2*%
X123367895Y-96658180D02*
X123367895Y-97467704D01*
X123415514Y-97562942D01*
X123463133Y-97610561D01*
X123558371Y-97658180D01*
X123748847Y-97658180D01*
X123844085Y-97610561D01*
X123891704Y-97562942D01*
X123939323Y-97467704D01*
X123939323Y-96658180D01*
X124367895Y-96753419D02*
X124415514Y-96705800D01*
X124510752Y-96658180D01*
X124748847Y-96658180D01*
X124844085Y-96705800D01*
X124891704Y-96753419D01*
X124939323Y-96848657D01*
X124939323Y-96943895D01*
X124891704Y-97086752D01*
X124320276Y-97658180D01*
X124939323Y-97658180D01*
%TO.C,C3*%
X72223333Y-93473542D02*
X72175714Y-93521161D01*
X72032857Y-93568780D01*
X71937619Y-93568780D01*
X71794761Y-93521161D01*
X71699523Y-93425923D01*
X71651904Y-93330685D01*
X71604285Y-93140209D01*
X71604285Y-92997352D01*
X71651904Y-92806876D01*
X71699523Y-92711638D01*
X71794761Y-92616400D01*
X71937619Y-92568780D01*
X72032857Y-92568780D01*
X72175714Y-92616400D01*
X72223333Y-92664019D01*
X72556666Y-92568780D02*
X73175714Y-92568780D01*
X72842380Y-92949733D01*
X72985238Y-92949733D01*
X73080476Y-92997352D01*
X73128095Y-93044971D01*
X73175714Y-93140209D01*
X73175714Y-93378304D01*
X73128095Y-93473542D01*
X73080476Y-93521161D01*
X72985238Y-93568780D01*
X72699523Y-93568780D01*
X72604285Y-93521161D01*
X72556666Y-93473542D01*
%TO.C,R27*%
X108958142Y-53639980D02*
X108624809Y-53163790D01*
X108386714Y-53639980D02*
X108386714Y-52639980D01*
X108767666Y-52639980D01*
X108862904Y-52687600D01*
X108910523Y-52735219D01*
X108958142Y-52830457D01*
X108958142Y-52973314D01*
X108910523Y-53068552D01*
X108862904Y-53116171D01*
X108767666Y-53163790D01*
X108386714Y-53163790D01*
X109339095Y-52735219D02*
X109386714Y-52687600D01*
X109481952Y-52639980D01*
X109720047Y-52639980D01*
X109815285Y-52687600D01*
X109862904Y-52735219D01*
X109910523Y-52830457D01*
X109910523Y-52925695D01*
X109862904Y-53068552D01*
X109291476Y-53639980D01*
X109910523Y-53639980D01*
X110243857Y-52639980D02*
X110910523Y-52639980D01*
X110481952Y-53639980D01*
%TO.C,Enc2*%
X102695571Y-99750571D02*
X103028904Y-99750571D01*
X103171761Y-100274380D02*
X102695571Y-100274380D01*
X102695571Y-99274380D01*
X103171761Y-99274380D01*
X103600333Y-99607714D02*
X103600333Y-100274380D01*
X103600333Y-99702952D02*
X103647952Y-99655333D01*
X103743190Y-99607714D01*
X103886047Y-99607714D01*
X103981285Y-99655333D01*
X104028904Y-99750571D01*
X104028904Y-100274380D01*
X104933666Y-100226761D02*
X104838428Y-100274380D01*
X104647952Y-100274380D01*
X104552714Y-100226761D01*
X104505095Y-100179142D01*
X104457476Y-100083904D01*
X104457476Y-99798190D01*
X104505095Y-99702952D01*
X104552714Y-99655333D01*
X104647952Y-99607714D01*
X104838428Y-99607714D01*
X104933666Y-99655333D01*
X105314619Y-99369619D02*
X105362238Y-99322000D01*
X105457476Y-99274380D01*
X105695571Y-99274380D01*
X105790809Y-99322000D01*
X105838428Y-99369619D01*
X105886047Y-99464857D01*
X105886047Y-99560095D01*
X105838428Y-99702952D01*
X105267000Y-100274380D01*
X105886047Y-100274380D01*
D12*
%TO.C,R1*%
X126667390Y-74403733D02*
X126429295Y-74570400D01*
X126667390Y-74689447D02*
X126167390Y-74689447D01*
X126167390Y-74498971D01*
X126191200Y-74451352D01*
X126215009Y-74427542D01*
X126262628Y-74403733D01*
X126334057Y-74403733D01*
X126381676Y-74427542D01*
X126405485Y-74451352D01*
X126429295Y-74498971D01*
X126429295Y-74689447D01*
X126667390Y-73927542D02*
X126667390Y-74213257D01*
X126667390Y-74070400D02*
X126167390Y-74070400D01*
X126238819Y-74118019D01*
X126286438Y-74165638D01*
X126310247Y-74213257D01*
%TO.C,C5*%
X108992171Y-74378333D02*
X109015980Y-74402142D01*
X109039790Y-74473571D01*
X109039790Y-74521190D01*
X109015980Y-74592619D01*
X108968361Y-74640238D01*
X108920742Y-74664047D01*
X108825504Y-74687857D01*
X108754076Y-74687857D01*
X108658838Y-74664047D01*
X108611219Y-74640238D01*
X108563600Y-74592619D01*
X108539790Y-74521190D01*
X108539790Y-74473571D01*
X108563600Y-74402142D01*
X108587409Y-74378333D01*
X108539790Y-73925952D02*
X108539790Y-74164047D01*
X108777885Y-74187857D01*
X108754076Y-74164047D01*
X108730266Y-74116428D01*
X108730266Y-73997380D01*
X108754076Y-73949761D01*
X108777885Y-73925952D01*
X108825504Y-73902142D01*
X108944552Y-73902142D01*
X108992171Y-73925952D01*
X109015980Y-73949761D01*
X109039790Y-73997380D01*
X109039790Y-74116428D01*
X109015980Y-74164047D01*
X108992171Y-74187857D01*
D11*
%TO.C,Enc1*%
X130787971Y-99725171D02*
X131121304Y-99725171D01*
X131264161Y-100248980D02*
X130787971Y-100248980D01*
X130787971Y-99248980D01*
X131264161Y-99248980D01*
X131692733Y-99582314D02*
X131692733Y-100248980D01*
X131692733Y-99677552D02*
X131740352Y-99629933D01*
X131835590Y-99582314D01*
X131978447Y-99582314D01*
X132073685Y-99629933D01*
X132121304Y-99725171D01*
X132121304Y-100248980D01*
X133026066Y-100201361D02*
X132930828Y-100248980D01*
X132740352Y-100248980D01*
X132645114Y-100201361D01*
X132597495Y-100153742D01*
X132549876Y-100058504D01*
X132549876Y-99772790D01*
X132597495Y-99677552D01*
X132645114Y-99629933D01*
X132740352Y-99582314D01*
X132930828Y-99582314D01*
X133026066Y-99629933D01*
X133978447Y-100248980D02*
X133407019Y-100248980D01*
X133692733Y-100248980D02*
X133692733Y-99248980D01*
X133597495Y-99391838D01*
X133502257Y-99487076D01*
X133407019Y-99534695D01*
%TO.C,U6*%
X104800495Y-96658180D02*
X104800495Y-97467704D01*
X104848114Y-97562942D01*
X104895733Y-97610561D01*
X104990971Y-97658180D01*
X105181447Y-97658180D01*
X105276685Y-97610561D01*
X105324304Y-97562942D01*
X105371923Y-97467704D01*
X105371923Y-96658180D01*
X106276685Y-96658180D02*
X106086209Y-96658180D01*
X105990971Y-96705800D01*
X105943352Y-96753419D01*
X105848114Y-96896276D01*
X105800495Y-97086752D01*
X105800495Y-97467704D01*
X105848114Y-97562942D01*
X105895733Y-97610561D01*
X105990971Y-97658180D01*
X106181447Y-97658180D01*
X106276685Y-97610561D01*
X106324304Y-97562942D01*
X106371923Y-97467704D01*
X106371923Y-97229609D01*
X106324304Y-97134371D01*
X106276685Y-97086752D01*
X106181447Y-97039133D01*
X105990971Y-97039133D01*
X105895733Y-97086752D01*
X105848114Y-97134371D01*
X105800495Y-97229609D01*
%TO.C,R26*%
X100901250Y-66504887D02*
X100800235Y-67077306D01*
X101305311Y-66908948D02*
X100598204Y-67616054D01*
X100328830Y-67346680D01*
X100295158Y-67245665D01*
X100295158Y-67178322D01*
X100328830Y-67077306D01*
X100429845Y-66976291D01*
X100530861Y-66942619D01*
X100598204Y-66942619D01*
X100699219Y-66976291D01*
X100968593Y-67245665D01*
X99992112Y-66875276D02*
X99924769Y-66875276D01*
X99823754Y-66841604D01*
X99655395Y-66673245D01*
X99621723Y-66572230D01*
X99621723Y-66504887D01*
X99655395Y-66403871D01*
X99722738Y-66336528D01*
X99857425Y-66269184D01*
X100665548Y-66269184D01*
X100227815Y-65831451D01*
X98914616Y-65932467D02*
X99049303Y-66067154D01*
X99150319Y-66100825D01*
X99217662Y-66100825D01*
X99386021Y-66067154D01*
X99554380Y-65966138D01*
X99823754Y-65696764D01*
X99857425Y-65595749D01*
X99857425Y-65528406D01*
X99823754Y-65427390D01*
X99689067Y-65292703D01*
X99588051Y-65259032D01*
X99520708Y-65259032D01*
X99419693Y-65292703D01*
X99251334Y-65461062D01*
X99217662Y-65562077D01*
X99217662Y-65629421D01*
X99251334Y-65730436D01*
X99386021Y-65865123D01*
X99487036Y-65898795D01*
X99554380Y-65898795D01*
X99655395Y-65865123D01*
D12*
%TO.C,R13*%
X111097190Y-74413228D02*
X110859095Y-74579895D01*
X111097190Y-74698942D02*
X110597190Y-74698942D01*
X110597190Y-74508466D01*
X110621000Y-74460847D01*
X110644809Y-74437038D01*
X110692428Y-74413228D01*
X110763857Y-74413228D01*
X110811476Y-74437038D01*
X110835285Y-74460847D01*
X110859095Y-74508466D01*
X110859095Y-74698942D01*
X111097190Y-73937038D02*
X111097190Y-74222752D01*
X111097190Y-74079895D02*
X110597190Y-74079895D01*
X110668619Y-74127514D01*
X110716238Y-74175133D01*
X110740047Y-74222752D01*
X110597190Y-73770371D02*
X110597190Y-73460847D01*
X110787666Y-73627514D01*
X110787666Y-73556085D01*
X110811476Y-73508466D01*
X110835285Y-73484657D01*
X110882904Y-73460847D01*
X111001952Y-73460847D01*
X111049571Y-73484657D01*
X111073380Y-73508466D01*
X111097190Y-73556085D01*
X111097190Y-73698942D01*
X111073380Y-73746561D01*
X111049571Y-73770371D01*
D11*
%TO.C,C1*%
X158802342Y-84596266D02*
X158849961Y-84643885D01*
X158897580Y-84786742D01*
X158897580Y-84881980D01*
X158849961Y-85024838D01*
X158754723Y-85120076D01*
X158659485Y-85167695D01*
X158469009Y-85215314D01*
X158326152Y-85215314D01*
X158135676Y-85167695D01*
X158040438Y-85120076D01*
X157945200Y-85024838D01*
X157897580Y-84881980D01*
X157897580Y-84786742D01*
X157945200Y-84643885D01*
X157992819Y-84596266D01*
X158897580Y-83643885D02*
X158897580Y-84215314D01*
X158897580Y-83929600D02*
X157897580Y-83929600D01*
X158040438Y-84024838D01*
X158135676Y-84120076D01*
X158183295Y-84215314D01*
%TO.C,C10*%
X144146542Y-73921857D02*
X144194161Y-73969476D01*
X144241780Y-74112333D01*
X144241780Y-74207571D01*
X144194161Y-74350428D01*
X144098923Y-74445666D01*
X144003685Y-74493285D01*
X143813209Y-74540904D01*
X143670352Y-74540904D01*
X143479876Y-74493285D01*
X143384638Y-74445666D01*
X143289400Y-74350428D01*
X143241780Y-74207571D01*
X143241780Y-74112333D01*
X143289400Y-73969476D01*
X143337019Y-73921857D01*
X144241780Y-72969476D02*
X144241780Y-73540904D01*
X144241780Y-73255190D02*
X143241780Y-73255190D01*
X143384638Y-73350428D01*
X143479876Y-73445666D01*
X143527495Y-73540904D01*
X143241780Y-72350428D02*
X143241780Y-72255190D01*
X143289400Y-72159952D01*
X143337019Y-72112333D01*
X143432257Y-72064714D01*
X143622733Y-72017095D01*
X143860828Y-72017095D01*
X144051304Y-72064714D01*
X144146542Y-72112333D01*
X144194161Y-72159952D01*
X144241780Y-72255190D01*
X144241780Y-72350428D01*
X144194161Y-72445666D01*
X144146542Y-72493285D01*
X144051304Y-72540904D01*
X143860828Y-72588523D01*
X143622733Y-72588523D01*
X143432257Y-72540904D01*
X143337019Y-72493285D01*
X143289400Y-72445666D01*
X143241780Y-72350428D01*
%TO.C,Batt1*%
X149828428Y-101299971D02*
X149971285Y-101347590D01*
X150018904Y-101395209D01*
X150066523Y-101490447D01*
X150066523Y-101633304D01*
X150018904Y-101728542D01*
X149971285Y-101776161D01*
X149876047Y-101823780D01*
X149495095Y-101823780D01*
X149495095Y-100823780D01*
X149828428Y-100823780D01*
X149923666Y-100871400D01*
X149971285Y-100919019D01*
X150018904Y-101014257D01*
X150018904Y-101109495D01*
X149971285Y-101204733D01*
X149923666Y-101252352D01*
X149828428Y-101299971D01*
X149495095Y-101299971D01*
X150923666Y-101823780D02*
X150923666Y-101299971D01*
X150876047Y-101204733D01*
X150780809Y-101157114D01*
X150590333Y-101157114D01*
X150495095Y-101204733D01*
X150923666Y-101776161D02*
X150828428Y-101823780D01*
X150590333Y-101823780D01*
X150495095Y-101776161D01*
X150447476Y-101680923D01*
X150447476Y-101585685D01*
X150495095Y-101490447D01*
X150590333Y-101442828D01*
X150828428Y-101442828D01*
X150923666Y-101395209D01*
X151257000Y-101157114D02*
X151637952Y-101157114D01*
X151399857Y-100823780D02*
X151399857Y-101680923D01*
X151447476Y-101776161D01*
X151542714Y-101823780D01*
X151637952Y-101823780D01*
X151828428Y-101157114D02*
X152209380Y-101157114D01*
X151971285Y-100823780D02*
X151971285Y-101680923D01*
X152018904Y-101776161D01*
X152114142Y-101823780D01*
X152209380Y-101823780D01*
X153066523Y-101823780D02*
X152495095Y-101823780D01*
X152780809Y-101823780D02*
X152780809Y-100823780D01*
X152685571Y-100966638D01*
X152590333Y-101061876D01*
X152495095Y-101109495D01*
%TO.C,R30*%
X126153942Y-55671980D02*
X125820609Y-55195790D01*
X125582514Y-55671980D02*
X125582514Y-54671980D01*
X125963466Y-54671980D01*
X126058704Y-54719600D01*
X126106323Y-54767219D01*
X126153942Y-54862457D01*
X126153942Y-55005314D01*
X126106323Y-55100552D01*
X126058704Y-55148171D01*
X125963466Y-55195790D01*
X125582514Y-55195790D01*
X126487276Y-54671980D02*
X127106323Y-54671980D01*
X126772990Y-55052933D01*
X126915847Y-55052933D01*
X127011085Y-55100552D01*
X127058704Y-55148171D01*
X127106323Y-55243409D01*
X127106323Y-55481504D01*
X127058704Y-55576742D01*
X127011085Y-55624361D01*
X126915847Y-55671980D01*
X126630133Y-55671980D01*
X126534895Y-55624361D01*
X126487276Y-55576742D01*
X127725371Y-54671980D02*
X127820609Y-54671980D01*
X127915847Y-54719600D01*
X127963466Y-54767219D01*
X128011085Y-54862457D01*
X128058704Y-55052933D01*
X128058704Y-55291028D01*
X128011085Y-55481504D01*
X127963466Y-55576742D01*
X127915847Y-55624361D01*
X127820609Y-55671980D01*
X127725371Y-55671980D01*
X127630133Y-55624361D01*
X127582514Y-55576742D01*
X127534895Y-55481504D01*
X127487276Y-55291028D01*
X127487276Y-55052933D01*
X127534895Y-54862457D01*
X127582514Y-54767219D01*
X127630133Y-54719600D01*
X127725371Y-54671980D01*
D12*
%TO.C,R3*%
X115161190Y-74403733D02*
X114923095Y-74570400D01*
X115161190Y-74689447D02*
X114661190Y-74689447D01*
X114661190Y-74498971D01*
X114685000Y-74451352D01*
X114708809Y-74427542D01*
X114756428Y-74403733D01*
X114827857Y-74403733D01*
X114875476Y-74427542D01*
X114899285Y-74451352D01*
X114923095Y-74498971D01*
X114923095Y-74689447D01*
X114661190Y-74237066D02*
X114661190Y-73927542D01*
X114851666Y-74094209D01*
X114851666Y-74022780D01*
X114875476Y-73975161D01*
X114899285Y-73951352D01*
X114946904Y-73927542D01*
X115065952Y-73927542D01*
X115113571Y-73951352D01*
X115137380Y-73975161D01*
X115161190Y-74022780D01*
X115161190Y-74165638D01*
X115137380Y-74213257D01*
X115113571Y-74237066D01*
D13*
%TO.C,D2*%
X116478600Y-50094000D02*
X116478600Y-52014000D01*
X116478600Y-52014000D02*
X119338600Y-52014000D01*
X119338600Y-50094000D02*
X116478600Y-50094000D01*
%TO.C,U3*%
X117323600Y-84335600D02*
X117823600Y-84335600D01*
X117823600Y-84335600D02*
X117823600Y-85535600D01*
X117323600Y-79910600D02*
X117323600Y-84335600D01*
X107423600Y-85535600D02*
X107423600Y-84335600D01*
X107923600Y-84335600D02*
X107823600Y-84335600D01*
X107423600Y-84335600D02*
X107823600Y-84335600D01*
X107923600Y-83635600D02*
X107923600Y-84335600D01*
%TO.C,R20*%
X138657000Y-76909664D02*
X138657000Y-76455536D01*
X137187000Y-76909664D02*
X137187000Y-76455536D01*
%TO.C,R29*%
X116533600Y-61196464D02*
X116533600Y-60742336D01*
X115063600Y-61196464D02*
X115063600Y-60742336D01*
%TO.C,C6*%
X132535600Y-76918452D02*
X132535600Y-76395948D01*
X131065600Y-76918452D02*
X131065600Y-76395948D01*
%TO.C,R28*%
X113485664Y-55954600D02*
X113031536Y-55954600D01*
X113485664Y-54484600D02*
X113031536Y-54484600D01*
%TO.C,R24*%
X123064536Y-52452600D02*
X123518664Y-52452600D01*
X123064536Y-53922600D02*
X123518664Y-53922600D01*
%TO.C,Q3*%
X101331487Y-60441113D02*
X101791106Y-60900733D01*
X101331487Y-60441113D02*
X100871867Y-59981494D01*
X99125313Y-62647287D02*
X98665694Y-62187667D01*
X99125313Y-62647287D02*
X100309717Y-63831690D01*
%TO.C,U5*%
X130410600Y-84335600D02*
X130810600Y-84335600D01*
X130910600Y-84335600D02*
X130810600Y-84335600D01*
X140810600Y-84335600D02*
X140810600Y-85535600D01*
X140310600Y-79910600D02*
X140310600Y-84335600D01*
X130410600Y-85535600D02*
X130410600Y-84335600D01*
X140310600Y-84335600D02*
X140810600Y-84335600D01*
X130910600Y-83635600D02*
X130910600Y-84335600D01*
%TO.C,Q1*%
X152293000Y-88055600D02*
X152023000Y-88055600D01*
X152293000Y-89555600D02*
X152293000Y-88055600D01*
X145393000Y-88055600D02*
X145663000Y-88055600D01*
X145663000Y-88055600D02*
X145663000Y-86955600D01*
X145393000Y-89555600D02*
X145393000Y-88055600D01*
X152023000Y-88055600D02*
X152023000Y-85225600D01*
%TO.C,F2*%
X137418646Y-58762942D02*
X138359098Y-57822490D01*
X138359098Y-59703394D02*
X137418646Y-58762942D01*
X139257124Y-60601420D02*
X144687704Y-66032000D01*
X144687704Y-66032000D02*
X146568608Y-64151096D01*
X139257124Y-60601420D02*
X141138028Y-58720516D01*
X141138028Y-58720516D02*
X146568608Y-64151096D01*
%TO.C,R14*%
X134593000Y-76455536D02*
X134593000Y-76909664D01*
X133123000Y-76455536D02*
X133123000Y-76909664D01*
%TO.C,R5*%
X129208200Y-76909664D02*
X129208200Y-76455536D01*
X127738200Y-76909664D02*
X127738200Y-76455536D01*
%TO.C,C11*%
X113469052Y-56567400D02*
X112946548Y-56567400D01*
X113469052Y-58037400D02*
X112946548Y-58037400D01*
%TO.C,C13*%
X121235800Y-60724148D02*
X121235800Y-61246652D01*
X122705800Y-60724148D02*
X122705800Y-61246652D01*
%TO.C,C4*%
X121054800Y-76918452D02*
X121054800Y-76395948D01*
X119584800Y-76918452D02*
X119584800Y-76395948D01*
%TO.C,SW1*%
X164390200Y-94747800D02*
X165140200Y-94747800D01*
X165140200Y-94747800D02*
X165140200Y-85947800D01*
X160640200Y-94747800D02*
X160640200Y-85947800D01*
X160640200Y-94747800D02*
X161390200Y-94747800D01*
X164390200Y-85947800D02*
X165140200Y-85947800D01*
X164840200Y-94747800D02*
X164840200Y-85947800D01*
X160640200Y-85947800D02*
X161390200Y-85947800D01*
%TO.C,R12*%
X123112200Y-76909664D02*
X123112200Y-76455536D01*
X121642200Y-76909664D02*
X121642200Y-76455536D01*
%TO.C,R21*%
X135155000Y-76455536D02*
X135155000Y-76909664D01*
X136625000Y-76455536D02*
X136625000Y-76909664D01*
%TO.C,R31*%
X120648400Y-61161664D02*
X120648400Y-60707536D01*
X119178400Y-61161664D02*
X119178400Y-60707536D01*
%TO.C,L1*%
X79221800Y-94463400D02*
X79221800Y-81863400D01*
X82221800Y-94463400D02*
X79221800Y-94463400D01*
X79221800Y-81863400D02*
X82221800Y-81863400D01*
X91821800Y-81863400D02*
X91821800Y-94463400D01*
X88821800Y-81863400D02*
X91821800Y-81863400D01*
X91821800Y-94463400D02*
X88821800Y-94463400D01*
%TO.C,C12*%
X117121000Y-60724148D02*
X117121000Y-61246652D01*
X118591000Y-60724148D02*
X118591000Y-61246652D01*
%TO.C,R6*%
X117702000Y-76909664D02*
X117702000Y-76455536D01*
X116232000Y-76909664D02*
X116232000Y-76455536D01*
%TO.C,C7*%
X96623200Y-76918452D02*
X96623200Y-76395948D01*
X98093200Y-76918452D02*
X98093200Y-76395948D01*
%TO.C,R15*%
X98680600Y-76455536D02*
X98680600Y-76909664D01*
X100150600Y-76455536D02*
X100150600Y-76909664D01*
D11*
%TO.C,U8*%
X119938600Y-57835600D02*
X119538600Y-57835600D01*
X116738600Y-54635600D02*
X117138600Y-54635600D01*
X119938600Y-54635600D02*
X119538600Y-54635600D01*
X116738600Y-57835600D02*
X116738600Y-57435600D01*
X116738600Y-57835600D02*
X117138600Y-57835600D01*
X119938600Y-57835600D02*
X119938600Y-57435600D01*
X119938600Y-54635600D02*
X119938600Y-55035600D01*
D13*
%TO.C,U7*%
X152254000Y-80640800D02*
X152254000Y-76880800D01*
X145434000Y-76880800D02*
X146694000Y-76880800D01*
X152254000Y-76880800D02*
X150994000Y-76880800D01*
X145434000Y-82890800D02*
X145434000Y-76880800D01*
%TO.C,F1*%
X97378206Y-56882038D02*
X98318658Y-57822490D01*
X95539728Y-58720516D02*
X97420632Y-60601420D01*
X95539728Y-58720516D02*
X90109148Y-64151096D01*
X97420632Y-60601420D02*
X91990052Y-66032000D01*
X90109148Y-64151096D02*
X91990052Y-66032000D01*
X96437754Y-57822490D02*
X97378206Y-56882038D01*
%TO.C,R2*%
X123674200Y-76909664D02*
X123674200Y-76455536D01*
X125144200Y-76909664D02*
X125144200Y-76455536D01*
%TO.C,Q5*%
X135371113Y-60441113D02*
X135830733Y-59981494D01*
X135371113Y-60441113D02*
X134186710Y-61625517D01*
X137577287Y-62647287D02*
X138036906Y-62187667D01*
X137577287Y-62647287D02*
X137117667Y-63106906D01*
%TO.C,R23*%
X100712600Y-76909664D02*
X100712600Y-76455536D01*
X102182600Y-76909664D02*
X102182600Y-76455536D01*
%TO.C,R16*%
X139219000Y-76909664D02*
X139219000Y-76455536D01*
X140689000Y-76909664D02*
X140689000Y-76455536D01*
%TO.C,R33*%
X139652765Y-64942282D02*
X139973882Y-64621165D01*
X138613318Y-63902835D02*
X138934435Y-63581718D01*
%TO.C,R17*%
X106246600Y-76909664D02*
X106246600Y-76455536D01*
X104776600Y-76909664D02*
X104776600Y-76455536D01*
%TO.C,R32*%
X156233800Y-78433664D02*
X156233800Y-77979536D01*
X154763800Y-78433664D02*
X154763800Y-77979536D01*
%TO.C,R22*%
X104214600Y-76909664D02*
X104214600Y-76455536D01*
X102744600Y-76909664D02*
X102744600Y-76455536D01*
%TO.C,R4*%
X112168000Y-76909664D02*
X112168000Y-76455536D01*
X113638000Y-76909664D02*
X113638000Y-76455536D01*
%TO.C,U2*%
X128829800Y-84335600D02*
X129329800Y-84335600D01*
X119429800Y-83635600D02*
X119429800Y-84335600D01*
X129329800Y-84335600D02*
X129329800Y-85535600D01*
X118929800Y-85535600D02*
X118929800Y-84335600D01*
X118929800Y-84335600D02*
X119329800Y-84335600D01*
X119429800Y-84335600D02*
X119329800Y-84335600D01*
X128829800Y-79910600D02*
X128829800Y-84335600D01*
%TO.C,C3*%
X72635237Y-85337600D02*
X71570800Y-86402037D01*
X78390800Y-86402037D02*
X78390800Y-92157600D01*
X77326363Y-85337600D02*
X78390800Y-86402037D01*
X78390800Y-92157600D02*
X76040800Y-92157600D01*
X72635237Y-85337600D02*
X73920800Y-85337600D01*
X76828300Y-84310100D02*
X76828300Y-85097600D01*
X71570800Y-92157600D02*
X73920800Y-92157600D01*
X77326363Y-85337600D02*
X76040800Y-85337600D01*
X71570800Y-86402037D02*
X71570800Y-92157600D01*
X77222050Y-84703850D02*
X76434550Y-84703850D01*
%TO.C,R27*%
X113485664Y-52452600D02*
X113031536Y-52452600D01*
X113485664Y-53922600D02*
X113031536Y-53922600D01*
%TO.C,Enc2*%
X97472600Y-96786600D02*
X97472600Y-97386600D01*
X93192600Y-101806600D02*
X100812600Y-101806600D01*
X100012600Y-96786600D02*
X100012600Y-97386600D01*
X94932600Y-97386600D02*
X96532600Y-97386600D01*
X102192600Y-102806600D02*
X102192600Y-96786600D01*
X93192600Y-101806600D02*
X93442600Y-101276600D01*
X91522600Y-97816600D02*
X91522600Y-101816600D01*
X101612600Y-97386600D02*
X101612600Y-96786600D01*
X94932600Y-96786600D02*
X94932600Y-97386600D01*
X93442600Y-102806600D02*
X93442600Y-101806600D01*
X102192600Y-96786600D02*
X91812600Y-96786600D01*
X100562600Y-102806600D02*
X100562600Y-101806600D01*
X93192600Y-102806600D02*
X93192600Y-101806600D01*
X100562600Y-101276600D02*
X100812600Y-101806600D01*
X92392600Y-97386600D02*
X93992600Y-97386600D01*
X100812600Y-101806600D02*
X100812600Y-102806600D01*
X96532600Y-97386600D02*
X96532600Y-96786600D01*
X93442600Y-101276600D02*
X100562600Y-101276600D01*
X100012600Y-97386600D02*
X101612600Y-97386600D01*
X97472600Y-97386600D02*
X99072600Y-97386600D01*
X91812600Y-102806600D02*
X102192600Y-102806600D01*
X91812600Y-96786600D02*
X91812600Y-102806600D01*
X99072600Y-97386600D02*
X99072600Y-96786600D01*
X92392600Y-96786600D02*
X92392600Y-97386600D01*
X93992600Y-97386600D02*
X93992600Y-96786600D01*
%TO.C,R1*%
X125706200Y-76446136D02*
X125706200Y-76900264D01*
X127176200Y-76446136D02*
X127176200Y-76900264D01*
%TO.C,C5*%
X109548600Y-76918452D02*
X109548600Y-76395948D01*
X108078600Y-76918452D02*
X108078600Y-76395948D01*
%TO.C,Enc1*%
X141770000Y-97386600D02*
X141770000Y-96786600D01*
X144890000Y-96786600D02*
X134510000Y-96786600D01*
X137630000Y-97386600D02*
X139230000Y-97386600D01*
X142710000Y-97386600D02*
X144310000Y-97386600D01*
X135090000Y-97386600D02*
X136690000Y-97386600D01*
X137630000Y-96786600D02*
X137630000Y-97386600D01*
X140170000Y-96786600D02*
X140170000Y-97386600D01*
X136690000Y-97386600D02*
X136690000Y-96786600D01*
X136140000Y-102806600D02*
X136140000Y-101806600D01*
X143510000Y-101806600D02*
X143510000Y-102806600D01*
X144890000Y-102806600D02*
X144890000Y-96786600D01*
X134510000Y-96786600D02*
X134510000Y-102806600D01*
X135890000Y-101806600D02*
X143510000Y-101806600D01*
X135890000Y-101806600D02*
X136140000Y-101276600D01*
X142710000Y-96786600D02*
X142710000Y-97386600D01*
X135090000Y-96786600D02*
X135090000Y-97386600D01*
X140170000Y-97386600D02*
X141770000Y-97386600D01*
X143260000Y-101276600D02*
X143510000Y-101806600D01*
X134220000Y-97816600D02*
X134220000Y-101816600D01*
X143260000Y-102806600D02*
X143260000Y-101806600D01*
X134510000Y-102806600D02*
X144890000Y-102806600D01*
X144310000Y-97386600D02*
X144310000Y-96786600D01*
X136140000Y-101276600D02*
X143260000Y-101276600D01*
X139230000Y-97386600D02*
X139230000Y-96786600D01*
X135890000Y-102806600D02*
X135890000Y-101806600D01*
%TO.C,Button1*%
X109268600Y-65673400D02*
X127408600Y-65673400D01*
X123403600Y-71293400D02*
X123403600Y-73093400D01*
X110293600Y-66783400D02*
X109268600Y-66783400D01*
X110293600Y-67323400D02*
X110293600Y-66783400D01*
X126383600Y-66783400D02*
X126383600Y-67323400D01*
X127408600Y-65673400D02*
X127408600Y-66783400D01*
X127408600Y-66783400D02*
X126383600Y-66783400D01*
X124228600Y-71293400D02*
X123403600Y-71293400D01*
X113273600Y-71293400D02*
X112448600Y-71293400D01*
X109268600Y-66783400D02*
X109268600Y-65673400D01*
%TO.C,U6*%
X96468200Y-84335600D02*
X96368200Y-84335600D01*
X106368200Y-84335600D02*
X106368200Y-85535600D01*
X105868200Y-79910600D02*
X105868200Y-84335600D01*
X96468200Y-83635600D02*
X96468200Y-84335600D01*
X95968200Y-85535600D02*
X95968200Y-84335600D01*
X105868200Y-84335600D02*
X106368200Y-84335600D01*
X95968200Y-84335600D02*
X96368200Y-84335600D01*
%TO.C,R26*%
X96754118Y-64621165D02*
X97075235Y-64942282D01*
X97793565Y-63581718D02*
X98114682Y-63902835D01*
%TO.C,R13*%
X111606000Y-76909664D02*
X111606000Y-76455536D01*
X110136000Y-76909664D02*
X110136000Y-76455536D01*
%TO.C,C1*%
X154514900Y-93540700D02*
X154514900Y-92753200D01*
X152952400Y-91448763D02*
X152952400Y-85693200D01*
X159772400Y-91448763D02*
X159772400Y-85693200D01*
X154016837Y-92513200D02*
X155302400Y-92513200D01*
X158707963Y-92513200D02*
X157422400Y-92513200D01*
X158707963Y-92513200D02*
X159772400Y-91448763D01*
X154121150Y-93146950D02*
X154908650Y-93146950D01*
X154016837Y-92513200D02*
X152952400Y-91448763D01*
X159772400Y-85693200D02*
X157422400Y-85693200D01*
X152952400Y-85693200D02*
X155302400Y-85693200D01*
%TO.C,C10*%
X143054400Y-76395948D02*
X143054400Y-76918452D01*
X144524400Y-76395948D02*
X144524400Y-76918452D01*
%TO.C,Batt1*%
X153862000Y-97501400D02*
X153862000Y-98831400D01*
X151262000Y-100161400D02*
X148662000Y-100161400D01*
X148662000Y-97501400D02*
X148662000Y-100161400D01*
X151262000Y-97501400D02*
X148662000Y-97501400D01*
X151262000Y-97501400D02*
X151262000Y-100161400D01*
X152532000Y-97501400D02*
X153862000Y-97501400D01*
%TO.C,R30*%
X123064536Y-55954600D02*
X123518664Y-55954600D01*
X123064536Y-54484600D02*
X123518664Y-54484600D01*
%TO.C,R3*%
X115670000Y-76455536D02*
X115670000Y-76909664D01*
X114200000Y-76455536D02*
X114200000Y-76909664D01*
%TD*%
M02*
