M48
; DRILL file {KiCad (6.0.4)} date Fri Oct 20 23:50:35 2023
; FORMAT={-:-/ absolute / metric / decimal}
; #@! TF.CreationDate,2023-10-20T23:50:35+07:00
; #@! TF.GenerationSoftware,Kicad,Pcbnew,(6.0.4)
; #@! TF.FileFunction,MixedPlating,1,2
FMAT,2
METRIC
; #@! TA.AperFunction,Plated,PTH,ViaDrill
T1C0.400
; #@! TA.AperFunction,Plated,PTH,ComponentDrill
T2C0.900
; #@! TA.AperFunction,Plated,PTH,ComponentDrill
T3C1.000
; #@! TA.AperFunction,Plated,PTH,ComponentDrill
T4C1.190
; #@! TA.AperFunction,Plated,PTH,ComponentDrill
T5C1.400
; #@! TA.AperFunction,NonPlated,NPTH,ComponentDrill
T6C3.000
%
G90
G05
T1
X72.136Y-84.963
X76.454Y-91.542
X83.795Y-78.537
X83.795Y-79.426
X88.9Y-85.598
X89.865Y-85.598
X91.288Y-76.403
X92.812Y-78.207
X93.577Y-78.849
X95.987Y-80.086
X96.393Y-82.88
X96.393Y-84.023
X97.091Y-68.72
X100.096Y-69.057
X100.101Y-67.97
X100.279Y-70.409
X101.448Y-71.755
X102.743Y-66.98
X102.867Y-93.574
X102.87Y-92.583
X102.87Y-94.564
X104.292Y-53.645
X104.292Y-55.347
X105.994Y-60.325
X106.401Y-80.264
X106.401Y-81.407
X106.846Y-59.598
X107.569Y-64.592
X107.848Y-82.88
X107.848Y-84.023
X108.255Y-71.78
X109.931Y-61.747
X110.919Y-93.574
X110.922Y-92.583
X110.922Y-94.564
X111.455Y-66.7
X112.573Y-74.473
X112.801Y-65.989
X112.878Y-59.284
X113.944Y-70.358
X115.545Y-53.188
X115.546Y-54.736
X115.824Y-67.945
X116.764Y-64.922
X116.84Y-67.259
X117.653Y-52.476
X117.831Y-67.986
X117.856Y-80.264
X117.856Y-81.407
X118.364Y-78.13
X118.839Y-68.775
X119.355Y-82.88
X119.355Y-84.023
X119.837Y-66.446
X120.421Y-74.143
X120.828Y-55.245
X121.234Y-63.881
X122.834Y-73.66
X123.774Y-69.444
X124.206Y-51.181
X125.755Y-53.188
X125.828Y-93.574
X125.832Y-92.583
X125.832Y-94.564
X129.007Y-61.163
X129.362Y-80.264
X129.362Y-81.407
X129.692Y-66.7
X130.099Y-77.267
X130.835Y-82.88
X130.835Y-84.023
X131.47Y-58.699
X131.47Y-59.817
X131.877Y-66.726
X132.994Y-66.726
X133.807Y-69.24
X133.883Y-93.574
X133.887Y-92.583
X133.887Y-94.564
X134.493Y-73.025
X134.493Y-74.092
X137.427Y-66.764
X137.922Y-73.152
X140.97Y-82.093
X142.291Y-73.609
X144.755Y-80.264
X144.78Y-81.559
X144.831Y-86.817
X144.831Y-88.062
X145.974Y-78.334
X146.406Y-102.184
X147.726Y-102.184
X147.879Y-86.817
X147.879Y-88.062
X153.721Y-88.062
X153.721Y-89.941
X153.949Y-84.557
X154.127Y-75.641
X155.397Y-81.94
X159.182Y-79.197
T2
X162.89Y-88.348
X162.89Y-90.348
X162.89Y-92.348
T3
X91.99Y-64.151
X93.786Y-62.355
X95.582Y-60.559
X97.378Y-58.763
X139.3Y-58.763
X141.096Y-60.559
X142.892Y-62.355
X144.688Y-64.151
X149.992Y-98.831
X152.532Y-98.831
T4
X93.193Y-99.817
X95.733Y-99.817
X98.273Y-99.817
X100.813Y-99.817
X135.89Y-99.817
X138.43Y-99.817
X140.97Y-99.817
X143.51Y-99.817
T5
X162.89Y-86.198
X162.89Y-94.498
T6
X75.355Y-103.055
X88.097Y-70.526
X108.807Y-46.983
X127.882Y-46.983
X148.549Y-70.526
X161.272Y-103.055
T0
M30
