%TF.GenerationSoftware,KiCad,Pcbnew,(6.0.4)*%
%TF.CreationDate,2023-10-20T23:50:37+07:00*%
%TF.ProjectId,Minsys_V3.1,4d696e73-7973-45f5-9633-2e312e6b6963,rev?*%
%TF.SameCoordinates,Original*%
%TF.FileFunction,Paste,Bot*%
%TF.FilePolarity,Positive*%
%FSLAX46Y46*%
G04 Gerber Fmt 4.6, Leading zero omitted, Abs format (unit mm)*
G04 Created by KiCad (PCBNEW (6.0.4)) date 2023-10-20 23:50:37*
%MOMM*%
%LPD*%
G01*
G04 APERTURE LIST*
G04 Aperture macros list*
%AMRoundRect*
0 Rectangle with rounded corners*
0 $1 Rounding radius*
0 $2 $3 $4 $5 $6 $7 $8 $9 X,Y pos of 4 corners*
0 Add a 4 corners polygon primitive as box body*
4,1,4,$2,$3,$4,$5,$6,$7,$8,$9,$2,$3,0*
0 Add four circle primitives for the rounded corners*
1,1,$1+$1,$2,$3*
1,1,$1+$1,$4,$5*
1,1,$1+$1,$6,$7*
1,1,$1+$1,$8,$9*
0 Add four rect primitives between the rounded corners*
20,1,$1+$1,$2,$3,$4,$5,0*
20,1,$1+$1,$4,$5,$6,$7,0*
20,1,$1+$1,$6,$7,$8,$9,0*
20,1,$1+$1,$8,$9,$2,$3,0*%
%AMFreePoly0*
4,1,9,5.362500,-0.866500,1.237500,-0.866500,1.237500,-0.450000,-1.237500,-0.450000,-1.237500,0.450000,1.237500,0.450000,1.237500,0.866500,5.362500,0.866500,5.362500,-0.866500,5.362500,-0.866500,$1*%
G04 Aperture macros list end*
%ADD10R,2.750000X3.050000*%
%ADD11R,1.200000X2.200000*%
%ADD12R,2.000000X0.900000*%
%ADD13R,0.900000X2.000000*%
%ADD14R,5.000000X5.000000*%
%ADD15RoundRect,0.250000X-0.350000X-0.450000X0.350000X-0.450000X0.350000X0.450000X-0.350000X0.450000X0*%
%ADD16RoundRect,0.150000X-0.150000X0.650000X-0.150000X-0.650000X0.150000X-0.650000X0.150000X0.650000X0*%
%ADD17RoundRect,0.250000X0.350000X0.450000X-0.350000X0.450000X-0.350000X-0.450000X0.350000X-0.450000X0*%
%ADD18RoundRect,0.250000X0.337500X0.475000X-0.337500X0.475000X-0.337500X-0.475000X0.337500X-0.475000X0*%
%ADD19RoundRect,0.250000X-0.450000X0.350000X-0.450000X-0.350000X0.450000X-0.350000X0.450000X0.350000X0*%
%ADD20RoundRect,0.594000X-0.212132X-0.927724X0.927724X0.212132X0.212132X0.927724X-0.927724X-0.212132X0*%
%ADD21RoundRect,0.250000X-0.475000X0.337500X-0.475000X-0.337500X0.475000X-0.337500X0.475000X0.337500X0*%
%ADD22RoundRect,0.594000X-0.806000X-0.506000X0.806000X-0.506000X0.806000X0.506000X-0.806000X0.506000X0*%
%ADD23RoundRect,0.250000X-0.337500X-0.475000X0.337500X-0.475000X0.337500X0.475000X-0.337500X0.475000X0*%
%ADD24R,5.250000X4.550000*%
%ADD25R,1.100000X4.600000*%
%ADD26R,0.610000X2.000000*%
%ADD27R,2.680000X3.600000*%
%ADD28RoundRect,0.594000X0.927724X-0.212132X-0.212132X0.927724X-0.927724X0.212132X0.212132X-0.927724X0*%
%ADD29RoundRect,0.750000X0.750000X-1.750000X0.750000X1.750000X-0.750000X1.750000X-0.750000X-1.750000X0*%
%ADD30RoundRect,0.750000X-0.750000X1.750000X-0.750000X-1.750000X0.750000X-1.750000X0.750000X1.750000X0*%
%ADD31R,0.900000X2.300000*%
%ADD32FreePoly0,90.000000*%
G04 APERTURE END LIST*
D10*
%TO.C,Q2*%
X150368000Y-80553000D03*
X147318000Y-83903000D03*
X150368000Y-83903000D03*
X147318000Y-80553000D03*
D11*
X151123000Y-88528000D03*
X146563000Y-88528000D03*
%TD*%
D12*
%TO.C,U4*%
X109838600Y-79400400D03*
X109838600Y-78130400D03*
X109838600Y-76860400D03*
X109838600Y-75590400D03*
X109838600Y-74320400D03*
X109838600Y-73050400D03*
X109838600Y-71780400D03*
X109838600Y-70510400D03*
X109838600Y-69240400D03*
X109838600Y-67970400D03*
X109838600Y-66700400D03*
X109838600Y-65430400D03*
X109838600Y-64160400D03*
X109838600Y-62890400D03*
D13*
X112623600Y-61890400D03*
X113893600Y-61890400D03*
X115163600Y-61890400D03*
X116433600Y-61890400D03*
X117703600Y-61890400D03*
X118973600Y-61890400D03*
X120243600Y-61890400D03*
X121513600Y-61890400D03*
X122783600Y-61890400D03*
X124053600Y-61890400D03*
D12*
X126838600Y-62890400D03*
X126838600Y-64160400D03*
X126838600Y-65430400D03*
X126838600Y-66700400D03*
X126838600Y-67970400D03*
X126838600Y-69240400D03*
X126838600Y-70510400D03*
X126838600Y-71780400D03*
X126838600Y-73050400D03*
X126838600Y-74320400D03*
X126838600Y-75590400D03*
X126838600Y-76860400D03*
X126838600Y-78130400D03*
X126838600Y-79400400D03*
D14*
X117338600Y-71900400D03*
%TD*%
D15*
%TO.C,R9*%
X151119600Y-91414600D03*
X153119600Y-91414600D03*
%TD*%
D16*
%TO.C,U9*%
X137033000Y-70288600D03*
X138303000Y-70288600D03*
X139573000Y-70288600D03*
X140843000Y-70288600D03*
X140843000Y-77488600D03*
X139573000Y-77488600D03*
X138303000Y-77488600D03*
X137033000Y-77488600D03*
%TD*%
D17*
%TO.C,R10*%
X106105200Y-73837800D03*
X104105200Y-73837800D03*
%TD*%
D18*
%TO.C,C2*%
X106117300Y-69773800D03*
X104042300Y-69773800D03*
%TD*%
D19*
%TO.C,R34*%
X139141200Y-80102200D03*
X139141200Y-82102200D03*
%TD*%
D20*
%TO.C,D3*%
X96948449Y-64443151D03*
X100003151Y-61388449D03*
%TD*%
D21*
%TO.C,C14*%
X137033000Y-80064700D03*
X137033000Y-82139700D03*
%TD*%
D22*
%TO.C,D1*%
X83793600Y-76657200D03*
X88113600Y-76657200D03*
%TD*%
D23*
%TO.C,C9*%
X98555900Y-78130400D03*
X100630900Y-78130400D03*
%TD*%
D18*
%TO.C,C8*%
X106117300Y-78130400D03*
X104042300Y-78130400D03*
%TD*%
D24*
%TO.C,U1*%
X88271400Y-88961000D03*
X82721400Y-88961000D03*
X88271400Y-93811000D03*
X82721400Y-93811000D03*
D25*
X82096400Y-82236000D03*
X83796400Y-82236000D03*
X85496400Y-82236000D03*
X87196400Y-82236000D03*
X88896400Y-82236000D03*
%TD*%
D15*
%TO.C,R8*%
X146574000Y-91414600D03*
X148574000Y-91414600D03*
%TD*%
D26*
%TO.C,Sensor1*%
X113838600Y-58666400D03*
X114838600Y-58666400D03*
X115838600Y-58666400D03*
X116838600Y-58666400D03*
X117838600Y-58666400D03*
X118838600Y-58666400D03*
X119838600Y-58666400D03*
X120838600Y-58666400D03*
X121838600Y-58666400D03*
X122838600Y-58666400D03*
D27*
X110848600Y-55866400D03*
X125828600Y-55866400D03*
%TD*%
D28*
%TO.C,D4*%
X139754151Y-64443151D03*
X136699449Y-61388449D03*
%TD*%
D29*
%TO.C,M2*%
X108806800Y-93557800D03*
X104996800Y-93557800D03*
%TD*%
D17*
%TO.C,R19*%
X132648200Y-73558400D03*
X130648200Y-73558400D03*
%TD*%
%TO.C,R18*%
X132648200Y-75590400D03*
X130648200Y-75590400D03*
%TD*%
D15*
%TO.C,R11*%
X104105200Y-71831200D03*
X106105200Y-71831200D03*
%TD*%
%TO.C,R25*%
X130648200Y-62890400D03*
X132648200Y-62890400D03*
%TD*%
D30*
%TO.C,M1*%
X127958400Y-93557800D03*
X131768400Y-93557800D03*
%TD*%
D31*
%TO.C,Q4*%
X158700600Y-84827000D03*
D32*
X157200600Y-84739500D03*
D31*
X155700600Y-84827000D03*
%TD*%
D15*
%TO.C,R7*%
X151119600Y-93446600D03*
X153119600Y-93446600D03*
%TD*%
M02*
